%TF.GenerationSoftware,KiCad,Pcbnew,7.0.10*%
%TF.CreationDate,2024-11-30T16:41:06+05:30*%
%TF.ProjectId,Watch_v3,57617463-685f-4763-932e-6b696361645f,Watch_v3*%
%TF.SameCoordinates,Original*%
%TF.FileFunction,Copper,L1,Top*%
%TF.FilePolarity,Positive*%
%FSLAX46Y46*%
G04 Gerber Fmt 4.6, Leading zero omitted, Abs format (unit mm)*
G04 Created by KiCad (PCBNEW 7.0.10) date 2024-11-30 16:41:06*
%MOMM*%
%LPD*%
G01*
G04 APERTURE LIST*
G04 Aperture macros list*
%AMRoundRect*
0 Rectangle with rounded corners*
0 $1 Rounding radius*
0 $2 $3 $4 $5 $6 $7 $8 $9 X,Y pos of 4 corners*
0 Add a 4 corners polygon primitive as box body*
4,1,4,$2,$3,$4,$5,$6,$7,$8,$9,$2,$3,0*
0 Add four circle primitives for the rounded corners*
1,1,$1+$1,$2,$3*
1,1,$1+$1,$4,$5*
1,1,$1+$1,$6,$7*
1,1,$1+$1,$8,$9*
0 Add four rect primitives between the rounded corners*
20,1,$1+$1,$2,$3,$4,$5,0*
20,1,$1+$1,$4,$5,$6,$7,0*
20,1,$1+$1,$6,$7,$8,$9,0*
20,1,$1+$1,$8,$9,$2,$3,0*%
G04 Aperture macros list end*
%TA.AperFunction,ComponentPad*%
%ADD10R,2.500000X1.500000*%
%TD*%
%TA.AperFunction,ComponentPad*%
%ADD11O,2.500000X1.500000*%
%TD*%
%TA.AperFunction,SMDPad,CuDef*%
%ADD12C,1.500000*%
%TD*%
%TA.AperFunction,SMDPad,CuDef*%
%ADD13R,0.900000X0.900000*%
%TD*%
%TA.AperFunction,SMDPad,CuDef*%
%ADD14R,3.800000X3.800000*%
%TD*%
%TA.AperFunction,SMDPad,CuDef*%
%ADD15R,1.500000X0.900000*%
%TD*%
%TA.AperFunction,SMDPad,CuDef*%
%ADD16R,0.900000X1.500000*%
%TD*%
%TA.AperFunction,SMDPad,CuDef*%
%ADD17RoundRect,0.222222X0.577778X0.627778X-0.577778X0.627778X-0.577778X-0.627778X0.577778X-0.627778X0*%
%TD*%
%TA.AperFunction,SMDPad,CuDef*%
%ADD18R,1.000000X1.250000*%
%TD*%
%TA.AperFunction,ComponentPad*%
%ADD19O,1.700000X1.700000*%
%TD*%
%TA.AperFunction,ComponentPad*%
%ADD20R,1.700000X1.700000*%
%TD*%
%TA.AperFunction,SMDPad,CuDef*%
%ADD21RoundRect,0.140000X-0.170000X0.140000X-0.170000X-0.140000X0.170000X-0.140000X0.170000X0.140000X0*%
%TD*%
%TA.AperFunction,SMDPad,CuDef*%
%ADD22RoundRect,0.135000X0.185000X-0.135000X0.185000X0.135000X-0.185000X0.135000X-0.185000X-0.135000X0*%
%TD*%
%TA.AperFunction,SMDPad,CuDef*%
%ADD23RoundRect,0.140000X0.170000X-0.140000X0.170000X0.140000X-0.170000X0.140000X-0.170000X-0.140000X0*%
%TD*%
%TA.AperFunction,SMDPad,CuDef*%
%ADD24RoundRect,0.135000X-0.185000X0.135000X-0.185000X-0.135000X0.185000X-0.135000X0.185000X0.135000X0*%
%TD*%
%TA.AperFunction,SMDPad,CuDef*%
%ADD25RoundRect,0.147500X0.147500X0.172500X-0.147500X0.172500X-0.147500X-0.172500X0.147500X-0.172500X0*%
%TD*%
%TA.AperFunction,SMDPad,CuDef*%
%ADD26RoundRect,0.135000X-0.135000X-0.185000X0.135000X-0.185000X0.135000X0.185000X-0.135000X0.185000X0*%
%TD*%
%TA.AperFunction,SMDPad,CuDef*%
%ADD27RoundRect,0.150000X0.587500X0.150000X-0.587500X0.150000X-0.587500X-0.150000X0.587500X-0.150000X0*%
%TD*%
%TA.AperFunction,SMDPad,CuDef*%
%ADD28RoundRect,0.140000X-0.140000X-0.170000X0.140000X-0.170000X0.140000X0.170000X-0.140000X0.170000X0*%
%TD*%
%TA.AperFunction,SMDPad,CuDef*%
%ADD29RoundRect,0.150000X-0.512500X-0.150000X0.512500X-0.150000X0.512500X0.150000X-0.512500X0.150000X0*%
%TD*%
%TA.AperFunction,SMDPad,CuDef*%
%ADD30RoundRect,0.147500X-0.147500X-0.172500X0.147500X-0.172500X0.147500X0.172500X-0.147500X0.172500X0*%
%TD*%
%TA.AperFunction,SMDPad,CuDef*%
%ADD31RoundRect,0.135000X0.135000X0.185000X-0.135000X0.185000X-0.135000X-0.185000X0.135000X-0.185000X0*%
%TD*%
%TA.AperFunction,SMDPad,CuDef*%
%ADD32RoundRect,0.147500X0.172500X-0.147500X0.172500X0.147500X-0.172500X0.147500X-0.172500X-0.147500X0*%
%TD*%
%TA.AperFunction,SMDPad,CuDef*%
%ADD33RoundRect,0.140000X0.140000X0.170000X-0.140000X0.170000X-0.140000X-0.170000X0.140000X-0.170000X0*%
%TD*%
%TA.AperFunction,SMDPad,CuDef*%
%ADD34RoundRect,0.150000X-0.587500X-0.150000X0.587500X-0.150000X0.587500X0.150000X-0.587500X0.150000X0*%
%TD*%
%TA.AperFunction,ComponentPad*%
%ADD35O,1.000000X1.800000*%
%TD*%
%TA.AperFunction,ComponentPad*%
%ADD36O,1.000000X2.100000*%
%TD*%
%TA.AperFunction,SMDPad,CuDef*%
%ADD37RoundRect,0.150000X-0.150000X-0.425000X0.150000X-0.425000X0.150000X0.425000X-0.150000X0.425000X0*%
%TD*%
%TA.AperFunction,SMDPad,CuDef*%
%ADD38RoundRect,0.075000X-0.075000X-0.500000X0.075000X-0.500000X0.075000X0.500000X-0.075000X0.500000X0*%
%TD*%
%TA.AperFunction,SMDPad,CuDef*%
%ADD39R,3.350000X3.350000*%
%TD*%
%TA.AperFunction,SMDPad,CuDef*%
%ADD40RoundRect,0.062500X0.337500X-0.062500X0.337500X0.062500X-0.337500X0.062500X-0.337500X-0.062500X0*%
%TD*%
%TA.AperFunction,SMDPad,CuDef*%
%ADD41RoundRect,0.062500X0.062500X-0.337500X0.062500X0.337500X-0.062500X0.337500X-0.062500X-0.337500X0*%
%TD*%
%TA.AperFunction,ViaPad*%
%ADD42C,0.470000*%
%TD*%
%TA.AperFunction,Conductor*%
%ADD43C,0.170000*%
%TD*%
%TA.AperFunction,Conductor*%
%ADD44C,0.160000*%
%TD*%
G04 APERTURE END LIST*
D10*
%TO.P,SW2,1,A*%
%TO.N,Net-(SW2-A)*%
X136050000Y-75150000D03*
D11*
%TO.P,SW2,2,B*%
%TO.N,VBUS*%
X136050000Y-73150000D03*
%TO.P,SW2,3,C*%
%TO.N,unconnected-(SW2-C-Pad3)*%
X136050000Y-71150000D03*
%TD*%
D12*
%TO.P,J3,1,Pin_1*%
%TO.N,GND*%
X132425000Y-75800000D03*
%TO.P,J3,2,Pin_2*%
%TO.N,/27*%
X132425000Y-73950000D03*
%TO.P,J3,3,Pin_3*%
%TO.N,/14*%
X132425000Y-72100000D03*
%TO.P,J3,4,Pin_4*%
%TO.N,/12*%
X132425000Y-70250000D03*
%TD*%
D13*
%TO.P,U4,39,GND*%
%TO.N,GND*%
X154350000Y-62525000D03*
X154350000Y-61125000D03*
X154350000Y-59725000D03*
X152950000Y-62525000D03*
D14*
X152950000Y-61125000D03*
D13*
X152950000Y-61125000D03*
X152950000Y-59725000D03*
X151550000Y-62525000D03*
X151550000Y-61125000D03*
X151550000Y-59725000D03*
D15*
%TO.P,U4,38,GND*%
X163200000Y-53405000D03*
%TO.P,U4,37,IO23*%
%TO.N,unconnected-(U4-IO23-Pad37)*%
X163200000Y-54675000D03*
%TO.P,U4,36,IO22*%
%TO.N,/SCL*%
X163200000Y-55945000D03*
%TO.P,U4,35,TXD0/IO1*%
%TO.N,/RX*%
X163200000Y-57215000D03*
%TO.P,U4,34,RXD0/IO3*%
%TO.N,/TX*%
X163200000Y-58485000D03*
%TO.P,U4,33,IO21*%
%TO.N,/SDA*%
X163200000Y-59755000D03*
%TO.P,U4,32,NC*%
%TO.N,unconnected-(U4-NC-Pad32)*%
X163200000Y-61025000D03*
%TO.P,U4,31,IO19*%
%TO.N,unconnected-(U4-IO19-Pad31)*%
X163200000Y-62295000D03*
%TO.P,U4,30,IO18*%
%TO.N,/motor*%
X163200000Y-63565000D03*
%TO.P,U4,29,IO5*%
%TO.N,/Buzz*%
X163200000Y-64835000D03*
%TO.P,U4,28,IO17*%
%TO.N,/TX2*%
X163200000Y-66105000D03*
%TO.P,U4,27,IO16*%
%TO.N,/RX2*%
X163200000Y-67375000D03*
%TO.P,U4,26,IO4*%
%TO.N,unconnected-(U4-IO4-Pad26)*%
X163200000Y-68645000D03*
%TO.P,U4,25,IO0*%
%TO.N,/IO0*%
X163200000Y-69915000D03*
D16*
%TO.P,U4,24,IO2*%
%TO.N,unconnected-(U4-IO2-Pad24)*%
X160170000Y-71165000D03*
%TO.P,U4,23,IO15*%
%TO.N,unconnected-(U4-IO15-Pad23)*%
X158900000Y-71165000D03*
%TO.P,U4,22,SDI/SD1*%
%TO.N,unconnected-(U4-SDI{slash}SD1-Pad22)*%
X157630000Y-71165000D03*
%TO.P,U4,21,SDO/SD0*%
%TO.N,unconnected-(U4-SDO{slash}SD0-Pad21)*%
X156360000Y-71165000D03*
%TO.P,U4,20,SCK/CLK*%
%TO.N,unconnected-(U4-SCK{slash}CLK-Pad20)*%
X155090000Y-71165000D03*
%TO.P,U4,19,SCS/CMD*%
%TO.N,unconnected-(U4-SCS{slash}CMD-Pad19)*%
X153820000Y-71165000D03*
%TO.P,U4,18,SWP/SD3*%
%TO.N,unconnected-(U4-SWP{slash}SD3-Pad18)*%
X152550000Y-71165000D03*
%TO.P,U4,17,SHD/SD2*%
%TO.N,unconnected-(U4-SHD{slash}SD2-Pad17)*%
X151280000Y-71165000D03*
%TO.P,U4,16,IO13*%
%TO.N,unconnected-(U4-IO13-Pad16)*%
X150010000Y-71165000D03*
%TO.P,U4,15,GND*%
%TO.N,GND*%
X148740000Y-71165000D03*
D15*
%TO.P,U4,14,IO12*%
%TO.N,/12*%
X145700000Y-69915000D03*
%TO.P,U4,13,IO14*%
%TO.N,/14*%
X145700000Y-68645000D03*
%TO.P,U4,12,IO27*%
%TO.N,/27*%
X145700000Y-67375000D03*
%TO.P,U4,11,IO26*%
%TO.N,/Down*%
X145700000Y-66105000D03*
%TO.P,U4,10,IO25*%
%TO.N,/Mode*%
X145700000Y-64835000D03*
%TO.P,U4,9,IO33*%
%TO.N,/Up*%
X145700000Y-63565000D03*
%TO.P,U4,8,IO32*%
%TO.N,/Select*%
X145700000Y-62295000D03*
%TO.P,U4,7,IO35*%
%TO.N,/ADC_Batt*%
X145700000Y-61025000D03*
%TO.P,U4,6,IO34*%
%TO.N,unconnected-(U4-IO34-Pad6)*%
X145700000Y-59755000D03*
%TO.P,U4,5,SENSOR_VN*%
%TO.N,unconnected-(U4-SENSOR_VN-Pad5)*%
X145700000Y-58485000D03*
%TO.P,U4,4,SENSOR_VP*%
%TO.N,unconnected-(U4-SENSOR_VP-Pad4)*%
X145700000Y-57215000D03*
%TO.P,U4,3,EN*%
%TO.N,/EN*%
X145700000Y-55945000D03*
%TO.P,U4,2,VDD*%
%TO.N,Net-(U4-VDD)*%
X145700000Y-54675000D03*
%TO.P,U4,1,GND*%
%TO.N,GND*%
X145700000Y-53405000D03*
%TD*%
D17*
%TO.P,D1,C*%
%TO.N,Net-(Q1-D)*%
X143425000Y-85125000D03*
%TO.P,D1,A*%
%TO.N,Net-(Q1-G)*%
X147425000Y-85125000D03*
%TD*%
D18*
%TO.P,SW3,1,A*%
%TO.N,GND*%
X167513000Y-54734000D03*
%TO.P,SW3,2,B*%
%TO.N,/IO0*%
X167513000Y-62484000D03*
%TD*%
D19*
%TO.P,J7,7,Pin_7*%
%TO.N,GND*%
X162433000Y-74930000D03*
%TO.P,J7,6,Pin_6*%
%TO.N,unconnected-(J7-Pin_6-Pad6)*%
X159893000Y-74930000D03*
%TO.P,J7,5,Pin_5*%
%TO.N,unconnected-(J7-Pin_5-Pad5)*%
X157353000Y-74930000D03*
%TO.P,J7,4,Pin_4*%
%TO.N,unconnected-(J7-Pin_4-Pad4)*%
X154813000Y-74930000D03*
%TO.P,J7,3,Pin_3*%
%TO.N,/SDA*%
X152273000Y-74930000D03*
%TO.P,J7,2,Pin_2*%
%TO.N,/SCL*%
X149733000Y-74930000D03*
D20*
%TO.P,J7,1,Pin_1*%
%TO.N,+3.3V*%
X147193000Y-74930000D03*
%TD*%
D12*
%TO.P,J5,4,Pin_4*%
%TO.N,Net-(J5-Pin_4)*%
X169150000Y-64200000D03*
%TO.P,J5,3,Pin_3*%
%TO.N,/TX2*%
X169150000Y-66050000D03*
%TO.P,J5,2,Pin_2*%
%TO.N,/RX2*%
X169150000Y-67900000D03*
%TO.P,J5,1,Pin_1*%
%TO.N,GND*%
X169150000Y-69750000D03*
%TD*%
D21*
%TO.P,C26,1*%
%TO.N,GND*%
X139550000Y-94015000D03*
%TO.P,C26,2*%
%TO.N,/Down*%
X139550000Y-94975000D03*
%TD*%
D22*
%TO.P,R11,1*%
%TO.N,+3.3V*%
X165325000Y-72210000D03*
%TO.P,R11,2*%
%TO.N,Net-(D6-A)*%
X165325000Y-71190000D03*
%TD*%
D23*
%TO.P,C2,1*%
%TO.N,GND*%
X160850000Y-87055000D03*
%TO.P,C2,2*%
%TO.N,Net-(Q1-D)*%
X160850000Y-86095000D03*
%TD*%
D21*
%TO.P,C10,1*%
%TO.N,+3.3V*%
X144525000Y-77300000D03*
%TO.P,C10,2*%
%TO.N,GND*%
X144525000Y-78260000D03*
%TD*%
D24*
%TO.P,R32,1*%
%TO.N,Net-(U5-VDD)*%
X159125000Y-81200000D03*
%TO.P,R32,2*%
%TO.N,Net-(U5-~{RST})*%
X159125000Y-82220000D03*
%TD*%
D25*
%TO.P,D2,1,K*%
%TO.N,GND*%
X148617500Y-92150000D03*
%TO.P,D2,2,A*%
%TO.N,Net-(D2-A)*%
X147647500Y-92150000D03*
%TD*%
D26*
%TO.P,R3,2*%
%TO.N,GND*%
X151420000Y-82875000D03*
%TO.P,R3,1*%
%TO.N,Net-(Q1-G)*%
X150400000Y-82875000D03*
%TD*%
D27*
%TO.P,Q1,3,D*%
%TO.N,Net-(Q1-D)*%
X144375000Y-89625000D03*
%TO.P,Q1,2,S*%
%TO.N,+BATT*%
X146250000Y-88675000D03*
%TO.P,Q1,1,G*%
%TO.N,Net-(Q1-G)*%
X146250000Y-90575000D03*
%TD*%
D22*
%TO.P,R15,1*%
%TO.N,+3.3V*%
X165575000Y-67675000D03*
%TO.P,R15,2*%
%TO.N,/SCL*%
X165575000Y-66655000D03*
%TD*%
D26*
%TO.P,R31,1*%
%TO.N,/TX*%
X150415000Y-81550000D03*
%TO.P,R31,2*%
%TO.N,Net-(U5-TXD)*%
X151435000Y-81550000D03*
%TD*%
D22*
%TO.P,R39,1*%
%TO.N,+3.3V*%
X166625000Y-81460000D03*
%TO.P,R39,2*%
%TO.N,Net-(J6-Pin_2)*%
X166625000Y-80440000D03*
%TD*%
D28*
%TO.P,C15,1*%
%TO.N,VBUS*%
X164340000Y-82500000D03*
%TO.P,C15,2*%
%TO.N,GND*%
X165300000Y-82500000D03*
%TD*%
D23*
%TO.P,C25,1*%
%TO.N,GND*%
X142621000Y-51760000D03*
%TO.P,C25,2*%
%TO.N,/Mode*%
X142621000Y-50800000D03*
%TD*%
D24*
%TO.P,R23,1*%
%TO.N,/Select*%
X166243000Y-51054000D03*
%TO.P,R23,2*%
%TO.N,+3.3V*%
X166243000Y-52074000D03*
%TD*%
D21*
%TO.P,C14,1*%
%TO.N,+3.3V*%
X149605000Y-77328000D03*
%TO.P,C14,2*%
%TO.N,GND*%
X149605000Y-78288000D03*
%TD*%
D29*
%TO.P,U1,5,VOUT*%
%TO.N,Net-(U1-VOUT)*%
X143237500Y-79725000D03*
%TO.P,U1,4,NC*%
%TO.N,unconnected-(U1-NC-Pad4)*%
X143237500Y-81625000D03*
%TO.P,U1,3,EN*%
%TO.N,ENA*%
X140962500Y-81625000D03*
%TO.P,U1,2,GND*%
%TO.N,GND*%
X140962500Y-80675000D03*
%TO.P,U1,1,VIN*%
%TO.N,VBUS*%
X140962500Y-79725000D03*
%TD*%
D19*
%TO.P,J4,4,Pin_4*%
%TO.N,/SDA*%
X141850000Y-69280000D03*
%TO.P,J4,3,Pin_3*%
%TO.N,/SCL*%
X141850000Y-71820000D03*
%TO.P,J4,2,Pin_2*%
%TO.N,Net-(J4-Pin_2)*%
X141850000Y-74360000D03*
D20*
%TO.P,J4,1,Pin_1*%
%TO.N,GND*%
X141850000Y-76900000D03*
%TD*%
D30*
%TO.P,D3,1,K*%
%TO.N,Net-(D3-K)*%
X163415000Y-91925000D03*
%TO.P,D3,2,A*%
%TO.N,+5V*%
X164385000Y-91925000D03*
%TD*%
D28*
%TO.P,C5,2*%
%TO.N,VBUS*%
X151205000Y-85025000D03*
%TO.P,C5,1*%
%TO.N,GND*%
X150245000Y-85025000D03*
%TD*%
D18*
%TO.P,SW4,2,B*%
%TO.N,GND*%
X141150000Y-42475000D03*
%TO.P,SW4,1,A*%
%TO.N,/Mode*%
X141150000Y-50225000D03*
%TD*%
D22*
%TO.P,R24,1*%
%TO.N,/Up*%
X166225000Y-95160000D03*
%TO.P,R24,2*%
%TO.N,+3.3V*%
X166225000Y-94140000D03*
%TD*%
D23*
%TO.P,C18,1*%
%TO.N,GND*%
X167325000Y-74180000D03*
%TO.P,C18,2*%
%TO.N,+3.3V*%
X167325000Y-73220000D03*
%TD*%
D26*
%TO.P,R20,1*%
%TO.N,Net-(Q1-G)*%
X147951000Y-88900000D03*
%TO.P,R20,2*%
%TO.N,+5V*%
X148971000Y-88900000D03*
%TD*%
D12*
%TO.P,J6,4,Pin_4*%
%TO.N,/SDA*%
X169175000Y-71675000D03*
%TO.P,J6,3,Pin_3*%
%TO.N,/SCL*%
X169175000Y-73525000D03*
%TO.P,J6,2,Pin_2*%
%TO.N,Net-(J6-Pin_2)*%
X169175000Y-75375000D03*
%TO.P,J6,1,Pin_1*%
%TO.N,GND*%
X169175000Y-77225000D03*
%TD*%
D26*
%TO.P,R6,1*%
%TO.N,Net-(U3-~{CHRG})*%
X161990000Y-84875000D03*
%TO.P,R6,2*%
%TO.N,Net-(D4-K)*%
X163010000Y-84875000D03*
%TD*%
D24*
%TO.P,R17,1*%
%TO.N,/ADC_Batt*%
X142425000Y-88090000D03*
%TO.P,R17,2*%
%TO.N,GND*%
X142425000Y-89110000D03*
%TD*%
D31*
%TO.P,R2,1*%
%TO.N,Net-(J1-CC1)*%
X153289000Y-85025000D03*
%TO.P,R2,2*%
%TO.N,GND*%
X152269000Y-85025000D03*
%TD*%
D21*
%TO.P,C28,2*%
%TO.N,/Up*%
X169250000Y-95200000D03*
%TO.P,C28,1*%
%TO.N,GND*%
X169250000Y-94240000D03*
%TD*%
D26*
%TO.P,R7,1*%
%TO.N,GND*%
X165575000Y-91900000D03*
%TO.P,R7,2*%
%TO.N,Net-(U3-PROG)*%
X166595000Y-91900000D03*
%TD*%
D31*
%TO.P,R30,1*%
%TO.N,Net-(U5-RXD)*%
X151435000Y-80025000D03*
%TO.P,R30,2*%
%TO.N,/RX*%
X150415000Y-80025000D03*
%TD*%
D24*
%TO.P,R14,1*%
%TO.N,/SDA*%
X167650000Y-71225000D03*
%TO.P,R14,2*%
%TO.N,+3.3V*%
X167650000Y-72245000D03*
%TD*%
D26*
%TO.P,R8,2*%
%TO.N,/DTR*%
X165354000Y-77724000D03*
%TO.P,R8,1*%
%TO.N,Net-(Q2-B)*%
X164334000Y-77724000D03*
%TD*%
D23*
%TO.P,C3,1*%
%TO.N,GND*%
X160850000Y-90510000D03*
%TO.P,C3,2*%
%TO.N,Net-(Q1-G)*%
X160850000Y-89550000D03*
%TD*%
D26*
%TO.P,R26,2*%
%TO.N,Net-(J5-Pin_4)*%
X167710000Y-64350000D03*
%TO.P,R26,1*%
%TO.N,+3.3V*%
X166690000Y-64350000D03*
%TD*%
D21*
%TO.P,C17,1*%
%TO.N,GND*%
X149100000Y-79695000D03*
%TO.P,C17,2*%
%TO.N,+3.3V*%
X149100000Y-80655000D03*
%TD*%
D26*
%TO.P,R12,2*%
%TO.N,+3.3V*%
X143885000Y-64400000D03*
%TO.P,R12,1*%
%TO.N,/EN*%
X142865000Y-64400000D03*
%TD*%
D18*
%TO.P,SW1,2,B*%
%TO.N,/EN*%
X142113000Y-62106000D03*
%TO.P,SW1,1,A*%
%TO.N,GND*%
X142113000Y-54356000D03*
%TD*%
%TO.P,SW6,2,B*%
%TO.N,GND*%
X167800000Y-42575000D03*
%TO.P,SW6,1,A*%
%TO.N,/Select*%
X167800000Y-50325000D03*
%TD*%
D22*
%TO.P,R10,1*%
%TO.N,+3.3V*%
X165600000Y-70000000D03*
%TO.P,R10,2*%
%TO.N,Net-(D5-A)*%
X165600000Y-68980000D03*
%TD*%
D18*
%TO.P,SW5,2,B*%
%TO.N,GND*%
X141075000Y-102875000D03*
%TO.P,SW5,1,A*%
%TO.N,/Down*%
X141075000Y-95125000D03*
%TD*%
D23*
%TO.P,C4,1*%
%TO.N,Net-(U5-VDD)*%
X159150000Y-79635000D03*
%TO.P,C4,2*%
%TO.N,GND*%
X159150000Y-78675000D03*
%TD*%
D21*
%TO.P,C12,1*%
%TO.N,+3.3V*%
X147065000Y-77356000D03*
%TO.P,C12,2*%
%TO.N,GND*%
X147065000Y-78316000D03*
%TD*%
D22*
%TO.P,R37,1*%
%TO.N,+3.3V*%
X165600000Y-74165000D03*
%TO.P,R37,2*%
%TO.N,Net-(J4-Pin_2)*%
X165600000Y-73145000D03*
%TD*%
D32*
%TO.P,D5,1,K*%
%TO.N,/RX*%
X166850000Y-68845000D03*
%TO.P,D5,2,A*%
%TO.N,Net-(D5-A)*%
X166850000Y-67875000D03*
%TD*%
D26*
%TO.P,R38,1*%
%TO.N,+5V*%
X166440000Y-84875000D03*
%TO.P,R38,2*%
%TO.N,Net-(U3-VCC)*%
X167460000Y-84875000D03*
%TD*%
D24*
%TO.P,R25,1*%
%TO.N,+3.3V*%
X150985000Y-77298000D03*
%TO.P,R25,2*%
%TO.N,Net-(U1-VOUT)*%
X150985000Y-78318000D03*
%TD*%
D23*
%TO.P,C27,1*%
%TO.N,GND*%
X169291000Y-52014000D03*
%TO.P,C27,2*%
%TO.N,/Select*%
X169291000Y-51054000D03*
%TD*%
D29*
%TO.P,U2,1,VIN*%
%TO.N,VBUS*%
X145287500Y-79650000D03*
%TO.P,U2,2,GND*%
%TO.N,GND*%
X145287500Y-80600000D03*
%TO.P,U2,3,EN*%
%TO.N,ENA*%
X145287500Y-81550000D03*
%TO.P,U2,4,NC*%
%TO.N,unconnected-(U2-NC-Pad4)*%
X147562500Y-81550000D03*
%TO.P,U2,5,VOUT*%
%TO.N,Net-(U1-VOUT)*%
X147562500Y-79650000D03*
%TD*%
D33*
%TO.P,C1,1*%
%TO.N,+5V*%
X159580000Y-85100000D03*
%TO.P,C1,2*%
%TO.N,GND*%
X158620000Y-85100000D03*
%TD*%
D32*
%TO.P,D6,1,K*%
%TO.N,/TX*%
X166525000Y-72185000D03*
%TO.P,D6,2,A*%
%TO.N,Net-(D6-A)*%
X166525000Y-71215000D03*
%TD*%
D28*
%TO.P,C9,1*%
%TO.N,GND*%
X139540000Y-54150000D03*
%TO.P,C9,2*%
%TO.N,Net-(U4-VDD)*%
X140500000Y-54150000D03*
%TD*%
D21*
%TO.P,C13,1*%
%TO.N,+3.3V*%
X148335000Y-77328000D03*
%TO.P,C13,2*%
%TO.N,GND*%
X148335000Y-78288000D03*
%TD*%
D26*
%TO.P,R5,1*%
%TO.N,Net-(U3-~{STDBY})*%
X161305000Y-91900000D03*
%TO.P,R5,2*%
%TO.N,Net-(D3-K)*%
X162325000Y-91900000D03*
%TD*%
D12*
%TO.P,J8,1,Pin_1*%
%TO.N,GND*%
X169225000Y-92300000D03*
%TO.P,J8,2,Pin_2*%
%TO.N,/TX*%
X169225000Y-90450000D03*
%TO.P,J8,3,Pin_3*%
%TO.N,/RX*%
X169225000Y-88600000D03*
%TO.P,J8,4,Pin_4*%
%TO.N,+5V*%
X169225000Y-86750000D03*
%TD*%
D28*
%TO.P,C16,1*%
%TO.N,VBUS*%
X164365000Y-78875000D03*
%TO.P,C16,2*%
%TO.N,GND*%
X165325000Y-78875000D03*
%TD*%
%TO.P,C6,1*%
%TO.N,GND*%
X154375000Y-85025000D03*
%TO.P,C6,2*%
%TO.N,VBUS*%
X155335000Y-85025000D03*
%TD*%
D23*
%TO.P,C19,1*%
%TO.N,GND*%
X165575000Y-76140000D03*
%TO.P,C19,2*%
%TO.N,+3.3V*%
X165575000Y-75180000D03*
%TD*%
D26*
%TO.P,R1,2*%
%TO.N,GND*%
X157495000Y-85025000D03*
%TO.P,R1,1*%
%TO.N,Net-(J1-CC2)*%
X156475000Y-85025000D03*
%TD*%
%TO.P,R9,1*%
%TO.N,Net-(Q3-B)*%
X164336000Y-81280000D03*
%TO.P,R9,2*%
%TO.N,/RTS*%
X165356000Y-81280000D03*
%TD*%
D24*
%TO.P,R16,1*%
%TO.N,+BATT*%
X141150000Y-88115000D03*
%TO.P,R16,2*%
%TO.N,/ADC_Batt*%
X141150000Y-89135000D03*
%TD*%
%TO.P,R34,1*%
%TO.N,VBUS*%
X140900000Y-84665000D03*
%TO.P,R34,2*%
%TO.N,Net-(Q1-D)*%
X140900000Y-85685000D03*
%TD*%
%TO.P,R21,1*%
%TO.N,/Mode*%
X139573000Y-50796000D03*
%TO.P,R21,2*%
%TO.N,+3.3V*%
X139573000Y-51816000D03*
%TD*%
D18*
%TO.P,SW7,2,B*%
%TO.N,GND*%
X167725000Y-103050000D03*
%TO.P,SW7,1,A*%
%TO.N,/Up*%
X167725000Y-95300000D03*
%TD*%
D22*
%TO.P,R13,1*%
%TO.N,/IO0*%
X165862000Y-54612000D03*
%TO.P,R13,2*%
%TO.N,+3.3V*%
X165862000Y-53592000D03*
%TD*%
D34*
%TO.P,Q3,1,B*%
%TO.N,Net-(Q3-B)*%
X160939000Y-81600000D03*
%TO.P,Q3,2,E*%
%TO.N,/DTR*%
X160939000Y-83500000D03*
%TO.P,Q3,3,C*%
%TO.N,/IO0*%
X162814000Y-82550000D03*
%TD*%
D30*
%TO.P,D4,1,K*%
%TO.N,Net-(D4-K)*%
X164330000Y-84875000D03*
%TO.P,D4,2,A*%
%TO.N,+5V*%
X165300000Y-84875000D03*
%TD*%
D23*
%TO.P,C8,1*%
%TO.N,GND*%
X169418000Y-54582000D03*
%TO.P,C8,2*%
%TO.N,/IO0*%
X169418000Y-53622000D03*
%TD*%
D22*
%TO.P,R22,1*%
%TO.N,/Down*%
X142600000Y-94950000D03*
%TO.P,R22,2*%
%TO.N,+3.3V*%
X142600000Y-93930000D03*
%TD*%
D26*
%TO.P,R4,1*%
%TO.N,+3.3V*%
X145490000Y-92150000D03*
%TO.P,R4,2*%
%TO.N,Net-(D2-A)*%
X146510000Y-92150000D03*
%TD*%
D21*
%TO.P,C11,1*%
%TO.N,+3.3V*%
X145795000Y-77300000D03*
%TO.P,C11,2*%
%TO.N,GND*%
X145795000Y-78260000D03*
%TD*%
D23*
%TO.P,C20,1*%
%TO.N,GND*%
X166875000Y-76480000D03*
%TO.P,C20,2*%
%TO.N,+3.3V*%
X166875000Y-75520000D03*
%TD*%
D35*
%TO.P,J1,S1,SHIELD*%
%TO.N,GND*%
X159133000Y-91499000D03*
D36*
X159133000Y-87319000D03*
D35*
X150493000Y-91499000D03*
D36*
X150493000Y-87319000D03*
D37*
%TO.P,J1,B12,GND*%
X151613000Y-86744000D03*
%TO.P,J1,B9,VBUS*%
%TO.N,+5V*%
X152413000Y-86744000D03*
D38*
%TO.P,J1,B8,SBU2*%
%TO.N,unconnected-(J1-SBU2-PadB8)*%
X153063000Y-86744000D03*
%TO.P,J1,B7,D-*%
%TO.N,/D-*%
X154063000Y-86744000D03*
%TO.P,J1,B6,D+*%
%TO.N,/D+*%
X155563000Y-86744000D03*
%TO.P,J1,B5,CC2*%
%TO.N,Net-(J1-CC2)*%
X156563000Y-86744000D03*
D37*
%TO.P,J1,B4,VBUS*%
%TO.N,+5V*%
X157213000Y-86744000D03*
%TO.P,J1,B1,GND*%
%TO.N,GND*%
X158013000Y-86744000D03*
%TO.P,J1,A12,GND*%
X158013000Y-86744000D03*
%TO.P,J1,A9,VBUS*%
%TO.N,+5V*%
X157213000Y-86744000D03*
D38*
%TO.P,J1,A8,SBU1*%
%TO.N,unconnected-(J1-SBU1-PadA8)*%
X156063000Y-86744000D03*
%TO.P,J1,A7,D-*%
%TO.N,/D-*%
X155063000Y-86744000D03*
%TO.P,J1,A6,D+*%
%TO.N,/D+*%
X154563000Y-86744000D03*
%TO.P,J1,A5,CC1*%
%TO.N,Net-(J1-CC1)*%
X153563000Y-86744000D03*
D37*
%TO.P,J1,A4,VBUS*%
%TO.N,+5V*%
X152413000Y-86744000D03*
%TO.P,J1,A1,GND*%
%TO.N,GND*%
X151613000Y-86744000D03*
%TD*%
D34*
%TO.P,Q2,1,B*%
%TO.N,Net-(Q2-B)*%
X160939000Y-77790000D03*
%TO.P,Q2,2,E*%
%TO.N,/RTS*%
X160939000Y-79690000D03*
%TO.P,Q2,3,C*%
%TO.N,/EN*%
X162814000Y-78740000D03*
%TD*%
D39*
%TO.P,U5,29,GND*%
%TO.N,GND*%
X155225000Y-80100000D03*
D40*
%TO.P,U5,28,~{DTR}*%
%TO.N,/DTR*%
X152775000Y-81600000D03*
%TO.P,U5,27,~{DSR}*%
%TO.N,unconnected-(U5-~{DSR}-Pad27)*%
X152775000Y-81100000D03*
%TO.P,U5,26,TXD*%
%TO.N,Net-(U5-TXD)*%
X152775000Y-80600000D03*
%TO.P,U5,25,RXD*%
%TO.N,Net-(U5-RXD)*%
X152775000Y-80100000D03*
%TO.P,U5,24,~{RTS}*%
%TO.N,/RTS*%
X152775000Y-79600000D03*
%TO.P,U5,23,~{CTS}*%
%TO.N,unconnected-(U5-~{CTS}-Pad23)*%
X152775000Y-79100000D03*
%TO.P,U5,22,GPIO.4*%
%TO.N,unconnected-(U5-GPIO.4-Pad22)*%
X152775000Y-78600000D03*
D41*
%TO.P,U5,21,GPIO.5*%
%TO.N,unconnected-(U5-GPIO.5-Pad21)*%
X153725000Y-77650000D03*
%TO.P,U5,20,GPIO.6*%
%TO.N,unconnected-(U5-GPIO.6-Pad20)*%
X154225000Y-77650000D03*
%TO.P,U5,19,~{TXT}/GPIO.0*%
%TO.N,unconnected-(U5-~{TXT}{slash}GPIO.0-Pad19)*%
X154725000Y-77650000D03*
%TO.P,U5,18,~{RXT}/GPIO.1*%
%TO.N,unconnected-(U5-~{RXT}{slash}GPIO.1-Pad18)*%
X155225000Y-77650000D03*
%TO.P,U5,17,RS485/GPIO.2*%
%TO.N,unconnected-(U5-RS485{slash}GPIO.2-Pad17)*%
X155725000Y-77650000D03*
%TO.P,U5,16,~{WAKEUP}/GPIO.3*%
%TO.N,unconnected-(U5-~{WAKEUP}{slash}GPIO.3-Pad16)*%
X156225000Y-77650000D03*
%TO.P,U5,15,CHR0*%
%TO.N,unconnected-(U5-CHR0-Pad15)*%
X156725000Y-77650000D03*
D40*
%TO.P,U5,14,CHR1*%
%TO.N,unconnected-(U5-CHR1-Pad14)*%
X157675000Y-78600000D03*
%TO.P,U5,13,CHREN*%
%TO.N,unconnected-(U5-CHREN-Pad13)*%
X157675000Y-79100000D03*
%TO.P,U5,12,SUSPEND*%
%TO.N,unconnected-(U5-SUSPEND-Pad12)*%
X157675000Y-79600000D03*
%TO.P,U5,11,~{SUSPEND}*%
%TO.N,unconnected-(U5-~{SUSPEND}-Pad11)*%
X157675000Y-80100000D03*
%TO.P,U5,10,NC*%
%TO.N,unconnected-(U5-NC-Pad10)*%
X157675000Y-80600000D03*
%TO.P,U5,9,~{RST}*%
%TO.N,Net-(U5-~{RST})*%
X157675000Y-81100000D03*
%TO.P,U5,8,VBUS*%
%TO.N,Net-(U5-VBUS)*%
X157675000Y-81600000D03*
D41*
%TO.P,U5,7,VREGIN*%
%TO.N,VBUS*%
X156725000Y-82550000D03*
%TO.P,U5,6,VDD*%
%TO.N,Net-(U5-VDD)*%
X156225000Y-82550000D03*
%TO.P,U5,5,D-*%
%TO.N,/D-*%
X155725000Y-82550000D03*
%TO.P,U5,4,D+*%
%TO.N,/D+*%
X155225000Y-82550000D03*
%TO.P,U5,3,GND*%
%TO.N,GND*%
X154725000Y-82550000D03*
%TO.P,U5,2,~{RI}/CLK*%
%TO.N,unconnected-(U5-~{RI}{slash}CLK-Pad2)*%
X154225000Y-82550000D03*
%TO.P,U5,1,~{DCD}*%
%TO.N,unconnected-(U5-~{DCD}-Pad1)*%
X153725000Y-82550000D03*
%TD*%
D24*
%TO.P,R19,2*%
%TO.N,ENA*%
X139300000Y-75946000D03*
%TO.P,R19,1*%
%TO.N,Net-(SW2-A)*%
X139300000Y-74926000D03*
%TD*%
%TO.P,R27,1*%
%TO.N,+3.3V*%
X139350000Y-61725000D03*
%TO.P,R27,2*%
%TO.N,Net-(Q4-Pad3)*%
X139350000Y-62745000D03*
%TD*%
D23*
%TO.P,C7,2*%
%TO.N,/EN*%
X143800000Y-62195000D03*
%TO.P,C7,1*%
%TO.N,GND*%
X143800000Y-63155000D03*
%TD*%
D42*
%TO.N,GND*%
X154525000Y-91500000D03*
X157875000Y-91425000D03*
X156875000Y-91525000D03*
X155625000Y-91500000D03*
X143025000Y-91750000D03*
X142500000Y-90300000D03*
X142550000Y-90925000D03*
X142375000Y-91700000D03*
X142300000Y-92450000D03*
X149325000Y-85325000D03*
X149325000Y-84675000D03*
X147525000Y-82775000D03*
X146525000Y-82750000D03*
X146450000Y-81725000D03*
X142100000Y-81850000D03*
X142150000Y-81100000D03*
X148075000Y-69050000D03*
X147275000Y-56150000D03*
X148375000Y-57125000D03*
X147775000Y-57750000D03*
X147650000Y-56900000D03*
X150600000Y-53300000D03*
X156225000Y-59350000D03*
X156850000Y-56525000D03*
X167225000Y-96425000D03*
X166400000Y-97325000D03*
X167000000Y-97900000D03*
X167025000Y-98800000D03*
X166900000Y-99625000D03*
X166275000Y-98000000D03*
X166375000Y-98650000D03*
X166300000Y-99150000D03*
X166275000Y-99875000D03*
X167150000Y-100250000D03*
X166925000Y-100850000D03*
X166425000Y-100550000D03*
X166425000Y-101325000D03*
X166575000Y-101825000D03*
X167200000Y-101675000D03*
X169150000Y-101275000D03*
X168825000Y-102000000D03*
X168550000Y-101500000D03*
X168525000Y-100850000D03*
X168375000Y-100075000D03*
X169100000Y-100400000D03*
X168925000Y-99650000D03*
X168625000Y-99075000D03*
X169100000Y-98625000D03*
X169125000Y-97600000D03*
X168550000Y-98150000D03*
X167900000Y-97375000D03*
X168500000Y-96675000D03*
X167650000Y-96925000D03*
X167000000Y-97025000D03*
X166475000Y-96700000D03*
X141275000Y-96525000D03*
X142050000Y-96525000D03*
X142625000Y-96675000D03*
X142500000Y-98125000D03*
X142300000Y-97300000D03*
X141600000Y-97275000D03*
X141800000Y-97925000D03*
X141850000Y-98575000D03*
X141725000Y-99325000D03*
X142300000Y-98800000D03*
X142575000Y-99325000D03*
X142400000Y-99850000D03*
X141750000Y-100225000D03*
X140250000Y-101100000D03*
X139475000Y-101225000D03*
X140025000Y-100275000D03*
X140250000Y-99375000D03*
X139475000Y-99250000D03*
X140100000Y-98475000D03*
X140350000Y-97600000D03*
X139775000Y-97325000D03*
X142575000Y-47650000D03*
X142250000Y-48400000D03*
X140700000Y-44575000D03*
X140450000Y-43700000D03*
X141650000Y-43675000D03*
X141650000Y-44625000D03*
X141825000Y-46025000D03*
X142525000Y-45725000D03*
X141800000Y-46900000D03*
X142000000Y-47650000D03*
X140775000Y-46550000D03*
X140675000Y-48825000D03*
X139650000Y-48875000D03*
X140250000Y-48275000D03*
X140250000Y-47450000D03*
X139725000Y-47800000D03*
X139700000Y-46825000D03*
X139700000Y-46225000D03*
X139700000Y-45525000D03*
X140400000Y-45050000D03*
X140400000Y-45975000D03*
X142475000Y-46525000D03*
X141975000Y-45400000D03*
X142050000Y-44125000D03*
X140000000Y-44375000D03*
X168525000Y-45400000D03*
X167650000Y-44800000D03*
X167425000Y-45475000D03*
X167675000Y-46550000D03*
X168925000Y-47025000D03*
X168575000Y-47575000D03*
X169150000Y-48575000D03*
X167700000Y-48175000D03*
X166375000Y-47025000D03*
X166350000Y-48700000D03*
X167125000Y-47550000D03*
X168425000Y-46275000D03*
X166450000Y-45300000D03*
X166725000Y-46025000D03*
X166850000Y-44600000D03*
X166225000Y-44325000D03*
X145300000Y-82825000D03*
X143750000Y-83025000D03*
X140200000Y-83850000D03*
X141200000Y-83175000D03*
X155675000Y-90425000D03*
%TO.N,*%
X162425000Y-81575000D03*
X161325000Y-82575000D03*
%TO.N,GND*%
X143500000Y-83750000D03*
X142425000Y-83750000D03*
X143200000Y-86425000D03*
X146525000Y-83900000D03*
X144925000Y-84000000D03*
X152500000Y-54200000D03*
X154700000Y-53625000D03*
X148625000Y-53350000D03*
X152250000Y-58775000D03*
X151850000Y-58275000D03*
X149925000Y-56350000D03*
X151275000Y-57350000D03*
X154100000Y-55925000D03*
X154875000Y-56000000D03*
%TO.N,*%
X161750000Y-71475000D03*
X161825000Y-69650000D03*
%TO.N,GND*%
X147250000Y-59775000D03*
%TO.N,*%
X160475000Y-66675000D03*
X161450000Y-67000000D03*
%TO.N,GND*%
X147725000Y-53975000D03*
X148125000Y-54775000D03*
X151225000Y-56000000D03*
X151900000Y-56250000D03*
X152350000Y-56950000D03*
X154325000Y-57950000D03*
X158950000Y-54475000D03*
X158650000Y-53850000D03*
X158100000Y-54525000D03*
X157725000Y-53675000D03*
X157450000Y-54525000D03*
X156650000Y-54125000D03*
X156400000Y-54975000D03*
X155700000Y-54700000D03*
X150725000Y-55050000D03*
X151425000Y-54350000D03*
X153050000Y-53525000D03*
X155825000Y-53875000D03*
X151825000Y-53725000D03*
X149425000Y-54175000D03*
X149825000Y-53575000D03*
X151475000Y-55175000D03*
X154250000Y-57200000D03*
X153600000Y-57525000D03*
X152925000Y-56875000D03*
X152800000Y-56100000D03*
X154800000Y-54900000D03*
X153050000Y-54925000D03*
X152050000Y-54875000D03*
X152475000Y-55425000D03*
X154375000Y-56500000D03*
X153575000Y-56550000D03*
X153375000Y-55600000D03*
X154400000Y-55400000D03*
X154875000Y-54325000D03*
X153950000Y-54025000D03*
X153825000Y-54950000D03*
X153350000Y-54100000D03*
X142050000Y-101025000D03*
X140350000Y-93775000D03*
%TO.N,/SDA*%
X166641988Y-77334035D03*
X165050000Y-76825000D03*
%TO.N,+3.3V*%
X167425000Y-74925000D03*
%TO.N,/SDA*%
X167950000Y-70400000D03*
X159425000Y-72975000D03*
%TO.N,VBUS*%
X146550000Y-80800000D03*
X141350000Y-78650000D03*
%TO.N,unconnected-(U6-NC-Pad14)*%
X157725000Y-69025000D03*
X151225000Y-68950000D03*
%TO.N,GND*%
X150625000Y-69675000D03*
%TO.N,/TX*%
X161325000Y-60050000D03*
X161150000Y-64675000D03*
X160525000Y-72850000D03*
X152150000Y-77150000D03*
%TO.N,GND*%
X137775000Y-72200000D03*
X133775000Y-76750000D03*
%TO.N,/27*%
X135850000Y-69375000D03*
X133800000Y-73875000D03*
X134250000Y-68250000D03*
X144250000Y-67300000D03*
%TO.N,/14*%
X144200000Y-68600000D03*
X138650000Y-68225000D03*
X133825000Y-71100000D03*
X140267719Y-67842719D03*
%TO.N,/12*%
X139975000Y-70525000D03*
X144050000Y-70175000D03*
%TO.N,/EN*%
X149750000Y-58500000D03*
X148200000Y-61550000D03*
X149475000Y-65475000D03*
X149525000Y-64400000D03*
X151100000Y-65725000D03*
X163900000Y-76075000D03*
X161175000Y-78700000D03*
%TO.N,/RX*%
X164400000Y-71600000D03*
X166655798Y-79305583D03*
X169200000Y-83025000D03*
X168137500Y-83162500D03*
%TO.N,Net-(J6-Pin_2)*%
X167700000Y-76675000D03*
X168550000Y-80250000D03*
%TO.N,/SCL*%
X168341812Y-74601325D03*
X168200000Y-66925000D03*
X164725000Y-66625000D03*
X166010115Y-64249676D03*
X165192719Y-63432281D03*
X164950000Y-60050000D03*
%TO.N,GND*%
X168125000Y-68625000D03*
X169375000Y-57000000D03*
%TO.N,+3.3V*%
X165889046Y-71703608D03*
X166350000Y-69525000D03*
X168108000Y-73044178D03*
%TO.N,Net-(U1-VOUT)*%
X148700000Y-78950000D03*
X151651500Y-77651500D03*
%TO.N,+3.3V*%
X148124997Y-80375003D03*
X150250000Y-79100000D03*
%TO.N,/TX*%
X161275000Y-57950000D03*
X164750000Y-57425000D03*
X166175000Y-58275000D03*
X167350000Y-65941000D03*
X167132590Y-70267412D03*
X168150000Y-65225000D03*
%TO.N,Net-(J4-Pin_2)*%
X164480219Y-74794781D03*
X166497478Y-72868546D03*
X164425000Y-70175000D03*
X145200000Y-74775000D03*
X144450000Y-76500000D03*
%TO.N,/Down*%
X138100000Y-76975000D03*
X138375000Y-69175000D03*
%TO.N,/TX*%
X152475000Y-90600000D03*
X152475001Y-82450001D03*
X158900000Y-90075000D03*
X160350000Y-91925000D03*
X166675000Y-93250000D03*
X168025006Y-91650000D03*
%TO.N,+3.3V*%
X161500000Y-66025000D03*
X164675000Y-64650000D03*
%TO.N,/RX*%
X166300000Y-65200000D03*
X167714490Y-69824308D03*
%TO.N,GND*%
X151000000Y-58500000D03*
X144425000Y-61175000D03*
%TO.N,/Up*%
X147250000Y-62550000D03*
X148275000Y-67950000D03*
X147525000Y-63725000D03*
X149225000Y-69600000D03*
X160425000Y-68225000D03*
X168025000Y-79125000D03*
X166275000Y-79800000D03*
X166800000Y-83650000D03*
%TO.N,+5V*%
X169148000Y-84725000D03*
X166200000Y-84100000D03*
%TO.N,/Up*%
X168163784Y-92708160D03*
X168150000Y-94109001D03*
%TO.N,GND*%
X147750000Y-72400000D03*
%TO.N,/SCL*%
X150275000Y-61425000D03*
X155600000Y-60075000D03*
X148067000Y-65900000D03*
X156587500Y-62087500D03*
%TO.N,/SDA*%
X155475000Y-61149998D03*
X148725000Y-65775000D03*
X150225000Y-62525000D03*
%TO.N,GND*%
X168350000Y-43875000D03*
X169650000Y-52700000D03*
%TO.N,/IO0*%
X166117000Y-55275000D03*
X167975000Y-56925000D03*
%TO.N,Net-(Q4-Pad3)*%
X140525000Y-62675000D03*
%TO.N,+3.3V*%
X140875000Y-61800000D03*
X142125000Y-63600000D03*
%TO.N,Net-(U6-VDD)*%
X152861123Y-72512324D03*
X155950000Y-72550000D03*
%TO.N,Net-(U5-VBUS)*%
X157850000Y-82725000D03*
%TO.N,Net-(U5-~{RST})*%
X158875000Y-80350000D03*
X160550000Y-82425000D03*
%TO.N,VBUS*%
X155525000Y-84050000D03*
X157208000Y-82125000D03*
X139900000Y-82675000D03*
X139825000Y-79900000D03*
%TO.N,+3.3V*%
X152275000Y-64950000D03*
X144050000Y-65325000D03*
%TO.N,Net-(Q1-D)*%
X143950000Y-87650000D03*
X144950000Y-86125000D03*
%TO.N,+3.3V*%
X146250000Y-86825000D03*
X144025000Y-91475000D03*
%TO.N,Net-(Q1-G)*%
X158700000Y-89400000D03*
X160002952Y-89722567D03*
%TO.N,/Mode*%
X141425000Y-51625000D03*
X150325000Y-57000000D03*
%TO.N,GND*%
X153675000Y-65125000D03*
X152250000Y-64125000D03*
%TO.N,/motor*%
X156600000Y-65125000D03*
X154916790Y-65019646D03*
X161750000Y-64100000D03*
%TO.N,+3.3V*%
X164950000Y-53775000D03*
X165275000Y-60750000D03*
%TO.N,/IO0*%
X167219936Y-53090503D03*
X168450000Y-52575000D03*
%TO.N,/Select*%
X149050000Y-55600000D03*
X167475000Y-51975000D03*
%TO.N,GND*%
X168700000Y-85651493D03*
%TO.N,+BATT*%
X162075000Y-91075000D03*
X161104000Y-88552926D03*
X158287093Y-88934818D03*
X147325000Y-87650000D03*
X150000000Y-89375000D03*
%TO.N,Net-(U3-~{STDBY})*%
X160892671Y-91176999D03*
%TO.N,Net-(U3-VCC)*%
X167574998Y-83808000D03*
%TO.N,+3.3V*%
X167804000Y-81475000D03*
X167075000Y-94075000D03*
%TO.N,GND*%
X169600000Y-93525000D03*
X169750000Y-96225000D03*
%TO.N,VBUS*%
X165225000Y-80375000D03*
X164350000Y-83500000D03*
%TO.N,/DTR*%
X158425000Y-84250000D03*
X153213055Y-82199798D03*
%TO.N,VBUS*%
X152050000Y-83800000D03*
X148825000Y-82375000D03*
%TO.N,/DTR*%
X166100000Y-83225000D03*
X166900000Y-77900000D03*
%TO.N,/IO0*%
X164575000Y-75675000D03*
X163125000Y-81525000D03*
%TO.N,+3.3V*%
X164600000Y-67975000D03*
X166690000Y-65767000D03*
%TO.N,/IO0*%
X165525000Y-62225000D03*
X161675000Y-68100000D03*
%TO.N,/SDA*%
X156075000Y-63950000D03*
%TO.N,/SCL*%
X159225000Y-58800000D03*
%TO.N,Net-(U4-VDD)*%
X139525000Y-55150000D03*
X139825000Y-53175000D03*
X143850000Y-56250000D03*
%TO.N,+3.3V*%
X139092000Y-55775000D03*
%TO.N,/EN*%
X143900000Y-59900000D03*
X143199996Y-61100000D03*
%TO.N,+3.3V*%
X141975000Y-53150000D03*
%TO.N,GND*%
X144147366Y-53113000D03*
X142475000Y-49225000D03*
X141700000Y-55450000D03*
X157950000Y-57425000D03*
%TO.N,/Buzz*%
X160500000Y-59750000D03*
%TO.N,GND*%
X159625000Y-57675000D03*
X152550000Y-66325000D03*
X157675000Y-65875000D03*
%TO.N,+3.3V*%
X158425000Y-64475000D03*
X151532716Y-67882334D03*
%TO.N,/ADC_Batt*%
X139350000Y-68100000D03*
X143100000Y-87750000D03*
%TO.N,GND*%
X141250000Y-90575000D03*
%TO.N,+BATT*%
X141100000Y-87025000D03*
%TO.N,GND*%
X140475000Y-93075000D03*
X140275000Y-96550000D03*
%TO.N,/D+*%
X153500000Y-88100000D03*
X155150000Y-83450000D03*
%TO.N,GND*%
X165300000Y-90675000D03*
%TO.N,Net-(Q1-D)*%
X151350000Y-90450000D03*
X148775000Y-90850000D03*
X160750000Y-85099968D03*
X146375000Y-89650000D03*
%TO.N,Net-(U3-PROG)*%
X165950000Y-86250000D03*
%TO.N,Net-(U3-~{CHRG})*%
X161020998Y-87780346D03*
%TO.N,+5V*%
X164325000Y-86025000D03*
X161074197Y-84435268D03*
%TD*%
D43*
%TO.N,GND*%
X151550000Y-61125000D02*
X152950000Y-61125000D01*
X152950000Y-61125000D02*
X154350000Y-59725000D01*
D44*
X151550000Y-62525000D02*
X151550000Y-59725000D01*
D43*
X151550000Y-61125000D02*
X152950000Y-62525000D01*
D44*
X152950000Y-61125000D02*
X154350000Y-61125000D01*
D43*
X154350000Y-59725000D02*
X152950000Y-59725000D01*
X154350000Y-62525000D02*
X154350000Y-61125000D01*
D44*
X150493000Y-91499000D02*
X149099000Y-91499000D01*
X148650000Y-91400000D02*
X148175000Y-90925000D01*
X147583000Y-91517000D02*
X147550000Y-91517000D01*
X149099000Y-91499000D02*
X149000000Y-91400000D01*
X147550000Y-91517000D02*
X147984500Y-91517000D01*
X149000000Y-91400000D02*
X148650000Y-91400000D01*
X144832000Y-91517000D02*
X147550000Y-91517000D01*
X148175000Y-90925000D02*
X147583000Y-91517000D01*
X160850000Y-90510000D02*
X160740000Y-90510000D01*
X160740000Y-90510000D02*
X159751000Y-91499000D01*
X159751000Y-91499000D02*
X159133000Y-91499000D01*
X159642576Y-90019584D02*
X159642576Y-90989424D01*
X159642576Y-90989424D02*
X159133000Y-91499000D01*
%TO.N,/TX*%
X161009000Y-92584000D02*
X160350000Y-91925000D01*
X165509000Y-92584000D02*
X161009000Y-92584000D01*
X166675000Y-93250000D02*
X166175000Y-93250000D01*
X166175000Y-93250000D02*
X165509000Y-92584000D01*
%TO.N,GND*%
X160850000Y-90510000D02*
X160565000Y-90510000D01*
X139550000Y-94015000D02*
X140110000Y-94015000D01*
X140110000Y-94015000D02*
X140350000Y-93775000D01*
X142050000Y-101025000D02*
X141075000Y-102000000D01*
X141075000Y-102000000D02*
X141075000Y-102875000D01*
X139550000Y-94015000D02*
X139550000Y-93250000D01*
X139550000Y-93250000D02*
X139725000Y-93075000D01*
X139725000Y-93075000D02*
X140475000Y-93075000D01*
%TO.N,/Up*%
X150342000Y-68483000D02*
X149225000Y-69600000D01*
X160167000Y-68483000D02*
X150342000Y-68483000D01*
X160425000Y-68225000D02*
X160167000Y-68483000D01*
X149325000Y-69500000D02*
X149225000Y-69600000D01*
%TO.N,GND*%
X148700000Y-68985438D02*
X149942000Y-67743438D01*
X149942000Y-67743438D02*
X149942000Y-65508000D01*
X148700000Y-71125000D02*
X148700000Y-68985438D01*
X148740000Y-71165000D02*
X148700000Y-71125000D01*
X149942000Y-65508000D02*
X151550000Y-63900000D01*
X151550000Y-63900000D02*
X151550000Y-62525000D01*
%TO.N,/DTR*%
X165354000Y-77724000D02*
X165530000Y-77900000D01*
%TO.N,/SDA*%
X166132953Y-76825000D02*
X166641988Y-77334035D01*
X165050000Y-76825000D02*
X166132953Y-76825000D01*
%TO.N,/DTR*%
X165530000Y-77900000D02*
X166900000Y-77900000D01*
%TO.N,/RX*%
X152792000Y-77343438D02*
X152792000Y-77233000D01*
X165033000Y-74687124D02*
X164673657Y-74327781D01*
X150415000Y-79960000D02*
X151588000Y-78787000D01*
X150415000Y-80025000D02*
X150415000Y-79960000D01*
X153575000Y-76450000D02*
X160900000Y-76450000D01*
X152408000Y-77617000D02*
X152518438Y-77617000D01*
X161325000Y-76875000D02*
X164225000Y-76875000D01*
X164400000Y-74043118D02*
X164400000Y-71600000D01*
X151588000Y-78787000D02*
X151588000Y-78437000D01*
X165042000Y-75486968D02*
X165033000Y-75477968D01*
X151588000Y-78437000D02*
X152408000Y-77617000D01*
X165033000Y-75477968D02*
X165033000Y-74687124D01*
X152518438Y-77617000D02*
X152792000Y-77343438D01*
X152792000Y-77233000D02*
X153575000Y-76450000D01*
X160900000Y-76450000D02*
X161325000Y-76875000D01*
X164225000Y-76875000D02*
X165033000Y-76067000D01*
X165033000Y-76067000D02*
X165033000Y-75842032D01*
X165033000Y-75842032D02*
X165042000Y-75833032D01*
X165042000Y-75833032D02*
X165042000Y-75486968D01*
X164673657Y-74327781D02*
X164573657Y-74327781D01*
X164451000Y-74205124D02*
X164451000Y-74094117D01*
X164451000Y-74094117D02*
X164400000Y-74043118D01*
X164573657Y-74327781D02*
X164451000Y-74205124D01*
%TO.N,/EN*%
X159850000Y-66825000D02*
X161200000Y-68175000D01*
X161984820Y-73848000D02*
X162881180Y-73848000D01*
X163515000Y-74481820D02*
X163515000Y-75690000D01*
X161200000Y-68175000D02*
X161200000Y-73475000D01*
X162881180Y-73848000D02*
X163515000Y-74481820D01*
X161778910Y-74053910D02*
X161984820Y-73848000D01*
X151100000Y-65725000D02*
X152200000Y-66825000D01*
%TO.N,Net-(J4-Pin_2)*%
X164139000Y-74223352D02*
X164139000Y-74453562D01*
%TO.N,/IO0*%
X163200000Y-73725586D02*
X163827000Y-74352586D01*
X163200000Y-69915000D02*
X163200000Y-73725586D01*
%TO.N,/EN*%
X161200000Y-73475000D02*
X161778910Y-74053910D01*
%TO.N,/IO0*%
X163827000Y-74352586D02*
X163827000Y-74927000D01*
%TO.N,Net-(J4-Pin_2)*%
X164425000Y-70175000D02*
X164425000Y-70354000D01*
%TO.N,/IO0*%
X163827000Y-74927000D02*
X164575000Y-75675000D01*
%TO.N,Net-(J4-Pin_2)*%
X163862000Y-73946352D02*
X164139000Y-74223352D01*
X163862000Y-70917000D02*
X163862000Y-73946352D01*
X164139000Y-74453562D02*
X164480219Y-74794781D01*
X164425000Y-70354000D02*
X163862000Y-70917000D01*
%TO.N,/EN*%
X152200000Y-66825000D02*
X159850000Y-66825000D01*
X163515000Y-75690000D02*
X163900000Y-76075000D01*
%TO.N,GND*%
X165325000Y-78875000D02*
X165675000Y-78525000D01*
X168450000Y-77225000D02*
X169175000Y-77225000D01*
X165675000Y-78525000D02*
X167150000Y-78525000D01*
X167150000Y-78525000D02*
X168450000Y-77225000D01*
%TO.N,/RX*%
X166869417Y-79305583D02*
X166655798Y-79305583D01*
X168700000Y-78550000D02*
X167625000Y-78550000D01*
X167625000Y-78550000D02*
X166869417Y-79305583D01*
X169200000Y-79050000D02*
X168700000Y-78550000D01*
X169200000Y-83025000D02*
X169200000Y-79050000D01*
%TO.N,GND*%
X167892000Y-75363000D02*
X166775000Y-76480000D01*
X167340438Y-74180000D02*
X167892000Y-74731562D01*
X167892000Y-74731562D02*
X167892000Y-75363000D01*
X167275000Y-74180000D02*
X167340438Y-74180000D01*
D43*
%TO.N,+3.3V*%
X166875000Y-75475000D02*
X166875000Y-75520000D01*
D44*
X167425000Y-74925000D02*
X167170000Y-75180000D01*
X167170000Y-75180000D02*
X165575000Y-75180000D01*
D43*
X167425000Y-74925000D02*
X166875000Y-75475000D01*
D44*
%TO.N,/SCL*%
X168341812Y-74601325D02*
X168341812Y-74358188D01*
X168341812Y-74358188D02*
X169175000Y-73525000D01*
%TO.N,+3.3V*%
X167650000Y-72586178D02*
X167650000Y-72245000D01*
X168108000Y-73044178D02*
X167650000Y-72586178D01*
D43*
%TO.N,GND*%
X166875000Y-76480000D02*
X166775000Y-76480000D01*
X166775000Y-76480000D02*
X166435000Y-76140000D01*
D44*
%TO.N,Net-(J6-Pin_2)*%
X167875000Y-76675000D02*
X167700000Y-76675000D01*
X169175000Y-75375000D02*
X167875000Y-76675000D01*
%TO.N,GND*%
X167520000Y-77225000D02*
X169175000Y-77225000D01*
X166775000Y-76480000D02*
X167520000Y-77225000D01*
%TO.N,Net-(J4-Pin_2)*%
X166221024Y-73145000D02*
X166497478Y-72868546D01*
X165600000Y-73145000D02*
X166221024Y-73145000D01*
%TO.N,+3.3V*%
X165860000Y-74165000D02*
X166805000Y-73220000D01*
X165600000Y-74165000D02*
X165860000Y-74165000D01*
X166805000Y-73220000D02*
X167275000Y-73220000D01*
%TO.N,/SDA*%
X167650000Y-70700000D02*
X167950000Y-70400000D01*
%TO.N,/RX*%
X166850000Y-68845000D02*
X167714490Y-69709490D01*
%TO.N,/SDA*%
X167650000Y-71225000D02*
X167650000Y-70700000D01*
%TO.N,/RX*%
X167714490Y-69709490D02*
X167714490Y-69824308D01*
%TO.N,/SDA*%
X152273000Y-74930000D02*
X152273000Y-74252000D01*
X152273000Y-74252000D02*
X153100000Y-73425000D01*
X153100000Y-73425000D02*
X158975000Y-73425000D01*
X158975000Y-73425000D02*
X159425000Y-72975000D01*
%TO.N,/TX*%
X152150000Y-77150000D02*
X153450000Y-75850000D01*
X153450000Y-73950000D02*
X153600000Y-73800000D01*
X153450000Y-75850000D02*
X153450000Y-73950000D01*
X153600000Y-73800000D02*
X159575000Y-73800000D01*
X159575000Y-73800000D02*
X160525000Y-72850000D01*
%TO.N,VBUS*%
X146775000Y-80200000D02*
X147542000Y-80967000D01*
X141350000Y-78650000D02*
X141137500Y-78862500D01*
X146225000Y-79650000D02*
X146775000Y-80200000D01*
X141137500Y-78862500D02*
X140100000Y-78862500D01*
X146775000Y-80200000D02*
X146775000Y-80575000D01*
X146775000Y-80575000D02*
X146550000Y-80800000D01*
X145287500Y-79650000D02*
X146225000Y-79650000D01*
X148367000Y-80967000D02*
X148825000Y-81425000D01*
X148825000Y-81425000D02*
X148825000Y-82375000D01*
X147542000Y-80967000D02*
X148367000Y-80967000D01*
%TO.N,GND*%
X142025000Y-80675000D02*
X140962500Y-80675000D01*
X142125000Y-80575000D02*
X142025000Y-80675000D01*
X142125000Y-77175000D02*
X142125000Y-80575000D01*
X141850000Y-76900000D02*
X142125000Y-77175000D01*
D43*
%TO.N,unconnected-(U6-NC-Pad14)*%
X151950000Y-69675000D02*
X151225000Y-68950000D01*
X157725000Y-69025000D02*
X157075000Y-69675000D01*
X157075000Y-69675000D02*
X151950000Y-69675000D01*
D44*
%TO.N,+3.3V*%
X150375000Y-66724618D02*
X151532716Y-67882334D01*
X151150000Y-64950000D02*
X150375000Y-65725000D01*
X152275000Y-64950000D02*
X151150000Y-64950000D01*
X150375000Y-65725000D02*
X150375000Y-66724618D01*
%TO.N,GND*%
X149930000Y-69675000D02*
X150625000Y-69675000D01*
X148740000Y-70865000D02*
X149930000Y-69675000D01*
X148740000Y-71165000D02*
X148740000Y-70865000D01*
%TO.N,/Up*%
X147525000Y-63725000D02*
X147525000Y-67200000D01*
X147525000Y-67200000D02*
X148275000Y-67950000D01*
%TO.N,Net-(U6-VDD)*%
X155575000Y-72925000D02*
X153273799Y-72925000D01*
X155950000Y-72550000D02*
X155575000Y-72925000D01*
X153273799Y-72925000D02*
X152861123Y-72512324D01*
%TO.N,GND*%
X169175000Y-77225000D02*
X168675000Y-77725000D01*
%TO.N,/TX*%
X161150000Y-60250000D02*
X161325000Y-60075000D01*
X161150000Y-64675000D02*
X161150000Y-60250000D01*
%TO.N,/Buzz*%
X160500000Y-59750000D02*
X160225000Y-60025000D01*
X160225000Y-60025000D02*
X160225000Y-64925000D01*
X162735000Y-65300000D02*
X163200000Y-64835000D01*
X160225000Y-64925000D02*
X160600000Y-65300000D01*
X160600000Y-65300000D02*
X162735000Y-65300000D01*
%TO.N,+3.3V*%
X159975000Y-66025000D02*
X161500000Y-66025000D01*
X158425000Y-64475000D02*
X159975000Y-66025000D01*
%TO.N,/motor*%
X162285000Y-63565000D02*
X161750000Y-64100000D01*
X163200000Y-63565000D02*
X162285000Y-63565000D01*
%TO.N,Net-(U1-VOUT)*%
X150985000Y-78318000D02*
X151651500Y-77651500D01*
%TO.N,/RTS*%
X152375001Y-79600000D02*
X151900000Y-79124999D01*
X151900000Y-79124999D02*
X151900000Y-78656782D01*
X160939000Y-79314000D02*
X160939000Y-79690000D01*
X151900000Y-78656782D02*
X152627782Y-77929000D01*
X152627782Y-77929000D02*
X152871000Y-77929000D01*
X152775000Y-79600000D02*
X152375001Y-79600000D01*
X152871000Y-77929000D02*
X153104000Y-77696000D01*
X153104000Y-77696000D02*
X153104000Y-77452782D01*
X153794782Y-76762000D02*
X158387000Y-76762000D01*
X153104000Y-77452782D02*
X153794782Y-76762000D01*
X158387000Y-76762000D02*
X160939000Y-79314000D01*
%TO.N,GND*%
X141850000Y-76900000D02*
X141800000Y-76900000D01*
X141800000Y-76900000D02*
X140525000Y-75625000D01*
X140525000Y-75625000D02*
X140525000Y-72500000D01*
X140525000Y-72500000D02*
X140225000Y-72200000D01*
X140225000Y-72200000D02*
X137775000Y-72200000D01*
X133775000Y-76750000D02*
X133375000Y-76750000D01*
X133375000Y-76750000D02*
X132425000Y-75800000D01*
%TO.N,/27*%
X134725000Y-68250000D02*
X134250000Y-68250000D01*
X135850000Y-69375000D02*
X134725000Y-68250000D01*
%TO.N,/14*%
X133425000Y-71100000D02*
X133825000Y-71100000D01*
X132425000Y-72100000D02*
X133425000Y-71100000D01*
%TO.N,/12*%
X139475000Y-70025000D02*
X134185438Y-70025000D01*
X133175000Y-69500000D02*
X132425000Y-70250000D01*
X133660438Y-69500000D02*
X133175000Y-69500000D01*
X134185438Y-70025000D02*
X133660438Y-69500000D01*
X139975000Y-70525000D02*
X139475000Y-70025000D01*
%TO.N,/27*%
X133800000Y-73875000D02*
X132500000Y-73875000D01*
X132500000Y-73875000D02*
X132425000Y-73950000D01*
%TO.N,/14*%
X138650000Y-68225000D02*
X138650000Y-68500000D01*
X140267719Y-68257281D02*
X140267719Y-67842719D01*
X138650000Y-68500000D02*
X138975000Y-68825000D01*
X138975000Y-68825000D02*
X139700000Y-68825000D01*
X139700000Y-68825000D02*
X140267719Y-68257281D01*
%TO.N,/ADC_Batt*%
X141381000Y-66069000D02*
X139350000Y-68100000D01*
X141381000Y-60594000D02*
X141381000Y-66069000D01*
X145175000Y-60500000D02*
X141475000Y-60500000D01*
X141475000Y-60500000D02*
X141381000Y-60594000D01*
X145700000Y-61025000D02*
X145175000Y-60500000D01*
%TO.N,/27*%
X145700000Y-67375000D02*
X144325000Y-67375000D01*
X144325000Y-67375000D02*
X144250000Y-67300000D01*
%TO.N,/14*%
X145655000Y-68600000D02*
X145700000Y-68645000D01*
X144200000Y-68600000D02*
X145655000Y-68600000D01*
%TO.N,/Down*%
X139975000Y-69175000D02*
X141625000Y-67525000D01*
X141625000Y-67525000D02*
X143525000Y-67525000D01*
X143525000Y-67525000D02*
X143525000Y-67100000D01*
X138375000Y-69175000D02*
X139975000Y-69175000D01*
X144525000Y-66100000D02*
X144530000Y-66105000D01*
X143525000Y-67100000D02*
X144525000Y-66100000D01*
X144530000Y-66105000D02*
X145700000Y-66105000D01*
%TO.N,/12*%
X145700000Y-69915000D02*
X144310000Y-69915000D01*
X144310000Y-69915000D02*
X144050000Y-70175000D01*
%TO.N,/EN*%
X149300000Y-60000000D02*
X149300000Y-59525000D01*
X149750000Y-59075000D02*
X149750000Y-58500000D01*
X149300000Y-59525000D02*
X149700000Y-59125000D01*
X149700000Y-59125000D02*
X149750000Y-59075000D01*
X148200000Y-61550000D02*
X149300000Y-60450000D01*
X149300000Y-60450000D02*
X149300000Y-60000000D01*
X149475000Y-64450000D02*
X149525000Y-64400000D01*
X149475000Y-65475000D02*
X149475000Y-64450000D01*
%TO.N,GND*%
X153000000Y-65875000D02*
X152550000Y-66325000D01*
X157675000Y-65875000D02*
X153000000Y-65875000D01*
X153675000Y-65125000D02*
X152550000Y-66250000D01*
X152550000Y-66250000D02*
X152550000Y-66325000D01*
%TO.N,/SCL*%
X148067000Y-63633000D02*
X148067000Y-65900000D01*
%TO.N,/Mode*%
X150325000Y-60239562D02*
X150325000Y-57000000D01*
X146933000Y-63902000D02*
X146933000Y-63631562D01*
X146000000Y-64835000D02*
X146933000Y-63902000D01*
%TO.N,/SCL*%
X150275000Y-61425000D02*
X148067000Y-63633000D01*
%TO.N,/Mode*%
X145700000Y-64835000D02*
X146000000Y-64835000D01*
X146933000Y-63631562D02*
X150325000Y-60239562D01*
%TO.N,Net-(Q2-B)*%
X163968001Y-78089999D02*
X164334000Y-77724000D01*
%TO.N,/EN*%
X162814000Y-78740000D02*
X161215000Y-78740000D01*
X161215000Y-78740000D02*
X161175000Y-78700000D01*
%TO.N,Net-(Q2-B)*%
X161238999Y-78089999D02*
X163968001Y-78089999D01*
X160939000Y-77790000D02*
X161238999Y-78089999D01*
%TO.N,/RX*%
X164400000Y-71600000D02*
X164400000Y-70875000D01*
X164400000Y-70875000D02*
X164669000Y-70606000D01*
X164669000Y-70606000D02*
X166058562Y-70606000D01*
X166058562Y-70606000D02*
X166850000Y-69814562D01*
X166850000Y-69814562D02*
X166850000Y-68845000D01*
%TO.N,+3.3V*%
X165325000Y-72210000D02*
X165382654Y-72210000D01*
X165382654Y-72210000D02*
X165889046Y-71703608D01*
X167789000Y-81460000D02*
X167804000Y-81475000D01*
X166625000Y-81460000D02*
X167789000Y-81460000D01*
%TO.N,VBUS*%
X164365000Y-79515000D02*
X165225000Y-80375000D01*
X164365000Y-78875000D02*
X164365000Y-79515000D01*
%TO.N,GND*%
X165875000Y-80060438D02*
X165525000Y-79710438D01*
X165875000Y-82375000D02*
X165875000Y-80060438D01*
X165525000Y-79075000D02*
X165325000Y-78875000D01*
X165525000Y-79710438D02*
X165525000Y-79075000D01*
%TO.N,/Up*%
X168025000Y-79125000D02*
X167350000Y-79800000D01*
X167350000Y-79800000D02*
X166275000Y-79800000D01*
%TO.N,Net-(J6-Pin_2)*%
X166625000Y-80440000D02*
X168360000Y-80440000D01*
X168360000Y-80440000D02*
X168550000Y-80250000D01*
%TO.N,/RX*%
X169225000Y-88600000D02*
X168137500Y-87512500D01*
%TO.N,GND*%
X165942000Y-82308000D02*
X168458000Y-82308000D01*
X168681000Y-85632493D02*
X168700000Y-85651493D01*
%TO.N,/RX*%
X168137500Y-87512500D02*
X168137500Y-83162500D01*
%TO.N,GND*%
X168458000Y-82308000D02*
X168681000Y-82531000D01*
X165875000Y-82375000D02*
X165942000Y-82308000D01*
X168681000Y-82531000D02*
X168681000Y-85632493D01*
%TO.N,+5V*%
X169225000Y-86750000D02*
X169225000Y-84802000D01*
X169225000Y-84802000D02*
X169148000Y-84725000D01*
%TO.N,Net-(U3-VCC)*%
X167460000Y-83922998D02*
X167574998Y-83808000D01*
X167460000Y-84875000D02*
X167460000Y-83922998D01*
%TO.N,GND*%
X168125000Y-68725000D02*
X168125000Y-68625000D01*
X169150000Y-69750000D02*
X168125000Y-68725000D01*
%TO.N,/TX*%
X167098000Y-71562000D02*
X167098000Y-70302002D01*
X166475000Y-72185000D02*
X167098000Y-71562000D01*
X167098000Y-70302002D02*
X167132590Y-70267412D01*
%TO.N,/RX2*%
X168089340Y-67900000D02*
X169150000Y-67900000D01*
%TO.N,/SCL*%
X166550000Y-66875000D02*
X168150000Y-66875000D01*
%TO.N,/RX2*%
X166112562Y-67173000D02*
X166281562Y-67342000D01*
X163402000Y-67173000D02*
X166112562Y-67173000D01*
%TO.N,/SCL*%
X168150000Y-66875000D02*
X168200000Y-66925000D01*
%TO.N,/RX2*%
X163200000Y-67375000D02*
X163402000Y-67173000D01*
X166281562Y-67342000D02*
X167531340Y-67342000D01*
X167531340Y-67342000D02*
X168089340Y-67900000D01*
%TO.N,+3.3V*%
X166767000Y-65690000D02*
X166690000Y-65767000D01*
%TO.N,/TX*%
X168025000Y-65750000D02*
X167541000Y-65750000D01*
X167541000Y-65750000D02*
X167350000Y-65941000D01*
%TO.N,+3.3V*%
X166690000Y-65767000D02*
X165792000Y-65767000D01*
X166690000Y-64350000D02*
X166767000Y-64427000D01*
X166767000Y-64427000D02*
X166767000Y-65690000D01*
%TO.N,/TX2*%
X168792000Y-66408000D02*
X169150000Y-66050000D01*
X163200000Y-66105000D02*
X166365438Y-66105000D01*
%TO.N,/TX*%
X168150000Y-65225000D02*
X168150000Y-65625000D01*
%TO.N,+3.3V*%
X165792000Y-65767000D02*
X164675000Y-64650000D01*
%TO.N,/TX2*%
X166365438Y-66105000D02*
X166668438Y-66408000D01*
%TO.N,/TX*%
X168150000Y-65625000D02*
X168025000Y-65750000D01*
%TO.N,/TX2*%
X166668438Y-66408000D02*
X168792000Y-66408000D01*
%TO.N,/SCL*%
X165575000Y-66655000D02*
X166330000Y-66655000D01*
X166330000Y-66655000D02*
X166550000Y-66875000D01*
X164725000Y-66625000D02*
X165545000Y-66625000D01*
X165545000Y-66625000D02*
X165575000Y-66655000D01*
%TO.N,/RX*%
X163200000Y-57215000D02*
X163500000Y-57215000D01*
X164483000Y-63658000D02*
X166025000Y-65200000D01*
X163500000Y-57215000D02*
X164483000Y-58198000D01*
X166025000Y-65200000D02*
X166300000Y-65200000D01*
X164483000Y-58198000D02*
X164483000Y-63658000D01*
%TO.N,/SCL*%
X166010114Y-64249676D02*
X166010115Y-64249676D01*
X165192719Y-63432281D02*
X166010114Y-64249676D01*
%TO.N,+3.3V*%
X164925000Y-62375000D02*
X164925000Y-61100000D01*
X166690000Y-64350000D02*
X166690000Y-64140000D01*
X166690000Y-64140000D02*
X164925000Y-62375000D01*
X164925000Y-61100000D02*
X165275000Y-60750000D01*
%TO.N,/IO0*%
X165862000Y-55020000D02*
X166117000Y-55275000D01*
X165862000Y-54612000D02*
X165862000Y-55020000D01*
%TO.N,/SCL*%
X167300000Y-59775000D02*
X165225000Y-59775000D01*
X165225000Y-59775000D02*
X164950000Y-60050000D01*
X164750000Y-56500000D02*
X165050000Y-56500000D01*
X166925000Y-59400000D02*
X167300000Y-59775000D01*
X165650000Y-57100000D02*
X166175000Y-57625000D01*
X165050000Y-56500000D02*
X165650000Y-57100000D01*
X166175000Y-57625000D02*
X166925000Y-57625000D01*
X166925000Y-57625000D02*
X166925000Y-59400000D01*
%TO.N,/TX*%
X165325000Y-57425000D02*
X166175000Y-58275000D01*
X164750000Y-57425000D02*
X165325000Y-57425000D01*
%TO.N,/SCL*%
X163200000Y-55945000D02*
X164195000Y-55945000D01*
X164195000Y-55945000D02*
X164750000Y-56500000D01*
%TO.N,GND*%
X169375000Y-57000000D02*
X169418000Y-56957000D01*
X169418000Y-56957000D02*
X169418000Y-54582000D01*
%TO.N,+3.3V*%
X166075000Y-69525000D02*
X165600000Y-70000000D01*
X166350000Y-69525000D02*
X166075000Y-69525000D01*
%TO.N,Net-(U1-VOUT)*%
X147562500Y-79650000D02*
X148262500Y-78950000D01*
X148262500Y-78950000D02*
X148700000Y-78950000D01*
%TO.N,GND*%
X149100000Y-79695000D02*
X149525000Y-79270000D01*
X149525000Y-79270000D02*
X149525000Y-78368000D01*
X149525000Y-78368000D02*
X149605000Y-78288000D01*
%TO.N,+3.3V*%
X148404994Y-80655000D02*
X148124997Y-80375003D01*
X149100000Y-80655000D02*
X148404994Y-80655000D01*
X149605000Y-77328000D02*
X149803000Y-77328000D01*
X149803000Y-77328000D02*
X150250000Y-77775000D01*
X150250000Y-77775000D02*
X150250000Y-79100000D01*
%TO.N,/TX*%
X161810000Y-58485000D02*
X161275000Y-57950000D01*
X163200000Y-58485000D02*
X161810000Y-58485000D01*
%TO.N,/IO0*%
X167513000Y-62484000D02*
X167513000Y-61613000D01*
X167513000Y-61613000D02*
X167000000Y-61100000D01*
X165525000Y-62225000D02*
X165875000Y-62225000D01*
X165875000Y-62225000D02*
X167000000Y-61100000D01*
X167000000Y-61100000D02*
X167000000Y-60750000D01*
X167000000Y-60750000D02*
X167975000Y-59775000D01*
X167975000Y-59775000D02*
X167975000Y-56925000D01*
%TO.N,+3.3V*%
X167275000Y-73220000D02*
X167275000Y-73020000D01*
X167275000Y-73020000D02*
X167650000Y-72645000D01*
%TO.N,Net-(J4-Pin_2)*%
X144450000Y-76500000D02*
X145200000Y-75750000D01*
X145200000Y-75750000D02*
X145200000Y-74775000D01*
%TO.N,/Down*%
X139375000Y-83575000D02*
X139375000Y-82200000D01*
X141075000Y-95125000D02*
X141075000Y-92725000D01*
X139375000Y-89425000D02*
X139375000Y-83575000D01*
X138975000Y-77375000D02*
X138500000Y-77375000D01*
X139375000Y-82200000D02*
X139075000Y-81900000D01*
X138975000Y-81800000D02*
X138975000Y-77375000D01*
X141075000Y-92725000D02*
X141700000Y-92100000D01*
X140325000Y-90375000D02*
X139375000Y-89425000D01*
X139725000Y-90975000D02*
X140325000Y-90375000D01*
X139075000Y-81900000D02*
X138975000Y-81800000D01*
X138500000Y-77375000D02*
X138100000Y-76975000D01*
X141050000Y-91450000D02*
X139725000Y-91450000D01*
X141700000Y-92100000D02*
X141050000Y-91450000D01*
X139725000Y-91450000D02*
X139725000Y-90975000D01*
%TO.N,GND*%
X154725000Y-82550000D02*
X154725000Y-82949999D01*
X151850000Y-82875000D02*
X151420000Y-82875000D01*
X154725000Y-82949999D02*
X154224999Y-83450000D01*
X152425000Y-83450000D02*
X151850000Y-82875000D01*
X154224999Y-83450000D02*
X152425000Y-83450000D01*
%TO.N,/TX*%
X152348000Y-82323000D02*
X152475001Y-82450001D01*
X150415000Y-81550000D02*
X150592242Y-81550000D01*
X150592242Y-81550000D02*
X151365242Y-82323000D01*
X151365242Y-82323000D02*
X152348000Y-82323000D01*
X157475000Y-90950000D02*
X152825000Y-90950000D01*
X152825000Y-90950000D02*
X152475000Y-90600000D01*
%TO.N,+BATT*%
X150000000Y-89375000D02*
X150350000Y-89025000D01*
X158196911Y-89025000D02*
X158287093Y-88934818D01*
X150350000Y-89025000D02*
X158196911Y-89025000D01*
%TO.N,/TX*%
X158350000Y-90075000D02*
X158900000Y-90075000D01*
X157475000Y-90950000D02*
X158350000Y-90075000D01*
%TO.N,Net-(Q1-G)*%
X158583766Y-89400000D02*
X158700000Y-89400000D01*
X147951000Y-89950000D02*
X158033766Y-89950000D01*
X158033766Y-89950000D02*
X158583766Y-89400000D01*
%TO.N,+5V*%
X158620713Y-88608000D02*
X159506562Y-88608000D01*
X157557182Y-88467818D02*
X158480531Y-88467818D01*
X157375000Y-88650000D02*
X157557182Y-88467818D01*
X160121000Y-87993562D02*
X160121000Y-85641000D01*
X159506562Y-88608000D02*
X160121000Y-87993562D01*
X158480531Y-88467818D02*
X158620713Y-88608000D01*
X160121000Y-85641000D02*
X159580000Y-85100000D01*
%TO.N,GND*%
X160512000Y-87393000D02*
X160512000Y-88463000D01*
X160512000Y-88463000D02*
X159467000Y-89508000D01*
X160850000Y-87055000D02*
X160512000Y-87393000D01*
X159467000Y-89508000D02*
X159467000Y-89844008D01*
X159467000Y-89844008D02*
X159642576Y-90019584D01*
%TO.N,Net-(Q1-G)*%
X160850000Y-89550000D02*
X160175519Y-89550000D01*
X160175519Y-89550000D02*
X160002952Y-89722567D01*
%TO.N,Net-(U3-~{STDBY})*%
X160892671Y-91176999D02*
X160892671Y-91487671D01*
X160892671Y-91487671D02*
X161305000Y-91900000D01*
%TO.N,/Up*%
X168163784Y-92708160D02*
X167325000Y-91869376D01*
X167325000Y-91869376D02*
X167325000Y-91075000D01*
X167325000Y-91075000D02*
X166942000Y-90692000D01*
X166942000Y-90692000D02*
X166942000Y-83742000D01*
X166942000Y-83742000D02*
X166850000Y-83650000D01*
%TO.N,GND*%
X165575000Y-91900000D02*
X166458000Y-92783000D01*
X168217001Y-93642001D02*
X168943659Y-93642001D01*
X168943659Y-93642001D02*
X169225000Y-93360660D01*
X166458000Y-92783000D02*
X167358000Y-92783000D01*
X167358000Y-92783000D02*
X168217001Y-93642001D01*
X169225000Y-93360660D02*
X169225000Y-92300000D01*
%TO.N,/TX*%
X168025000Y-91650006D02*
X168025006Y-91650000D01*
X169225000Y-90450000D02*
X168025006Y-91649994D01*
X168025006Y-91649994D02*
X168025006Y-91650000D01*
%TO.N,/Up*%
X167725000Y-95300000D02*
X167725000Y-94534001D01*
X167725000Y-94534001D02*
X168150000Y-94109001D01*
%TO.N,+3.3V*%
X166225000Y-94140000D02*
X167010000Y-94140000D01*
X167010000Y-94140000D02*
X167075000Y-94075000D01*
%TO.N,GND*%
X151000000Y-58500000D02*
X151000000Y-59175000D01*
X151000000Y-59175000D02*
X151550000Y-59725000D01*
%TO.N,/EN*%
X143800000Y-62195000D02*
X143800000Y-61700004D01*
X143800000Y-61700004D02*
X143199996Y-61100000D01*
%TO.N,GND*%
X143995000Y-63155000D02*
X144450000Y-62700000D01*
X144450000Y-61200000D02*
X144425000Y-61175000D01*
X143800000Y-63155000D02*
X143995000Y-63155000D01*
X144450000Y-62700000D02*
X144450000Y-61200000D01*
%TO.N,/Up*%
X147250000Y-62550000D02*
X146235000Y-63565000D01*
X146235000Y-63565000D02*
X145700000Y-63565000D01*
X166800000Y-83600000D02*
X166850000Y-83650000D01*
X166800000Y-83650000D02*
X166800000Y-83600000D01*
X166850000Y-83650000D02*
X166800000Y-83650000D01*
%TO.N,+5V*%
X166440000Y-84875000D02*
X166440000Y-84340000D01*
X166440000Y-84340000D02*
X166200000Y-84100000D01*
%TO.N,Net-(U3-PROG)*%
X165800000Y-86400000D02*
X165950000Y-86250000D01*
X165800000Y-90375000D02*
X165800000Y-86400000D01*
X166595000Y-91170000D02*
X165800000Y-90375000D01*
X166595000Y-91900000D02*
X166595000Y-91170000D01*
%TO.N,GND*%
X147750000Y-72155000D02*
X147750000Y-72400000D01*
X148740000Y-71165000D02*
X147750000Y-72155000D01*
%TO.N,/SDA*%
X150225000Y-62525000D02*
X148725000Y-64025000D01*
X148725000Y-64025000D02*
X148725000Y-65775000D01*
%TO.N,/SCL*%
X156587500Y-61062500D02*
X155600000Y-60075000D01*
X156587500Y-62087500D02*
X156587500Y-61062500D01*
%TO.N,/SDA*%
X155475000Y-63350000D02*
X155475000Y-61149998D01*
X156075000Y-63950000D02*
X155475000Y-63350000D01*
%TO.N,GND*%
X168350000Y-43125000D02*
X167800000Y-42575000D01*
X168350000Y-43875000D02*
X168350000Y-43125000D01*
%TO.N,/IO0*%
X169418000Y-53622000D02*
X168450000Y-52654000D01*
X168450000Y-52654000D02*
X168450000Y-52575000D01*
%TO.N,GND*%
X169418000Y-54582000D02*
X169357000Y-54582000D01*
X169357000Y-54582000D02*
X167850000Y-53075000D01*
X168186000Y-52014000D02*
X169291000Y-52014000D01*
X167850000Y-53075000D02*
X167850000Y-52350000D01*
X167850000Y-52350000D02*
X168186000Y-52014000D01*
X169291000Y-52014000D02*
X169291000Y-52341000D01*
X169291000Y-52341000D02*
X169650000Y-52700000D01*
X163200000Y-53405000D02*
X163630000Y-53405000D01*
X163630000Y-53405000D02*
X165050000Y-54825000D01*
X165050000Y-54825000D02*
X165050000Y-55650000D01*
X165850000Y-56450000D02*
X166250000Y-56450000D01*
X165050000Y-55650000D02*
X165850000Y-56450000D01*
X166250000Y-56450000D02*
X167513000Y-55187000D01*
X167513000Y-55187000D02*
X167513000Y-54734000D01*
%TO.N,/EN*%
X142113000Y-62106000D02*
X142865000Y-62858000D01*
X142865000Y-62858000D02*
X142865000Y-64400000D01*
X143800000Y-62195000D02*
X142202000Y-62195000D01*
X142202000Y-62195000D02*
X142113000Y-62106000D01*
%TO.N,Net-(Q4-Pad3)*%
X140455000Y-62745000D02*
X140525000Y-62675000D01*
X139350000Y-62745000D02*
X140455000Y-62745000D01*
%TO.N,+3.3V*%
X140875000Y-61800000D02*
X139425000Y-61800000D01*
X139425000Y-61800000D02*
X139350000Y-61725000D01*
X142725000Y-65500000D02*
X142125000Y-64900000D01*
X144050000Y-65325000D02*
X143875000Y-65500000D01*
X142125000Y-64900000D02*
X142125000Y-63600000D01*
X143875000Y-65500000D02*
X142725000Y-65500000D01*
%TO.N,Net-(U5-VBUS)*%
X157850000Y-81775000D02*
X157850000Y-82725000D01*
%TO.N,Net-(U5-VDD)*%
X156225000Y-83025000D02*
X156467000Y-83267000D01*
%TO.N,VBUS*%
X156725000Y-82550000D02*
X157150000Y-82125000D01*
%TO.N,Net-(U5-VDD)*%
X158243438Y-83417000D02*
X158567000Y-83093438D01*
%TO.N,Net-(U5-VBUS)*%
X157675000Y-81600000D02*
X157850000Y-81775000D01*
%TO.N,Net-(U5-VDD)*%
X156225000Y-82550000D02*
X156225000Y-83025000D01*
X158567000Y-83093438D02*
X158567000Y-81758000D01*
X157756562Y-83417000D02*
X158243438Y-83417000D01*
X158567000Y-81758000D02*
X159125000Y-81200000D01*
%TO.N,VBUS*%
X157150000Y-82125000D02*
X157208000Y-82125000D01*
%TO.N,Net-(U5-VDD)*%
X156467000Y-83267000D02*
X157606562Y-83267000D01*
X157606562Y-83267000D02*
X157756562Y-83417000D01*
%TO.N,Net-(U5-~{RST})*%
X158125000Y-81100000D02*
X158875000Y-80350000D01*
X157675000Y-81100000D02*
X158125000Y-81100000D01*
%TO.N,Net-(U5-VDD)*%
X159125000Y-81200000D02*
X159125000Y-80825000D01*
X159125000Y-80825000D02*
X159700000Y-80250000D01*
X159700000Y-80250000D02*
X159150000Y-79700000D01*
X159150000Y-79700000D02*
X159150000Y-79635000D01*
%TO.N,Net-(U5-~{RST})*%
X160550000Y-82425000D02*
X159330000Y-82425000D01*
X159330000Y-82425000D02*
X159125000Y-82220000D01*
%TO.N,/D-*%
X154900000Y-85800000D02*
X155775000Y-85800000D01*
X155775000Y-85800000D02*
X155900000Y-85675000D01*
X155900000Y-84750000D02*
X156600000Y-84050000D01*
X155725000Y-83200000D02*
X155725000Y-82550000D01*
X155900000Y-85675000D02*
X155900000Y-84750000D01*
X156600000Y-84050000D02*
X156575000Y-84050000D01*
X156575000Y-84050000D02*
X155725000Y-83200000D01*
%TO.N,VBUS*%
X155525000Y-84835000D02*
X155335000Y-85025000D01*
X155525000Y-84050000D02*
X155525000Y-84835000D01*
%TO.N,/D+*%
X155225000Y-83375000D02*
X155150000Y-83450000D01*
X155225000Y-82550000D02*
X155225000Y-83375000D01*
%TO.N,VBUS*%
X140900000Y-84665000D02*
X140900000Y-83675000D01*
X139825000Y-79900000D02*
X140787500Y-79900000D01*
X140900000Y-83675000D02*
X139900000Y-82675000D01*
X140787500Y-79900000D02*
X140962500Y-79725000D01*
%TO.N,+3.3V*%
X152275000Y-64950000D02*
X152750000Y-64475000D01*
X143885000Y-65160000D02*
X144050000Y-65325000D01*
X143885000Y-64400000D02*
X143885000Y-65160000D01*
%TO.N,/SDA*%
X141850000Y-69280000D02*
X141850000Y-69875000D01*
X141850000Y-69875000D02*
X144370000Y-72395000D01*
X144370000Y-72395000D02*
X144520000Y-72395000D01*
X144520000Y-72395000D02*
X145050000Y-72925000D01*
X145050000Y-72925000D02*
X150268000Y-72925000D01*
X150268000Y-72925000D02*
X152273000Y-74930000D01*
%TO.N,/SCL*%
X141850000Y-71820000D02*
X143405000Y-73375000D01*
X143405000Y-73375000D02*
X149525000Y-73375000D01*
X149525000Y-73375000D02*
X149733000Y-73583000D01*
X149733000Y-73583000D02*
X149733000Y-74930000D01*
%TO.N,GND*%
X141850000Y-76900000D02*
X142350000Y-76900000D01*
X142350000Y-76900000D02*
X143725000Y-78275000D01*
X143725000Y-78275000D02*
X143740000Y-78260000D01*
X143740000Y-78260000D02*
X144525000Y-78260000D01*
%TO.N,Net-(Q1-D)*%
X143950000Y-89200000D02*
X143950000Y-87650000D01*
X144375000Y-89625000D02*
X143950000Y-89200000D01*
X144425000Y-86125000D02*
X143425000Y-85125000D01*
X144950000Y-86125000D02*
X144425000Y-86125000D01*
%TO.N,+3.3V*%
X143375000Y-92150000D02*
X144025000Y-91500000D01*
X144025000Y-91500000D02*
X144025000Y-91475000D01*
X145850000Y-83250000D02*
X145775000Y-83175000D01*
X149025000Y-83250000D02*
X145850000Y-83250000D01*
X149425000Y-82325000D02*
X149425000Y-82850000D01*
X149425000Y-82850000D02*
X149025000Y-83250000D01*
X145775000Y-83175000D02*
X145775000Y-86350000D01*
X145775000Y-86350000D02*
X146250000Y-86825000D01*
%TO.N,Net-(Q1-G)*%
X150400000Y-82875000D02*
X150400000Y-83075000D01*
X148825000Y-83725000D02*
X147425000Y-85125000D01*
X150400000Y-83075000D02*
X149750000Y-83725000D01*
X149750000Y-83725000D02*
X148825000Y-83725000D01*
%TO.N,+3.3V*%
X149100000Y-80655000D02*
X149100000Y-80900000D01*
X149100000Y-80900000D02*
X149325000Y-81125000D01*
X149325000Y-81125000D02*
X149325000Y-82225000D01*
X149325000Y-82225000D02*
X149425000Y-82325000D01*
X150985000Y-77298000D02*
X149635000Y-77298000D01*
X149635000Y-77298000D02*
X149605000Y-77328000D01*
X149605000Y-77328000D02*
X148335000Y-77328000D01*
X147065000Y-77356000D02*
X147065000Y-75058000D01*
X147065000Y-75058000D02*
X147193000Y-74930000D01*
X148335000Y-77328000D02*
X147093000Y-77328000D01*
X147093000Y-77328000D02*
X147065000Y-77356000D01*
X147065000Y-77356000D02*
X145851000Y-77356000D01*
X145851000Y-77356000D02*
X145795000Y-77300000D01*
X144525000Y-77300000D02*
X145795000Y-77300000D01*
%TO.N,GND*%
X149605000Y-78288000D02*
X148335000Y-78288000D01*
X147065000Y-78316000D02*
X148307000Y-78316000D01*
X148307000Y-78316000D02*
X148335000Y-78288000D01*
X145795000Y-78260000D02*
X147009000Y-78260000D01*
X147009000Y-78260000D02*
X147065000Y-78316000D01*
X144525000Y-78260000D02*
X145795000Y-78260000D01*
X149100000Y-79695000D02*
X149420000Y-79695000D01*
X149750000Y-82125000D02*
X149875000Y-82250000D01*
X149420000Y-79695000D02*
X149750000Y-80025000D01*
X149750000Y-80025000D02*
X149750000Y-82125000D01*
X149875000Y-82250000D02*
X150795000Y-82250000D01*
X150795000Y-82250000D02*
X151420000Y-82875000D01*
%TO.N,Net-(Q1-D)*%
X151179000Y-90279000D02*
X149346000Y-90279000D01*
X149346000Y-90279000D02*
X148775000Y-90850000D01*
X151350000Y-90450000D02*
X151179000Y-90279000D01*
%TO.N,+5V*%
X148971000Y-88900000D02*
X149171000Y-88700000D01*
X151950000Y-88700000D02*
X152387500Y-88262500D01*
X149171000Y-88700000D02*
X151950000Y-88700000D01*
%TO.N,Net-(Q1-G)*%
X147951000Y-88900000D02*
X147951000Y-89950000D01*
X147951000Y-89950000D02*
X147951000Y-90024000D01*
%TO.N,GND*%
X147984500Y-91517000D02*
X148617500Y-92150000D01*
X142425000Y-89110000D02*
X144832000Y-91517000D01*
%TO.N,+BATT*%
X162075000Y-91075000D02*
X162075000Y-89523926D01*
X162075000Y-89523926D02*
X161104000Y-88552926D01*
%TO.N,+5V*%
X152387500Y-88262500D02*
X152480000Y-88170000D01*
X157146000Y-88421000D02*
X157375000Y-88650000D01*
X152387500Y-88262500D02*
X152775000Y-88650000D01*
X152775000Y-88650000D02*
X157375000Y-88650000D01*
%TO.N,+3.3V*%
X145490000Y-92150000D02*
X143375000Y-92150000D01*
X143375000Y-92150000D02*
X142600000Y-92925000D01*
X142600000Y-92925000D02*
X142600000Y-93930000D01*
%TO.N,GND*%
X144147366Y-53113000D02*
X143388000Y-53113000D01*
X143388000Y-53113000D02*
X142621000Y-52346000D01*
X142621000Y-52346000D02*
X142621000Y-51760000D01*
X145700000Y-53405000D02*
X144439366Y-53405000D01*
X144439366Y-53405000D02*
X144147366Y-53113000D01*
%TO.N,/Mode*%
X141425000Y-51625000D02*
X141425000Y-50500000D01*
X141425000Y-50500000D02*
X141150000Y-50225000D01*
%TO.N,GND*%
X144147366Y-53113000D02*
X143926599Y-53333767D01*
X143926599Y-53333767D02*
X143926599Y-53405000D01*
X142113000Y-54356000D02*
X142532000Y-54775000D01*
X142532000Y-54775000D02*
X143650000Y-54775000D01*
X143650000Y-54775000D02*
X143926599Y-54498401D01*
X143926599Y-54498401D02*
X143926599Y-53405000D01*
%TO.N,/DTR*%
X159175000Y-83500000D02*
X158425000Y-84250000D01*
X160939000Y-83500000D02*
X159175000Y-83500000D01*
%TO.N,/motor*%
X156600000Y-65125000D02*
X155022144Y-65125000D01*
X155022144Y-65125000D02*
X154916790Y-65019646D01*
%TO.N,GND*%
X152950000Y-63425000D02*
X152950000Y-62525000D01*
X152250000Y-64125000D02*
X152950000Y-63425000D01*
%TO.N,+3.3V*%
X165862000Y-53592000D02*
X165133000Y-53592000D01*
X165133000Y-53592000D02*
X164950000Y-53775000D01*
%TO.N,/Select*%
X167800000Y-51650000D02*
X167475000Y-51975000D01*
%TO.N,/IO0*%
X165862000Y-54612000D02*
X167219936Y-53254064D01*
X167219936Y-53254064D02*
X167219936Y-53090503D01*
%TO.N,/Select*%
X167800000Y-50325000D02*
X167800000Y-51650000D01*
%TO.N,+3.3V*%
X166243000Y-52074000D02*
X166243000Y-53211000D01*
X166243000Y-53211000D02*
X165862000Y-53592000D01*
%TO.N,/Select*%
X145700000Y-62295000D02*
X146000000Y-62295000D01*
X146000000Y-62295000D02*
X149050000Y-59245000D01*
X149050000Y-59245000D02*
X149050000Y-55600000D01*
%TO.N,+5V*%
X165300000Y-85050000D02*
X164325000Y-86025000D01*
X164385000Y-91925000D02*
X164385000Y-86085000D01*
X165300000Y-84875000D02*
X165300000Y-85050000D01*
X164385000Y-86085000D02*
X164325000Y-86025000D01*
%TO.N,Net-(U3-~{CHRG})*%
X161990000Y-84875000D02*
X161990000Y-86811344D01*
X161990000Y-86811344D02*
X161020998Y-87780346D01*
%TO.N,+5V*%
X157146000Y-86811000D02*
X157146000Y-88421000D01*
X157213000Y-86744000D02*
X157146000Y-86811000D01*
%TO.N,+BATT*%
X146250000Y-88675000D02*
X146300000Y-88675000D01*
X146300000Y-88675000D02*
X147325000Y-87650000D01*
%TO.N,Net-(D3-K)*%
X162325000Y-91900000D02*
X163390000Y-91900000D01*
X163390000Y-91900000D02*
X163415000Y-91925000D01*
%TO.N,GND*%
X169250000Y-94240000D02*
X169250000Y-93875000D01*
X169250000Y-93875000D02*
X169600000Y-93525000D01*
%TO.N,/Up*%
X167725000Y-95300000D02*
X166365000Y-95300000D01*
X166365000Y-95300000D02*
X166225000Y-95160000D01*
X169250000Y-95200000D02*
X167825000Y-95200000D01*
X167825000Y-95200000D02*
X167725000Y-95300000D01*
%TO.N,GND*%
X169927000Y-93002000D02*
X169225000Y-92300000D01*
X167725000Y-98250000D02*
X169750000Y-96225000D01*
X167725000Y-103050000D02*
X167725000Y-98250000D01*
X169600000Y-93525000D02*
X169625000Y-93525000D01*
X169625000Y-93525000D02*
X169927000Y-93223000D01*
X169927000Y-93223000D02*
X169927000Y-93002000D01*
X165875000Y-82375000D02*
X165300000Y-82375000D01*
%TO.N,/DTR*%
X160939000Y-83500000D02*
X161406000Y-83967000D01*
%TO.N,VBUS*%
X164340000Y-82375000D02*
X164340000Y-83490000D01*
X164340000Y-83490000D02*
X164350000Y-83500000D01*
%TO.N,/DTR*%
X161406000Y-83967000D02*
X165358000Y-83967000D01*
X165358000Y-83967000D02*
X166100000Y-83225000D01*
%TO.N,GND*%
X159150000Y-78675000D02*
X158200000Y-77725000D01*
X158200000Y-77725000D02*
X158200000Y-77600000D01*
X158200000Y-77600000D02*
X157775000Y-77600000D01*
X155275000Y-80100000D02*
X155225000Y-80100000D01*
X157775000Y-77600000D02*
X155275000Y-80100000D01*
X155225000Y-80100000D02*
X154725000Y-80600000D01*
X154725000Y-80600000D02*
X154725000Y-82550000D01*
%TO.N,/DTR*%
X153213055Y-82038055D02*
X152775000Y-81600000D01*
X153213055Y-82199798D02*
X153213055Y-82038055D01*
%TO.N,Net-(U5-~{RST})*%
X157675000Y-81100000D02*
X158025000Y-81100000D01*
%TO.N,VBUS*%
X152025000Y-83800000D02*
X151205000Y-84620000D01*
X152050000Y-83800000D02*
X152025000Y-83800000D01*
X152050000Y-83775000D02*
X152050000Y-83800000D01*
%TO.N,GND*%
X140962500Y-80675000D02*
X145212500Y-80675000D01*
X145212500Y-80675000D02*
X145287500Y-80600000D01*
%TO.N,Net-(SW2-A)*%
X136050000Y-75150000D02*
X139076000Y-75150000D01*
X139076000Y-75150000D02*
X139300000Y-74926000D01*
%TO.N,VBUS*%
X140962500Y-79725000D02*
X140100000Y-78862500D01*
X140100000Y-78862500D02*
X140100000Y-73625000D01*
X140100000Y-73625000D02*
X139625000Y-73150000D01*
X139625000Y-73150000D02*
X136050000Y-73150000D01*
%TO.N,Net-(U1-VOUT)*%
X143237500Y-79725000D02*
X143987500Y-78975000D01*
X143987500Y-78975000D02*
X146887500Y-78975000D01*
X146887500Y-78975000D02*
X147562500Y-79650000D01*
%TO.N,ENA*%
X140962500Y-81625000D02*
X141887500Y-82550000D01*
X141887500Y-82550000D02*
X144287500Y-82550000D01*
X144287500Y-82550000D02*
X145287500Y-81550000D01*
X140962500Y-81625000D02*
X140300001Y-81625000D01*
X140300001Y-81625000D02*
X139300000Y-80624999D01*
X139300000Y-80624999D02*
X139300000Y-75946000D01*
%TO.N,Net-(Q1-D)*%
X143425000Y-85125000D02*
X141460000Y-85125000D01*
X141460000Y-85125000D02*
X140900000Y-85685000D01*
%TO.N,GND*%
X166435000Y-76140000D02*
X165575000Y-76140000D01*
%TO.N,Net-(Q3-B)*%
X160939000Y-81600000D02*
X161939000Y-80600000D01*
X163656000Y-80600000D02*
X164336000Y-81280000D01*
X161939000Y-80600000D02*
X163656000Y-80600000D01*
%TO.N,/RTS*%
X165356000Y-81280000D02*
X163766000Y-79690000D01*
X163766000Y-79690000D02*
X160939000Y-79690000D01*
%TO.N,/IO0*%
X163125000Y-81525000D02*
X163125000Y-82239000D01*
X163125000Y-82239000D02*
X162814000Y-82550000D01*
%TO.N,+3.3V*%
X165600000Y-70000000D02*
X165175000Y-70000000D01*
X165175000Y-70000000D02*
X164850000Y-69675000D01*
X164850000Y-68625000D02*
X165575000Y-67900000D01*
X164850000Y-69675000D02*
X164850000Y-68625000D01*
X165575000Y-67900000D02*
X165575000Y-67675000D01*
X165575000Y-67675000D02*
X164900000Y-67675000D01*
X164900000Y-67675000D02*
X164600000Y-67975000D01*
%TO.N,Net-(D5-A)*%
X166095000Y-68980000D02*
X165600000Y-68980000D01*
X166200000Y-68875000D02*
X166095000Y-68980000D01*
X166200000Y-68525000D02*
X166200000Y-68875000D01*
X166850000Y-67875000D02*
X166200000Y-68525000D01*
%TO.N,/IO0*%
X163200000Y-69915000D02*
X162900000Y-69915000D01*
X161675000Y-68690000D02*
X161675000Y-68100000D01*
X162900000Y-69915000D02*
X161675000Y-68690000D01*
X165525000Y-62225000D02*
X165784000Y-62484000D01*
X165784000Y-62484000D02*
X167513000Y-62484000D01*
%TO.N,Net-(D6-A)*%
X166475000Y-71215000D02*
X165350000Y-71215000D01*
X165350000Y-71215000D02*
X165325000Y-71190000D01*
%TO.N,/SDA*%
X167650000Y-71225000D02*
X168725000Y-71225000D01*
X168725000Y-71225000D02*
X169175000Y-71675000D01*
%TO.N,+3.3V*%
X165575000Y-75180000D02*
X165575000Y-74190000D01*
X165575000Y-74190000D02*
X165600000Y-74165000D01*
X165325000Y-72210000D02*
X165507758Y-72210000D01*
X167650000Y-72245000D02*
X167650000Y-72645000D01*
%TO.N,Net-(J5-Pin_4)*%
X167710000Y-64350000D02*
X169000000Y-64350000D01*
X169000000Y-64350000D02*
X169150000Y-64200000D01*
%TO.N,Net-(U5-TXD)*%
X151435000Y-81550000D02*
X151435000Y-81240000D01*
X151435000Y-81240000D02*
X152075000Y-80600000D01*
X152075000Y-80600000D02*
X152775000Y-80600000D01*
%TO.N,Net-(U5-RXD)*%
X151435000Y-80025000D02*
X152700000Y-80025000D01*
X152700000Y-80025000D02*
X152775000Y-80100000D01*
%TO.N,/SDA*%
X159750000Y-60475000D02*
X156700000Y-63525000D01*
X161930000Y-59755000D02*
X160975000Y-58800000D01*
X160225000Y-58825000D02*
X159750000Y-59300000D01*
X159750000Y-59300000D02*
X159750000Y-60475000D01*
X160250000Y-58800000D02*
X160225000Y-58825000D01*
X163200000Y-59755000D02*
X161930000Y-59755000D01*
X156700000Y-63525000D02*
X156075000Y-63525000D01*
X160975000Y-58800000D02*
X160250000Y-58800000D01*
X156075000Y-63525000D02*
X156075000Y-63950000D01*
%TO.N,/SCL*%
X162080000Y-55945000D02*
X159225000Y-58800000D01*
X163200000Y-55945000D02*
X162080000Y-55945000D01*
%TO.N,GND*%
X167513000Y-54734000D02*
X169266000Y-54734000D01*
X169266000Y-54734000D02*
X169418000Y-54582000D01*
%TO.N,/Select*%
X167800000Y-50325000D02*
X168562000Y-50325000D01*
X168562000Y-50325000D02*
X169291000Y-51054000D01*
X167800000Y-50325000D02*
X166972000Y-50325000D01*
X166972000Y-50325000D02*
X166243000Y-51054000D01*
%TO.N,/Mode*%
X142621000Y-50800000D02*
X142500000Y-50800000D01*
%TO.N,Net-(U4-VDD)*%
X141100000Y-56150000D02*
X140850000Y-55900000D01*
X143850000Y-56250000D02*
X141200000Y-56250000D01*
X141200000Y-56250000D02*
X141100000Y-56150000D01*
X141050000Y-53550000D02*
X141050000Y-53850000D01*
X140300000Y-55900000D02*
X140275000Y-55900000D01*
X139825000Y-53175000D02*
X140625000Y-53175000D01*
X140850000Y-55900000D02*
X140300000Y-55900000D01*
X140275000Y-55900000D02*
X139525000Y-55150000D01*
X140625000Y-53175000D02*
X140650000Y-53150000D01*
X140650000Y-53150000D02*
X141050000Y-53550000D01*
X141050000Y-53850000D02*
X140800000Y-53850000D01*
X140800000Y-53850000D02*
X140500000Y-54150000D01*
%TO.N,+3.3V*%
X139092000Y-55775000D02*
X139350000Y-56033000D01*
X139350000Y-56033000D02*
X139350000Y-61725000D01*
%TO.N,GND*%
X141700000Y-54769000D02*
X141700000Y-55450000D01*
X142113000Y-54356000D02*
X141700000Y-54769000D01*
X140840000Y-55450000D02*
X141700000Y-55450000D01*
X139540000Y-54150000D02*
X140840000Y-55450000D01*
%TO.N,Net-(U4-VDD)*%
X145700000Y-54675000D02*
X145425000Y-54675000D01*
X145425000Y-54675000D02*
X143850000Y-56250000D01*
%TO.N,/EN*%
X145700000Y-55945000D02*
X145400000Y-55945000D01*
X145400000Y-55945000D02*
X143900000Y-57445000D01*
X143900000Y-57445000D02*
X143900000Y-59900000D01*
%TO.N,+3.3V*%
X139573000Y-51816000D02*
X140641000Y-51816000D01*
X140641000Y-51816000D02*
X141975000Y-53150000D01*
%TO.N,GND*%
X141150000Y-42475000D02*
X141150000Y-47900000D01*
X141150000Y-47900000D02*
X142475000Y-49225000D01*
%TO.N,/Mode*%
X142621000Y-50800000D02*
X141725000Y-50800000D01*
X141725000Y-50800000D02*
X141150000Y-50225000D01*
X139573000Y-50796000D02*
X140579000Y-50796000D01*
X140579000Y-50796000D02*
X141150000Y-50225000D01*
%TO.N,GND*%
X152950000Y-61125000D02*
X152950000Y-58350000D01*
X147945000Y-53405000D02*
X145700000Y-53405000D01*
X152950000Y-58350000D02*
X147975000Y-53375000D01*
X147975000Y-53375000D02*
X147945000Y-53405000D01*
X156650000Y-57425000D02*
X152950000Y-61125000D01*
X157950000Y-57425000D02*
X156650000Y-57425000D01*
X159625000Y-57675000D02*
X159625000Y-54325000D01*
X159625000Y-54325000D02*
X160545000Y-53405000D01*
X160545000Y-53405000D02*
X163200000Y-53405000D01*
%TO.N,+3.3V*%
X152750000Y-64475000D02*
X158425000Y-64475000D01*
%TO.N,/ADC_Batt*%
X142760000Y-88090000D02*
X143100000Y-87750000D01*
X142425000Y-88090000D02*
X142760000Y-88090000D01*
X141150000Y-89135000D02*
X141380000Y-89135000D01*
X141380000Y-89135000D02*
X142425000Y-88090000D01*
%TO.N,GND*%
X142425000Y-89110000D02*
X142425000Y-89400000D01*
X142425000Y-89400000D02*
X141250000Y-90575000D01*
%TO.N,+BATT*%
X141100000Y-87025000D02*
X144600000Y-87025000D01*
X144600000Y-87025000D02*
X146250000Y-88675000D01*
X141100000Y-88065000D02*
X141150000Y-88115000D01*
X141100000Y-87025000D02*
X141100000Y-88065000D01*
%TO.N,GND*%
X141075000Y-102875000D02*
X141075000Y-97350000D01*
X141075000Y-97350000D02*
X140275000Y-96550000D01*
%TO.N,/Down*%
X139550000Y-94975000D02*
X140925000Y-94975000D01*
X140925000Y-94975000D02*
X141075000Y-95125000D01*
X142600000Y-94950000D02*
X141250000Y-94950000D01*
X141250000Y-94950000D02*
X141075000Y-95125000D01*
%TO.N,Net-(D2-A)*%
X147647500Y-92150000D02*
X146510000Y-92150000D01*
%TO.N,GND*%
X148617500Y-92150000D02*
X149842000Y-92150000D01*
X149842000Y-92150000D02*
X150493000Y-91499000D01*
X151420000Y-82875000D02*
X151420000Y-83850000D01*
X151420000Y-83850000D02*
X150245000Y-85025000D01*
%TO.N,/D+*%
X155100000Y-88250000D02*
X153650000Y-88250000D01*
X153650000Y-88250000D02*
X153500000Y-88100000D01*
%TO.N,GND*%
X165575000Y-90950000D02*
X165300000Y-90675000D01*
X165575000Y-91900000D02*
X165575000Y-90950000D01*
%TO.N,Net-(Q1-D)*%
X160850000Y-85199968D02*
X160750000Y-85099968D01*
X160850000Y-86095000D02*
X160850000Y-85199968D01*
%TO.N,+5V*%
X159580000Y-85100000D02*
X160244732Y-84435268D01*
X160244732Y-84435268D02*
X161074197Y-84435268D01*
X152480000Y-88170000D02*
X152480000Y-86811000D01*
X152480000Y-86811000D02*
X152413000Y-86744000D01*
%TO.N,Net-(Q1-D)*%
X146375000Y-89650000D02*
X146350000Y-89625000D01*
X146350000Y-89625000D02*
X144375000Y-89625000D01*
%TO.N,Net-(D4-K)*%
X164330000Y-84875000D02*
X163010000Y-84875000D01*
%TO.N,+5V*%
X166440000Y-84875000D02*
X165300000Y-84875000D01*
%TO.N,/D-*%
X154063000Y-86744000D02*
X154063000Y-85987000D01*
X154063000Y-85987000D02*
X154250000Y-85800000D01*
X154250000Y-85800000D02*
X154900000Y-85800000D01*
X155063000Y-85963000D02*
X155063000Y-86744000D01*
X154900000Y-85800000D02*
X155063000Y-85963000D01*
%TO.N,/D+*%
X155563000Y-86744000D02*
X155563000Y-87787000D01*
X155563000Y-87787000D02*
X155100000Y-88250000D01*
X155100000Y-88250000D02*
X154563000Y-87713000D01*
X154563000Y-87713000D02*
X154563000Y-86744000D01*
%TO.N,Net-(J1-CC2)*%
X156563000Y-86744000D02*
X156563000Y-85113000D01*
X156563000Y-85113000D02*
X156475000Y-85025000D01*
%TO.N,GND*%
X158620000Y-85100000D02*
X158620000Y-86137000D01*
X158620000Y-86137000D02*
X158013000Y-86744000D01*
X157495000Y-85025000D02*
X158545000Y-85025000D01*
X158545000Y-85025000D02*
X158620000Y-85100000D01*
X154250000Y-84250000D02*
X154275000Y-84225000D01*
X152269000Y-85025000D02*
X152269000Y-84606000D01*
X152269000Y-84606000D02*
X152625000Y-84250000D01*
X152625000Y-84250000D02*
X154250000Y-84250000D01*
X154275000Y-84225000D02*
X154375000Y-84325000D01*
X154375000Y-84325000D02*
X154375000Y-85025000D01*
%TO.N,VBUS*%
X155335000Y-85025000D02*
X155335000Y-84610000D01*
X155335000Y-84610000D02*
X154500000Y-83775000D01*
X154500000Y-83775000D02*
X152050000Y-83775000D01*
X152050000Y-83775000D02*
X152050000Y-83775000D01*
X151205000Y-84620000D02*
X151205000Y-85025000D01*
%TO.N,GND*%
X150245000Y-85025000D02*
X150245000Y-87071000D01*
X150245000Y-87071000D02*
X150493000Y-87319000D01*
X152269000Y-85025000D02*
X151613000Y-85681000D01*
X151613000Y-85681000D02*
X151613000Y-86744000D01*
%TO.N,Net-(J1-CC1)*%
X153563000Y-86744000D02*
X153563000Y-85299000D01*
X153563000Y-85299000D02*
X153289000Y-85025000D01*
%TO.N,Net-(Q1-G)*%
X147951000Y-90024000D02*
X147400000Y-90575000D01*
X147400000Y-90575000D02*
X146250000Y-90575000D01*
X147951000Y-88900000D02*
X147951000Y-85651000D01*
X147951000Y-85651000D02*
X147425000Y-85125000D01*
%TO.N,GND*%
X159133000Y-87319000D02*
X158588000Y-87319000D01*
X158588000Y-87319000D02*
X158013000Y-86744000D01*
X150493000Y-87319000D02*
X151038000Y-87319000D01*
X151038000Y-87319000D02*
X151613000Y-86744000D01*
%TD*%
%TA.AperFunction,Conductor*%
%TO.N,GND*%
G36*
X143202959Y-95701295D02*
G01*
X143277329Y-95763810D01*
X143322115Y-95850027D01*
X143332001Y-95918940D01*
X143336499Y-97937945D01*
X143336500Y-97938500D01*
X143336500Y-103746463D01*
X143317546Y-103841751D01*
X143263570Y-103922533D01*
X143182788Y-103976509D01*
X143087500Y-103995463D01*
X143083231Y-103995426D01*
X142800718Y-103990582D01*
X142705769Y-103969998D01*
X142625925Y-103914644D01*
X142573341Y-103832949D01*
X142556024Y-103737350D01*
X142563209Y-103689151D01*
X142562228Y-103688969D01*
X142564390Y-103677328D01*
X142574999Y-103558005D01*
X142575000Y-103558002D01*
X142575000Y-103375001D01*
X142574999Y-103375000D01*
X139575001Y-103375000D01*
X139575000Y-103375001D01*
X139575000Y-103558008D01*
X139584077Y-103660102D01*
X139573636Y-103756695D01*
X139527025Y-103841939D01*
X139451341Y-103902857D01*
X139358106Y-103930175D01*
X139331786Y-103931116D01*
X139218011Y-103929165D01*
X139123062Y-103908580D01*
X139043218Y-103853227D01*
X138990634Y-103771532D01*
X138973286Y-103681960D01*
X138964073Y-102374999D01*
X139575000Y-102374999D01*
X139575001Y-102375000D01*
X140574999Y-102375000D01*
X140575000Y-102374999D01*
X141575000Y-102374999D01*
X141575001Y-102375000D01*
X142574999Y-102375000D01*
X142575000Y-102374999D01*
X142575000Y-102191997D01*
X142574999Y-102191994D01*
X142564390Y-102072671D01*
X142564389Y-102072666D01*
X142508442Y-101877140D01*
X142508439Y-101877132D01*
X142414280Y-101696873D01*
X142414276Y-101696867D01*
X142285754Y-101539249D01*
X142285750Y-101539245D01*
X142128132Y-101410723D01*
X142128126Y-101410719D01*
X141947867Y-101316560D01*
X141947859Y-101316557D01*
X141752333Y-101260610D01*
X141752328Y-101260609D01*
X141633005Y-101250000D01*
X141575001Y-101250000D01*
X141575000Y-101250001D01*
X141575000Y-102374999D01*
X140575000Y-102374999D01*
X140575000Y-101250001D01*
X140574999Y-101250000D01*
X140516994Y-101250000D01*
X140397671Y-101260609D01*
X140397666Y-101260610D01*
X140202140Y-101316557D01*
X140202132Y-101316560D01*
X140021873Y-101410719D01*
X140021867Y-101410723D01*
X139864249Y-101539245D01*
X139864245Y-101539249D01*
X139735723Y-101696867D01*
X139735719Y-101696873D01*
X139641560Y-101877132D01*
X139641557Y-101877140D01*
X139585610Y-102072666D01*
X139585609Y-102072671D01*
X139575000Y-102191994D01*
X139575000Y-102374999D01*
X138964073Y-102374999D01*
X138919003Y-95981436D01*
X138937284Y-95886023D01*
X138990690Y-95804863D01*
X139071089Y-95750318D01*
X139166241Y-95730693D01*
X139237467Y-95740575D01*
X139278997Y-95752641D01*
X139279004Y-95752642D01*
X139279007Y-95752643D01*
X139315310Y-95755500D01*
X139315312Y-95755500D01*
X139784688Y-95755500D01*
X139784690Y-95755500D01*
X139820993Y-95752643D01*
X139821011Y-95752637D01*
X139822559Y-95752356D01*
X139824295Y-95752383D01*
X139833675Y-95751645D01*
X139833744Y-95752531D01*
X139919702Y-95753879D01*
X140008867Y-95792460D01*
X140076481Y-95862227D01*
X140100602Y-95910283D01*
X140131204Y-95992331D01*
X140217454Y-96107546D01*
X140332669Y-96193796D01*
X140467517Y-96244091D01*
X140527127Y-96250500D01*
X141622872Y-96250499D01*
X141682483Y-96244091D01*
X141817331Y-96193796D01*
X141932546Y-96107546D01*
X142018796Y-95992331D01*
X142061134Y-95878815D01*
X142112191Y-95796161D01*
X142190993Y-95739335D01*
X142285544Y-95716991D01*
X142313972Y-95717600D01*
X142314795Y-95717664D01*
X142314796Y-95717665D01*
X142350819Y-95720500D01*
X142849180Y-95720499D01*
X142885204Y-95717665D01*
X142981941Y-95689560D01*
X143013534Y-95680382D01*
X143110326Y-95671999D01*
X143202959Y-95701295D01*
G37*
%TD.AperFunction*%
%TA.AperFunction,Conductor*%
G36*
X165866310Y-95906315D02*
G01*
X165939796Y-95927665D01*
X165975819Y-95930500D01*
X166474180Y-95930499D01*
X166499432Y-95928512D01*
X166595912Y-95939934D01*
X166680678Y-95987408D01*
X166740824Y-96063707D01*
X166752259Y-96089725D01*
X166781204Y-96167331D01*
X166867454Y-96282546D01*
X166982669Y-96368796D01*
X167117517Y-96419091D01*
X167177127Y-96425500D01*
X168272872Y-96425499D01*
X168332483Y-96419091D01*
X168467331Y-96368796D01*
X168582546Y-96282546D01*
X168668796Y-96167331D01*
X168682173Y-96131463D01*
X168733229Y-96048811D01*
X168812031Y-95991984D01*
X168906582Y-95969640D01*
X168966175Y-95977037D01*
X168966483Y-95975356D01*
X168979003Y-95977642D01*
X168979007Y-95977643D01*
X169015310Y-95980500D01*
X169015312Y-95980500D01*
X169484688Y-95980500D01*
X169484690Y-95980500D01*
X169520993Y-95977643D01*
X169520997Y-95977641D01*
X169521002Y-95977641D01*
X169684614Y-95930106D01*
X169781407Y-95921721D01*
X169874040Y-95951017D01*
X169948411Y-96013531D01*
X169993197Y-96099747D01*
X170003085Y-96169318D01*
X170000099Y-103627375D01*
X169981107Y-103722655D01*
X169927098Y-103803415D01*
X169846295Y-103857359D01*
X169752521Y-103876271D01*
X169475422Y-103877854D01*
X169380028Y-103859445D01*
X169298939Y-103805931D01*
X169244502Y-103725459D01*
X169225004Y-103630280D01*
X169225000Y-103628858D01*
X169225000Y-103550001D01*
X169224999Y-103550000D01*
X166225001Y-103550000D01*
X166225000Y-103550001D01*
X166225000Y-103648847D01*
X166206046Y-103744135D01*
X166152070Y-103824917D01*
X166071288Y-103878893D01*
X165977422Y-103897843D01*
X165848742Y-103898578D01*
X165753347Y-103880169D01*
X165672259Y-103826654D01*
X165617822Y-103746183D01*
X165598326Y-103651261D01*
X165590918Y-102549999D01*
X166225000Y-102549999D01*
X166225001Y-102550000D01*
X167224999Y-102550000D01*
X167225000Y-102549999D01*
X168225000Y-102549999D01*
X168225001Y-102550000D01*
X169224999Y-102550000D01*
X169225000Y-102549999D01*
X169225000Y-102366997D01*
X169224999Y-102366994D01*
X169214390Y-102247671D01*
X169214389Y-102247666D01*
X169158442Y-102052140D01*
X169158439Y-102052132D01*
X169064280Y-101871873D01*
X169064276Y-101871867D01*
X168935754Y-101714249D01*
X168935750Y-101714245D01*
X168778132Y-101585723D01*
X168778126Y-101585719D01*
X168597867Y-101491560D01*
X168597859Y-101491557D01*
X168402333Y-101435610D01*
X168402328Y-101435609D01*
X168283005Y-101425000D01*
X168225001Y-101425000D01*
X168225000Y-101425001D01*
X168225000Y-102549999D01*
X167225000Y-102549999D01*
X167225000Y-101425001D01*
X167224999Y-101425000D01*
X167166994Y-101425000D01*
X167047671Y-101435609D01*
X167047666Y-101435610D01*
X166852140Y-101491557D01*
X166852132Y-101491560D01*
X166671873Y-101585719D01*
X166671867Y-101585723D01*
X166514249Y-101714245D01*
X166514245Y-101714249D01*
X166385723Y-101871867D01*
X166385719Y-101871873D01*
X166291560Y-102052132D01*
X166291557Y-102052140D01*
X166235610Y-102247666D01*
X166235609Y-102247671D01*
X166225000Y-102366994D01*
X166225000Y-102549999D01*
X165590918Y-102549999D01*
X165547850Y-96147101D01*
X165566162Y-96051690D01*
X165619594Y-95970548D01*
X165700011Y-95916029D01*
X165795169Y-95896435D01*
X165866310Y-95906315D01*
G37*
%TD.AperFunction*%
%TA.AperFunction,Conductor*%
G36*
X139233927Y-91814724D02*
G01*
X139296595Y-91855961D01*
X139298037Y-91854083D01*
X139429656Y-91955080D01*
X139432245Y-91957066D01*
X139573459Y-92015558D01*
X139725000Y-92035509D01*
X139746868Y-92032629D01*
X139779368Y-92030500D01*
X140371282Y-92030500D01*
X140466570Y-92049454D01*
X140547352Y-92103430D01*
X140601328Y-92184212D01*
X140620282Y-92279500D01*
X140601328Y-92374788D01*
X140568825Y-92431084D01*
X140567934Y-92432244D01*
X140567933Y-92432246D01*
X140509442Y-92573456D01*
X140509442Y-92573457D01*
X140502568Y-92625665D01*
X140471337Y-92717663D01*
X140407277Y-92790707D01*
X140320140Y-92833676D01*
X140223193Y-92840028D01*
X140155123Y-92820943D01*
X140083836Y-92789466D01*
X139878171Y-92741094D01*
X139830000Y-92737750D01*
X139830000Y-93945500D01*
X139811046Y-94040788D01*
X139757070Y-94121570D01*
X139676288Y-94175546D01*
X139581000Y-94194500D01*
X139519000Y-94194500D01*
X139423712Y-94175546D01*
X139342930Y-94121570D01*
X139288954Y-94040788D01*
X139270000Y-93945500D01*
X139270000Y-92737751D01*
X139269999Y-92737750D01*
X139221828Y-92741094D01*
X139200498Y-92746111D01*
X139103401Y-92749475D01*
X139012408Y-92715426D01*
X138941372Y-92649147D01*
X138901106Y-92560729D01*
X138894499Y-92505486D01*
X138891269Y-92047189D01*
X138909551Y-91951772D01*
X138962957Y-91870612D01*
X139043356Y-91816067D01*
X139138508Y-91796442D01*
X139233927Y-91814724D01*
G37*
%TD.AperFunction*%
%TA.AperFunction,Conductor*%
G36*
X150864845Y-91017954D02*
G01*
X150902033Y-91037166D01*
X151028852Y-91116852D01*
X151028853Y-91116852D01*
X151028859Y-91116856D01*
X151185300Y-91171597D01*
X151221451Y-91175670D01*
X151349996Y-91190154D01*
X151350000Y-91190154D01*
X151350004Y-91190154D01*
X151466755Y-91176999D01*
X151514700Y-91171597D01*
X151671141Y-91116856D01*
X151675297Y-91114244D01*
X151681407Y-91111911D01*
X151683745Y-91110786D01*
X151683839Y-91110982D01*
X151766053Y-91079594D01*
X151863170Y-91082312D01*
X151951854Y-91121988D01*
X151983843Y-91148997D01*
X152013522Y-91178676D01*
X152153859Y-91266856D01*
X152310300Y-91321597D01*
X152310309Y-91321598D01*
X152321884Y-91324240D01*
X152410568Y-91363918D01*
X152418060Y-91369448D01*
X152441425Y-91387376D01*
X152441428Y-91387379D01*
X152496148Y-91429367D01*
X152532246Y-91457066D01*
X152532250Y-91457068D01*
X152673454Y-91515556D01*
X152673459Y-91515558D01*
X152825000Y-91535509D01*
X152846869Y-91532629D01*
X152879368Y-91530500D01*
X157384000Y-91530500D01*
X157479288Y-91549454D01*
X157560070Y-91603430D01*
X157614046Y-91684212D01*
X157633000Y-91779500D01*
X157633000Y-91961041D01*
X157632999Y-91961041D01*
X157648387Y-92146739D01*
X157700715Y-92353373D01*
X157705733Y-92450399D01*
X157673239Y-92541959D01*
X157608180Y-92614114D01*
X157520461Y-92655881D01*
X157459334Y-92663500D01*
X152166666Y-92663500D01*
X152071378Y-92644546D01*
X151990596Y-92590570D01*
X151936620Y-92509788D01*
X151917666Y-92414500D01*
X151925285Y-92353373D01*
X151977612Y-92146739D01*
X151989854Y-91999000D01*
X150775986Y-91999000D01*
X150793000Y-91955080D01*
X150793000Y-91071198D01*
X150779888Y-91001055D01*
X150864845Y-91017954D01*
G37*
%TD.AperFunction*%
%TA.AperFunction,Conductor*%
G36*
X142541288Y-89012044D02*
G01*
X142622070Y-89066020D01*
X142676046Y-89146802D01*
X142695000Y-89242090D01*
X142695000Y-90379998D01*
X142695001Y-90379999D01*
X142696672Y-90379999D01*
X142745357Y-90377099D01*
X142745367Y-90377098D01*
X142957161Y-90331024D01*
X142957162Y-90331024D01*
X143129965Y-90257026D01*
X143225021Y-90236940D01*
X143320528Y-90254758D01*
X143380596Y-90289172D01*
X143385629Y-90293075D01*
X143385635Y-90293081D01*
X143527102Y-90376744D01*
X143584704Y-90393479D01*
X143670918Y-90438264D01*
X143733433Y-90512635D01*
X143762728Y-90605268D01*
X143754345Y-90702061D01*
X143709559Y-90788277D01*
X143647710Y-90843424D01*
X143563524Y-90896322D01*
X143446323Y-91013523D01*
X143358145Y-91153856D01*
X143358145Y-91153857D01*
X143358144Y-91153859D01*
X143318606Y-91266854D01*
X143303403Y-91310301D01*
X143303401Y-91310306D01*
X143301685Y-91325541D01*
X143272179Y-91418108D01*
X143230321Y-91473726D01*
X143002970Y-91701078D01*
X142978492Y-91722546D01*
X142960989Y-91735977D01*
X142960979Y-91735987D01*
X142947555Y-91753481D01*
X142926087Y-91777960D01*
X142672592Y-92031455D01*
X142591810Y-92085431D01*
X142496522Y-92104385D01*
X142401234Y-92085431D01*
X142320452Y-92031455D01*
X142266476Y-91950674D01*
X142232801Y-91869376D01*
X142232801Y-91869375D01*
X142207068Y-91807250D01*
X142207066Y-91807246D01*
X142171043Y-91760300D01*
X142137379Y-91716428D01*
X142137375Y-91716424D01*
X142134458Y-91712623D01*
X142132417Y-91709962D01*
X142132414Y-91709959D01*
X142114017Y-91685983D01*
X142096524Y-91672560D01*
X142072036Y-91651085D01*
X141498913Y-91077962D01*
X141477438Y-91053474D01*
X141464017Y-91035983D01*
X141458266Y-91031570D01*
X141433575Y-91012623D01*
X141433575Y-91012624D01*
X141433574Y-91012623D01*
X141433572Y-91012621D01*
X141342754Y-90942934D01*
X141342753Y-90942933D01*
X141342749Y-90942931D01*
X141201544Y-90884443D01*
X141201543Y-90884442D01*
X141201541Y-90884442D01*
X141200045Y-90884245D01*
X141200040Y-90884244D01*
X141087782Y-90869464D01*
X140995784Y-90838234D01*
X140922739Y-90774175D01*
X140879770Y-90687038D01*
X140873417Y-90590091D01*
X140890240Y-90527308D01*
X140890558Y-90526542D01*
X140910509Y-90375000D01*
X140898298Y-90282246D01*
X140890559Y-90223459D01*
X140890556Y-90223453D01*
X140889350Y-90218948D01*
X140888739Y-90209636D01*
X140888429Y-90207277D01*
X140888583Y-90207256D01*
X140882995Y-90122001D01*
X140914223Y-90030002D01*
X140978281Y-89956956D01*
X141065416Y-89913984D01*
X141129860Y-89905499D01*
X141192228Y-89905499D01*
X141287514Y-89924453D01*
X141368295Y-89978429D01*
X141514066Y-90124199D01*
X141514074Y-90124206D01*
X141693571Y-90245693D01*
X141693582Y-90245699D01*
X141892833Y-90331023D01*
X141892838Y-90331024D01*
X142104627Y-90377097D01*
X142104645Y-90377100D01*
X142153315Y-90379999D01*
X142154999Y-90379998D01*
X142155000Y-90379998D01*
X142155000Y-89284090D01*
X142173954Y-89188802D01*
X142227930Y-89108020D01*
X142269930Y-89066020D01*
X142350712Y-89012044D01*
X142446000Y-88993090D01*
X142541288Y-89012044D01*
G37*
%TD.AperFunction*%
%TA.AperFunction,Conductor*%
G36*
X150193000Y-91042920D02*
G01*
X150193000Y-91926802D01*
X150205124Y-91991665D01*
X150146712Y-91980046D01*
X150065930Y-91926070D01*
X150011954Y-91845288D01*
X149993000Y-91750000D01*
X149993000Y-91248000D01*
X150011954Y-91152712D01*
X150065930Y-91071930D01*
X150146712Y-91017954D01*
X150207343Y-91005893D01*
X150193000Y-91042920D01*
G37*
%TD.AperFunction*%
%TA.AperFunction,Conductor*%
G36*
X150309288Y-85224068D02*
G01*
X150390070Y-85278044D01*
X150444046Y-85358826D01*
X150453110Y-85384635D01*
X150472506Y-85451395D01*
X150554883Y-85590687D01*
X150669313Y-85705117D01*
X150808605Y-85787494D01*
X150813466Y-85788906D01*
X150821437Y-85793046D01*
X150822982Y-85793715D01*
X150822934Y-85793824D01*
X150899678Y-85833686D01*
X150962196Y-85908054D01*
X150991495Y-86000686D01*
X150993000Y-86028019D01*
X150993000Y-86443999D01*
X150993001Y-86444000D01*
X151363500Y-86444000D01*
X151458788Y-86462954D01*
X151539570Y-86516930D01*
X151593546Y-86597712D01*
X151612500Y-86693000D01*
X151612500Y-86795000D01*
X151593546Y-86890288D01*
X151539570Y-86971070D01*
X151458788Y-87025046D01*
X151363500Y-87044000D01*
X150993001Y-87044000D01*
X150993000Y-87044001D01*
X150993000Y-87570000D01*
X150974046Y-87665288D01*
X150920070Y-87746070D01*
X150839288Y-87800046D01*
X150793000Y-87809253D01*
X150793000Y-86741198D01*
X150777588Y-86658750D01*
X150718543Y-86563390D01*
X150629038Y-86495799D01*
X150521160Y-86465105D01*
X150409479Y-86475454D01*
X150309078Y-86525448D01*
X150233516Y-86608334D01*
X150193000Y-86712920D01*
X150193000Y-87809253D01*
X150146712Y-87800046D01*
X150065930Y-87746070D01*
X150011954Y-87665288D01*
X149993000Y-87570000D01*
X149993000Y-86355687D01*
X149983954Y-86342149D01*
X149965000Y-86246861D01*
X149965000Y-85454114D01*
X149983954Y-85358826D01*
X150037930Y-85278044D01*
X150118712Y-85224068D01*
X150214000Y-85205114D01*
X150309288Y-85224068D01*
G37*
%TD.AperFunction*%
%TA.AperFunction,Conductor*%
G36*
X158833000Y-87809253D02*
G01*
X158786712Y-87800046D01*
X158705930Y-87746070D01*
X158651954Y-87665288D01*
X158633000Y-87570000D01*
X158633000Y-87068000D01*
X158651954Y-86972712D01*
X158705930Y-86891930D01*
X158786712Y-86837954D01*
X158833000Y-86828746D01*
X158833000Y-87809253D01*
G37*
%TD.AperFunction*%
%TA.AperFunction,Conductor*%
G36*
X159467570Y-86891930D02*
G01*
X159521546Y-86972712D01*
X159540500Y-87068000D01*
X159540500Y-87570000D01*
X159521546Y-87665288D01*
X159467570Y-87746070D01*
X159433000Y-87769168D01*
X159433000Y-86868831D01*
X159467570Y-86891930D01*
G37*
%TD.AperFunction*%
%TA.AperFunction,Conductor*%
G36*
X157881995Y-84773954D02*
G01*
X157951983Y-84820718D01*
X157952590Y-84819958D01*
X157961601Y-84827144D01*
X157962773Y-84827927D01*
X157963522Y-84828676D01*
X158103859Y-84916856D01*
X158227839Y-84960238D01*
X158311516Y-85009597D01*
X158369938Y-85087225D01*
X158394205Y-85181300D01*
X158380624Y-85277501D01*
X158331263Y-85361182D01*
X158321668Y-85371332D01*
X158313000Y-85380000D01*
X158313000Y-85747915D01*
X158294046Y-85843203D01*
X158240070Y-85923985D01*
X158159288Y-85977961D01*
X158064000Y-85996915D01*
X157968712Y-85977961D01*
X157887930Y-85923985D01*
X157881082Y-85917137D01*
X157881081Y-85917135D01*
X157785927Y-85821981D01*
X157731954Y-85741203D01*
X157713000Y-85645915D01*
X157713000Y-85380001D01*
X157712999Y-85380000D01*
X157494500Y-85380000D01*
X157399212Y-85361046D01*
X157318430Y-85307070D01*
X157264454Y-85226288D01*
X157245500Y-85131002D01*
X157245499Y-85082036D01*
X157245499Y-85003999D01*
X157264452Y-84908714D01*
X157318428Y-84827932D01*
X157399209Y-84773955D01*
X157494497Y-84755000D01*
X157786707Y-84755000D01*
X157881995Y-84773954D01*
G37*
%TD.AperFunction*%
%TA.AperFunction,Conductor*%
G36*
X145049209Y-82826621D02*
G01*
X145129991Y-82880597D01*
X145183967Y-82961379D01*
X145202921Y-83056667D01*
X145200791Y-83089168D01*
X145193436Y-83145034D01*
X145193435Y-83145043D01*
X145189492Y-83174999D01*
X145192370Y-83196861D01*
X145194500Y-83229361D01*
X145194500Y-84252901D01*
X145175546Y-84348189D01*
X145121570Y-84428971D01*
X145040788Y-84482947D01*
X144945500Y-84501901D01*
X144850212Y-84482947D01*
X144769430Y-84428971D01*
X144715454Y-84348189D01*
X144709138Y-84331222D01*
X144708989Y-84330772D01*
X144662246Y-84189707D01*
X144573552Y-84045913D01*
X144454087Y-83926448D01*
X144310293Y-83837754D01*
X144310292Y-83837753D01*
X144310291Y-83837753D01*
X144149922Y-83784613D01*
X144116925Y-83781242D01*
X144050935Y-83774500D01*
X144050931Y-83774500D01*
X142799069Y-83774500D01*
X142700078Y-83784613D01*
X142539708Y-83837753D01*
X142395913Y-83926448D01*
X142276448Y-84045913D01*
X142187753Y-84189708D01*
X142187752Y-84189711D01*
X142152086Y-84297345D01*
X142104121Y-84381834D01*
X142027475Y-84441537D01*
X141933815Y-84467364D01*
X141837402Y-84455383D01*
X141752913Y-84407418D01*
X141693210Y-84330772D01*
X141676611Y-84288486D01*
X141672870Y-84275610D01*
X141672870Y-84275609D01*
X141657725Y-84250000D01*
X141591135Y-84137402D01*
X141580277Y-84126544D01*
X141553429Y-84099695D01*
X141499453Y-84018913D01*
X141480500Y-83923627D01*
X141480500Y-83729368D01*
X141482630Y-83696868D01*
X141484749Y-83680769D01*
X141485509Y-83675000D01*
X141477018Y-83610509D01*
X141465558Y-83523459D01*
X141450240Y-83486478D01*
X141434974Y-83449621D01*
X141416020Y-83354332D01*
X141434974Y-83259044D01*
X141488951Y-83178263D01*
X141569732Y-83124287D01*
X141665021Y-83105333D01*
X141729469Y-83113818D01*
X141735950Y-83115554D01*
X141735959Y-83115558D01*
X141887500Y-83135509D01*
X141909369Y-83132629D01*
X141941868Y-83130500D01*
X144233139Y-83130500D01*
X144265638Y-83132629D01*
X144287500Y-83135508D01*
X144325541Y-83130500D01*
X144325547Y-83130500D01*
X144439041Y-83115558D01*
X144580254Y-83057066D01*
X144609738Y-83034442D01*
X144671072Y-82987379D01*
X144671074Y-82987376D01*
X144701517Y-82964017D01*
X144714942Y-82946521D01*
X144736406Y-82922043D01*
X144777857Y-82880592D01*
X144858633Y-82826621D01*
X144953921Y-82807667D01*
X145049209Y-82826621D01*
G37*
%TD.AperFunction*%
%TA.AperFunction,Conductor*%
G36*
X167371582Y-82085924D02*
G01*
X167442137Y-82116269D01*
X167482850Y-82141851D01*
X167482853Y-82141852D01*
X167482859Y-82141856D01*
X167579315Y-82175607D01*
X167662993Y-82224968D01*
X167721414Y-82302596D01*
X167745681Y-82396672D01*
X167732100Y-82492873D01*
X167682738Y-82576553D01*
X167673143Y-82586702D01*
X167558825Y-82701020D01*
X167470645Y-82841356D01*
X167470640Y-82841366D01*
X167469805Y-82843755D01*
X167468095Y-82846653D01*
X167464580Y-82853953D01*
X167463963Y-82853656D01*
X167420439Y-82927433D01*
X167342808Y-82985849D01*
X167248731Y-83010111D01*
X167152530Y-82996524D01*
X167126752Y-82985846D01*
X167121144Y-82983145D01*
X166964700Y-82928403D01*
X166964689Y-82928401D01*
X166887536Y-82919708D01*
X166794969Y-82890204D01*
X166720739Y-82827523D01*
X166704586Y-82804758D01*
X166678676Y-82763522D01*
X166570719Y-82655565D01*
X166516746Y-82574787D01*
X166497792Y-82479499D01*
X166516746Y-82384211D01*
X166570722Y-82303429D01*
X166651504Y-82249453D01*
X166746790Y-82230499D01*
X166874180Y-82230499D01*
X166910204Y-82227665D01*
X167064393Y-82182869D01*
X167182916Y-82112774D01*
X167274574Y-82080586D01*
X167371582Y-82085924D01*
G37*
%TD.AperFunction*%
%TA.AperFunction,Conductor*%
G36*
X132529532Y-75224231D02*
G01*
X132610314Y-75278207D01*
X133964907Y-76632800D01*
X134006119Y-76561419D01*
X134006120Y-76561418D01*
X134077989Y-76378297D01*
X134130445Y-76296520D01*
X134210202Y-76241042D01*
X134305119Y-76220309D01*
X134400745Y-76237477D01*
X134458998Y-76269931D01*
X134480008Y-76285659D01*
X134557669Y-76343796D01*
X134692517Y-76394091D01*
X134752127Y-76400500D01*
X137170866Y-76400499D01*
X137266154Y-76419453D01*
X137346936Y-76473429D01*
X137400912Y-76554211D01*
X137419866Y-76649499D01*
X137405893Y-76731737D01*
X137378404Y-76810295D01*
X137378401Y-76810310D01*
X137359846Y-76974996D01*
X137359846Y-76975003D01*
X137378401Y-77139689D01*
X137378403Y-77139700D01*
X137433144Y-77296141D01*
X137521324Y-77436478D01*
X137638522Y-77553676D01*
X137778859Y-77641856D01*
X137934723Y-77696395D01*
X137935300Y-77696597D01*
X137944493Y-77698695D01*
X138033176Y-77738374D01*
X138074117Y-77777810D01*
X138074447Y-77777481D01*
X138085982Y-77789016D01*
X138085983Y-77789017D01*
X138207246Y-77882066D01*
X138240787Y-77895959D01*
X138321566Y-77949932D01*
X138375544Y-78030713D01*
X138394500Y-78126000D01*
X138394500Y-78698500D01*
X138375546Y-78793788D01*
X138321570Y-78874570D01*
X138240788Y-78928546D01*
X138145500Y-78947500D01*
X131896375Y-78947500D01*
X131801087Y-78928546D01*
X131720305Y-78874570D01*
X131666329Y-78793788D01*
X131647383Y-78700508D01*
X131645952Y-78523070D01*
X131639544Y-77728463D01*
X131657728Y-77633031D01*
X131711051Y-77551817D01*
X131791395Y-77497191D01*
X131886527Y-77477469D01*
X131961931Y-77488524D01*
X132034492Y-77510906D01*
X132293854Y-77550000D01*
X132556146Y-77550000D01*
X132815510Y-77510906D01*
X133066141Y-77433596D01*
X133066146Y-77433594D01*
X133258739Y-77340846D01*
X131893962Y-75976069D01*
X131839986Y-75895287D01*
X131821032Y-75799999D01*
X131839986Y-75704711D01*
X131893962Y-75623929D01*
X132239684Y-75278207D01*
X132320466Y-75224231D01*
X132415754Y-75205277D01*
X132434244Y-75205277D01*
X132529532Y-75224231D01*
G37*
%TD.AperFunction*%
%TA.AperFunction,Conductor*%
G36*
X147847012Y-78026954D02*
G01*
X147878473Y-78042674D01*
X147907450Y-78059811D01*
X147979820Y-78124630D01*
X148021877Y-78212210D01*
X148027216Y-78309218D01*
X147995026Y-78400885D01*
X147932284Y-78471679D01*
X147890142Y-78504017D01*
X147890140Y-78504018D01*
X147837324Y-78544545D01*
X147750189Y-78587516D01*
X147685743Y-78596000D01*
X147494114Y-78596000D01*
X147398826Y-78577046D01*
X147318044Y-78523070D01*
X147264068Y-78442288D01*
X147245114Y-78347000D01*
X147264068Y-78251712D01*
X147318044Y-78170930D01*
X147398826Y-78116954D01*
X147424635Y-78107889D01*
X147491395Y-78088494D01*
X147568871Y-78042674D01*
X147660537Y-78010484D01*
X147695621Y-78008000D01*
X147751724Y-78008000D01*
X147847012Y-78026954D01*
G37*
%TD.AperFunction*%
%TA.AperFunction,Conductor*%
G36*
X161973507Y-75139844D02*
G01*
X162051239Y-75260798D01*
X162159900Y-75354952D01*
X162290685Y-75414680D01*
X162397237Y-75430000D01*
X162182000Y-75430000D01*
X162086712Y-75411046D01*
X162005930Y-75357070D01*
X161951954Y-75276288D01*
X161933000Y-75181000D01*
X161933000Y-75001889D01*
X161973507Y-75139844D01*
G37*
%TD.AperFunction*%
%TA.AperFunction,Conductor*%
G36*
X162933000Y-75181000D02*
G01*
X162914046Y-75276288D01*
X162860070Y-75357070D01*
X162779288Y-75411046D01*
X162684000Y-75430000D01*
X162468763Y-75430000D01*
X162575315Y-75414680D01*
X162706100Y-75354952D01*
X162814761Y-75260798D01*
X162892493Y-75139844D01*
X162933000Y-75001889D01*
X162933000Y-75181000D01*
G37*
%TD.AperFunction*%
%TA.AperFunction,Conductor*%
G36*
X162632877Y-74447454D02*
G01*
X162713659Y-74501430D01*
X162789818Y-74577589D01*
X162706100Y-74505048D01*
X162575315Y-74445320D01*
X162468763Y-74430000D01*
X162397237Y-74430000D01*
X162290685Y-74445320D01*
X162159900Y-74505048D01*
X162051239Y-74599202D01*
X161973507Y-74720156D01*
X161933000Y-74858111D01*
X161933000Y-74784789D01*
X161951954Y-74689501D01*
X162005930Y-74608719D01*
X162059654Y-74572822D01*
X162057527Y-74569138D01*
X162071660Y-74560977D01*
X162071664Y-74560976D01*
X162162482Y-74491289D01*
X162162482Y-74491287D01*
X162175975Y-74480935D01*
X162175983Y-74480945D01*
X162176057Y-74480871D01*
X162177330Y-74479895D01*
X162264483Y-74436959D01*
X162328833Y-74428500D01*
X162537589Y-74428500D01*
X162632877Y-74447454D01*
G37*
%TD.AperFunction*%
%TA.AperFunction,Conductor*%
G36*
X162860070Y-74647841D02*
G01*
X162914046Y-74728623D01*
X162933000Y-74823911D01*
X162933000Y-74858111D01*
X162892493Y-74720156D01*
X162820749Y-74608520D01*
X162860070Y-74647841D01*
G37*
%TD.AperFunction*%
%TA.AperFunction,Conductor*%
G36*
X139142554Y-70624454D02*
G01*
X139223336Y-70678430D01*
X139277312Y-70759212D01*
X139282284Y-70772239D01*
X139308144Y-70846141D01*
X139396324Y-70986478D01*
X139513522Y-71103676D01*
X139653859Y-71191856D01*
X139810300Y-71246597D01*
X139846451Y-71250670D01*
X139974996Y-71265154D01*
X139975000Y-71265154D01*
X139975004Y-71265154D01*
X140082559Y-71253035D01*
X140139700Y-71246597D01*
X140209004Y-71222346D01*
X140305201Y-71208765D01*
X140399276Y-71233031D01*
X140476905Y-71291451D01*
X140526267Y-71375132D01*
X140539849Y-71471333D01*
X140531757Y-71521816D01*
X140514937Y-71584592D01*
X140514935Y-71584598D01*
X140494341Y-71819994D01*
X140494341Y-71820005D01*
X140514935Y-72055401D01*
X140548053Y-72179002D01*
X140576097Y-72283663D01*
X140644366Y-72430066D01*
X140675965Y-72497830D01*
X140736606Y-72584435D01*
X140811505Y-72691401D01*
X140978599Y-72858495D01*
X141017925Y-72886031D01*
X141085107Y-72956209D01*
X141120321Y-73046758D01*
X141118202Y-73143890D01*
X141079074Y-73232818D01*
X141017928Y-73293965D01*
X140978602Y-73321501D01*
X140964477Y-73335627D01*
X140883694Y-73389601D01*
X140788405Y-73408553D01*
X140693118Y-73389597D01*
X140612337Y-73335619D01*
X140590867Y-73311136D01*
X140579501Y-73296324D01*
X140574767Y-73290154D01*
X140542841Y-73248546D01*
X140532426Y-73234972D01*
X140532408Y-73234951D01*
X140532100Y-73234549D01*
X140514017Y-73210983D01*
X140514015Y-73210982D01*
X140514015Y-73210981D01*
X140496524Y-73197560D01*
X140472036Y-73176085D01*
X140073913Y-72777962D01*
X140052438Y-72753474D01*
X140039017Y-72735983D01*
X140039012Y-72735979D01*
X140008575Y-72712623D01*
X140008575Y-72712624D01*
X140008574Y-72712623D01*
X140008572Y-72712621D01*
X139917754Y-72642934D01*
X139917753Y-72642933D01*
X139917747Y-72642930D01*
X139776544Y-72584443D01*
X139776542Y-72584442D01*
X139776541Y-72584442D01*
X139776540Y-72584441D01*
X139776516Y-72584435D01*
X139775801Y-72584344D01*
X139655018Y-72568442D01*
X139654955Y-72568435D01*
X139631253Y-72565315D01*
X139625000Y-72564492D01*
X139624999Y-72564492D01*
X139603137Y-72567370D01*
X139570639Y-72569500D01*
X137805234Y-72569500D01*
X137709946Y-72550546D01*
X137629164Y-72496570D01*
X137604983Y-72466934D01*
X137604824Y-72467062D01*
X137584492Y-72441567D01*
X137490094Y-72323195D01*
X137474886Y-72304125D01*
X137430294Y-72217808D01*
X137422128Y-72120997D01*
X137451631Y-72028430D01*
X137489584Y-71976803D01*
X137531632Y-71932825D01*
X137655635Y-71744968D01*
X137744103Y-71537988D01*
X137794191Y-71318537D01*
X137794191Y-71318533D01*
X137794192Y-71318529D01*
X137804290Y-71093667D01*
X137776420Y-70887925D01*
X137782411Y-70790955D01*
X137825055Y-70703659D01*
X137897860Y-70639327D01*
X137989741Y-70607754D01*
X138023166Y-70605500D01*
X139047266Y-70605500D01*
X139142554Y-70624454D01*
G37*
%TD.AperFunction*%
%TA.AperFunction,Conductor*%
G36*
X147106026Y-70580320D02*
G01*
X147193667Y-70622251D01*
X147220516Y-70645515D01*
X147290001Y-70715000D01*
X148810500Y-70715000D01*
X148905788Y-70733954D01*
X148986570Y-70787930D01*
X149040546Y-70868712D01*
X149059500Y-70963999D01*
X149059501Y-71365999D01*
X149040547Y-71461288D01*
X148986571Y-71542069D01*
X148905790Y-71596046D01*
X148810502Y-71615000D01*
X147290001Y-71615000D01*
X147290000Y-71615001D01*
X147290000Y-71973003D01*
X147298931Y-72073447D01*
X147288490Y-72170040D01*
X147241880Y-72255284D01*
X147166197Y-72316203D01*
X147072962Y-72343522D01*
X147050909Y-72344500D01*
X145393591Y-72344500D01*
X145298303Y-72325546D01*
X145217521Y-72271570D01*
X144968913Y-72022962D01*
X144947438Y-71998474D01*
X144945443Y-71995874D01*
X144934017Y-71980983D01*
X144903574Y-71957623D01*
X144903572Y-71957621D01*
X144812754Y-71887934D01*
X144812753Y-71887933D01*
X144812749Y-71887931D01*
X144656463Y-71823196D01*
X144656981Y-71821944D01*
X144585812Y-71786847D01*
X144561324Y-71765373D01*
X144108109Y-71312158D01*
X144054133Y-71231376D01*
X144035179Y-71136088D01*
X144054133Y-71040800D01*
X144108109Y-70960018D01*
X144188891Y-70906042D01*
X144201940Y-70901061D01*
X144214696Y-70896597D01*
X144214700Y-70896597D01*
X144371141Y-70841856D01*
X144433311Y-70802791D01*
X144524077Y-70768143D01*
X144621194Y-70770868D01*
X144691023Y-70802113D01*
X144692036Y-70800260D01*
X144707665Y-70808794D01*
X144707667Y-70808794D01*
X144707669Y-70808796D01*
X144842517Y-70859091D01*
X144902127Y-70865500D01*
X146497872Y-70865499D01*
X146557483Y-70859091D01*
X146692331Y-70808796D01*
X146807546Y-70722546D01*
X146845112Y-70672363D01*
X146917389Y-70607441D01*
X147009010Y-70575119D01*
X147106026Y-70580320D01*
G37*
%TD.AperFunction*%
%TA.AperFunction,Conductor*%
G36*
X147318585Y-67823978D02*
G01*
X147363803Y-67859754D01*
X147483495Y-67979446D01*
X147537471Y-68060228D01*
X147548148Y-68101548D01*
X147550289Y-68101060D01*
X147553401Y-68114693D01*
X147553402Y-68114698D01*
X147553403Y-68114700D01*
X147608144Y-68271141D01*
X147608145Y-68271142D01*
X147608145Y-68271143D01*
X147614902Y-68281897D01*
X147696324Y-68411478D01*
X147813522Y-68528676D01*
X147953859Y-68616856D01*
X148110300Y-68671597D01*
X148146451Y-68675670D01*
X148274996Y-68690154D01*
X148275000Y-68690154D01*
X148275004Y-68690154D01*
X148382559Y-68678035D01*
X148439700Y-68671597D01*
X148446072Y-68669367D01*
X148542267Y-68655783D01*
X148636343Y-68680047D01*
X148713973Y-68738465D01*
X148763338Y-68822144D01*
X148776923Y-68918345D01*
X148752659Y-69012421D01*
X148704385Y-69080460D01*
X148646325Y-69138520D01*
X148550704Y-69290700D01*
X148548817Y-69289514D01*
X148502049Y-69351661D01*
X148418370Y-69401025D01*
X148336125Y-69415000D01*
X148231994Y-69415000D01*
X148112671Y-69425609D01*
X148112666Y-69425610D01*
X147917140Y-69481557D01*
X147917132Y-69481560D01*
X147736873Y-69575719D01*
X147736867Y-69575723D01*
X147579249Y-69704245D01*
X147579245Y-69704249D01*
X147450723Y-69861867D01*
X147450719Y-69861873D01*
X147420202Y-69920295D01*
X147359283Y-69995979D01*
X147274039Y-70042589D01*
X147177447Y-70053030D01*
X147084212Y-70025711D01*
X147008528Y-69964792D01*
X146961918Y-69879548D01*
X146950499Y-69805008D01*
X146950499Y-69417134D01*
X146950499Y-69417128D01*
X146944091Y-69357517D01*
X146944089Y-69357513D01*
X146940509Y-69342361D01*
X146943523Y-69341648D01*
X146932092Y-69271125D01*
X146942632Y-69218144D01*
X146940509Y-69217643D01*
X146944090Y-69202485D01*
X146944089Y-69202485D01*
X146944091Y-69202483D01*
X146950500Y-69142873D01*
X146950499Y-68147128D01*
X146944091Y-68087517D01*
X146944090Y-68087516D01*
X146942426Y-68072028D01*
X146944647Y-68071789D01*
X146941938Y-67996003D01*
X146975887Y-67904972D01*
X147042088Y-67833863D01*
X147130461Y-67793500D01*
X147227554Y-67790029D01*
X147318585Y-67823978D01*
G37*
%TD.AperFunction*%
%TA.AperFunction,Conductor*%
G36*
X149614432Y-66218518D02*
G01*
X149700749Y-66263110D01*
X149763430Y-66337340D01*
X149792934Y-66429907D01*
X149794500Y-66457786D01*
X149794500Y-66670257D01*
X149792370Y-66702756D01*
X149789492Y-66724617D01*
X149793435Y-66754573D01*
X149793436Y-66754583D01*
X149807659Y-66862613D01*
X149807659Y-66862628D01*
X149809440Y-66876150D01*
X149809441Y-66876155D01*
X149809442Y-66876159D01*
X149867934Y-67017371D01*
X149867936Y-67017375D01*
X149940676Y-67112172D01*
X149960977Y-67138628D01*
X149960979Y-67138630D01*
X149960983Y-67138635D01*
X149978475Y-67152057D01*
X150002962Y-67173531D01*
X150325108Y-67495677D01*
X150379084Y-67576459D01*
X150398038Y-67671747D01*
X150379084Y-67767035D01*
X150325108Y-67847817D01*
X150244326Y-67901793D01*
X150205913Y-67912085D01*
X150206217Y-67913220D01*
X150190456Y-67917442D01*
X150049250Y-67975931D01*
X150049247Y-67975933D01*
X149961733Y-68043085D01*
X149961609Y-68043178D01*
X149927987Y-68068979D01*
X149927979Y-68068987D01*
X149914555Y-68086481D01*
X149893087Y-68110960D01*
X149195550Y-68808497D01*
X149114768Y-68862473D01*
X149073439Y-68873140D01*
X149073931Y-68875292D01*
X149060294Y-68878404D01*
X149053916Y-68880636D01*
X148957714Y-68894214D01*
X148863640Y-68869943D01*
X148786014Y-68811519D01*
X148736656Y-68727836D01*
X148723078Y-68631634D01*
X148747349Y-68537560D01*
X148795615Y-68469538D01*
X148853676Y-68411478D01*
X148941856Y-68271141D01*
X148996597Y-68114700D01*
X149004380Y-68045621D01*
X149015154Y-67950003D01*
X149015154Y-67949996D01*
X149000140Y-67816749D01*
X148996597Y-67785300D01*
X148941856Y-67628859D01*
X148853676Y-67488522D01*
X148736478Y-67371324D01*
X148636490Y-67308497D01*
X148596143Y-67283145D01*
X148596142Y-67283144D01*
X148596141Y-67283144D01*
X148439700Y-67228403D01*
X148439698Y-67228402D01*
X148439693Y-67228401D01*
X148426060Y-67225289D01*
X148426885Y-67221670D01*
X148359883Y-67200252D01*
X148304446Y-67158495D01*
X148178430Y-67032479D01*
X148124454Y-66951697D01*
X148105500Y-66856409D01*
X148105500Y-66842430D01*
X148124454Y-66747142D01*
X148178430Y-66666360D01*
X148259212Y-66612384D01*
X148272206Y-66607423D01*
X148388141Y-66566856D01*
X148435356Y-66537187D01*
X148526120Y-66502540D01*
X148595712Y-66500587D01*
X148724997Y-66515154D01*
X148725000Y-66515154D01*
X148725004Y-66515154D01*
X148854287Y-66500587D01*
X148889700Y-66496597D01*
X149046141Y-66441856D01*
X149186478Y-66353676D01*
X149255400Y-66284753D01*
X149336178Y-66230779D01*
X149431466Y-66211824D01*
X149459336Y-66213389D01*
X149475000Y-66215154D01*
X149508790Y-66211346D01*
X149517621Y-66210352D01*
X149614432Y-66218518D01*
G37*
%TD.AperFunction*%
%TA.AperFunction,Conductor*%
G36*
X154068721Y-65074454D02*
G01*
X154149503Y-65128430D01*
X154203479Y-65209212D01*
X154208455Y-65222249D01*
X154249934Y-65340787D01*
X154338114Y-65481124D01*
X154455312Y-65598322D01*
X154595649Y-65686502D01*
X154752090Y-65741243D01*
X154764075Y-65742593D01*
X154812642Y-65748066D01*
X154905209Y-65777569D01*
X154918544Y-65788829D01*
X154953529Y-65765454D01*
X155020938Y-65748066D01*
X155081484Y-65741244D01*
X155081485Y-65741243D01*
X155081490Y-65741243D01*
X155143705Y-65719472D01*
X155225945Y-65705500D01*
X156069689Y-65705500D01*
X156164977Y-65724454D01*
X156202165Y-65743666D01*
X156267416Y-65784666D01*
X156338015Y-65851411D01*
X156377697Y-65940092D01*
X156380422Y-66037209D01*
X156345774Y-66127976D01*
X156279029Y-66198575D01*
X156190348Y-66238257D01*
X156134940Y-66244500D01*
X155048817Y-66244500D01*
X154953529Y-66225546D01*
X154917781Y-66201660D01*
X154853696Y-66234768D01*
X154784763Y-66244500D01*
X152543591Y-66244500D01*
X152448303Y-66225546D01*
X152367521Y-66171570D01*
X152291098Y-66095147D01*
X152237122Y-66014365D01*
X152218168Y-65919077D01*
X152237122Y-65823789D01*
X152291098Y-65743007D01*
X152371880Y-65689031D01*
X152426134Y-65675037D01*
X152426060Y-65674710D01*
X152437759Y-65672039D01*
X152439299Y-65671642D01*
X152439700Y-65671597D01*
X152596141Y-65616856D01*
X152736478Y-65528676D01*
X152853676Y-65411478D01*
X152941856Y-65271141D01*
X152958961Y-65222258D01*
X153008324Y-65138578D01*
X153085952Y-65080158D01*
X153180028Y-65055892D01*
X153193987Y-65055500D01*
X153973433Y-65055500D01*
X154068721Y-65074454D01*
G37*
%TD.AperFunction*%
%TA.AperFunction,Conductor*%
G36*
X157989977Y-65074454D02*
G01*
X158027163Y-65093664D01*
X158103859Y-65141856D01*
X158260300Y-65196597D01*
X158260301Y-65196597D01*
X158273930Y-65199708D01*
X158273097Y-65203355D01*
X158339792Y-65224567D01*
X158395552Y-65266503D01*
X158948479Y-65819430D01*
X159002455Y-65900212D01*
X159021409Y-65995500D01*
X159002455Y-66090788D01*
X158948479Y-66171570D01*
X158867697Y-66225546D01*
X158772409Y-66244500D01*
X157065060Y-66244500D01*
X156969772Y-66225546D01*
X156888990Y-66171570D01*
X156835014Y-66090788D01*
X156816060Y-65995500D01*
X156835014Y-65900212D01*
X156888990Y-65819430D01*
X156932584Y-65784666D01*
X156990832Y-65748066D01*
X157061478Y-65703676D01*
X157178676Y-65586478D01*
X157266856Y-65446141D01*
X157321597Y-65289700D01*
X157323070Y-65276621D01*
X157352573Y-65184056D01*
X157415254Y-65109825D01*
X157501571Y-65065232D01*
X157570505Y-65055500D01*
X157894689Y-65055500D01*
X157989977Y-65074454D01*
G37*
%TD.AperFunction*%
%TA.AperFunction,Conductor*%
G36*
X168815031Y-54252954D02*
G01*
X168846494Y-54268675D01*
X168852311Y-54272115D01*
X168852313Y-54272117D01*
X168991605Y-54354494D01*
X169058359Y-54373888D01*
X169144573Y-54418674D01*
X169160375Y-54437473D01*
X169184351Y-54421454D01*
X169279639Y-54402500D01*
X169449000Y-54402500D01*
X169544288Y-54421454D01*
X169625070Y-54475430D01*
X169679046Y-54556212D01*
X169698000Y-54651500D01*
X169698000Y-55859246D01*
X169740261Y-55856314D01*
X169836633Y-55868626D01*
X169920957Y-55916880D01*
X169980397Y-55993731D01*
X170005903Y-56087478D01*
X170006500Y-56104717D01*
X170006500Y-62828766D01*
X169987546Y-62924054D01*
X169933570Y-63004836D01*
X169852788Y-63058812D01*
X169757500Y-63077766D01*
X169662212Y-63058812D01*
X169652285Y-63054444D01*
X169579330Y-63020425D01*
X169579328Y-63020424D01*
X169452638Y-62986478D01*
X169367977Y-62963793D01*
X169150000Y-62944723D01*
X168932023Y-62963793D01*
X168932021Y-62963793D01*
X168826944Y-62991949D01*
X168729997Y-62998303D01*
X168637998Y-62967073D01*
X168564954Y-62903014D01*
X168521983Y-62815878D01*
X168513499Y-62751433D01*
X168513499Y-61811134D01*
X168513499Y-61811128D01*
X168507091Y-61751517D01*
X168456796Y-61616669D01*
X168370546Y-61501454D01*
X168255331Y-61415204D01*
X168120483Y-61364909D01*
X168120482Y-61364908D01*
X168105889Y-61359466D01*
X168106664Y-61357386D01*
X168037606Y-61325846D01*
X167985704Y-61275465D01*
X167950379Y-61229428D01*
X167950376Y-61229425D01*
X167927017Y-61198983D01*
X167927015Y-61198982D01*
X167927015Y-61198981D01*
X167909524Y-61185560D01*
X167885036Y-61164085D01*
X167822020Y-61101069D01*
X167768044Y-61020287D01*
X167749090Y-60924999D01*
X167768044Y-60829711D01*
X167822018Y-60748932D01*
X168347039Y-60223910D01*
X168371517Y-60202444D01*
X168389017Y-60189017D01*
X168399907Y-60174823D01*
X168399912Y-60174819D01*
X168413875Y-60156623D01*
X168454652Y-60103481D01*
X168458500Y-60098466D01*
X168458501Y-60098463D01*
X168458505Y-60098459D01*
X168482066Y-60067754D01*
X168533768Y-59942934D01*
X168540558Y-59926542D01*
X168545960Y-59885508D01*
X168555500Y-59813047D01*
X168555500Y-59813046D01*
X168556564Y-59804965D01*
X168556565Y-59804950D01*
X168560508Y-59774999D01*
X168557630Y-59753137D01*
X168555500Y-59720639D01*
X168555500Y-57455311D01*
X168574454Y-57360023D01*
X168593666Y-57322834D01*
X168594730Y-57321141D01*
X168641856Y-57246141D01*
X168696597Y-57089700D01*
X168707526Y-56992705D01*
X168715154Y-56925003D01*
X168715154Y-56924996D01*
X168696598Y-56760310D01*
X168696597Y-56760302D01*
X168696597Y-56760300D01*
X168641856Y-56603859D01*
X168564791Y-56481212D01*
X168530145Y-56390449D01*
X168532870Y-56293333D01*
X168572551Y-56204651D01*
X168618273Y-56155760D01*
X168723751Y-56069753D01*
X168723759Y-56069745D01*
X168830568Y-55938756D01*
X168905474Y-55876884D01*
X168998356Y-55848387D01*
X169080556Y-55853724D01*
X169089825Y-55855904D01*
X169138000Y-55859247D01*
X169138000Y-54862001D01*
X169107594Y-54831595D01*
X169076605Y-54841395D01*
X169056000Y-54862001D01*
X169056000Y-54985000D01*
X169037046Y-55080288D01*
X168983070Y-55161070D01*
X168902288Y-55215046D01*
X168807000Y-55234000D01*
X167262000Y-55234000D01*
X167166712Y-55215046D01*
X167085930Y-55161070D01*
X167031954Y-55080288D01*
X167013000Y-54985000D01*
X167013000Y-54483000D01*
X167031954Y-54387712D01*
X167085930Y-54306930D01*
X167166712Y-54252954D01*
X167262000Y-54234000D01*
X168719743Y-54234000D01*
X168815031Y-54252954D01*
G37*
%TD.AperFunction*%
%TA.AperFunction,Conductor*%
G36*
X161365649Y-52897454D02*
G01*
X161446431Y-52951430D01*
X161450001Y-52955000D01*
X163401000Y-52955000D01*
X163496288Y-52973954D01*
X163577070Y-53027930D01*
X163631046Y-53108712D01*
X163650000Y-53204000D01*
X163650000Y-53475500D01*
X163631046Y-53570788D01*
X163577070Y-53651570D01*
X163496288Y-53705546D01*
X163401000Y-53724500D01*
X162402134Y-53724500D01*
X162402130Y-53724500D01*
X162402128Y-53724501D01*
X162389314Y-53725878D01*
X162342519Y-53730908D01*
X162342515Y-53730909D01*
X162207667Y-53781204D01*
X162175435Y-53805334D01*
X162087794Y-53847265D01*
X162026214Y-53855000D01*
X161450001Y-53855000D01*
X161450000Y-53855001D01*
X161450000Y-53913005D01*
X161460609Y-54032328D01*
X161460610Y-54032333D01*
X161516557Y-54227859D01*
X161516560Y-54227867D01*
X161610719Y-54408126D01*
X161610723Y-54408132D01*
X161739245Y-54565750D01*
X161739248Y-54565753D01*
X161857854Y-54662464D01*
X161919726Y-54737371D01*
X161948223Y-54830253D01*
X161949500Y-54855442D01*
X161949500Y-55172865D01*
X161949501Y-55172881D01*
X161949941Y-55176968D01*
X161949803Y-55178505D01*
X161949858Y-55179524D01*
X161949711Y-55179531D01*
X161941278Y-55273735D01*
X161896243Y-55359822D01*
X161821692Y-55422122D01*
X161797662Y-55433618D01*
X161787254Y-55437929D01*
X161787247Y-55437933D01*
X161699733Y-55505085D01*
X161699609Y-55505178D01*
X161665987Y-55530979D01*
X161665979Y-55530987D01*
X161652555Y-55548481D01*
X161631087Y-55572960D01*
X159195550Y-58008497D01*
X159114768Y-58062473D01*
X159073439Y-58073140D01*
X159073931Y-58075292D01*
X159060303Y-58078402D01*
X159060300Y-58078402D01*
X159060300Y-58078403D01*
X158903859Y-58133144D01*
X158903857Y-58133145D01*
X158903856Y-58133145D01*
X158763523Y-58221323D01*
X158646323Y-58338523D01*
X158558145Y-58478856D01*
X158558144Y-58478859D01*
X158503403Y-58635299D01*
X158503401Y-58635310D01*
X158484846Y-58799996D01*
X158484846Y-58800003D01*
X158503401Y-58964689D01*
X158503403Y-58964700D01*
X158558144Y-59121141D01*
X158646324Y-59261478D01*
X158763522Y-59378676D01*
X158903859Y-59466856D01*
X159002741Y-59501456D01*
X159086420Y-59550817D01*
X159144841Y-59628445D01*
X159169108Y-59722520D01*
X159169500Y-59736482D01*
X159169500Y-60131408D01*
X159150546Y-60226696D01*
X159096570Y-60307478D01*
X157623060Y-61780987D01*
X157542278Y-61834963D01*
X157446990Y-61853917D01*
X157351702Y-61834963D01*
X157270920Y-61780987D01*
X157236155Y-61737393D01*
X157221896Y-61714700D01*
X157206164Y-61689662D01*
X157171518Y-61598897D01*
X157168000Y-61557188D01*
X157168000Y-61116868D01*
X157170130Y-61084368D01*
X157171871Y-61071141D01*
X157173009Y-61062500D01*
X157164577Y-60998457D01*
X157153058Y-60910959D01*
X157136161Y-60870166D01*
X157094568Y-60769750D01*
X157094563Y-60769742D01*
X157053996Y-60716874D01*
X157053994Y-60716871D01*
X157053982Y-60716856D01*
X157024879Y-60678928D01*
X157024876Y-60678925D01*
X157001517Y-60648483D01*
X157001515Y-60648482D01*
X157001515Y-60648481D01*
X156984024Y-60635060D01*
X156959536Y-60613585D01*
X156391503Y-60045552D01*
X156337527Y-59964770D01*
X156326877Y-59923434D01*
X156324708Y-59923930D01*
X156321597Y-59910301D01*
X156321597Y-59910300D01*
X156266856Y-59753859D01*
X156178676Y-59613522D01*
X156061478Y-59496324D01*
X156061475Y-59496322D01*
X155966522Y-59436658D01*
X155895924Y-59369912D01*
X155856242Y-59281231D01*
X155850000Y-59225825D01*
X155850000Y-59166997D01*
X155849999Y-59166994D01*
X155839390Y-59047671D01*
X155839389Y-59047666D01*
X155783442Y-58852140D01*
X155783439Y-58852132D01*
X155689280Y-58671873D01*
X155689276Y-58671867D01*
X155560754Y-58514249D01*
X155560750Y-58514245D01*
X155403132Y-58385723D01*
X155403126Y-58385719D01*
X155222867Y-58291560D01*
X155222859Y-58291557D01*
X155027333Y-58235610D01*
X155027328Y-58235609D01*
X154908005Y-58225000D01*
X153450001Y-58225000D01*
X153450000Y-58225001D01*
X153450000Y-59274999D01*
X153450001Y-59275000D01*
X154551000Y-59275000D01*
X154646288Y-59293954D01*
X154727070Y-59347930D01*
X154781046Y-59428712D01*
X154800000Y-59524000D01*
X154800000Y-60809825D01*
X154786027Y-60892063D01*
X154753404Y-60985294D01*
X154753401Y-60985308D01*
X154734846Y-61149994D01*
X154734846Y-61150002D01*
X154753401Y-61314688D01*
X154753403Y-61314699D01*
X154786027Y-61407932D01*
X154800000Y-61490171D01*
X154800000Y-62726000D01*
X154781046Y-62821288D01*
X154727070Y-62902070D01*
X154646288Y-62956046D01*
X154551000Y-62975000D01*
X151349000Y-62975000D01*
X151253712Y-62956046D01*
X151172930Y-62902070D01*
X151118954Y-62821288D01*
X151100000Y-62726000D01*
X151100000Y-62074999D01*
X152000000Y-62074999D01*
X152000001Y-62075000D01*
X152499999Y-62075000D01*
X152500000Y-62074999D01*
X153400000Y-62074999D01*
X153400001Y-62075000D01*
X153899999Y-62075000D01*
X153900000Y-62074999D01*
X153900000Y-61575001D01*
X153899999Y-61575000D01*
X153450001Y-61575000D01*
X153400000Y-61625001D01*
X153400000Y-62074999D01*
X152500000Y-62074999D01*
X152500000Y-61625001D01*
X152449999Y-61575000D01*
X152000001Y-61575000D01*
X152000000Y-61575001D01*
X152000000Y-62074999D01*
X151100000Y-62074999D01*
X151100000Y-60674999D01*
X152000000Y-60674999D01*
X152000001Y-60675000D01*
X152449999Y-60675000D01*
X152450000Y-60674999D01*
X153450000Y-60674999D01*
X153450001Y-60675000D01*
X153899999Y-60675000D01*
X153900000Y-60674999D01*
X153900000Y-60175001D01*
X153899999Y-60175000D01*
X153450001Y-60175000D01*
X153450000Y-60175001D01*
X153450000Y-60674999D01*
X152450000Y-60674999D01*
X152450000Y-60175001D01*
X152449999Y-60175000D01*
X152000001Y-60175000D01*
X152000000Y-60175001D01*
X152000000Y-60674999D01*
X151100000Y-60674999D01*
X151100000Y-59524000D01*
X151118954Y-59428712D01*
X151172930Y-59347930D01*
X151253712Y-59293954D01*
X151349000Y-59275000D01*
X152449999Y-59275000D01*
X152450000Y-59274999D01*
X152450000Y-58225001D01*
X152449999Y-58225000D01*
X151154500Y-58225000D01*
X151059212Y-58206046D01*
X150978430Y-58152070D01*
X150924454Y-58071288D01*
X150905500Y-57976000D01*
X150905500Y-57530311D01*
X150924454Y-57435023D01*
X150943666Y-57397834D01*
X150991856Y-57321141D01*
X151046597Y-57164700D01*
X151060380Y-57042370D01*
X151065154Y-57000003D01*
X151065154Y-56999996D01*
X151046598Y-56835310D01*
X151046597Y-56835300D01*
X150991856Y-56678859D01*
X150903676Y-56538522D01*
X150786478Y-56421324D01*
X150700594Y-56367359D01*
X150646143Y-56333145D01*
X150646142Y-56333144D01*
X150646141Y-56333144D01*
X150489700Y-56278403D01*
X150489689Y-56278401D01*
X150325004Y-56259846D01*
X150324996Y-56259846D01*
X150160310Y-56278401D01*
X150160299Y-56278403D01*
X150003849Y-56333147D01*
X149999820Y-56335088D01*
X149994057Y-56336573D01*
X149990660Y-56337763D01*
X149990559Y-56337476D01*
X149905743Y-56359350D01*
X149809543Y-56345763D01*
X149725865Y-56296396D01*
X149667449Y-56218765D01*
X149643187Y-56124688D01*
X149656774Y-56028488D01*
X149680960Y-55978267D01*
X149716856Y-55921141D01*
X149771597Y-55764700D01*
X149790154Y-55600000D01*
X149789719Y-55596141D01*
X149775670Y-55471451D01*
X149771597Y-55435300D01*
X149716856Y-55278859D01*
X149628676Y-55138522D01*
X149511478Y-55021324D01*
X149410131Y-54957643D01*
X149371143Y-54933145D01*
X149371142Y-54933144D01*
X149371141Y-54933144D01*
X149214700Y-54878403D01*
X149214689Y-54878401D01*
X149050004Y-54859846D01*
X149049996Y-54859846D01*
X148885310Y-54878401D01*
X148885299Y-54878403D01*
X148728859Y-54933144D01*
X148728856Y-54933145D01*
X148588523Y-55021323D01*
X148471323Y-55138523D01*
X148383145Y-55278856D01*
X148383144Y-55278859D01*
X148328403Y-55435299D01*
X148328401Y-55435310D01*
X148309846Y-55599996D01*
X148309846Y-55600003D01*
X148328401Y-55764689D01*
X148328403Y-55764700D01*
X148382895Y-55920430D01*
X148383144Y-55921140D01*
X148383145Y-55921143D01*
X148394212Y-55938756D01*
X148430556Y-55996597D01*
X148431334Y-55997834D01*
X148465982Y-56088601D01*
X148469500Y-56130311D01*
X148469500Y-58901408D01*
X148450546Y-58996696D01*
X148396570Y-59077478D01*
X147375569Y-60098478D01*
X147294787Y-60152454D01*
X147199499Y-60171408D01*
X147104211Y-60152454D01*
X147023429Y-60098478D01*
X146969453Y-60017696D01*
X146950499Y-59922411D01*
X146950499Y-59257128D01*
X146944091Y-59197517D01*
X146944089Y-59197513D01*
X146940509Y-59182361D01*
X146943523Y-59181648D01*
X146932092Y-59111125D01*
X146942632Y-59058144D01*
X146940509Y-59057643D01*
X146944090Y-59042485D01*
X146944089Y-59042485D01*
X146944091Y-59042483D01*
X146950500Y-58982873D01*
X146950499Y-57987128D01*
X146944091Y-57927517D01*
X146944089Y-57927513D01*
X146940509Y-57912361D01*
X146943523Y-57911648D01*
X146932092Y-57841125D01*
X146942632Y-57788144D01*
X146940509Y-57787643D01*
X146944090Y-57772485D01*
X146944089Y-57772485D01*
X146944091Y-57772483D01*
X146950500Y-57712873D01*
X146950499Y-56717128D01*
X146944091Y-56657517D01*
X146944089Y-56657513D01*
X146940509Y-56642361D01*
X146943523Y-56641648D01*
X146932092Y-56571125D01*
X146942632Y-56518144D01*
X146940509Y-56517643D01*
X146944090Y-56502485D01*
X146944089Y-56502485D01*
X146944091Y-56502483D01*
X146950500Y-56442873D01*
X146950499Y-55447128D01*
X146944091Y-55387517D01*
X146944089Y-55387513D01*
X146940509Y-55372361D01*
X146943523Y-55371648D01*
X146932092Y-55301125D01*
X146942632Y-55248144D01*
X146940509Y-55247643D01*
X146944090Y-55232485D01*
X146944089Y-55232485D01*
X146944091Y-55232483D01*
X146950500Y-55172873D01*
X146950499Y-54855441D01*
X146969453Y-54760157D01*
X147023429Y-54679375D01*
X147042145Y-54662466D01*
X147160745Y-54565759D01*
X147160754Y-54565750D01*
X147289276Y-54408132D01*
X147289280Y-54408126D01*
X147383439Y-54227867D01*
X147383442Y-54227859D01*
X147439389Y-54032333D01*
X147439390Y-54032328D01*
X147449999Y-53913005D01*
X147450000Y-53913002D01*
X147450000Y-53855001D01*
X147449999Y-53855000D01*
X146873786Y-53855000D01*
X146778498Y-53836046D01*
X146724565Y-53805334D01*
X146692333Y-53781205D01*
X146692331Y-53781204D01*
X146618525Y-53753676D01*
X146557481Y-53730908D01*
X146497876Y-53724500D01*
X145499000Y-53724500D01*
X145403712Y-53705546D01*
X145322930Y-53651570D01*
X145268954Y-53570788D01*
X145250000Y-53475500D01*
X145250000Y-53204000D01*
X145268954Y-53108712D01*
X145322930Y-53027930D01*
X145403712Y-52973954D01*
X145499000Y-52955000D01*
X147449999Y-52955000D01*
X147453569Y-52951430D01*
X147534351Y-52897454D01*
X147629639Y-52878500D01*
X161270361Y-52878500D01*
X161365649Y-52897454D01*
G37*
%TD.AperFunction*%
%TA.AperFunction,Conductor*%
G36*
X166000420Y-56002018D02*
G01*
X166075576Y-56010486D01*
X166116999Y-56015154D01*
X166130984Y-56015154D01*
X166130984Y-56016361D01*
X166213662Y-56023334D01*
X166299980Y-56067923D01*
X166302092Y-56069626D01*
X166459867Y-56198276D01*
X166459873Y-56198280D01*
X166640132Y-56292439D01*
X166640140Y-56292442D01*
X166835666Y-56348389D01*
X166835671Y-56348390D01*
X166954994Y-56358999D01*
X166954998Y-56359000D01*
X167042892Y-56359000D01*
X167138180Y-56377954D01*
X167218962Y-56431930D01*
X167272938Y-56512712D01*
X167291892Y-56608000D01*
X167277919Y-56690234D01*
X167253403Y-56760300D01*
X167253403Y-56760302D01*
X167253401Y-56760309D01*
X167246010Y-56825908D01*
X167216506Y-56918475D01*
X167153824Y-56992705D01*
X167067507Y-57037297D01*
X166970696Y-57045462D01*
X166966078Y-57044898D01*
X166925004Y-57039491D01*
X166925001Y-57039491D01*
X166925000Y-57039491D01*
X166903132Y-57042370D01*
X166870632Y-57044500D01*
X166518591Y-57044500D01*
X166423303Y-57025546D01*
X166342521Y-56971570D01*
X165796474Y-56425523D01*
X165742498Y-56344741D01*
X165723544Y-56249453D01*
X165742498Y-56154165D01*
X165796474Y-56073383D01*
X165877256Y-56019407D01*
X165972544Y-56000453D01*
X166000420Y-56002018D01*
G37*
%TD.AperFunction*%
%TA.AperFunction,Conductor*%
G36*
X164910570Y-54560383D02*
G01*
X164985477Y-54622254D01*
X165031005Y-54708082D01*
X165041500Y-54779603D01*
X165041500Y-54811167D01*
X165041501Y-54811184D01*
X165044334Y-54847199D01*
X165044336Y-54847209D01*
X165089129Y-55001388D01*
X165089129Y-55001390D01*
X165134298Y-55077767D01*
X165170865Y-55139598D01*
X165284402Y-55253135D01*
X165284407Y-55253138D01*
X165296781Y-55262736D01*
X165294654Y-55265477D01*
X165346391Y-55311822D01*
X165388442Y-55399405D01*
X165394695Y-55433429D01*
X165395400Y-55439686D01*
X165395402Y-55439696D01*
X165395403Y-55439700D01*
X165450144Y-55596141D01*
X165450146Y-55596144D01*
X165452602Y-55603163D01*
X165466183Y-55699364D01*
X165441916Y-55793440D01*
X165383496Y-55871068D01*
X165299815Y-55920430D01*
X165203614Y-55934011D01*
X165185076Y-55932273D01*
X165079985Y-55918438D01*
X165079959Y-55918435D01*
X165059467Y-55915738D01*
X164967467Y-55884512D01*
X164915888Y-55844937D01*
X164643913Y-55572962D01*
X164622438Y-55548474D01*
X164609020Y-55530987D01*
X164609017Y-55530983D01*
X164578574Y-55507623D01*
X164578572Y-55507621D01*
X164537480Y-55476090D01*
X164473422Y-55403044D01*
X164442193Y-55311045D01*
X164445375Y-55248287D01*
X164442426Y-55247970D01*
X164444091Y-55232483D01*
X164450500Y-55172873D01*
X164450499Y-54855441D01*
X164469453Y-54760157D01*
X164523429Y-54679375D01*
X164542143Y-54662467D01*
X164635144Y-54586633D01*
X164720972Y-54541105D01*
X164817688Y-54531887D01*
X164910570Y-54560383D01*
G37*
%TD.AperFunction*%
%TA.AperFunction,Conductor*%
G36*
X143816279Y-53870068D02*
G01*
X143897066Y-53924036D01*
X143951050Y-54004812D01*
X143960407Y-54031625D01*
X144016557Y-54227859D01*
X144016560Y-54227867D01*
X144110719Y-54408126D01*
X144110723Y-54408132D01*
X144239245Y-54565750D01*
X144239250Y-54565755D01*
X144286776Y-54604508D01*
X144348648Y-54679415D01*
X144377144Y-54772297D01*
X144367926Y-54869014D01*
X144322399Y-54954841D01*
X144305491Y-54973556D01*
X144036620Y-55242427D01*
X143955838Y-55296403D01*
X143860550Y-55315357D01*
X143765262Y-55296403D01*
X143684480Y-55242427D01*
X143630504Y-55161645D01*
X143611550Y-55066357D01*
X143612530Y-55044290D01*
X143612999Y-55039012D01*
X143613000Y-55039002D01*
X143613000Y-54856001D01*
X143612999Y-54856000D01*
X141482898Y-54856000D01*
X141387610Y-54837046D01*
X141306828Y-54783070D01*
X141252852Y-54702288D01*
X141233898Y-54607000D01*
X141243785Y-54537532D01*
X141260091Y-54481406D01*
X141304877Y-54395189D01*
X141347618Y-54353333D01*
X141464017Y-54264017D01*
X141466345Y-54260983D01*
X141557066Y-54142755D01*
X141603954Y-54029554D01*
X141657929Y-53948775D01*
X141738710Y-53894798D01*
X141833998Y-53875843D01*
X141861878Y-53877409D01*
X141974996Y-53890154D01*
X141975000Y-53890154D01*
X141975004Y-53890154D01*
X142139693Y-53871598D01*
X142139694Y-53871597D01*
X142139700Y-53871597D01*
X142141063Y-53871119D01*
X142144340Y-53869974D01*
X142226581Y-53856000D01*
X143696488Y-53856000D01*
X143720988Y-53851124D01*
X143816279Y-53870068D01*
G37*
%TD.AperFunction*%
%TA.AperFunction,Conductor*%
G36*
X166161679Y-41493954D02*
G01*
X166242461Y-41547930D01*
X166296437Y-41628712D01*
X166315391Y-41724000D01*
X166311201Y-41769485D01*
X166310610Y-41772665D01*
X166300000Y-41891994D01*
X166300000Y-42074999D01*
X166300001Y-42075000D01*
X169299999Y-42075000D01*
X169300000Y-42074999D01*
X169300000Y-41891997D01*
X169299999Y-41891994D01*
X169289389Y-41772665D01*
X169288799Y-41769485D01*
X169288837Y-41766451D01*
X169288342Y-41760880D01*
X169288908Y-41760829D01*
X169290027Y-41672338D01*
X169328339Y-41583056D01*
X169397901Y-41515231D01*
X169488124Y-41479190D01*
X169533609Y-41475000D01*
X169757500Y-41475000D01*
X169852788Y-41493954D01*
X169933570Y-41547930D01*
X169987546Y-41628712D01*
X170006500Y-41724000D01*
X170006500Y-50073861D01*
X169987546Y-50169149D01*
X169933570Y-50249931D01*
X169852788Y-50303907D01*
X169757500Y-50322861D01*
X169688031Y-50312974D01*
X169561999Y-50276358D01*
X169561990Y-50276356D01*
X169525698Y-50273500D01*
X169525690Y-50273500D01*
X169434591Y-50273500D01*
X169339303Y-50254546D01*
X169258521Y-50200570D01*
X169010913Y-49952962D01*
X168989438Y-49928474D01*
X168976017Y-49910983D01*
X168945574Y-49887623D01*
X168945572Y-49887621D01*
X168897913Y-49851051D01*
X168833857Y-49778007D01*
X168802629Y-49686008D01*
X168800499Y-49653509D01*
X168800499Y-49652134D01*
X168800499Y-49652128D01*
X168794091Y-49592517D01*
X168743796Y-49457669D01*
X168657546Y-49342454D01*
X168542331Y-49256204D01*
X168462117Y-49226286D01*
X168407481Y-49205908D01*
X168347873Y-49199500D01*
X167252134Y-49199500D01*
X167252130Y-49199500D01*
X167252128Y-49199501D01*
X167239314Y-49200878D01*
X167192519Y-49205908D01*
X167192515Y-49205909D01*
X167057670Y-49256203D01*
X166942455Y-49342453D01*
X166942453Y-49342455D01*
X166856204Y-49457669D01*
X166805908Y-49592517D01*
X166801974Y-49629113D01*
X166772941Y-49721828D01*
X166710638Y-49796376D01*
X166679704Y-49817582D01*
X166591733Y-49885085D01*
X166591609Y-49885178D01*
X166557987Y-49910979D01*
X166557979Y-49910987D01*
X166544555Y-49928481D01*
X166523087Y-49952960D01*
X166265477Y-50210570D01*
X166184695Y-50264546D01*
X166089409Y-50283500D01*
X165993830Y-50283500D01*
X165993814Y-50283501D01*
X165957800Y-50286334D01*
X165957793Y-50286335D01*
X165868466Y-50312287D01*
X165771674Y-50320669D01*
X165679041Y-50291372D01*
X165604671Y-50228856D01*
X165559886Y-50142639D01*
X165550000Y-50073173D01*
X165550000Y-43258005D01*
X166300000Y-43258005D01*
X166310609Y-43377328D01*
X166310610Y-43377333D01*
X166366557Y-43572859D01*
X166366560Y-43572867D01*
X166460719Y-43753126D01*
X166460723Y-43753132D01*
X166589245Y-43910750D01*
X166589249Y-43910754D01*
X166746867Y-44039276D01*
X166746873Y-44039280D01*
X166927132Y-44133439D01*
X166927140Y-44133442D01*
X167122666Y-44189389D01*
X167122671Y-44189390D01*
X167241994Y-44199999D01*
X167241998Y-44200000D01*
X167299999Y-44200000D01*
X167300000Y-44199999D01*
X168300000Y-44199999D01*
X168300001Y-44200000D01*
X168358002Y-44200000D01*
X168358005Y-44199999D01*
X168477328Y-44189390D01*
X168477333Y-44189389D01*
X168672859Y-44133442D01*
X168672867Y-44133439D01*
X168853126Y-44039280D01*
X168853132Y-44039276D01*
X169010750Y-43910754D01*
X169010754Y-43910750D01*
X169139276Y-43753132D01*
X169139280Y-43753126D01*
X169233439Y-43572867D01*
X169233442Y-43572859D01*
X169289389Y-43377333D01*
X169289390Y-43377328D01*
X169299999Y-43258005D01*
X169300000Y-43258002D01*
X169300000Y-43075001D01*
X169299999Y-43075000D01*
X168300001Y-43075000D01*
X168300000Y-43075001D01*
X168300000Y-44199999D01*
X167300000Y-44199999D01*
X167300000Y-43075001D01*
X167299999Y-43075000D01*
X166300001Y-43075000D01*
X166300000Y-43075001D01*
X166300000Y-43258005D01*
X165550000Y-43258005D01*
X165550000Y-41724000D01*
X165568954Y-41628712D01*
X165622930Y-41547930D01*
X165703712Y-41493954D01*
X165799000Y-41475000D01*
X166066391Y-41475000D01*
X166161679Y-41493954D01*
G37*
%TD.AperFunction*%
%TA.AperFunction,Conductor*%
G36*
X139496905Y-41543954D02*
G01*
X139577687Y-41597930D01*
X139631663Y-41678712D01*
X139650617Y-41774000D01*
X139650065Y-41786463D01*
X139650245Y-41786471D01*
X139650000Y-41791997D01*
X139650000Y-41974999D01*
X139650001Y-41975000D01*
X142649999Y-41975000D01*
X142650000Y-41974999D01*
X142650000Y-41791997D01*
X142649755Y-41786471D01*
X142651394Y-41786398D01*
X142660822Y-41699396D01*
X142707455Y-41614164D01*
X142783155Y-41553266D01*
X142876397Y-41525973D01*
X142898383Y-41525000D01*
X143005397Y-41525000D01*
X143100685Y-41543954D01*
X143181467Y-41597930D01*
X143235443Y-41678712D01*
X143254357Y-41769564D01*
X143336460Y-46377582D01*
X143336500Y-46382018D01*
X143336500Y-49819861D01*
X143317546Y-49915149D01*
X143263570Y-49995931D01*
X143182788Y-50049907D01*
X143087500Y-50068861D01*
X143018031Y-50058974D01*
X142891999Y-50022358D01*
X142891990Y-50022356D01*
X142855698Y-50019500D01*
X142855690Y-50019500D01*
X142399499Y-50019500D01*
X142304211Y-50000546D01*
X142223429Y-49946570D01*
X142169453Y-49865788D01*
X142150499Y-49770500D01*
X142150499Y-49552134D01*
X142150499Y-49552128D01*
X142144091Y-49492517D01*
X142093796Y-49357669D01*
X142007546Y-49242454D01*
X141892331Y-49156204D01*
X141812117Y-49126286D01*
X141757481Y-49105908D01*
X141697873Y-49099500D01*
X140602134Y-49099500D01*
X140602130Y-49099500D01*
X140602128Y-49099501D01*
X140589314Y-49100878D01*
X140542519Y-49105908D01*
X140542515Y-49105909D01*
X140407670Y-49156203D01*
X140292455Y-49242453D01*
X140292453Y-49242455D01*
X140206204Y-49357669D01*
X140155908Y-49492518D01*
X140149500Y-49552123D01*
X140149500Y-49782941D01*
X140130546Y-49878229D01*
X140076570Y-49959011D01*
X139995788Y-50012987D01*
X139900500Y-50031941D01*
X139870891Y-50029259D01*
X139870886Y-50029333D01*
X139822184Y-50025500D01*
X139323829Y-50025500D01*
X139323815Y-50025501D01*
X139287800Y-50028334D01*
X139287796Y-50028335D01*
X139175967Y-50060824D01*
X139079174Y-50069206D01*
X138986542Y-50039909D01*
X138912172Y-49977394D01*
X138867386Y-49891177D01*
X138857500Y-49821710D01*
X138857500Y-43158005D01*
X139650000Y-43158005D01*
X139660609Y-43277328D01*
X139660610Y-43277333D01*
X139716557Y-43472859D01*
X139716560Y-43472867D01*
X139810719Y-43653126D01*
X139810723Y-43653132D01*
X139939245Y-43810750D01*
X139939249Y-43810754D01*
X140096867Y-43939276D01*
X140096873Y-43939280D01*
X140277132Y-44033439D01*
X140277140Y-44033442D01*
X140472666Y-44089389D01*
X140472671Y-44089390D01*
X140591994Y-44099999D01*
X140591998Y-44100000D01*
X140649999Y-44100000D01*
X140650000Y-44099999D01*
X141650000Y-44099999D01*
X141650001Y-44100000D01*
X141708002Y-44100000D01*
X141708005Y-44099999D01*
X141827328Y-44089390D01*
X141827333Y-44089389D01*
X142022859Y-44033442D01*
X142022867Y-44033439D01*
X142203126Y-43939280D01*
X142203132Y-43939276D01*
X142360750Y-43810754D01*
X142360754Y-43810750D01*
X142489276Y-43653132D01*
X142489280Y-43653126D01*
X142583439Y-43472867D01*
X142583442Y-43472859D01*
X142639389Y-43277333D01*
X142639390Y-43277328D01*
X142649999Y-43158005D01*
X142650000Y-43158002D01*
X142650000Y-42975001D01*
X142649999Y-42975000D01*
X141650001Y-42975000D01*
X141650000Y-42975001D01*
X141650000Y-44099999D01*
X140650000Y-44099999D01*
X140650000Y-42975001D01*
X140649999Y-42975000D01*
X139650001Y-42975000D01*
X139650000Y-42975001D01*
X139650000Y-43158005D01*
X138857500Y-43158005D01*
X138857500Y-41774000D01*
X138876454Y-41678712D01*
X138930430Y-41597930D01*
X139011212Y-41543954D01*
X139106500Y-41525000D01*
X139401617Y-41525000D01*
X139496905Y-41543954D01*
G37*
%TD.AperFunction*%
%TD*%
M02*
