%TF.GenerationSoftware,KiCad,Pcbnew,7.0.10*%
%TF.CreationDate,2024-12-04T03:17:35+05:30*%
%TF.ProjectId,Watch_v3,57617463-685f-4763-932e-6b696361645f,Watch_v3*%
%TF.SameCoordinates,Original*%
%TF.FileFunction,Legend,Top*%
%TF.FilePolarity,Positive*%
%FSLAX46Y46*%
G04 Gerber Fmt 4.6, Leading zero omitted, Abs format (unit mm)*
G04 Created by KiCad (PCBNEW 7.0.10) date 2024-12-04 03:17:35*
%MOMM*%
%LPD*%
G01*
G04 APERTURE LIST*
%ADD10C,0.200000*%
%ADD11C,0.160000*%
%ADD12C,0.120000*%
%ADD13C,0.100000*%
G04 APERTURE END LIST*
D10*
X162075000Y-83925000D02*
G75*
G03*
X162025000Y-83925000I-25000J0D01*
G01*
X162025000Y-83925000D02*
G75*
G03*
X162075000Y-83925000I25000J0D01*
G01*
X139370711Y-106250000D02*
G75*
G03*
X139229289Y-106250000I-70711J0D01*
G01*
X139229289Y-106250000D02*
G75*
G03*
X139370711Y-106250000I70711J0D01*
G01*
X138275000Y-97650000D02*
G75*
G03*
X138133578Y-97650000I-70711J0D01*
G01*
X138133578Y-97650000D02*
G75*
G03*
X138275000Y-97650000I70711J0D01*
G01*
D11*
X160721428Y-81479299D02*
X160721428Y-80479299D01*
X161123810Y-81479299D02*
X161061905Y-81431680D01*
X161061905Y-81431680D02*
X161030952Y-81384060D01*
X161030952Y-81384060D02*
X161000000Y-81288822D01*
X161000000Y-81288822D02*
X161000000Y-81003108D01*
X161000000Y-81003108D02*
X161030952Y-80907870D01*
X161030952Y-80907870D02*
X161061905Y-80860251D01*
X161061905Y-80860251D02*
X161123810Y-80812632D01*
X161123810Y-80812632D02*
X161216667Y-80812632D01*
X161216667Y-80812632D02*
X161278571Y-80860251D01*
X161278571Y-80860251D02*
X161309524Y-80907870D01*
X161309524Y-80907870D02*
X161340476Y-81003108D01*
X161340476Y-81003108D02*
X161340476Y-81288822D01*
X161340476Y-81288822D02*
X161309524Y-81384060D01*
X161309524Y-81384060D02*
X161278571Y-81431680D01*
X161278571Y-81431680D02*
X161216667Y-81479299D01*
X161216667Y-81479299D02*
X161123810Y-81479299D01*
X161742857Y-80479299D02*
X161804762Y-80479299D01*
X161804762Y-80479299D02*
X161866666Y-80526918D01*
X161866666Y-80526918D02*
X161897619Y-80574537D01*
X161897619Y-80574537D02*
X161928571Y-80669775D01*
X161928571Y-80669775D02*
X161959524Y-80860251D01*
X161959524Y-80860251D02*
X161959524Y-81098346D01*
X161959524Y-81098346D02*
X161928571Y-81288822D01*
X161928571Y-81288822D02*
X161897619Y-81384060D01*
X161897619Y-81384060D02*
X161866666Y-81431680D01*
X161866666Y-81431680D02*
X161804762Y-81479299D01*
X161804762Y-81479299D02*
X161742857Y-81479299D01*
X161742857Y-81479299D02*
X161680952Y-81431680D01*
X161680952Y-81431680D02*
X161650000Y-81384060D01*
X161650000Y-81384060D02*
X161619047Y-81288822D01*
X161619047Y-81288822D02*
X161588095Y-81098346D01*
X161588095Y-81098346D02*
X161588095Y-80860251D01*
X161588095Y-80860251D02*
X161619047Y-80669775D01*
X161619047Y-80669775D02*
X161650000Y-80574537D01*
X161650000Y-80574537D02*
X161680952Y-80526918D01*
X161680952Y-80526918D02*
X161742857Y-80479299D01*
X143322617Y-96079299D02*
X143322617Y-95079299D01*
X143322617Y-95079299D02*
X143539284Y-95793584D01*
X143539284Y-95793584D02*
X143755951Y-95079299D01*
X143755951Y-95079299D02*
X143755951Y-96079299D01*
X144034522Y-95793584D02*
X144344046Y-95793584D01*
X143972617Y-96079299D02*
X144189284Y-95079299D01*
X144189284Y-95079299D02*
X144405951Y-96079299D01*
X144560713Y-95079299D02*
X144994046Y-96079299D01*
X144994046Y-95079299D02*
X144560713Y-96079299D01*
X145179761Y-95079299D02*
X145582142Y-95079299D01*
X145582142Y-95079299D02*
X145365475Y-95460251D01*
X145365475Y-95460251D02*
X145458332Y-95460251D01*
X145458332Y-95460251D02*
X145520237Y-95507870D01*
X145520237Y-95507870D02*
X145551189Y-95555489D01*
X145551189Y-95555489D02*
X145582142Y-95650727D01*
X145582142Y-95650727D02*
X145582142Y-95888822D01*
X145582142Y-95888822D02*
X145551189Y-95984060D01*
X145551189Y-95984060D02*
X145520237Y-96031680D01*
X145520237Y-96031680D02*
X145458332Y-96079299D01*
X145458332Y-96079299D02*
X145272618Y-96079299D01*
X145272618Y-96079299D02*
X145210713Y-96031680D01*
X145210713Y-96031680D02*
X145179761Y-95984060D01*
X145984523Y-95079299D02*
X146046428Y-95079299D01*
X146046428Y-95079299D02*
X146108332Y-95126918D01*
X146108332Y-95126918D02*
X146139285Y-95174537D01*
X146139285Y-95174537D02*
X146170237Y-95269775D01*
X146170237Y-95269775D02*
X146201190Y-95460251D01*
X146201190Y-95460251D02*
X146201190Y-95698346D01*
X146201190Y-95698346D02*
X146170237Y-95888822D01*
X146170237Y-95888822D02*
X146139285Y-95984060D01*
X146139285Y-95984060D02*
X146108332Y-96031680D01*
X146108332Y-96031680D02*
X146046428Y-96079299D01*
X146046428Y-96079299D02*
X145984523Y-96079299D01*
X145984523Y-96079299D02*
X145922618Y-96031680D01*
X145922618Y-96031680D02*
X145891666Y-95984060D01*
X145891666Y-95984060D02*
X145860713Y-95888822D01*
X145860713Y-95888822D02*
X145829761Y-95698346D01*
X145829761Y-95698346D02*
X145829761Y-95460251D01*
X145829761Y-95460251D02*
X145860713Y-95269775D01*
X145860713Y-95269775D02*
X145891666Y-95174537D01*
X145891666Y-95174537D02*
X145922618Y-95126918D01*
X145922618Y-95126918D02*
X145984523Y-95079299D01*
X146820238Y-96079299D02*
X146448809Y-96079299D01*
X146634523Y-96079299D02*
X146634523Y-95079299D01*
X146634523Y-95079299D02*
X146572619Y-95222156D01*
X146572619Y-95222156D02*
X146510714Y-95317394D01*
X146510714Y-95317394D02*
X146448809Y-95365013D01*
X147222619Y-95079299D02*
X147284524Y-95079299D01*
X147284524Y-95079299D02*
X147346428Y-95126918D01*
X147346428Y-95126918D02*
X147377381Y-95174537D01*
X147377381Y-95174537D02*
X147408333Y-95269775D01*
X147408333Y-95269775D02*
X147439286Y-95460251D01*
X147439286Y-95460251D02*
X147439286Y-95698346D01*
X147439286Y-95698346D02*
X147408333Y-95888822D01*
X147408333Y-95888822D02*
X147377381Y-95984060D01*
X147377381Y-95984060D02*
X147346428Y-96031680D01*
X147346428Y-96031680D02*
X147284524Y-96079299D01*
X147284524Y-96079299D02*
X147222619Y-96079299D01*
X147222619Y-96079299D02*
X147160714Y-96031680D01*
X147160714Y-96031680D02*
X147129762Y-95984060D01*
X147129762Y-95984060D02*
X147098809Y-95888822D01*
X147098809Y-95888822D02*
X147067857Y-95698346D01*
X147067857Y-95698346D02*
X147067857Y-95460251D01*
X147067857Y-95460251D02*
X147098809Y-95269775D01*
X147098809Y-95269775D02*
X147129762Y-95174537D01*
X147129762Y-95174537D02*
X147160714Y-95126918D01*
X147160714Y-95126918D02*
X147222619Y-95079299D01*
X147686905Y-95174537D02*
X147717857Y-95126918D01*
X147717857Y-95126918D02*
X147779762Y-95079299D01*
X147779762Y-95079299D02*
X147934524Y-95079299D01*
X147934524Y-95079299D02*
X147996429Y-95126918D01*
X147996429Y-95126918D02*
X148027381Y-95174537D01*
X148027381Y-95174537D02*
X148058334Y-95269775D01*
X148058334Y-95269775D02*
X148058334Y-95365013D01*
X148058334Y-95365013D02*
X148027381Y-95507870D01*
X148027381Y-95507870D02*
X147655953Y-96079299D01*
X147655953Y-96079299D02*
X148058334Y-96079299D01*
X134220238Y-81005489D02*
X134436905Y-81005489D01*
X134529762Y-81529299D02*
X134220238Y-81529299D01*
X134220238Y-81529299D02*
X134220238Y-80529299D01*
X134220238Y-80529299D02*
X134529762Y-80529299D01*
X134808333Y-81529299D02*
X134808333Y-80529299D01*
X134808333Y-80529299D02*
X135179762Y-81529299D01*
X135179762Y-81529299D02*
X135179762Y-80529299D01*
X134904299Y-73098809D02*
X133904299Y-73098809D01*
X133904299Y-73098809D02*
X133904299Y-72944047D01*
X133904299Y-72944047D02*
X133951918Y-72851190D01*
X133951918Y-72851190D02*
X134047156Y-72789285D01*
X134047156Y-72789285D02*
X134142394Y-72758332D01*
X134142394Y-72758332D02*
X134332870Y-72727380D01*
X134332870Y-72727380D02*
X134475727Y-72727380D01*
X134475727Y-72727380D02*
X134666203Y-72758332D01*
X134666203Y-72758332D02*
X134761441Y-72789285D01*
X134761441Y-72789285D02*
X134856680Y-72851190D01*
X134856680Y-72851190D02*
X134904299Y-72944047D01*
X134904299Y-72944047D02*
X134904299Y-73098809D01*
X134904299Y-72355951D02*
X134856680Y-72417856D01*
X134856680Y-72417856D02*
X134809060Y-72448809D01*
X134809060Y-72448809D02*
X134713822Y-72479761D01*
X134713822Y-72479761D02*
X134428108Y-72479761D01*
X134428108Y-72479761D02*
X134332870Y-72448809D01*
X134332870Y-72448809D02*
X134285251Y-72417856D01*
X134285251Y-72417856D02*
X134237632Y-72355951D01*
X134237632Y-72355951D02*
X134237632Y-72263094D01*
X134237632Y-72263094D02*
X134285251Y-72201190D01*
X134285251Y-72201190D02*
X134332870Y-72170237D01*
X134332870Y-72170237D02*
X134428108Y-72139285D01*
X134428108Y-72139285D02*
X134713822Y-72139285D01*
X134713822Y-72139285D02*
X134809060Y-72170237D01*
X134809060Y-72170237D02*
X134856680Y-72201190D01*
X134856680Y-72201190D02*
X134904299Y-72263094D01*
X134904299Y-72263094D02*
X134904299Y-72355951D01*
X134237632Y-71922618D02*
X134904299Y-71798809D01*
X134904299Y-71798809D02*
X134428108Y-71674999D01*
X134428108Y-71674999D02*
X134904299Y-71551190D01*
X134904299Y-71551190D02*
X134237632Y-71427380D01*
X134237632Y-71179762D02*
X134904299Y-71179762D01*
X134332870Y-71179762D02*
X134285251Y-71148809D01*
X134285251Y-71148809D02*
X134237632Y-71086904D01*
X134237632Y-71086904D02*
X134237632Y-70994047D01*
X134237632Y-70994047D02*
X134285251Y-70932143D01*
X134285251Y-70932143D02*
X134380489Y-70901190D01*
X134380489Y-70901190D02*
X134904299Y-70901190D01*
X137229299Y-106135714D02*
X138038822Y-106135714D01*
X138038822Y-106135714D02*
X138134060Y-106104761D01*
X138134060Y-106104761D02*
X138181680Y-106073809D01*
X138181680Y-106073809D02*
X138229299Y-106011904D01*
X138229299Y-106011904D02*
X138229299Y-105888095D01*
X138229299Y-105888095D02*
X138181680Y-105826190D01*
X138181680Y-105826190D02*
X138134060Y-105795237D01*
X138134060Y-105795237D02*
X138038822Y-105764285D01*
X138038822Y-105764285D02*
X137229299Y-105764285D01*
X158706680Y-103235714D02*
X158754299Y-103142857D01*
X158754299Y-103142857D02*
X158754299Y-102988095D01*
X158754299Y-102988095D02*
X158706680Y-102926190D01*
X158706680Y-102926190D02*
X158659060Y-102895238D01*
X158659060Y-102895238D02*
X158563822Y-102864285D01*
X158563822Y-102864285D02*
X158468584Y-102864285D01*
X158468584Y-102864285D02*
X158373346Y-102895238D01*
X158373346Y-102895238D02*
X158325727Y-102926190D01*
X158325727Y-102926190D02*
X158278108Y-102988095D01*
X158278108Y-102988095D02*
X158230489Y-103111904D01*
X158230489Y-103111904D02*
X158182870Y-103173809D01*
X158182870Y-103173809D02*
X158135251Y-103204762D01*
X158135251Y-103204762D02*
X158040013Y-103235714D01*
X158040013Y-103235714D02*
X157944775Y-103235714D01*
X157944775Y-103235714D02*
X157849537Y-103204762D01*
X157849537Y-103204762D02*
X157801918Y-103173809D01*
X157801918Y-103173809D02*
X157754299Y-103111904D01*
X157754299Y-103111904D02*
X157754299Y-102957143D01*
X157754299Y-102957143D02*
X157801918Y-102864285D01*
X159579299Y-67891666D02*
X158579299Y-67891666D01*
X158579299Y-67891666D02*
X159293584Y-67674999D01*
X159293584Y-67674999D02*
X158579299Y-67458332D01*
X158579299Y-67458332D02*
X159579299Y-67458332D01*
X161729299Y-72958333D02*
X160729299Y-72958333D01*
X160729299Y-72958333D02*
X161443584Y-72741666D01*
X161443584Y-72741666D02*
X160729299Y-72524999D01*
X160729299Y-72524999D02*
X161729299Y-72524999D01*
X161729299Y-72122618D02*
X161681680Y-72184523D01*
X161681680Y-72184523D02*
X161634060Y-72215476D01*
X161634060Y-72215476D02*
X161538822Y-72246428D01*
X161538822Y-72246428D02*
X161253108Y-72246428D01*
X161253108Y-72246428D02*
X161157870Y-72215476D01*
X161157870Y-72215476D02*
X161110251Y-72184523D01*
X161110251Y-72184523D02*
X161062632Y-72122618D01*
X161062632Y-72122618D02*
X161062632Y-72029761D01*
X161062632Y-72029761D02*
X161110251Y-71967857D01*
X161110251Y-71967857D02*
X161157870Y-71936904D01*
X161157870Y-71936904D02*
X161253108Y-71905952D01*
X161253108Y-71905952D02*
X161538822Y-71905952D01*
X161538822Y-71905952D02*
X161634060Y-71936904D01*
X161634060Y-71936904D02*
X161681680Y-71967857D01*
X161681680Y-71967857D02*
X161729299Y-72029761D01*
X161729299Y-72029761D02*
X161729299Y-72122618D01*
X161729299Y-71348809D02*
X160729299Y-71348809D01*
X161681680Y-71348809D02*
X161729299Y-71410714D01*
X161729299Y-71410714D02*
X161729299Y-71534523D01*
X161729299Y-71534523D02*
X161681680Y-71596428D01*
X161681680Y-71596428D02*
X161634060Y-71627381D01*
X161634060Y-71627381D02*
X161538822Y-71658333D01*
X161538822Y-71658333D02*
X161253108Y-71658333D01*
X161253108Y-71658333D02*
X161157870Y-71627381D01*
X161157870Y-71627381D02*
X161110251Y-71596428D01*
X161110251Y-71596428D02*
X161062632Y-71534523D01*
X161062632Y-71534523D02*
X161062632Y-71410714D01*
X161062632Y-71410714D02*
X161110251Y-71348809D01*
X161681680Y-70791667D02*
X161729299Y-70853571D01*
X161729299Y-70853571D02*
X161729299Y-70977381D01*
X161729299Y-70977381D02*
X161681680Y-71039286D01*
X161681680Y-71039286D02*
X161586441Y-71070238D01*
X161586441Y-71070238D02*
X161205489Y-71070238D01*
X161205489Y-71070238D02*
X161110251Y-71039286D01*
X161110251Y-71039286D02*
X161062632Y-70977381D01*
X161062632Y-70977381D02*
X161062632Y-70853571D01*
X161062632Y-70853571D02*
X161110251Y-70791667D01*
X161110251Y-70791667D02*
X161205489Y-70760714D01*
X161205489Y-70760714D02*
X161300727Y-70760714D01*
X161300727Y-70760714D02*
X161395965Y-71070238D01*
X161240476Y-92029299D02*
X161240476Y-91362632D01*
X161240476Y-91553108D02*
X161271429Y-91457870D01*
X161271429Y-91457870D02*
X161302381Y-91410251D01*
X161302381Y-91410251D02*
X161364286Y-91362632D01*
X161364286Y-91362632D02*
X161426191Y-91362632D01*
X161580953Y-92029299D02*
X161921429Y-91362632D01*
X161580953Y-91362632D02*
X161921429Y-92029299D01*
X161263095Y-93337632D02*
X161510714Y-93337632D01*
X161355952Y-93004299D02*
X161355952Y-93861441D01*
X161355952Y-93861441D02*
X161386905Y-93956680D01*
X161386905Y-93956680D02*
X161448810Y-94004299D01*
X161448810Y-94004299D02*
X161510714Y-94004299D01*
X161665477Y-94004299D02*
X162005953Y-93337632D01*
X161665477Y-93337632D02*
X162005953Y-94004299D01*
X161864286Y-94987632D02*
X161864286Y-95797156D01*
X161864286Y-95797156D02*
X161833333Y-95892394D01*
X161833333Y-95892394D02*
X161802381Y-95940013D01*
X161802381Y-95940013D02*
X161740476Y-95987632D01*
X161740476Y-95987632D02*
X161647619Y-95987632D01*
X161647619Y-95987632D02*
X161585714Y-95940013D01*
X161864286Y-95606680D02*
X161802381Y-95654299D01*
X161802381Y-95654299D02*
X161678572Y-95654299D01*
X161678572Y-95654299D02*
X161616667Y-95606680D01*
X161616667Y-95606680D02*
X161585714Y-95559060D01*
X161585714Y-95559060D02*
X161554762Y-95463822D01*
X161554762Y-95463822D02*
X161554762Y-95178108D01*
X161554762Y-95178108D02*
X161585714Y-95082870D01*
X161585714Y-95082870D02*
X161616667Y-95035251D01*
X161616667Y-95035251D02*
X161678572Y-94987632D01*
X161678572Y-94987632D02*
X161802381Y-94987632D01*
X161802381Y-94987632D02*
X161864286Y-95035251D01*
X132904299Y-67995238D02*
X131904299Y-67995238D01*
X131904299Y-67995238D02*
X131904299Y-67840476D01*
X131904299Y-67840476D02*
X131951918Y-67747619D01*
X131951918Y-67747619D02*
X132047156Y-67685714D01*
X132047156Y-67685714D02*
X132142394Y-67654761D01*
X132142394Y-67654761D02*
X132332870Y-67623809D01*
X132332870Y-67623809D02*
X132475727Y-67623809D01*
X132475727Y-67623809D02*
X132666203Y-67654761D01*
X132666203Y-67654761D02*
X132761441Y-67685714D01*
X132761441Y-67685714D02*
X132856680Y-67747619D01*
X132856680Y-67747619D02*
X132904299Y-67840476D01*
X132904299Y-67840476D02*
X132904299Y-67995238D01*
X161806680Y-105302381D02*
X161854299Y-105209524D01*
X161854299Y-105209524D02*
X161854299Y-105054762D01*
X161854299Y-105054762D02*
X161806680Y-104992857D01*
X161806680Y-104992857D02*
X161759060Y-104961905D01*
X161759060Y-104961905D02*
X161663822Y-104930952D01*
X161663822Y-104930952D02*
X161568584Y-104930952D01*
X161568584Y-104930952D02*
X161473346Y-104961905D01*
X161473346Y-104961905D02*
X161425727Y-104992857D01*
X161425727Y-104992857D02*
X161378108Y-105054762D01*
X161378108Y-105054762D02*
X161330489Y-105178571D01*
X161330489Y-105178571D02*
X161282870Y-105240476D01*
X161282870Y-105240476D02*
X161235251Y-105271429D01*
X161235251Y-105271429D02*
X161140013Y-105302381D01*
X161140013Y-105302381D02*
X161044775Y-105302381D01*
X161044775Y-105302381D02*
X160949537Y-105271429D01*
X160949537Y-105271429D02*
X160901918Y-105240476D01*
X160901918Y-105240476D02*
X160854299Y-105178571D01*
X160854299Y-105178571D02*
X160854299Y-105023810D01*
X160854299Y-105023810D02*
X160901918Y-104930952D01*
X161806680Y-104404762D02*
X161854299Y-104466666D01*
X161854299Y-104466666D02*
X161854299Y-104590476D01*
X161854299Y-104590476D02*
X161806680Y-104652381D01*
X161806680Y-104652381D02*
X161711441Y-104683333D01*
X161711441Y-104683333D02*
X161330489Y-104683333D01*
X161330489Y-104683333D02*
X161235251Y-104652381D01*
X161235251Y-104652381D02*
X161187632Y-104590476D01*
X161187632Y-104590476D02*
X161187632Y-104466666D01*
X161187632Y-104466666D02*
X161235251Y-104404762D01*
X161235251Y-104404762D02*
X161330489Y-104373809D01*
X161330489Y-104373809D02*
X161425727Y-104373809D01*
X161425727Y-104373809D02*
X161520965Y-104683333D01*
X161854299Y-104002380D02*
X161806680Y-104064285D01*
X161806680Y-104064285D02*
X161711441Y-104095238D01*
X161711441Y-104095238D02*
X160854299Y-104095238D01*
X161806680Y-103507143D02*
X161854299Y-103569047D01*
X161854299Y-103569047D02*
X161854299Y-103692857D01*
X161854299Y-103692857D02*
X161806680Y-103754762D01*
X161806680Y-103754762D02*
X161711441Y-103785714D01*
X161711441Y-103785714D02*
X161330489Y-103785714D01*
X161330489Y-103785714D02*
X161235251Y-103754762D01*
X161235251Y-103754762D02*
X161187632Y-103692857D01*
X161187632Y-103692857D02*
X161187632Y-103569047D01*
X161187632Y-103569047D02*
X161235251Y-103507143D01*
X161235251Y-103507143D02*
X161330489Y-103476190D01*
X161330489Y-103476190D02*
X161425727Y-103476190D01*
X161425727Y-103476190D02*
X161520965Y-103785714D01*
X161806680Y-102919047D02*
X161854299Y-102980952D01*
X161854299Y-102980952D02*
X161854299Y-103104761D01*
X161854299Y-103104761D02*
X161806680Y-103166666D01*
X161806680Y-103166666D02*
X161759060Y-103197619D01*
X161759060Y-103197619D02*
X161663822Y-103228571D01*
X161663822Y-103228571D02*
X161378108Y-103228571D01*
X161378108Y-103228571D02*
X161282870Y-103197619D01*
X161282870Y-103197619D02*
X161235251Y-103166666D01*
X161235251Y-103166666D02*
X161187632Y-103104761D01*
X161187632Y-103104761D02*
X161187632Y-102980952D01*
X161187632Y-102980952D02*
X161235251Y-102919047D01*
X161187632Y-102733333D02*
X161187632Y-102485714D01*
X160854299Y-102640476D02*
X161711441Y-102640476D01*
X161711441Y-102640476D02*
X161806680Y-102609523D01*
X161806680Y-102609523D02*
X161854299Y-102547618D01*
X161854299Y-102547618D02*
X161854299Y-102485714D01*
X145954761Y-87930489D02*
X146171428Y-87930489D01*
X146264285Y-88454299D02*
X145954761Y-88454299D01*
X145954761Y-88454299D02*
X145954761Y-87454299D01*
X145954761Y-87454299D02*
X146264285Y-87454299D01*
X146511904Y-88406680D02*
X146604761Y-88454299D01*
X146604761Y-88454299D02*
X146759523Y-88454299D01*
X146759523Y-88454299D02*
X146821428Y-88406680D01*
X146821428Y-88406680D02*
X146852380Y-88359060D01*
X146852380Y-88359060D02*
X146883333Y-88263822D01*
X146883333Y-88263822D02*
X146883333Y-88168584D01*
X146883333Y-88168584D02*
X146852380Y-88073346D01*
X146852380Y-88073346D02*
X146821428Y-88025727D01*
X146821428Y-88025727D02*
X146759523Y-87978108D01*
X146759523Y-87978108D02*
X146635714Y-87930489D01*
X146635714Y-87930489D02*
X146573809Y-87882870D01*
X146573809Y-87882870D02*
X146542856Y-87835251D01*
X146542856Y-87835251D02*
X146511904Y-87740013D01*
X146511904Y-87740013D02*
X146511904Y-87644775D01*
X146511904Y-87644775D02*
X146542856Y-87549537D01*
X146542856Y-87549537D02*
X146573809Y-87501918D01*
X146573809Y-87501918D02*
X146635714Y-87454299D01*
X146635714Y-87454299D02*
X146790475Y-87454299D01*
X146790475Y-87454299D02*
X146883333Y-87501918D01*
X147161904Y-88454299D02*
X147161904Y-87454299D01*
X147161904Y-87454299D02*
X147409523Y-87454299D01*
X147409523Y-87454299D02*
X147471428Y-87501918D01*
X147471428Y-87501918D02*
X147502381Y-87549537D01*
X147502381Y-87549537D02*
X147533333Y-87644775D01*
X147533333Y-87644775D02*
X147533333Y-87787632D01*
X147533333Y-87787632D02*
X147502381Y-87882870D01*
X147502381Y-87882870D02*
X147471428Y-87930489D01*
X147471428Y-87930489D02*
X147409523Y-87978108D01*
X147409523Y-87978108D02*
X147161904Y-87978108D01*
X147811904Y-88073346D02*
X148307143Y-88073346D01*
X148554762Y-87454299D02*
X148957143Y-87454299D01*
X148957143Y-87454299D02*
X148740476Y-87835251D01*
X148740476Y-87835251D02*
X148833333Y-87835251D01*
X148833333Y-87835251D02*
X148895238Y-87882870D01*
X148895238Y-87882870D02*
X148926190Y-87930489D01*
X148926190Y-87930489D02*
X148957143Y-88025727D01*
X148957143Y-88025727D02*
X148957143Y-88263822D01*
X148957143Y-88263822D02*
X148926190Y-88359060D01*
X148926190Y-88359060D02*
X148895238Y-88406680D01*
X148895238Y-88406680D02*
X148833333Y-88454299D01*
X148833333Y-88454299D02*
X148647619Y-88454299D01*
X148647619Y-88454299D02*
X148585714Y-88406680D01*
X148585714Y-88406680D02*
X148554762Y-88359060D01*
X149204762Y-87549537D02*
X149235714Y-87501918D01*
X149235714Y-87501918D02*
X149297619Y-87454299D01*
X149297619Y-87454299D02*
X149452381Y-87454299D01*
X149452381Y-87454299D02*
X149514286Y-87501918D01*
X149514286Y-87501918D02*
X149545238Y-87549537D01*
X149545238Y-87549537D02*
X149576191Y-87644775D01*
X149576191Y-87644775D02*
X149576191Y-87740013D01*
X149576191Y-87740013D02*
X149545238Y-87882870D01*
X149545238Y-87882870D02*
X149173810Y-88454299D01*
X149173810Y-88454299D02*
X149576191Y-88454299D01*
X161404761Y-90956680D02*
X161342857Y-91004299D01*
X161342857Y-91004299D02*
X161219047Y-91004299D01*
X161219047Y-91004299D02*
X161157142Y-90956680D01*
X161157142Y-90956680D02*
X161126190Y-90861441D01*
X161126190Y-90861441D02*
X161126190Y-90480489D01*
X161126190Y-90480489D02*
X161157142Y-90385251D01*
X161157142Y-90385251D02*
X161219047Y-90337632D01*
X161219047Y-90337632D02*
X161342857Y-90337632D01*
X161342857Y-90337632D02*
X161404761Y-90385251D01*
X161404761Y-90385251D02*
X161435714Y-90480489D01*
X161435714Y-90480489D02*
X161435714Y-90575727D01*
X161435714Y-90575727D02*
X161126190Y-90670965D01*
X161714285Y-90337632D02*
X161714285Y-91004299D01*
X161714285Y-90432870D02*
X161745238Y-90385251D01*
X161745238Y-90385251D02*
X161807143Y-90337632D01*
X161807143Y-90337632D02*
X161900000Y-90337632D01*
X161900000Y-90337632D02*
X161961904Y-90385251D01*
X161961904Y-90385251D02*
X161992857Y-90480489D01*
X161992857Y-90480489D02*
X161992857Y-91004299D01*
X137004299Y-93069046D02*
X137004299Y-92945237D01*
X137004299Y-92945237D02*
X137051918Y-92883332D01*
X137051918Y-92883332D02*
X137147156Y-92821427D01*
X137147156Y-92821427D02*
X137337632Y-92790475D01*
X137337632Y-92790475D02*
X137670965Y-92790475D01*
X137670965Y-92790475D02*
X137861441Y-92821427D01*
X137861441Y-92821427D02*
X137956680Y-92883332D01*
X137956680Y-92883332D02*
X138004299Y-92945237D01*
X138004299Y-92945237D02*
X138004299Y-93069046D01*
X138004299Y-93069046D02*
X137956680Y-93130951D01*
X137956680Y-93130951D02*
X137861441Y-93192856D01*
X137861441Y-93192856D02*
X137670965Y-93223808D01*
X137670965Y-93223808D02*
X137337632Y-93223808D01*
X137337632Y-93223808D02*
X137147156Y-93192856D01*
X137147156Y-93192856D02*
X137051918Y-93130951D01*
X137051918Y-93130951D02*
X137004299Y-93069046D01*
X138004299Y-92202380D02*
X138004299Y-92511904D01*
X138004299Y-92511904D02*
X137004299Y-92511904D01*
X137480489Y-91985714D02*
X137480489Y-91769047D01*
X138004299Y-91676190D02*
X138004299Y-91985714D01*
X138004299Y-91985714D02*
X137004299Y-91985714D01*
X137004299Y-91985714D02*
X137004299Y-91676190D01*
X138004299Y-91397619D02*
X137004299Y-91397619D01*
X137004299Y-91397619D02*
X137004299Y-91242857D01*
X137004299Y-91242857D02*
X137051918Y-91150000D01*
X137051918Y-91150000D02*
X137147156Y-91088095D01*
X137147156Y-91088095D02*
X137242394Y-91057142D01*
X137242394Y-91057142D02*
X137432870Y-91026190D01*
X137432870Y-91026190D02*
X137575727Y-91026190D01*
X137575727Y-91026190D02*
X137766203Y-91057142D01*
X137766203Y-91057142D02*
X137861441Y-91088095D01*
X137861441Y-91088095D02*
X137956680Y-91150000D01*
X137956680Y-91150000D02*
X138004299Y-91242857D01*
X138004299Y-91242857D02*
X138004299Y-91397619D01*
X160644047Y-85554299D02*
X161046428Y-85554299D01*
X161046428Y-85554299D02*
X160829761Y-85935251D01*
X160829761Y-85935251D02*
X160922618Y-85935251D01*
X160922618Y-85935251D02*
X160984523Y-85982870D01*
X160984523Y-85982870D02*
X161015475Y-86030489D01*
X161015475Y-86030489D02*
X161046428Y-86125727D01*
X161046428Y-86125727D02*
X161046428Y-86363822D01*
X161046428Y-86363822D02*
X161015475Y-86459060D01*
X161015475Y-86459060D02*
X160984523Y-86506680D01*
X160984523Y-86506680D02*
X160922618Y-86554299D01*
X160922618Y-86554299D02*
X160736904Y-86554299D01*
X160736904Y-86554299D02*
X160674999Y-86506680D01*
X160674999Y-86506680D02*
X160644047Y-86459060D01*
X161324999Y-86459060D02*
X161355952Y-86506680D01*
X161355952Y-86506680D02*
X161324999Y-86554299D01*
X161324999Y-86554299D02*
X161294047Y-86506680D01*
X161294047Y-86506680D02*
X161324999Y-86459060D01*
X161324999Y-86459060D02*
X161324999Y-86554299D01*
X161572619Y-85554299D02*
X161975000Y-85554299D01*
X161975000Y-85554299D02*
X161758333Y-85935251D01*
X161758333Y-85935251D02*
X161851190Y-85935251D01*
X161851190Y-85935251D02*
X161913095Y-85982870D01*
X161913095Y-85982870D02*
X161944047Y-86030489D01*
X161944047Y-86030489D02*
X161975000Y-86125727D01*
X161975000Y-86125727D02*
X161975000Y-86363822D01*
X161975000Y-86363822D02*
X161944047Y-86459060D01*
X161944047Y-86459060D02*
X161913095Y-86506680D01*
X161913095Y-86506680D02*
X161851190Y-86554299D01*
X161851190Y-86554299D02*
X161665476Y-86554299D01*
X161665476Y-86554299D02*
X161603571Y-86506680D01*
X161603571Y-86506680D02*
X161572619Y-86459060D01*
X160796428Y-87929299D02*
X160796428Y-86929299D01*
X161198810Y-87929299D02*
X161136905Y-87881680D01*
X161136905Y-87881680D02*
X161105952Y-87834060D01*
X161105952Y-87834060D02*
X161075000Y-87738822D01*
X161075000Y-87738822D02*
X161075000Y-87453108D01*
X161075000Y-87453108D02*
X161105952Y-87357870D01*
X161105952Y-87357870D02*
X161136905Y-87310251D01*
X161136905Y-87310251D02*
X161198810Y-87262632D01*
X161198810Y-87262632D02*
X161291667Y-87262632D01*
X161291667Y-87262632D02*
X161353571Y-87310251D01*
X161353571Y-87310251D02*
X161384524Y-87357870D01*
X161384524Y-87357870D02*
X161415476Y-87453108D01*
X161415476Y-87453108D02*
X161415476Y-87738822D01*
X161415476Y-87738822D02*
X161384524Y-87834060D01*
X161384524Y-87834060D02*
X161353571Y-87881680D01*
X161353571Y-87881680D02*
X161291667Y-87929299D01*
X161291667Y-87929299D02*
X161198810Y-87929299D01*
X161817857Y-86929299D02*
X161879762Y-86929299D01*
X161879762Y-86929299D02*
X161941666Y-86976918D01*
X161941666Y-86976918D02*
X161972619Y-87024537D01*
X161972619Y-87024537D02*
X162003571Y-87119775D01*
X162003571Y-87119775D02*
X162034524Y-87310251D01*
X162034524Y-87310251D02*
X162034524Y-87548346D01*
X162034524Y-87548346D02*
X162003571Y-87738822D01*
X162003571Y-87738822D02*
X161972619Y-87834060D01*
X161972619Y-87834060D02*
X161941666Y-87881680D01*
X161941666Y-87881680D02*
X161879762Y-87929299D01*
X161879762Y-87929299D02*
X161817857Y-87929299D01*
X161817857Y-87929299D02*
X161755952Y-87881680D01*
X161755952Y-87881680D02*
X161725000Y-87834060D01*
X161725000Y-87834060D02*
X161694047Y-87738822D01*
X161694047Y-87738822D02*
X161663095Y-87548346D01*
X161663095Y-87548346D02*
X161663095Y-87310251D01*
X161663095Y-87310251D02*
X161694047Y-87119775D01*
X161694047Y-87119775D02*
X161725000Y-87024537D01*
X161725000Y-87024537D02*
X161755952Y-86976918D01*
X161755952Y-86976918D02*
X161817857Y-86929299D01*
X142304299Y-101991666D02*
X141304299Y-101991666D01*
X141304299Y-101991666D02*
X141304299Y-101824999D01*
X141304299Y-101824999D02*
X141351918Y-101724999D01*
X141351918Y-101724999D02*
X141447156Y-101658333D01*
X141447156Y-101658333D02*
X141542394Y-101624999D01*
X141542394Y-101624999D02*
X141732870Y-101591666D01*
X141732870Y-101591666D02*
X141875727Y-101591666D01*
X141875727Y-101591666D02*
X142066203Y-101624999D01*
X142066203Y-101624999D02*
X142161441Y-101658333D01*
X142161441Y-101658333D02*
X142256680Y-101724999D01*
X142256680Y-101724999D02*
X142304299Y-101824999D01*
X142304299Y-101824999D02*
X142304299Y-101991666D01*
X142304299Y-100924999D02*
X142304299Y-101324999D01*
X142304299Y-101124999D02*
X141304299Y-101124999D01*
X141304299Y-101124999D02*
X141447156Y-101191666D01*
X141447156Y-101191666D02*
X141542394Y-101258333D01*
X141542394Y-101258333D02*
X141590013Y-101324999D01*
X134329299Y-105641666D02*
X135138822Y-105641666D01*
X135138822Y-105641666D02*
X135234060Y-105608333D01*
X135234060Y-105608333D02*
X135281680Y-105574999D01*
X135281680Y-105574999D02*
X135329299Y-105508333D01*
X135329299Y-105508333D02*
X135329299Y-105374999D01*
X135329299Y-105374999D02*
X135281680Y-105308333D01*
X135281680Y-105308333D02*
X135234060Y-105274999D01*
X135234060Y-105274999D02*
X135138822Y-105241666D01*
X135138822Y-105241666D02*
X134329299Y-105241666D01*
X134662632Y-104908333D02*
X135662632Y-104908333D01*
X134710251Y-104908333D02*
X134662632Y-104841666D01*
X134662632Y-104841666D02*
X134662632Y-104708333D01*
X134662632Y-104708333D02*
X134710251Y-104641666D01*
X134710251Y-104641666D02*
X134757870Y-104608333D01*
X134757870Y-104608333D02*
X134853108Y-104575000D01*
X134853108Y-104575000D02*
X135138822Y-104575000D01*
X135138822Y-104575000D02*
X135234060Y-104608333D01*
X135234060Y-104608333D02*
X135281680Y-104641666D01*
X135281680Y-104641666D02*
X135329299Y-104708333D01*
X135329299Y-104708333D02*
X135329299Y-104841666D01*
X135329299Y-104841666D02*
X135281680Y-104908333D01*
X146725000Y-103304299D02*
X146725000Y-104113822D01*
X146725000Y-104113822D02*
X146758334Y-104209060D01*
X146758334Y-104209060D02*
X146791667Y-104256680D01*
X146791667Y-104256680D02*
X146858334Y-104304299D01*
X146858334Y-104304299D02*
X146991667Y-104304299D01*
X146991667Y-104304299D02*
X147058334Y-104256680D01*
X147058334Y-104256680D02*
X147091667Y-104209060D01*
X147091667Y-104209060D02*
X147125000Y-104113822D01*
X147125000Y-104113822D02*
X147125000Y-103304299D01*
X147425000Y-104256680D02*
X147525000Y-104304299D01*
X147525000Y-104304299D02*
X147691667Y-104304299D01*
X147691667Y-104304299D02*
X147758333Y-104256680D01*
X147758333Y-104256680D02*
X147791667Y-104209060D01*
X147791667Y-104209060D02*
X147825000Y-104113822D01*
X147825000Y-104113822D02*
X147825000Y-104018584D01*
X147825000Y-104018584D02*
X147791667Y-103923346D01*
X147791667Y-103923346D02*
X147758333Y-103875727D01*
X147758333Y-103875727D02*
X147691667Y-103828108D01*
X147691667Y-103828108D02*
X147558333Y-103780489D01*
X147558333Y-103780489D02*
X147491667Y-103732870D01*
X147491667Y-103732870D02*
X147458333Y-103685251D01*
X147458333Y-103685251D02*
X147425000Y-103590013D01*
X147425000Y-103590013D02*
X147425000Y-103494775D01*
X147425000Y-103494775D02*
X147458333Y-103399537D01*
X147458333Y-103399537D02*
X147491667Y-103351918D01*
X147491667Y-103351918D02*
X147558333Y-103304299D01*
X147558333Y-103304299D02*
X147725000Y-103304299D01*
X147725000Y-103304299D02*
X147825000Y-103351918D01*
X148358334Y-103780489D02*
X148458334Y-103828108D01*
X148458334Y-103828108D02*
X148491667Y-103875727D01*
X148491667Y-103875727D02*
X148525000Y-103970965D01*
X148525000Y-103970965D02*
X148525000Y-104113822D01*
X148525000Y-104113822D02*
X148491667Y-104209060D01*
X148491667Y-104209060D02*
X148458334Y-104256680D01*
X148458334Y-104256680D02*
X148391667Y-104304299D01*
X148391667Y-104304299D02*
X148125000Y-104304299D01*
X148125000Y-104304299D02*
X148125000Y-103304299D01*
X148125000Y-103304299D02*
X148358334Y-103304299D01*
X148358334Y-103304299D02*
X148425000Y-103351918D01*
X148425000Y-103351918D02*
X148458334Y-103399537D01*
X148458334Y-103399537D02*
X148491667Y-103494775D01*
X148491667Y-103494775D02*
X148491667Y-103590013D01*
X148491667Y-103590013D02*
X148458334Y-103685251D01*
X148458334Y-103685251D02*
X148425000Y-103732870D01*
X148425000Y-103732870D02*
X148358334Y-103780489D01*
X148358334Y-103780489D02*
X148125000Y-103780489D01*
X149758333Y-104209060D02*
X149725000Y-104256680D01*
X149725000Y-104256680D02*
X149625000Y-104304299D01*
X149625000Y-104304299D02*
X149558333Y-104304299D01*
X149558333Y-104304299D02*
X149458333Y-104256680D01*
X149458333Y-104256680D02*
X149391667Y-104161441D01*
X149391667Y-104161441D02*
X149358333Y-104066203D01*
X149358333Y-104066203D02*
X149325000Y-103875727D01*
X149325000Y-103875727D02*
X149325000Y-103732870D01*
X149325000Y-103732870D02*
X149358333Y-103542394D01*
X149358333Y-103542394D02*
X149391667Y-103447156D01*
X149391667Y-103447156D02*
X149458333Y-103351918D01*
X149458333Y-103351918D02*
X149558333Y-103304299D01*
X149558333Y-103304299D02*
X149625000Y-103304299D01*
X149625000Y-103304299D02*
X149725000Y-103351918D01*
X149725000Y-103351918D02*
X149758333Y-103399537D01*
X132768584Y-99916666D02*
X132768584Y-99583333D01*
X133054299Y-99983333D02*
X132054299Y-99750000D01*
X132054299Y-99750000D02*
X133054299Y-99516666D01*
X132054299Y-99150000D02*
X132054299Y-99016666D01*
X132054299Y-99016666D02*
X132101918Y-98950000D01*
X132101918Y-98950000D02*
X132197156Y-98883333D01*
X132197156Y-98883333D02*
X132387632Y-98850000D01*
X132387632Y-98850000D02*
X132720965Y-98850000D01*
X132720965Y-98850000D02*
X132911441Y-98883333D01*
X132911441Y-98883333D02*
X133006680Y-98950000D01*
X133006680Y-98950000D02*
X133054299Y-99016666D01*
X133054299Y-99016666D02*
X133054299Y-99150000D01*
X133054299Y-99150000D02*
X133006680Y-99216666D01*
X133006680Y-99216666D02*
X132911441Y-99283333D01*
X132911441Y-99283333D02*
X132720965Y-99316666D01*
X132720965Y-99316666D02*
X132387632Y-99316666D01*
X132387632Y-99316666D02*
X132197156Y-99283333D01*
X132197156Y-99283333D02*
X132101918Y-99216666D01*
X132101918Y-99216666D02*
X132054299Y-99150000D01*
X132054299Y-98616667D02*
X132054299Y-98183333D01*
X132054299Y-98183333D02*
X132435251Y-98416667D01*
X132435251Y-98416667D02*
X132435251Y-98316667D01*
X132435251Y-98316667D02*
X132482870Y-98250000D01*
X132482870Y-98250000D02*
X132530489Y-98216667D01*
X132530489Y-98216667D02*
X132625727Y-98183333D01*
X132625727Y-98183333D02*
X132863822Y-98183333D01*
X132863822Y-98183333D02*
X132959060Y-98216667D01*
X132959060Y-98216667D02*
X133006680Y-98250000D01*
X133006680Y-98250000D02*
X133054299Y-98316667D01*
X133054299Y-98316667D02*
X133054299Y-98516667D01*
X133054299Y-98516667D02*
X133006680Y-98583333D01*
X133006680Y-98583333D02*
X132959060Y-98616667D01*
X132387632Y-97583333D02*
X133054299Y-97583333D01*
X132006680Y-97750000D02*
X132720965Y-97916666D01*
X132720965Y-97916666D02*
X132720965Y-97483333D01*
X132054299Y-97083333D02*
X132054299Y-97016666D01*
X132054299Y-97016666D02*
X132101918Y-96949999D01*
X132101918Y-96949999D02*
X132149537Y-96916666D01*
X132149537Y-96916666D02*
X132244775Y-96883333D01*
X132244775Y-96883333D02*
X132435251Y-96849999D01*
X132435251Y-96849999D02*
X132673346Y-96849999D01*
X132673346Y-96849999D02*
X132863822Y-96883333D01*
X132863822Y-96883333D02*
X132959060Y-96916666D01*
X132959060Y-96916666D02*
X133006680Y-96949999D01*
X133006680Y-96949999D02*
X133054299Y-97016666D01*
X133054299Y-97016666D02*
X133054299Y-97083333D01*
X133054299Y-97083333D02*
X133006680Y-97149999D01*
X133006680Y-97149999D02*
X132959060Y-97183333D01*
X132959060Y-97183333D02*
X132863822Y-97216666D01*
X132863822Y-97216666D02*
X132673346Y-97249999D01*
X132673346Y-97249999D02*
X132435251Y-97249999D01*
X132435251Y-97249999D02*
X132244775Y-97216666D01*
X132244775Y-97216666D02*
X132149537Y-97183333D01*
X132149537Y-97183333D02*
X132101918Y-97149999D01*
X132101918Y-97149999D02*
X132054299Y-97083333D01*
X133054299Y-96183332D02*
X133054299Y-96583332D01*
X133054299Y-96383332D02*
X132054299Y-96383332D01*
X132054299Y-96383332D02*
X132197156Y-96449999D01*
X132197156Y-96449999D02*
X132292394Y-96516666D01*
X132292394Y-96516666D02*
X132340013Y-96583332D01*
X132768584Y-95916665D02*
X132768584Y-95583332D01*
X133054299Y-95983332D02*
X132054299Y-95749999D01*
X132054299Y-95749999D02*
X133054299Y-95516665D01*
D12*
%TO.C,C14*%
X157912164Y-103775000D02*
X158127836Y-103775000D01*
X157912164Y-104825000D02*
X158127836Y-104825000D01*
%TO.C,C13*%
X155137836Y-103450000D02*
X154922164Y-103450000D01*
X155137836Y-102400000D02*
X154922164Y-102400000D01*
%TO.C,C19*%
X154912164Y-103925000D02*
X155127836Y-103925000D01*
X154912164Y-104975000D02*
X155127836Y-104975000D01*
%TO.C,C20*%
X154937164Y-105325000D02*
X155152836Y-105325000D01*
X154937164Y-106375000D02*
X155152836Y-106375000D01*
%TO.C,C15*%
X140732836Y-98310000D02*
X140517164Y-98310000D01*
X140732836Y-97590000D02*
X140517164Y-97590000D01*
%TO.C,R1*%
X148431359Y-98270000D02*
X148738641Y-98270000D01*
X148431359Y-99030000D02*
X148738641Y-99030000D01*
%TO.C,C8*%
X159215000Y-81587836D02*
X159215000Y-81372164D01*
X159935000Y-81587836D02*
X159935000Y-81372164D01*
D13*
%TO.C,D4*%
X156920000Y-98875000D02*
G75*
G03*
X156820000Y-98875000I-50000J0D01*
G01*
X156820000Y-98875000D02*
G75*
G03*
X156920000Y-98875000I50000J0D01*
G01*
D12*
%TO.C,SW2*%
X126190000Y-92385000D02*
X126190000Y-83565000D01*
X126500000Y-92385000D02*
X126190000Y-92385000D01*
X130710000Y-92385000D02*
X130400000Y-92385000D01*
X125490000Y-90475000D02*
X125990000Y-89975000D01*
X125990000Y-89975000D02*
X125490000Y-89475000D01*
X125490000Y-89475000D02*
X125490000Y-90475000D01*
X126190000Y-83565000D02*
X126500000Y-83565000D01*
X130710000Y-83565000D02*
X130710000Y-92385000D01*
X130710000Y-83565000D02*
X130400000Y-83565000D01*
%TO.C,D1*%
X140900000Y-98825000D02*
X137600000Y-98825000D01*
X140900000Y-98825000D02*
X140900000Y-104275000D01*
X137600000Y-98825000D02*
X137600000Y-104275000D01*
%TO.C,J7*%
X156735000Y-92070000D02*
X156735000Y-93400000D01*
X155405000Y-92070000D02*
X156735000Y-92070000D01*
X154135000Y-92070000D02*
X138835000Y-92070000D01*
X154135000Y-92070000D02*
X154135000Y-94730000D01*
X138835000Y-92070000D02*
X138835000Y-94730000D01*
X154135000Y-94730000D02*
X138835000Y-94730000D01*
%TO.C,R6*%
X152993641Y-96955000D02*
X152686359Y-96955000D01*
X152993641Y-96195000D02*
X152686359Y-96195000D01*
%TO.C,C7*%
X132640000Y-81707836D02*
X132640000Y-81492164D01*
X133360000Y-81707836D02*
X133360000Y-81492164D01*
%TO.C,C1*%
X144287836Y-99010000D02*
X144072164Y-99010000D01*
X144287836Y-98290000D02*
X144072164Y-98290000D01*
%TO.C,U4*%
X156945000Y-90130000D02*
X155945000Y-90130000D01*
X156945000Y-89350000D02*
X156945000Y-90130000D01*
X138705000Y-90130000D02*
X139705000Y-90130000D01*
X138705000Y-89350000D02*
X138705000Y-90130000D01*
D13*
%TO.C,D2*%
X157645000Y-93400000D02*
G75*
G03*
X157545000Y-93400000I-50000J0D01*
G01*
X157545000Y-93400000D02*
G75*
G03*
X157645000Y-93400000I50000J0D01*
G01*
D12*
%TO.C,SW7*%
X132775000Y-107650000D02*
X133975000Y-107650000D01*
X135575000Y-107650000D02*
X136775000Y-107650000D01*
X136775000Y-107650000D02*
X136775000Y-101250000D01*
X132775000Y-101250000D02*
X132775000Y-107650000D01*
X133975000Y-101250000D02*
X132775000Y-101250000D01*
X136775000Y-101250000D02*
X135575000Y-101250000D01*
%TO.C,R38*%
X157936359Y-101420000D02*
X158243641Y-101420000D01*
X157936359Y-102180000D02*
X158243641Y-102180000D01*
%TO.C,SW1*%
X136275000Y-80150000D02*
X132975000Y-80150000D01*
X136275000Y-79850000D02*
X136275000Y-80150000D01*
X136275000Y-77650000D02*
X136275000Y-77350000D01*
X136275000Y-77350000D02*
X132975000Y-77350000D01*
X132975000Y-80150000D02*
X132975000Y-79850000D01*
X132975000Y-77350000D02*
X132975000Y-77650000D01*
%TO.C,C16*%
X140782836Y-97185000D02*
X140567164Y-97185000D01*
X140782836Y-96465000D02*
X140567164Y-96465000D01*
%TO.C,R25*%
X149853641Y-96505000D02*
X149546359Y-96505000D01*
X149853641Y-95745000D02*
X149546359Y-95745000D01*
%TO.C,R3*%
X152681359Y-98320000D02*
X152988641Y-98320000D01*
X152681359Y-99080000D02*
X152988641Y-99080000D01*
%TO.C,R12*%
X136755000Y-81371359D02*
X136755000Y-81678641D01*
X135995000Y-81371359D02*
X135995000Y-81678641D01*
D13*
%TO.C,D3*%
X156910000Y-96925000D02*
G75*
G03*
X156810000Y-96925000I-50000J0D01*
G01*
X156810000Y-96925000D02*
G75*
G03*
X156910000Y-96925000I50000J0D01*
G01*
D12*
%TO.C,J1*%
X143400000Y-104125000D02*
X143400000Y-102425000D01*
X152740000Y-104125000D02*
X152740000Y-102425000D01*
%TO.C,R4*%
X158561359Y-94195000D02*
X158868641Y-94195000D01*
X158561359Y-94955000D02*
X158868641Y-94955000D01*
%TO.C,R2*%
X146231359Y-98270000D02*
X146538641Y-98270000D01*
X146231359Y-99030000D02*
X146538641Y-99030000D01*
%TO.C,SW4*%
X159250000Y-75075000D02*
X160450000Y-75075000D01*
X162050000Y-75075000D02*
X163250000Y-75075000D01*
X163250000Y-75075000D02*
X163250000Y-68675000D01*
X159250000Y-68675000D02*
X159250000Y-75075000D01*
X160450000Y-68675000D02*
X159250000Y-68675000D01*
X163250000Y-68675000D02*
X162050000Y-68675000D01*
%TO.C,R9*%
X160661359Y-83895000D02*
X160968641Y-83895000D01*
X160661359Y-84655000D02*
X160968641Y-84655000D01*
%TO.C,R19*%
X131875000Y-89863641D02*
X131875000Y-89556359D01*
X132875000Y-89863641D02*
X132875000Y-89556359D01*
%TO.C,SW6*%
X163350000Y-100650000D02*
X162150000Y-100650000D01*
X160550000Y-100650000D02*
X159350000Y-100650000D01*
X159350000Y-100650000D02*
X159350000Y-107050000D01*
X163350000Y-107050000D02*
X163350000Y-100650000D01*
X162150000Y-107050000D02*
X163350000Y-107050000D01*
X159350000Y-107050000D02*
X160550000Y-107050000D01*
%TO.C,R20*%
X150581359Y-98295000D02*
X150888641Y-98295000D01*
X150581359Y-99055000D02*
X150888641Y-99055000D01*
%TO.C,Q1*%
X135987500Y-97835000D02*
X137662500Y-97835000D01*
X135987500Y-97835000D02*
X135337500Y-97835000D01*
X135987500Y-94715000D02*
X136637500Y-94715000D01*
X135987500Y-94715000D02*
X135337500Y-94715000D01*
%TO.C,J4*%
X133870000Y-83445000D02*
X135200000Y-83445000D01*
X133870000Y-84775000D02*
X133870000Y-83445000D01*
X133870000Y-86045000D02*
X133870000Y-93725000D01*
X133870000Y-86045000D02*
X136530000Y-86045000D01*
X133870000Y-93725000D02*
X136530000Y-93725000D01*
X136530000Y-86045000D02*
X136530000Y-93725000D01*
%TO.C,SW3*%
X159525000Y-77325000D02*
X162825000Y-77325000D01*
X159525000Y-77625000D02*
X159525000Y-77325000D01*
X159525000Y-79825000D02*
X159525000Y-80125000D01*
X159525000Y-80125000D02*
X162825000Y-80125000D01*
X162825000Y-77325000D02*
X162825000Y-77625000D01*
X162825000Y-80125000D02*
X162825000Y-79825000D01*
%TO.C,R13*%
X163305000Y-81371359D02*
X163305000Y-81678641D01*
X162545000Y-81371359D02*
X162545000Y-81678641D01*
%TO.C,SW5*%
X132425000Y-75250000D02*
X133625000Y-75250000D01*
X135225000Y-75250000D02*
X136425000Y-75250000D01*
X136425000Y-75250000D02*
X136425000Y-68850000D01*
X132425000Y-68850000D02*
X132425000Y-75250000D01*
X133625000Y-68850000D02*
X132425000Y-68850000D01*
X136425000Y-68850000D02*
X135225000Y-68850000D01*
%TD*%
M02*
