%TF.GenerationSoftware,KiCad,Pcbnew,7.0.10*%
%TF.CreationDate,2024-12-04T03:17:35+05:30*%
%TF.ProjectId,Watch_v3,57617463-685f-4763-932e-6b696361645f,Watch_v3*%
%TF.SameCoordinates,Original*%
%TF.FileFunction,Soldermask,Top*%
%TF.FilePolarity,Negative*%
%FSLAX46Y46*%
G04 Gerber Fmt 4.6, Leading zero omitted, Abs format (unit mm)*
G04 Created by KiCad (PCBNEW 7.0.10) date 2024-12-04 03:17:35*
%MOMM*%
%LPD*%
G01*
G04 APERTURE LIST*
G04 Aperture macros list*
%AMRoundRect*
0 Rectangle with rounded corners*
0 $1 Rounding radius*
0 $2 $3 $4 $5 $6 $7 $8 $9 X,Y pos of 4 corners*
0 Add a 4 corners polygon primitive as box body*
4,1,4,$2,$3,$4,$5,$6,$7,$8,$9,$2,$3,0*
0 Add four circle primitives for the rounded corners*
1,1,$1+$1,$2,$3*
1,1,$1+$1,$4,$5*
1,1,$1+$1,$6,$7*
1,1,$1+$1,$8,$9*
0 Add four rect primitives between the rounded corners*
20,1,$1+$1,$2,$3,$4,$5,0*
20,1,$1+$1,$4,$5,$6,$7,0*
20,1,$1+$1,$6,$7,$8,$9,0*
20,1,$1+$1,$8,$9,$2,$3,0*%
G04 Aperture macros list end*
%ADD10RoundRect,0.140000X-0.140000X-0.170000X0.140000X-0.170000X0.140000X0.170000X-0.140000X0.170000X0*%
%ADD11RoundRect,0.140000X0.140000X0.170000X-0.140000X0.170000X-0.140000X-0.170000X0.140000X-0.170000X0*%
%ADD12RoundRect,0.135000X-0.135000X-0.185000X0.135000X-0.185000X0.135000X0.185000X-0.135000X0.185000X0*%
%ADD13RoundRect,0.140000X0.170000X-0.140000X0.170000X0.140000X-0.170000X0.140000X-0.170000X-0.140000X0*%
%ADD14RoundRect,0.147500X-0.147500X-0.172500X0.147500X-0.172500X0.147500X0.172500X-0.147500X0.172500X0*%
%ADD15R,2.500000X1.500000*%
%ADD16O,2.500000X1.500000*%
%ADD17RoundRect,0.222222X-0.627778X0.577778X-0.627778X-0.577778X0.627778X-0.577778X0.627778X0.577778X0*%
%ADD18R,1.700000X1.700000*%
%ADD19O,1.700000X1.700000*%
%ADD20RoundRect,0.135000X0.135000X0.185000X-0.135000X0.185000X-0.135000X-0.185000X0.135000X-0.185000X0*%
%ADD21C,1.500000*%
%ADD22R,3.800000X3.800000*%
%ADD23R,1.500000X0.900000*%
%ADD24R,0.900000X1.500000*%
%ADD25R,1.000000X1.250000*%
%ADD26C,0.800000*%
%ADD27R,0.900000X1.700000*%
%ADD28RoundRect,0.135000X-0.185000X0.135000X-0.185000X-0.135000X0.185000X-0.135000X0.185000X0.135000X0*%
%ADD29C,0.650000*%
%ADD30RoundRect,0.150000X-0.150000X-0.425000X0.150000X-0.425000X0.150000X0.425000X-0.150000X0.425000X0*%
%ADD31RoundRect,0.075000X-0.075000X-0.500000X0.075000X-0.500000X0.075000X0.500000X-0.075000X0.500000X0*%
%ADD32O,1.000000X2.100000*%
%ADD33O,1.000000X1.800000*%
%ADD34RoundRect,0.135000X0.185000X-0.135000X0.185000X0.135000X-0.185000X0.135000X-0.185000X-0.135000X0*%
%ADD35RoundRect,0.150000X0.587500X0.150000X-0.587500X0.150000X-0.587500X-0.150000X0.587500X-0.150000X0*%
G04 APERTURE END LIST*
D10*
%TO.C,C14*%
X157540000Y-104275000D03*
X158500000Y-104275000D03*
%TD*%
D11*
%TO.C,C13*%
X155510000Y-102950000D03*
X154550000Y-102950000D03*
%TD*%
D10*
%TO.C,C19*%
X154540000Y-104425000D03*
X155500000Y-104425000D03*
%TD*%
%TO.C,C20*%
X154565000Y-105825000D03*
X155525000Y-105825000D03*
%TD*%
D11*
%TO.C,C15*%
X141105000Y-97950000D03*
X140145000Y-97950000D03*
%TD*%
D12*
%TO.C,R1*%
X148075000Y-98650000D03*
X149095000Y-98650000D03*
%TD*%
D13*
%TO.C,C8*%
X159575000Y-81960000D03*
X159575000Y-81000000D03*
%TD*%
D14*
%TO.C,D4*%
X157475000Y-98875000D03*
X158445000Y-98875000D03*
%TD*%
D15*
%TO.C,SW2*%
X128450000Y-89975000D03*
D16*
X128450000Y-87975000D03*
X128450000Y-85975000D03*
%TD*%
D17*
%TO.C,D1*%
X139250000Y-100275000D03*
X139250000Y-104275000D03*
%TD*%
D18*
%TO.C,J7*%
X155405000Y-93400000D03*
D19*
X152865000Y-93400000D03*
X150325000Y-93400000D03*
X147785000Y-93400000D03*
X145245000Y-93400000D03*
X142705000Y-93400000D03*
X140165000Y-93400000D03*
%TD*%
D20*
%TO.C,R6*%
X153350000Y-96575000D03*
X152330000Y-96575000D03*
%TD*%
D21*
%TO.C,J8*%
X163025000Y-95300000D03*
X163025000Y-93450000D03*
X163025000Y-91600000D03*
X163025000Y-89750000D03*
X163025000Y-87900000D03*
X163025000Y-86050000D03*
X163025000Y-84200000D03*
%TD*%
D13*
%TO.C,C7*%
X133000000Y-82080000D03*
X133000000Y-81120000D03*
%TD*%
D11*
%TO.C,C1*%
X144660000Y-98650000D03*
X143700000Y-98650000D03*
%TD*%
D22*
%TO.C,U4*%
X146325000Y-79720000D03*
D23*
X156575000Y-72000000D03*
X156575000Y-73270000D03*
X156575000Y-74540000D03*
X156575000Y-75810000D03*
X156575000Y-77080000D03*
X156575000Y-78350000D03*
X156575000Y-79620000D03*
X156575000Y-80890000D03*
X156575000Y-82160000D03*
X156575000Y-83430000D03*
X156575000Y-84700000D03*
X156575000Y-85970000D03*
X156575000Y-87240000D03*
X156575000Y-88510000D03*
D24*
X153545000Y-89760000D03*
X152275000Y-89760000D03*
X151005000Y-89760000D03*
X149735000Y-89760000D03*
X148465000Y-89760000D03*
X147195000Y-89760000D03*
X145925000Y-89760000D03*
X144655000Y-89760000D03*
X143385000Y-89760000D03*
X142115000Y-89760000D03*
D23*
X139075000Y-88510000D03*
X139075000Y-87240000D03*
X139075000Y-85970000D03*
X139075000Y-84700000D03*
X139075000Y-83430000D03*
X139075000Y-82160000D03*
X139075000Y-80890000D03*
X139075000Y-79620000D03*
X139075000Y-78350000D03*
X139075000Y-77080000D03*
X139075000Y-75810000D03*
X139075000Y-74540000D03*
X139075000Y-73270000D03*
X139075000Y-72000000D03*
%TD*%
D14*
%TO.C,D2*%
X158200000Y-93400000D03*
X159170000Y-93400000D03*
%TD*%
D25*
%TO.C,SW7*%
X134775000Y-108325000D03*
X134775000Y-100575000D03*
%TD*%
D12*
%TO.C,R38*%
X157580000Y-101800000D03*
X158600000Y-101800000D03*
%TD*%
D26*
%TO.C,SW1*%
X134625000Y-78750000D03*
D27*
X136325000Y-78750000D03*
X132925000Y-78750000D03*
%TD*%
D11*
%TO.C,C16*%
X141155000Y-96825000D03*
X140195000Y-96825000D03*
%TD*%
D20*
%TO.C,R25*%
X150210000Y-96125000D03*
X149190000Y-96125000D03*
%TD*%
D12*
%TO.C,R3*%
X152325000Y-98700000D03*
X153345000Y-98700000D03*
%TD*%
D28*
%TO.C,R12*%
X136375000Y-81015000D03*
X136375000Y-82035000D03*
%TD*%
D14*
%TO.C,D3*%
X157465000Y-96925000D03*
X158435000Y-96925000D03*
%TD*%
D29*
%TO.C,J1*%
X145180000Y-101620000D03*
X150960000Y-101620000D03*
D30*
X144870000Y-100545000D03*
X145670000Y-100545000D03*
D31*
X146820000Y-100545000D03*
X147820000Y-100545000D03*
X148320000Y-100545000D03*
X149320000Y-100545000D03*
D30*
X150470000Y-100545000D03*
X151270000Y-100545000D03*
X151270000Y-100545000D03*
X150470000Y-100545000D03*
D31*
X149820000Y-100545000D03*
X148820000Y-100545000D03*
X147320000Y-100545000D03*
X146320000Y-100545000D03*
D30*
X145670000Y-100545000D03*
X144870000Y-100545000D03*
D32*
X143750000Y-101120000D03*
D33*
X143750000Y-105300000D03*
D32*
X152390000Y-101120000D03*
D33*
X152390000Y-105300000D03*
%TD*%
D12*
%TO.C,R4*%
X158205000Y-94575000D03*
X159225000Y-94575000D03*
%TD*%
%TO.C,R2*%
X145875000Y-98650000D03*
X146895000Y-98650000D03*
%TD*%
D25*
%TO.C,SW4*%
X161250000Y-75750000D03*
X161250000Y-68000000D03*
%TD*%
D12*
%TO.C,R9*%
X160305000Y-84275000D03*
X161325000Y-84275000D03*
%TD*%
D34*
%TO.C,R19*%
X132375000Y-90220000D03*
X132375000Y-89200000D03*
%TD*%
D25*
%TO.C,SW6*%
X161350000Y-99975000D03*
X161350000Y-107725000D03*
%TD*%
D12*
%TO.C,R20*%
X150225000Y-98675000D03*
X151245000Y-98675000D03*
%TD*%
D35*
%TO.C,Q1*%
X136925000Y-97225000D03*
X136925000Y-95325000D03*
X135050000Y-96275000D03*
%TD*%
D18*
%TO.C,J4*%
X135200000Y-84775000D03*
D19*
X135200000Y-87315000D03*
X135200000Y-89855000D03*
X135200000Y-92395000D03*
%TD*%
D26*
%TO.C,SW3*%
X161175000Y-78725000D03*
D27*
X159475000Y-78725000D03*
X162875000Y-78725000D03*
%TD*%
D28*
%TO.C,R13*%
X162925000Y-81015000D03*
X162925000Y-82035000D03*
%TD*%
D25*
%TO.C,SW5*%
X134425000Y-75925000D03*
X134425000Y-68175000D03*
%TD*%
M02*
