%TF.GenerationSoftware,KiCad,Pcbnew,7.0.10*%
%TF.CreationDate,2024-12-13T01:25:29+05:30*%
%TF.ProjectId,Watch_v3,57617463-685f-4763-932e-6b696361645f,Watch_v3*%
%TF.SameCoordinates,Original*%
%TF.FileFunction,Legend,Bot*%
%TF.FilePolarity,Positive*%
%FSLAX46Y46*%
G04 Gerber Fmt 4.6, Leading zero omitted, Abs format (unit mm)*
G04 Created by KiCad (PCBNEW 7.0.10) date 2024-12-13 01:25:29*
%MOMM*%
%LPD*%
G01*
G04 APERTURE LIST*
%ADD10C,0.200000*%
%ADD11C,0.160000*%
%ADD12C,0.250000*%
%ADD13C,0.170000*%
%ADD14C,0.156000*%
%ADD15C,0.120000*%
%ADD16C,0.127000*%
%ADD17C,0.203200*%
G04 APERTURE END LIST*
D10*
X148850000Y-96275000D02*
G75*
G03*
X148708578Y-96275000I-70711J0D01*
G01*
X148708578Y-96275000D02*
G75*
G03*
X148850000Y-96275000I70711J0D01*
G01*
X143150000Y-96325000D02*
G75*
G03*
X143008578Y-96325000I-70711J0D01*
G01*
X143008578Y-96325000D02*
G75*
G03*
X143150000Y-96325000I70711J0D01*
G01*
X147145711Y-78125000D02*
G75*
G03*
X147004289Y-78125000I-70711J0D01*
G01*
X147004289Y-78125000D02*
G75*
G03*
X147145711Y-78125000I70711J0D01*
G01*
X159220711Y-76550000D02*
G75*
G03*
X159079289Y-76550000I-70711J0D01*
G01*
X159079289Y-76550000D02*
G75*
G03*
X159220711Y-76550000I70711J0D01*
G01*
X163095711Y-84875000D02*
G75*
G03*
X162954289Y-84875000I-70711J0D01*
G01*
X162954289Y-84875000D02*
G75*
G03*
X163095711Y-84875000I70711J0D01*
G01*
D11*
X157556680Y-87516667D02*
X157604299Y-87416667D01*
X157604299Y-87416667D02*
X157604299Y-87250001D01*
X157604299Y-87250001D02*
X157556680Y-87183334D01*
X157556680Y-87183334D02*
X157509060Y-87150001D01*
X157509060Y-87150001D02*
X157413822Y-87116667D01*
X157413822Y-87116667D02*
X157318584Y-87116667D01*
X157318584Y-87116667D02*
X157223346Y-87150001D01*
X157223346Y-87150001D02*
X157175727Y-87183334D01*
X157175727Y-87183334D02*
X157128108Y-87250001D01*
X157128108Y-87250001D02*
X157080489Y-87383334D01*
X157080489Y-87383334D02*
X157032870Y-87450001D01*
X157032870Y-87450001D02*
X156985251Y-87483334D01*
X156985251Y-87483334D02*
X156890013Y-87516667D01*
X156890013Y-87516667D02*
X156794775Y-87516667D01*
X156794775Y-87516667D02*
X156699537Y-87483334D01*
X156699537Y-87483334D02*
X156651918Y-87450001D01*
X156651918Y-87450001D02*
X156604299Y-87383334D01*
X156604299Y-87383334D02*
X156604299Y-87216667D01*
X156604299Y-87216667D02*
X156651918Y-87116667D01*
X157604299Y-86450000D02*
X157604299Y-86850000D01*
X157604299Y-86650000D02*
X156604299Y-86650000D01*
X156604299Y-86650000D02*
X156747156Y-86716667D01*
X156747156Y-86716667D02*
X156842394Y-86783334D01*
X156842394Y-86783334D02*
X156890013Y-86850000D01*
X156699537Y-86183333D02*
X156651918Y-86150000D01*
X156651918Y-86150000D02*
X156604299Y-86083333D01*
X156604299Y-86083333D02*
X156604299Y-85916667D01*
X156604299Y-85916667D02*
X156651918Y-85850000D01*
X156651918Y-85850000D02*
X156699537Y-85816667D01*
X156699537Y-85816667D02*
X156794775Y-85783333D01*
X156794775Y-85783333D02*
X156890013Y-85783333D01*
X156890013Y-85783333D02*
X157032870Y-85816667D01*
X157032870Y-85816667D02*
X157604299Y-86216667D01*
X157604299Y-86216667D02*
X157604299Y-85783333D01*
X156604299Y-85550000D02*
X156604299Y-85116666D01*
X156604299Y-85116666D02*
X156985251Y-85350000D01*
X156985251Y-85350000D02*
X156985251Y-85250000D01*
X156985251Y-85250000D02*
X157032870Y-85183333D01*
X157032870Y-85183333D02*
X157080489Y-85150000D01*
X157080489Y-85150000D02*
X157175727Y-85116666D01*
X157175727Y-85116666D02*
X157413822Y-85116666D01*
X157413822Y-85116666D02*
X157509060Y-85150000D01*
X157509060Y-85150000D02*
X157556680Y-85183333D01*
X157556680Y-85183333D02*
X157604299Y-85250000D01*
X157604299Y-85250000D02*
X157604299Y-85450000D01*
X157604299Y-85450000D02*
X157556680Y-85516666D01*
X157556680Y-85516666D02*
X157509060Y-85550000D01*
X156604299Y-84683333D02*
X156604299Y-84616666D01*
X156604299Y-84616666D02*
X156651918Y-84549999D01*
X156651918Y-84549999D02*
X156699537Y-84516666D01*
X156699537Y-84516666D02*
X156794775Y-84483333D01*
X156794775Y-84483333D02*
X156985251Y-84449999D01*
X156985251Y-84449999D02*
X157223346Y-84449999D01*
X157223346Y-84449999D02*
X157413822Y-84483333D01*
X157413822Y-84483333D02*
X157509060Y-84516666D01*
X157509060Y-84516666D02*
X157556680Y-84549999D01*
X157556680Y-84549999D02*
X157604299Y-84616666D01*
X157604299Y-84616666D02*
X157604299Y-84683333D01*
X157604299Y-84683333D02*
X157556680Y-84749999D01*
X157556680Y-84749999D02*
X157509060Y-84783333D01*
X157509060Y-84783333D02*
X157413822Y-84816666D01*
X157413822Y-84816666D02*
X157223346Y-84849999D01*
X157223346Y-84849999D02*
X156985251Y-84849999D01*
X156985251Y-84849999D02*
X156794775Y-84816666D01*
X156794775Y-84816666D02*
X156699537Y-84783333D01*
X156699537Y-84783333D02*
X156651918Y-84749999D01*
X156651918Y-84749999D02*
X156604299Y-84683333D01*
X156699537Y-84183332D02*
X156651918Y-84149999D01*
X156651918Y-84149999D02*
X156604299Y-84083332D01*
X156604299Y-84083332D02*
X156604299Y-83916666D01*
X156604299Y-83916666D02*
X156651918Y-83849999D01*
X156651918Y-83849999D02*
X156699537Y-83816666D01*
X156699537Y-83816666D02*
X156794775Y-83783332D01*
X156794775Y-83783332D02*
X156890013Y-83783332D01*
X156890013Y-83783332D02*
X157032870Y-83816666D01*
X157032870Y-83816666D02*
X157604299Y-84216666D01*
X157604299Y-84216666D02*
X157604299Y-83783332D01*
D12*
X156972431Y-89889619D02*
X156972431Y-88889619D01*
X156972431Y-88889619D02*
X156734336Y-88889619D01*
X156734336Y-88889619D02*
X156591479Y-88937238D01*
X156591479Y-88937238D02*
X156496241Y-89032476D01*
X156496241Y-89032476D02*
X156448622Y-89127714D01*
X156448622Y-89127714D02*
X156401003Y-89318190D01*
X156401003Y-89318190D02*
X156401003Y-89461047D01*
X156401003Y-89461047D02*
X156448622Y-89651523D01*
X156448622Y-89651523D02*
X156496241Y-89746761D01*
X156496241Y-89746761D02*
X156591479Y-89842000D01*
X156591479Y-89842000D02*
X156734336Y-89889619D01*
X156734336Y-89889619D02*
X156972431Y-89889619D01*
X155972431Y-89889619D02*
X155972431Y-88889619D01*
X155972431Y-89365809D02*
X155401003Y-89365809D01*
X155401003Y-89889619D02*
X155401003Y-88889619D01*
X154972431Y-89603904D02*
X154496241Y-89603904D01*
X155067669Y-89889619D02*
X154734336Y-88889619D01*
X154734336Y-88889619D02*
X154401003Y-89889619D01*
X153496241Y-89889619D02*
X153829574Y-89413428D01*
X154067669Y-89889619D02*
X154067669Y-88889619D01*
X154067669Y-88889619D02*
X153686717Y-88889619D01*
X153686717Y-88889619D02*
X153591479Y-88937238D01*
X153591479Y-88937238D02*
X153543860Y-88984857D01*
X153543860Y-88984857D02*
X153496241Y-89080095D01*
X153496241Y-89080095D02*
X153496241Y-89222952D01*
X153496241Y-89222952D02*
X153543860Y-89318190D01*
X153543860Y-89318190D02*
X153591479Y-89365809D01*
X153591479Y-89365809D02*
X153686717Y-89413428D01*
X153686717Y-89413428D02*
X154067669Y-89413428D01*
X153067669Y-89889619D02*
X153067669Y-88889619D01*
X153067669Y-88889619D02*
X152734336Y-89603904D01*
X152734336Y-89603904D02*
X152401003Y-88889619D01*
X152401003Y-88889619D02*
X152401003Y-89889619D01*
X151972431Y-89603904D02*
X151496241Y-89603904D01*
X152067669Y-89889619D02*
X151734336Y-88889619D01*
X151734336Y-88889619D02*
X151401003Y-89889619D01*
D13*
X154346491Y-76368779D02*
X154346491Y-75368779D01*
X154346491Y-75368779D02*
X154179824Y-75368779D01*
X154179824Y-75368779D02*
X154079824Y-75416398D01*
X154079824Y-75416398D02*
X154013158Y-75511636D01*
X154013158Y-75511636D02*
X153979824Y-75606874D01*
X153979824Y-75606874D02*
X153946491Y-75797350D01*
X153946491Y-75797350D02*
X153946491Y-75940207D01*
X153946491Y-75940207D02*
X153979824Y-76130683D01*
X153979824Y-76130683D02*
X154013158Y-76225921D01*
X154013158Y-76225921D02*
X154079824Y-76321160D01*
X154079824Y-76321160D02*
X154179824Y-76368779D01*
X154179824Y-76368779D02*
X154346491Y-76368779D01*
X153646491Y-76368779D02*
X153646491Y-75368779D01*
X153646491Y-75844969D02*
X153246491Y-75844969D01*
X153246491Y-76368779D02*
X153246491Y-75368779D01*
X152946491Y-76083064D02*
X152613158Y-76083064D01*
X153013158Y-76368779D02*
X152779825Y-75368779D01*
X152779825Y-75368779D02*
X152546491Y-76368779D01*
X151913158Y-76368779D02*
X152146491Y-75892588D01*
X152313158Y-76368779D02*
X152313158Y-75368779D01*
X152313158Y-75368779D02*
X152046491Y-75368779D01*
X152046491Y-75368779D02*
X151979825Y-75416398D01*
X151979825Y-75416398D02*
X151946491Y-75464017D01*
X151946491Y-75464017D02*
X151913158Y-75559255D01*
X151913158Y-75559255D02*
X151913158Y-75702112D01*
X151913158Y-75702112D02*
X151946491Y-75797350D01*
X151946491Y-75797350D02*
X151979825Y-75844969D01*
X151979825Y-75844969D02*
X152046491Y-75892588D01*
X152046491Y-75892588D02*
X152313158Y-75892588D01*
X151613158Y-76368779D02*
X151613158Y-75368779D01*
X151613158Y-75368779D02*
X151379825Y-76083064D01*
X151379825Y-76083064D02*
X151146491Y-75368779D01*
X151146491Y-75368779D02*
X151146491Y-76368779D01*
X150846491Y-76083064D02*
X150513158Y-76083064D01*
X150913158Y-76368779D02*
X150679825Y-75368779D01*
X150679825Y-75368779D02*
X150446491Y-76368779D01*
D10*
X163627945Y-107942219D02*
X163627945Y-107275552D01*
X163627945Y-107370790D02*
X163589850Y-107323171D01*
X163589850Y-107323171D02*
X163513660Y-107275552D01*
X163513660Y-107275552D02*
X163399374Y-107275552D01*
X163399374Y-107275552D02*
X163323183Y-107323171D01*
X163323183Y-107323171D02*
X163285088Y-107418409D01*
X163285088Y-107418409D02*
X163285088Y-107942219D01*
X163285088Y-107418409D02*
X163246993Y-107323171D01*
X163246993Y-107323171D02*
X163170802Y-107275552D01*
X163170802Y-107275552D02*
X163056517Y-107275552D01*
X163056517Y-107275552D02*
X162980326Y-107323171D01*
X162980326Y-107323171D02*
X162942231Y-107418409D01*
X162942231Y-107418409D02*
X162942231Y-107942219D01*
X162561278Y-107942219D02*
X162561278Y-107275552D01*
X162561278Y-107466028D02*
X162523183Y-107370790D01*
X162523183Y-107370790D02*
X162485088Y-107323171D01*
X162485088Y-107323171D02*
X162408897Y-107275552D01*
X162408897Y-107275552D02*
X162332707Y-107275552D01*
X162256517Y-108037457D02*
X161646993Y-108037457D01*
X161494612Y-107894600D02*
X161418421Y-107942219D01*
X161418421Y-107942219D02*
X161266040Y-107942219D01*
X161266040Y-107942219D02*
X161189850Y-107894600D01*
X161189850Y-107894600D02*
X161151754Y-107799361D01*
X161151754Y-107799361D02*
X161151754Y-107751742D01*
X161151754Y-107751742D02*
X161189850Y-107656504D01*
X161189850Y-107656504D02*
X161266040Y-107608885D01*
X161266040Y-107608885D02*
X161380326Y-107608885D01*
X161380326Y-107608885D02*
X161456516Y-107561266D01*
X161456516Y-107561266D02*
X161494612Y-107466028D01*
X161494612Y-107466028D02*
X161494612Y-107418409D01*
X161494612Y-107418409D02*
X161456516Y-107323171D01*
X161456516Y-107323171D02*
X161380326Y-107275552D01*
X161380326Y-107275552D02*
X161266040Y-107275552D01*
X161266040Y-107275552D02*
X161189850Y-107323171D01*
X160808897Y-107275552D02*
X160808897Y-108275552D01*
X160808897Y-107323171D02*
X160732707Y-107275552D01*
X160732707Y-107275552D02*
X160580326Y-107275552D01*
X160580326Y-107275552D02*
X160504135Y-107323171D01*
X160504135Y-107323171D02*
X160466040Y-107370790D01*
X160466040Y-107370790D02*
X160427945Y-107466028D01*
X160427945Y-107466028D02*
X160427945Y-107751742D01*
X160427945Y-107751742D02*
X160466040Y-107846980D01*
X160466040Y-107846980D02*
X160504135Y-107894600D01*
X160504135Y-107894600D02*
X160580326Y-107942219D01*
X160580326Y-107942219D02*
X160732707Y-107942219D01*
X160732707Y-107942219D02*
X160808897Y-107894600D01*
X159742230Y-107942219D02*
X159742230Y-107418409D01*
X159742230Y-107418409D02*
X159780325Y-107323171D01*
X159780325Y-107323171D02*
X159856516Y-107275552D01*
X159856516Y-107275552D02*
X160008897Y-107275552D01*
X160008897Y-107275552D02*
X160085087Y-107323171D01*
X159742230Y-107894600D02*
X159818421Y-107942219D01*
X159818421Y-107942219D02*
X160008897Y-107942219D01*
X160008897Y-107942219D02*
X160085087Y-107894600D01*
X160085087Y-107894600D02*
X160123183Y-107799361D01*
X160123183Y-107799361D02*
X160123183Y-107704123D01*
X160123183Y-107704123D02*
X160085087Y-107608885D01*
X160085087Y-107608885D02*
X160008897Y-107561266D01*
X160008897Y-107561266D02*
X159818421Y-107561266D01*
X159818421Y-107561266D02*
X159742230Y-107513647D01*
X159437468Y-107275552D02*
X159285087Y-107942219D01*
X159285087Y-107942219D02*
X159132706Y-107466028D01*
X159132706Y-107466028D02*
X158980325Y-107942219D01*
X158980325Y-107942219D02*
X158827944Y-107275552D01*
D12*
X153051003Y-83514619D02*
X153384336Y-83038428D01*
X153622431Y-83514619D02*
X153622431Y-82514619D01*
X153622431Y-82514619D02*
X153241479Y-82514619D01*
X153241479Y-82514619D02*
X153146241Y-82562238D01*
X153146241Y-82562238D02*
X153098622Y-82609857D01*
X153098622Y-82609857D02*
X153051003Y-82705095D01*
X153051003Y-82705095D02*
X153051003Y-82847952D01*
X153051003Y-82847952D02*
X153098622Y-82943190D01*
X153098622Y-82943190D02*
X153146241Y-82990809D01*
X153146241Y-82990809D02*
X153241479Y-83038428D01*
X153241479Y-83038428D02*
X153622431Y-83038428D01*
X152431955Y-82514619D02*
X152241479Y-82514619D01*
X152241479Y-82514619D02*
X152146241Y-82562238D01*
X152146241Y-82562238D02*
X152051003Y-82657476D01*
X152051003Y-82657476D02*
X152003384Y-82847952D01*
X152003384Y-82847952D02*
X152003384Y-83181285D01*
X152003384Y-83181285D02*
X152051003Y-83371761D01*
X152051003Y-83371761D02*
X152146241Y-83467000D01*
X152146241Y-83467000D02*
X152241479Y-83514619D01*
X152241479Y-83514619D02*
X152431955Y-83514619D01*
X152431955Y-83514619D02*
X152527193Y-83467000D01*
X152527193Y-83467000D02*
X152622431Y-83371761D01*
X152622431Y-83371761D02*
X152670050Y-83181285D01*
X152670050Y-83181285D02*
X152670050Y-82847952D01*
X152670050Y-82847952D02*
X152622431Y-82657476D01*
X152622431Y-82657476D02*
X152527193Y-82562238D01*
X152527193Y-82562238D02*
X152431955Y-82514619D01*
X151241479Y-82990809D02*
X151098622Y-83038428D01*
X151098622Y-83038428D02*
X151051003Y-83086047D01*
X151051003Y-83086047D02*
X151003384Y-83181285D01*
X151003384Y-83181285D02*
X151003384Y-83324142D01*
X151003384Y-83324142D02*
X151051003Y-83419380D01*
X151051003Y-83419380D02*
X151098622Y-83467000D01*
X151098622Y-83467000D02*
X151193860Y-83514619D01*
X151193860Y-83514619D02*
X151574812Y-83514619D01*
X151574812Y-83514619D02*
X151574812Y-82514619D01*
X151574812Y-82514619D02*
X151241479Y-82514619D01*
X151241479Y-82514619D02*
X151146241Y-82562238D01*
X151146241Y-82562238D02*
X151098622Y-82609857D01*
X151098622Y-82609857D02*
X151051003Y-82705095D01*
X151051003Y-82705095D02*
X151051003Y-82800333D01*
X151051003Y-82800333D02*
X151098622Y-82895571D01*
X151098622Y-82895571D02*
X151146241Y-82943190D01*
X151146241Y-82943190D02*
X151241479Y-82990809D01*
X151241479Y-82990809D02*
X151574812Y-82990809D01*
X150384336Y-82514619D02*
X150193860Y-82514619D01*
X150193860Y-82514619D02*
X150098622Y-82562238D01*
X150098622Y-82562238D02*
X150003384Y-82657476D01*
X150003384Y-82657476D02*
X149955765Y-82847952D01*
X149955765Y-82847952D02*
X149955765Y-83181285D01*
X149955765Y-83181285D02*
X150003384Y-83371761D01*
X150003384Y-83371761D02*
X150098622Y-83467000D01*
X150098622Y-83467000D02*
X150193860Y-83514619D01*
X150193860Y-83514619D02*
X150384336Y-83514619D01*
X150384336Y-83514619D02*
X150479574Y-83467000D01*
X150479574Y-83467000D02*
X150574812Y-83371761D01*
X150574812Y-83371761D02*
X150622431Y-83181285D01*
X150622431Y-83181285D02*
X150622431Y-82847952D01*
X150622431Y-82847952D02*
X150574812Y-82657476D01*
X150574812Y-82657476D02*
X150479574Y-82562238D01*
X150479574Y-82562238D02*
X150384336Y-82514619D01*
X149193860Y-82990809D02*
X149527193Y-82990809D01*
X149527193Y-83514619D02*
X149527193Y-82514619D01*
X149527193Y-82514619D02*
X149051003Y-82514619D01*
X148670050Y-82990809D02*
X148336717Y-82990809D01*
X148193860Y-83514619D02*
X148670050Y-83514619D01*
X148670050Y-83514619D02*
X148670050Y-82514619D01*
X148670050Y-82514619D02*
X148193860Y-82514619D01*
X147812907Y-83467000D02*
X147670050Y-83514619D01*
X147670050Y-83514619D02*
X147431955Y-83514619D01*
X147431955Y-83514619D02*
X147336717Y-83467000D01*
X147336717Y-83467000D02*
X147289098Y-83419380D01*
X147289098Y-83419380D02*
X147241479Y-83324142D01*
X147241479Y-83324142D02*
X147241479Y-83228904D01*
X147241479Y-83228904D02*
X147289098Y-83133666D01*
X147289098Y-83133666D02*
X147336717Y-83086047D01*
X147336717Y-83086047D02*
X147431955Y-83038428D01*
X147431955Y-83038428D02*
X147622431Y-82990809D01*
X147622431Y-82990809D02*
X147717669Y-82943190D01*
X147717669Y-82943190D02*
X147765288Y-82895571D01*
X147765288Y-82895571D02*
X147812907Y-82800333D01*
X147812907Y-82800333D02*
X147812907Y-82705095D01*
X147812907Y-82705095D02*
X147765288Y-82609857D01*
X147765288Y-82609857D02*
X147717669Y-82562238D01*
X147717669Y-82562238D02*
X147622431Y-82514619D01*
X147622431Y-82514619D02*
X147384336Y-82514619D01*
X147384336Y-82514619D02*
X147241479Y-82562238D01*
X146955764Y-82514619D02*
X146384336Y-82514619D01*
X146670050Y-83514619D02*
X146670050Y-82514619D01*
X144860526Y-82847952D02*
X144860526Y-83514619D01*
X145098621Y-82467000D02*
X145336716Y-83181285D01*
X145336716Y-83181285D02*
X144717669Y-83181285D01*
X144336716Y-83419380D02*
X144289097Y-83467000D01*
X144289097Y-83467000D02*
X144336716Y-83514619D01*
X144336716Y-83514619D02*
X144384335Y-83467000D01*
X144384335Y-83467000D02*
X144336716Y-83419380D01*
X144336716Y-83419380D02*
X144336716Y-83514619D01*
X143670050Y-82514619D02*
X143574812Y-82514619D01*
X143574812Y-82514619D02*
X143479574Y-82562238D01*
X143479574Y-82562238D02*
X143431955Y-82609857D01*
X143431955Y-82609857D02*
X143384336Y-82705095D01*
X143384336Y-82705095D02*
X143336717Y-82895571D01*
X143336717Y-82895571D02*
X143336717Y-83133666D01*
X143336717Y-83133666D02*
X143384336Y-83324142D01*
X143384336Y-83324142D02*
X143431955Y-83419380D01*
X143431955Y-83419380D02*
X143479574Y-83467000D01*
X143479574Y-83467000D02*
X143574812Y-83514619D01*
X143574812Y-83514619D02*
X143670050Y-83514619D01*
X143670050Y-83514619D02*
X143765288Y-83467000D01*
X143765288Y-83467000D02*
X143812907Y-83419380D01*
X143812907Y-83419380D02*
X143860526Y-83324142D01*
X143860526Y-83324142D02*
X143908145Y-83133666D01*
X143908145Y-83133666D02*
X143908145Y-82895571D01*
X143908145Y-82895571D02*
X143860526Y-82705095D01*
X143860526Y-82705095D02*
X143812907Y-82609857D01*
X143812907Y-82609857D02*
X143765288Y-82562238D01*
X143765288Y-82562238D02*
X143670050Y-82514619D01*
D11*
X133494047Y-75254299D02*
X133896428Y-75254299D01*
X133896428Y-75254299D02*
X133679761Y-75635251D01*
X133679761Y-75635251D02*
X133772618Y-75635251D01*
X133772618Y-75635251D02*
X133834523Y-75682870D01*
X133834523Y-75682870D02*
X133865475Y-75730489D01*
X133865475Y-75730489D02*
X133896428Y-75825727D01*
X133896428Y-75825727D02*
X133896428Y-76063822D01*
X133896428Y-76063822D02*
X133865475Y-76159060D01*
X133865475Y-76159060D02*
X133834523Y-76206680D01*
X133834523Y-76206680D02*
X133772618Y-76254299D01*
X133772618Y-76254299D02*
X133586904Y-76254299D01*
X133586904Y-76254299D02*
X133524999Y-76206680D01*
X133524999Y-76206680D02*
X133494047Y-76159060D01*
X134174999Y-76159060D02*
X134205952Y-76206680D01*
X134205952Y-76206680D02*
X134174999Y-76254299D01*
X134174999Y-76254299D02*
X134144047Y-76206680D01*
X134144047Y-76206680D02*
X134174999Y-76159060D01*
X134174999Y-76159060D02*
X134174999Y-76254299D01*
X134422619Y-75254299D02*
X134825000Y-75254299D01*
X134825000Y-75254299D02*
X134608333Y-75635251D01*
X134608333Y-75635251D02*
X134701190Y-75635251D01*
X134701190Y-75635251D02*
X134763095Y-75682870D01*
X134763095Y-75682870D02*
X134794047Y-75730489D01*
X134794047Y-75730489D02*
X134825000Y-75825727D01*
X134825000Y-75825727D02*
X134825000Y-76063822D01*
X134825000Y-76063822D02*
X134794047Y-76159060D01*
X134794047Y-76159060D02*
X134763095Y-76206680D01*
X134763095Y-76206680D02*
X134701190Y-76254299D01*
X134701190Y-76254299D02*
X134515476Y-76254299D01*
X134515476Y-76254299D02*
X134453571Y-76206680D01*
X134453571Y-76206680D02*
X134422619Y-76159060D01*
X133894047Y-80829299D02*
X133677380Y-80353108D01*
X133522618Y-80829299D02*
X133522618Y-79829299D01*
X133522618Y-79829299D02*
X133770237Y-79829299D01*
X133770237Y-79829299D02*
X133832142Y-79876918D01*
X133832142Y-79876918D02*
X133863095Y-79924537D01*
X133863095Y-79924537D02*
X133894047Y-80019775D01*
X133894047Y-80019775D02*
X133894047Y-80162632D01*
X133894047Y-80162632D02*
X133863095Y-80257870D01*
X133863095Y-80257870D02*
X133832142Y-80305489D01*
X133832142Y-80305489D02*
X133770237Y-80353108D01*
X133770237Y-80353108D02*
X133522618Y-80353108D01*
X134110714Y-79829299D02*
X134544047Y-80829299D01*
X134544047Y-79829299D02*
X134110714Y-80829299D01*
X134884524Y-79829299D02*
X134884524Y-80067394D01*
X134729762Y-79972156D02*
X134884524Y-80067394D01*
X134884524Y-80067394D02*
X135039285Y-79972156D01*
X134791666Y-80257870D02*
X134884524Y-80067394D01*
X134884524Y-80067394D02*
X134977381Y-80257870D01*
D12*
X141772431Y-87239619D02*
X141772431Y-86239619D01*
X141201003Y-87239619D02*
X141629574Y-86668190D01*
X141201003Y-86239619D02*
X141772431Y-86811047D01*
X140201003Y-87239619D02*
X140534336Y-86763428D01*
X140772431Y-87239619D02*
X140772431Y-86239619D01*
X140772431Y-86239619D02*
X140391479Y-86239619D01*
X140391479Y-86239619D02*
X140296241Y-86287238D01*
X140296241Y-86287238D02*
X140248622Y-86334857D01*
X140248622Y-86334857D02*
X140201003Y-86430095D01*
X140201003Y-86430095D02*
X140201003Y-86572952D01*
X140201003Y-86572952D02*
X140248622Y-86668190D01*
X140248622Y-86668190D02*
X140296241Y-86715809D01*
X140296241Y-86715809D02*
X140391479Y-86763428D01*
X140391479Y-86763428D02*
X140772431Y-86763428D01*
X139820050Y-87192000D02*
X139677193Y-87239619D01*
X139677193Y-87239619D02*
X139439098Y-87239619D01*
X139439098Y-87239619D02*
X139343860Y-87192000D01*
X139343860Y-87192000D02*
X139296241Y-87144380D01*
X139296241Y-87144380D02*
X139248622Y-87049142D01*
X139248622Y-87049142D02*
X139248622Y-86953904D01*
X139248622Y-86953904D02*
X139296241Y-86858666D01*
X139296241Y-86858666D02*
X139343860Y-86811047D01*
X139343860Y-86811047D02*
X139439098Y-86763428D01*
X139439098Y-86763428D02*
X139629574Y-86715809D01*
X139629574Y-86715809D02*
X139724812Y-86668190D01*
X139724812Y-86668190D02*
X139772431Y-86620571D01*
X139772431Y-86620571D02*
X139820050Y-86525333D01*
X139820050Y-86525333D02*
X139820050Y-86430095D01*
X139820050Y-86430095D02*
X139772431Y-86334857D01*
X139772431Y-86334857D02*
X139724812Y-86287238D01*
X139724812Y-86287238D02*
X139629574Y-86239619D01*
X139629574Y-86239619D02*
X139391479Y-86239619D01*
X139391479Y-86239619D02*
X139248622Y-86287238D01*
D11*
X130896666Y-85114299D02*
X131020475Y-85114299D01*
X131020475Y-85114299D02*
X131082380Y-85161918D01*
X131082380Y-85161918D02*
X131144285Y-85257156D01*
X131144285Y-85257156D02*
X131175237Y-85447632D01*
X131175237Y-85447632D02*
X131175237Y-85780965D01*
X131175237Y-85780965D02*
X131144285Y-85971441D01*
X131144285Y-85971441D02*
X131082380Y-86066680D01*
X131082380Y-86066680D02*
X131020475Y-86114299D01*
X131020475Y-86114299D02*
X130896666Y-86114299D01*
X130896666Y-86114299D02*
X130834761Y-86066680D01*
X130834761Y-86066680D02*
X130772856Y-85971441D01*
X130772856Y-85971441D02*
X130741904Y-85780965D01*
X130741904Y-85780965D02*
X130741904Y-85447632D01*
X130741904Y-85447632D02*
X130772856Y-85257156D01*
X130772856Y-85257156D02*
X130834761Y-85161918D01*
X130834761Y-85161918D02*
X130896666Y-85114299D01*
X131360951Y-85447632D02*
X131608570Y-85447632D01*
X131453808Y-86114299D02*
X131453808Y-85257156D01*
X131453808Y-85257156D02*
X131484761Y-85161918D01*
X131484761Y-85161918D02*
X131546666Y-85114299D01*
X131546666Y-85114299D02*
X131608570Y-85114299D01*
X131732380Y-85447632D02*
X131979999Y-85447632D01*
X131825237Y-86114299D02*
X131825237Y-85257156D01*
X131825237Y-85257156D02*
X131856190Y-85161918D01*
X131856190Y-85161918D02*
X131918095Y-85114299D01*
X131918095Y-85114299D02*
X131979999Y-85114299D01*
D10*
X136623183Y-108744600D02*
X136699374Y-108792219D01*
X136699374Y-108792219D02*
X136851755Y-108792219D01*
X136851755Y-108792219D02*
X136927945Y-108744600D01*
X136927945Y-108744600D02*
X136966041Y-108649361D01*
X136966041Y-108649361D02*
X136966041Y-108268409D01*
X136966041Y-108268409D02*
X136927945Y-108173171D01*
X136927945Y-108173171D02*
X136851755Y-108125552D01*
X136851755Y-108125552D02*
X136699374Y-108125552D01*
X136699374Y-108125552D02*
X136623183Y-108173171D01*
X136623183Y-108173171D02*
X136585088Y-108268409D01*
X136585088Y-108268409D02*
X136585088Y-108363647D01*
X136585088Y-108363647D02*
X136966041Y-108458885D01*
X136280327Y-108744600D02*
X136204136Y-108792219D01*
X136204136Y-108792219D02*
X136051755Y-108792219D01*
X136051755Y-108792219D02*
X135975565Y-108744600D01*
X135975565Y-108744600D02*
X135937469Y-108649361D01*
X135937469Y-108649361D02*
X135937469Y-108601742D01*
X135937469Y-108601742D02*
X135975565Y-108506504D01*
X135975565Y-108506504D02*
X136051755Y-108458885D01*
X136051755Y-108458885D02*
X136166041Y-108458885D01*
X136166041Y-108458885D02*
X136242231Y-108411266D01*
X136242231Y-108411266D02*
X136280327Y-108316028D01*
X136280327Y-108316028D02*
X136280327Y-108268409D01*
X136280327Y-108268409D02*
X136242231Y-108173171D01*
X136242231Y-108173171D02*
X136166041Y-108125552D01*
X136166041Y-108125552D02*
X136051755Y-108125552D01*
X136051755Y-108125552D02*
X135975565Y-108173171D01*
X135594612Y-108125552D02*
X135594612Y-109125552D01*
X135594612Y-108173171D02*
X135518422Y-108125552D01*
X135518422Y-108125552D02*
X135366041Y-108125552D01*
X135366041Y-108125552D02*
X135289850Y-108173171D01*
X135289850Y-108173171D02*
X135251755Y-108220790D01*
X135251755Y-108220790D02*
X135213660Y-108316028D01*
X135213660Y-108316028D02*
X135213660Y-108601742D01*
X135213660Y-108601742D02*
X135251755Y-108696980D01*
X135251755Y-108696980D02*
X135289850Y-108744600D01*
X135289850Y-108744600D02*
X135366041Y-108792219D01*
X135366041Y-108792219D02*
X135518422Y-108792219D01*
X135518422Y-108792219D02*
X135594612Y-108744600D01*
X135061279Y-108887457D02*
X134451755Y-108887457D01*
X134261278Y-108125552D02*
X134261278Y-108792219D01*
X134261278Y-108220790D02*
X134223183Y-108173171D01*
X134223183Y-108173171D02*
X134146993Y-108125552D01*
X134146993Y-108125552D02*
X134032707Y-108125552D01*
X134032707Y-108125552D02*
X133956516Y-108173171D01*
X133956516Y-108173171D02*
X133918421Y-108268409D01*
X133918421Y-108268409D02*
X133918421Y-108792219D01*
X133423183Y-108792219D02*
X133499373Y-108744600D01*
X133499373Y-108744600D02*
X133537468Y-108696980D01*
X133537468Y-108696980D02*
X133575564Y-108601742D01*
X133575564Y-108601742D02*
X133575564Y-108316028D01*
X133575564Y-108316028D02*
X133537468Y-108220790D01*
X133537468Y-108220790D02*
X133499373Y-108173171D01*
X133499373Y-108173171D02*
X133423183Y-108125552D01*
X133423183Y-108125552D02*
X133308897Y-108125552D01*
X133308897Y-108125552D02*
X133232706Y-108173171D01*
X133232706Y-108173171D02*
X133194611Y-108220790D01*
X133194611Y-108220790D02*
X133156516Y-108316028D01*
X133156516Y-108316028D02*
X133156516Y-108601742D01*
X133156516Y-108601742D02*
X133194611Y-108696980D01*
X133194611Y-108696980D02*
X133232706Y-108744600D01*
X133232706Y-108744600D02*
X133308897Y-108792219D01*
X133308897Y-108792219D02*
X133423183Y-108792219D01*
X132889849Y-108125552D02*
X132737468Y-108792219D01*
X132737468Y-108792219D02*
X132585087Y-108316028D01*
X132585087Y-108316028D02*
X132432706Y-108792219D01*
X132432706Y-108792219D02*
X132280325Y-108125552D01*
D11*
X133770238Y-81801918D02*
X133708333Y-81754299D01*
X133708333Y-81754299D02*
X133615476Y-81754299D01*
X133615476Y-81754299D02*
X133522619Y-81801918D01*
X133522619Y-81801918D02*
X133460714Y-81897156D01*
X133460714Y-81897156D02*
X133429761Y-81992394D01*
X133429761Y-81992394D02*
X133398809Y-82182870D01*
X133398809Y-82182870D02*
X133398809Y-82325727D01*
X133398809Y-82325727D02*
X133429761Y-82516203D01*
X133429761Y-82516203D02*
X133460714Y-82611441D01*
X133460714Y-82611441D02*
X133522619Y-82706680D01*
X133522619Y-82706680D02*
X133615476Y-82754299D01*
X133615476Y-82754299D02*
X133677380Y-82754299D01*
X133677380Y-82754299D02*
X133770238Y-82706680D01*
X133770238Y-82706680D02*
X133801190Y-82659060D01*
X133801190Y-82659060D02*
X133801190Y-82325727D01*
X133801190Y-82325727D02*
X133677380Y-82325727D01*
D14*
X161931593Y-82373693D02*
X161168405Y-82373693D01*
X161549999Y-82755287D02*
X161549999Y-81992098D01*
D11*
X133707142Y-76804299D02*
X134078571Y-76804299D01*
X133892857Y-77804299D02*
X133892857Y-76804299D01*
X134233333Y-76804299D02*
X134666666Y-77804299D01*
X134666666Y-76804299D02*
X134233333Y-77804299D01*
X135007143Y-76804299D02*
X135007143Y-77042394D01*
X134852381Y-76947156D02*
X135007143Y-77042394D01*
X135007143Y-77042394D02*
X135161904Y-76947156D01*
X134914285Y-77232870D02*
X135007143Y-77042394D01*
X135007143Y-77042394D02*
X135100000Y-77232870D01*
D10*
X134860088Y-67500552D02*
X134860088Y-68310076D01*
X134860088Y-68310076D02*
X134898183Y-68405314D01*
X134898183Y-68405314D02*
X134936279Y-68452933D01*
X134936279Y-68452933D02*
X135012469Y-68500552D01*
X135012469Y-68500552D02*
X135126755Y-68500552D01*
X135126755Y-68500552D02*
X135202945Y-68452933D01*
X134860088Y-68119600D02*
X134936279Y-68167219D01*
X134936279Y-68167219D02*
X135088660Y-68167219D01*
X135088660Y-68167219D02*
X135164850Y-68119600D01*
X135164850Y-68119600D02*
X135202945Y-68071980D01*
X135202945Y-68071980D02*
X135241041Y-67976742D01*
X135241041Y-67976742D02*
X135241041Y-67691028D01*
X135241041Y-67691028D02*
X135202945Y-67595790D01*
X135202945Y-67595790D02*
X135164850Y-67548171D01*
X135164850Y-67548171D02*
X135088660Y-67500552D01*
X135088660Y-67500552D02*
X134936279Y-67500552D01*
X134936279Y-67500552D02*
X134860088Y-67548171D01*
X134479135Y-67500552D02*
X134479135Y-68500552D01*
X134479135Y-67548171D02*
X134402945Y-67500552D01*
X134402945Y-67500552D02*
X134250564Y-67500552D01*
X134250564Y-67500552D02*
X134174373Y-67548171D01*
X134174373Y-67548171D02*
X134136278Y-67595790D01*
X134136278Y-67595790D02*
X134098183Y-67691028D01*
X134098183Y-67691028D02*
X134098183Y-67976742D01*
X134098183Y-67976742D02*
X134136278Y-68071980D01*
X134136278Y-68071980D02*
X134174373Y-68119600D01*
X134174373Y-68119600D02*
X134250564Y-68167219D01*
X134250564Y-68167219D02*
X134402945Y-68167219D01*
X134402945Y-68167219D02*
X134479135Y-68119600D01*
X133793421Y-68119600D02*
X133717230Y-68167219D01*
X133717230Y-68167219D02*
X133564849Y-68167219D01*
X133564849Y-68167219D02*
X133488659Y-68119600D01*
X133488659Y-68119600D02*
X133450563Y-68024361D01*
X133450563Y-68024361D02*
X133450563Y-67976742D01*
X133450563Y-67976742D02*
X133488659Y-67881504D01*
X133488659Y-67881504D02*
X133564849Y-67833885D01*
X133564849Y-67833885D02*
X133679135Y-67833885D01*
X133679135Y-67833885D02*
X133755325Y-67786266D01*
X133755325Y-67786266D02*
X133793421Y-67691028D01*
X133793421Y-67691028D02*
X133793421Y-67643409D01*
X133793421Y-67643409D02*
X133755325Y-67548171D01*
X133755325Y-67548171D02*
X133679135Y-67500552D01*
X133679135Y-67500552D02*
X133564849Y-67500552D01*
X133564849Y-67500552D02*
X133488659Y-67548171D01*
D11*
X161426653Y-91424999D02*
X161426653Y-91920238D01*
X161045700Y-91672618D02*
X161807605Y-91672618D01*
X161426653Y-92229761D02*
X161426653Y-92725000D01*
D14*
X161556593Y-89323693D02*
X160793405Y-89323693D01*
X161174999Y-89705287D02*
X161174999Y-88942098D01*
D11*
X130834048Y-89084299D02*
X130957857Y-89084299D01*
X130957857Y-89084299D02*
X131019762Y-89131918D01*
X131019762Y-89131918D02*
X131081667Y-89227156D01*
X131081667Y-89227156D02*
X131112619Y-89417632D01*
X131112619Y-89417632D02*
X131112619Y-89750965D01*
X131112619Y-89750965D02*
X131081667Y-89941441D01*
X131081667Y-89941441D02*
X131019762Y-90036680D01*
X131019762Y-90036680D02*
X130957857Y-90084299D01*
X130957857Y-90084299D02*
X130834048Y-90084299D01*
X130834048Y-90084299D02*
X130772143Y-90036680D01*
X130772143Y-90036680D02*
X130710238Y-89941441D01*
X130710238Y-89941441D02*
X130679286Y-89750965D01*
X130679286Y-89750965D02*
X130679286Y-89417632D01*
X130679286Y-89417632D02*
X130710238Y-89227156D01*
X130710238Y-89227156D02*
X130772143Y-89131918D01*
X130772143Y-89131918D02*
X130834048Y-89084299D01*
X131391190Y-89417632D02*
X131391190Y-90084299D01*
X131391190Y-89512870D02*
X131422143Y-89465251D01*
X131422143Y-89465251D02*
X131484048Y-89417632D01*
X131484048Y-89417632D02*
X131576905Y-89417632D01*
X131576905Y-89417632D02*
X131638809Y-89465251D01*
X131638809Y-89465251D02*
X131669762Y-89560489D01*
X131669762Y-89560489D02*
X131669762Y-90084299D01*
X162154299Y-81416666D02*
X161154299Y-81416666D01*
X161154299Y-81416666D02*
X161868584Y-81199999D01*
X161868584Y-81199999D02*
X161154299Y-80983332D01*
X161154299Y-80983332D02*
X162154299Y-80983332D01*
D10*
X163386279Y-67893409D02*
X163652945Y-67893409D01*
X163652945Y-68417219D02*
X163652945Y-67417219D01*
X163652945Y-67417219D02*
X163271993Y-67417219D01*
X162967231Y-68417219D02*
X162967231Y-67750552D01*
X162967231Y-67941028D02*
X162929136Y-67845790D01*
X162929136Y-67845790D02*
X162891041Y-67798171D01*
X162891041Y-67798171D02*
X162814850Y-67750552D01*
X162814850Y-67750552D02*
X162738660Y-67750552D01*
X162167231Y-68369600D02*
X162243422Y-68417219D01*
X162243422Y-68417219D02*
X162395803Y-68417219D01*
X162395803Y-68417219D02*
X162471993Y-68369600D01*
X162471993Y-68369600D02*
X162510089Y-68274361D01*
X162510089Y-68274361D02*
X162510089Y-67893409D01*
X162510089Y-67893409D02*
X162471993Y-67798171D01*
X162471993Y-67798171D02*
X162395803Y-67750552D01*
X162395803Y-67750552D02*
X162243422Y-67750552D01*
X162243422Y-67750552D02*
X162167231Y-67798171D01*
X162167231Y-67798171D02*
X162129136Y-67893409D01*
X162129136Y-67893409D02*
X162129136Y-67988647D01*
X162129136Y-67988647D02*
X162510089Y-68083885D01*
X161481517Y-68369600D02*
X161557708Y-68417219D01*
X161557708Y-68417219D02*
X161710089Y-68417219D01*
X161710089Y-68417219D02*
X161786279Y-68369600D01*
X161786279Y-68369600D02*
X161824375Y-68274361D01*
X161824375Y-68274361D02*
X161824375Y-67893409D01*
X161824375Y-67893409D02*
X161786279Y-67798171D01*
X161786279Y-67798171D02*
X161710089Y-67750552D01*
X161710089Y-67750552D02*
X161557708Y-67750552D01*
X161557708Y-67750552D02*
X161481517Y-67798171D01*
X161481517Y-67798171D02*
X161443422Y-67893409D01*
X161443422Y-67893409D02*
X161443422Y-67988647D01*
X161443422Y-67988647D02*
X161824375Y-68083885D01*
X160643422Y-68417219D02*
X160910089Y-67941028D01*
X161100565Y-68417219D02*
X161100565Y-67417219D01*
X161100565Y-67417219D02*
X160795803Y-67417219D01*
X160795803Y-67417219D02*
X160719613Y-67464838D01*
X160719613Y-67464838D02*
X160681518Y-67512457D01*
X160681518Y-67512457D02*
X160643422Y-67607695D01*
X160643422Y-67607695D02*
X160643422Y-67750552D01*
X160643422Y-67750552D02*
X160681518Y-67845790D01*
X160681518Y-67845790D02*
X160719613Y-67893409D01*
X160719613Y-67893409D02*
X160795803Y-67941028D01*
X160795803Y-67941028D02*
X161100565Y-67941028D01*
X160414851Y-67417219D02*
X159957708Y-67417219D01*
X160186280Y-68417219D02*
X160186280Y-67417219D01*
X159538660Y-67417219D02*
X159386279Y-67417219D01*
X159386279Y-67417219D02*
X159310089Y-67464838D01*
X159310089Y-67464838D02*
X159233898Y-67560076D01*
X159233898Y-67560076D02*
X159195803Y-67750552D01*
X159195803Y-67750552D02*
X159195803Y-68083885D01*
X159195803Y-68083885D02*
X159233898Y-68274361D01*
X159233898Y-68274361D02*
X159310089Y-68369600D01*
X159310089Y-68369600D02*
X159386279Y-68417219D01*
X159386279Y-68417219D02*
X159538660Y-68417219D01*
X159538660Y-68417219D02*
X159614851Y-68369600D01*
X159614851Y-68369600D02*
X159691041Y-68274361D01*
X159691041Y-68274361D02*
X159729137Y-68083885D01*
X159729137Y-68083885D02*
X159729137Y-67750552D01*
X159729137Y-67750552D02*
X159691041Y-67560076D01*
X159691041Y-67560076D02*
X159614851Y-67464838D01*
X159614851Y-67464838D02*
X159538660Y-67417219D01*
X158891042Y-68369600D02*
X158776756Y-68417219D01*
X158776756Y-68417219D02*
X158586280Y-68417219D01*
X158586280Y-68417219D02*
X158510089Y-68369600D01*
X158510089Y-68369600D02*
X158471994Y-68321980D01*
X158471994Y-68321980D02*
X158433899Y-68226742D01*
X158433899Y-68226742D02*
X158433899Y-68131504D01*
X158433899Y-68131504D02*
X158471994Y-68036266D01*
X158471994Y-68036266D02*
X158510089Y-67988647D01*
X158510089Y-67988647D02*
X158586280Y-67941028D01*
X158586280Y-67941028D02*
X158738661Y-67893409D01*
X158738661Y-67893409D02*
X158814851Y-67845790D01*
X158814851Y-67845790D02*
X158852946Y-67798171D01*
X158852946Y-67798171D02*
X158891042Y-67702933D01*
X158891042Y-67702933D02*
X158891042Y-67607695D01*
X158891042Y-67607695D02*
X158852946Y-67512457D01*
X158852946Y-67512457D02*
X158814851Y-67464838D01*
X158814851Y-67464838D02*
X158738661Y-67417219D01*
X158738661Y-67417219D02*
X158548184Y-67417219D01*
X158548184Y-67417219D02*
X158433899Y-67464838D01*
D14*
X148356593Y-80823693D02*
X147593405Y-80823693D01*
X147974999Y-81205287D02*
X147974999Y-80442098D01*
D15*
%TO.C,C12*%
X160725000Y-71737836D02*
X160725000Y-71522164D01*
X161775000Y-71737836D02*
X161775000Y-71522164D01*
%TO.C,R35*%
X144136359Y-73275000D02*
X144443641Y-73275000D01*
X144136359Y-74275000D02*
X144443641Y-74275000D01*
%TO.C,C10*%
X161127836Y-94975000D02*
X160912164Y-94975000D01*
X161127836Y-93925000D02*
X160912164Y-93925000D01*
%TO.C,R34*%
X132100000Y-92436359D02*
X132100000Y-92743641D01*
X131100000Y-92436359D02*
X131100000Y-92743641D01*
%TO.C,R7*%
X162913641Y-97975000D02*
X162606359Y-97975000D01*
X162913641Y-96975000D02*
X162606359Y-96975000D01*
%TO.C,R14*%
X143986359Y-75200000D02*
X144293641Y-75200000D01*
X143986359Y-76200000D02*
X144293641Y-76200000D01*
%TO.C,C18*%
X145977836Y-85875000D02*
X145762164Y-85875000D01*
X145977836Y-84825000D02*
X145762164Y-84825000D01*
%TO.C,R29*%
X146861359Y-72425000D02*
X147168641Y-72425000D01*
X146861359Y-73425000D02*
X147168641Y-73425000D01*
%TO.C,C26*%
X133925000Y-71612164D02*
X133925000Y-71827836D01*
X132875000Y-71612164D02*
X132875000Y-71827836D01*
%TO.C,R23*%
X163000000Y-103886359D02*
X163000000Y-104193641D01*
X162000000Y-103886359D02*
X162000000Y-104193641D01*
%TO.C,C9*%
X144192164Y-71675000D02*
X144407836Y-71675000D01*
X144192164Y-72725000D02*
X144407836Y-72725000D01*
%TO.C,C21*%
X147987164Y-84700000D02*
X148202836Y-84700000D01*
X147987164Y-85750000D02*
X148202836Y-85750000D01*
%TO.C,R5*%
X155375000Y-102471359D02*
X155375000Y-102778641D01*
X154375000Y-102471359D02*
X154375000Y-102778641D01*
%TO.C,C27*%
X159775000Y-104087836D02*
X159775000Y-103872164D01*
X160825000Y-104087836D02*
X160825000Y-103872164D01*
%TO.C,U3*%
X157950000Y-101210000D02*
X159900000Y-101210000D01*
X157950000Y-101210000D02*
X156000000Y-101210000D01*
X157950000Y-96090000D02*
X161400000Y-96090000D01*
X157950000Y-96090000D02*
X156000000Y-96090000D01*
D16*
%TO.C,LS1*%
X149237500Y-78075000D02*
X149237500Y-75525000D01*
X154637500Y-72475000D02*
X152087500Y-72475000D01*
X154887500Y-80975000D02*
X152337500Y-80975000D01*
X157737500Y-78025000D02*
X157737500Y-75475000D01*
D15*
%TO.C,R16*%
X159825000Y-90553641D02*
X159825000Y-90246359D01*
X160825000Y-90553641D02*
X160825000Y-90246359D01*
%TO.C,C2*%
X136662164Y-99675000D02*
X136877836Y-99675000D01*
X136662164Y-100725000D02*
X136877836Y-100725000D01*
%TO.C,C28*%
X136550000Y-104262164D02*
X136550000Y-104477836D01*
X135500000Y-104262164D02*
X135500000Y-104477836D01*
%TO.C,C3*%
X136852836Y-99350000D02*
X136637164Y-99350000D01*
X136852836Y-98300000D02*
X136637164Y-98300000D01*
%TO.C,C23*%
X151487164Y-87450000D02*
X151702836Y-87450000D01*
X151487164Y-88500000D02*
X151702836Y-88500000D01*
%TO.C,U1*%
X140650000Y-99260000D02*
X141450000Y-99260000D01*
X140650000Y-99260000D02*
X139850000Y-99260000D01*
X140650000Y-96140000D02*
X142450000Y-96140000D01*
X140650000Y-96140000D02*
X139850000Y-96140000D01*
%TO.C,D7*%
X147925000Y-74540000D02*
X147925000Y-77200000D01*
X146225000Y-74540000D02*
X147925000Y-74540000D01*
X146225000Y-74540000D02*
X146225000Y-77200000D01*
%TO.C,R21*%
X162200000Y-71938641D02*
X162200000Y-71631359D01*
X163200000Y-71938641D02*
X163200000Y-71631359D01*
%TO.C,C22*%
X142702836Y-88700000D02*
X142487164Y-88700000D01*
X142702836Y-87650000D02*
X142487164Y-87650000D01*
%TO.C,C25*%
X160425000Y-71667164D02*
X160425000Y-71882836D01*
X159375000Y-71667164D02*
X159375000Y-71882836D01*
%TO.C,R18*%
X144043641Y-90225000D02*
X143736359Y-90225000D01*
X144043641Y-89225000D02*
X143736359Y-89225000D01*
%TO.C,C11*%
X133037836Y-74325000D02*
X132822164Y-74325000D01*
X133037836Y-73275000D02*
X132822164Y-73275000D01*
%TO.C,U2*%
X146400000Y-99260000D02*
X147200000Y-99260000D01*
X146400000Y-99260000D02*
X145600000Y-99260000D01*
X146400000Y-96140000D02*
X148200000Y-96140000D01*
X146400000Y-96140000D02*
X145600000Y-96140000D01*
%TO.C,R24*%
X134175000Y-104286359D02*
X134175000Y-104593641D01*
X133175000Y-104286359D02*
X133175000Y-104593641D01*
%TO.C,R17*%
X160028641Y-92600000D02*
X159721359Y-92600000D01*
X160028641Y-91600000D02*
X159721359Y-91600000D01*
%TO.C,Q5*%
X161362500Y-74040000D02*
X160712500Y-74040000D01*
X161362500Y-74040000D02*
X162012500Y-74040000D01*
X161362500Y-77160000D02*
X159687500Y-77160000D01*
X161362500Y-77160000D02*
X162012500Y-77160000D01*
D17*
%TO.C,Q4*%
X160550000Y-84427600D02*
X160089600Y-84427600D01*
X160089600Y-84427600D02*
X160100000Y-84750000D01*
X160089600Y-86950000D02*
X160089600Y-87272400D01*
X160089600Y-87272400D02*
X160500000Y-87272400D01*
D15*
%TO.C,C17*%
X141437836Y-101950000D02*
X141222164Y-101950000D01*
X141437836Y-100900000D02*
X141222164Y-100900000D01*
%TO.C,R36*%
X143561359Y-86100000D02*
X143868641Y-86100000D01*
X143561359Y-87100000D02*
X143868641Y-87100000D01*
%TO.C,U6*%
X146115000Y-90210000D02*
X146365000Y-90210000D01*
X146115000Y-89960000D02*
X146115000Y-90210000D01*
X149335000Y-89960000D02*
X149335000Y-90210000D01*
X146115000Y-87240000D02*
X146115000Y-86990000D01*
X149335000Y-87240000D02*
X149335000Y-86990000D01*
X146115000Y-86990000D02*
X146365000Y-86990000D01*
X149335000Y-86990000D02*
X149085000Y-86990000D01*
%TO.C,R22*%
X135025000Y-71913641D02*
X135025000Y-71606359D01*
X136025000Y-71913641D02*
X136025000Y-71606359D01*
%TO.C,R15*%
X156125000Y-85936359D02*
X156125000Y-86243641D01*
X155125000Y-85936359D02*
X155125000Y-86243641D01*
%TD*%
M02*
