%TF.GenerationSoftware,KiCad,Pcbnew,7.0.10*%
%TF.CreationDate,2024-11-30T16:41:07+05:30*%
%TF.ProjectId,Watch_v3,57617463-685f-4763-932e-6b696361645f,Watch_v3*%
%TF.SameCoordinates,Original*%
%TF.FileFunction,Soldermask,Bot*%
%TF.FilePolarity,Negative*%
%FSLAX46Y46*%
G04 Gerber Fmt 4.6, Leading zero omitted, Abs format (unit mm)*
G04 Created by KiCad (PCBNEW 7.0.10) date 2024-11-30 16:41:07*
%MOMM*%
%LPD*%
G01*
G04 APERTURE LIST*
G04 Aperture macros list*
%AMRoundRect*
0 Rectangle with rounded corners*
0 $1 Rounding radius*
0 $2 $3 $4 $5 $6 $7 $8 $9 X,Y pos of 4 corners*
0 Add a 4 corners polygon primitive as box body*
4,1,4,$2,$3,$4,$5,$6,$7,$8,$9,$2,$3,0*
0 Add four circle primitives for the rounded corners*
1,1,$1+$1,$2,$3*
1,1,$1+$1,$4,$5*
1,1,$1+$1,$6,$7*
1,1,$1+$1,$8,$9*
0 Add four rect primitives between the rounded corners*
20,1,$1+$1,$2,$3,$4,$5,0*
20,1,$1+$1,$4,$5,$6,$7,0*
20,1,$1+$1,$6,$7,$8,$9,0*
20,1,$1+$1,$8,$9,$2,$3,0*%
G04 Aperture macros list end*
%ADD10R,2.500000X1.500000*%
%ADD11O,2.500000X1.500000*%
%ADD12O,1.700000X1.700000*%
%ADD13R,1.700000X1.700000*%
%ADD14RoundRect,0.102000X0.395000X0.140000X-0.395000X0.140000X-0.395000X-0.140000X0.395000X-0.140000X0*%
%ADD15RoundRect,0.102000X0.140000X0.395000X-0.140000X0.395000X-0.140000X-0.395000X0.140000X-0.395000X0*%
%ADD16RoundRect,0.135000X0.135000X0.185000X-0.135000X0.185000X-0.135000X-0.185000X0.135000X-0.185000X0*%
%ADD17RoundRect,0.100500X0.986500X0.301500X-0.986500X0.301500X-0.986500X-0.301500X0.986500X-0.301500X0*%
%ADD18RoundRect,0.102000X1.206500X1.651000X-1.206500X1.651000X-1.206500X-1.651000X1.206500X-1.651000X0*%
%ADD19RoundRect,0.102000X1.250000X1.250000X-1.250000X1.250000X-1.250000X-1.250000X1.250000X-1.250000X0*%
%ADD20RoundRect,0.140000X-0.140000X-0.170000X0.140000X-0.170000X0.140000X0.170000X-0.140000X0.170000X0*%
%ADD21RoundRect,0.140000X0.140000X0.170000X-0.140000X0.170000X-0.140000X-0.170000X0.140000X-0.170000X0*%
%ADD22RoundRect,0.102000X0.500000X0.700000X-0.500000X0.700000X-0.500000X-0.700000X0.500000X-0.700000X0*%
%ADD23C,1.500000*%
%ADD24RoundRect,0.112500X-0.112500X0.187500X-0.112500X-0.187500X0.112500X-0.187500X0.112500X0.187500X0*%
%ADD25RoundRect,0.150000X0.587500X0.150000X-0.587500X0.150000X-0.587500X-0.150000X0.587500X-0.150000X0*%
%ADD26RoundRect,0.135000X0.185000X-0.135000X0.185000X0.135000X-0.185000X0.135000X-0.185000X-0.135000X0*%
%ADD27RoundRect,0.381000X0.381000X-0.762000X0.381000X0.762000X-0.381000X0.762000X-0.381000X-0.762000X0*%
%ADD28O,1.000000X1.800000*%
%ADD29O,1.000000X2.100000*%
%ADD30C,0.650000*%
G04 APERTURE END LIST*
D10*
%TO.C,SW2*%
X136050000Y-75150000D03*
D11*
X136050000Y-73150000D03*
X136050000Y-71150000D03*
%TD*%
D12*
%TO.C,J7*%
X162433000Y-74930000D03*
X159893000Y-74930000D03*
X157353000Y-74930000D03*
X154813000Y-74930000D03*
X152273000Y-74930000D03*
X149733000Y-74930000D03*
D13*
X147193000Y-74930000D03*
%TD*%
D14*
%TO.C,U6*%
X156594000Y-67580000D03*
X156594000Y-68080000D03*
X156594000Y-68580000D03*
X156594000Y-69080000D03*
X156594000Y-69580000D03*
X156594000Y-70080000D03*
D15*
X155874000Y-70800000D03*
X155374000Y-70800000D03*
X154874000Y-70800000D03*
X154374000Y-70800000D03*
X153874000Y-70800000D03*
X153374000Y-70800000D03*
D14*
X152654000Y-70080000D03*
X152654000Y-69580000D03*
X152654000Y-69080000D03*
X152654000Y-68580000D03*
X152654000Y-68080000D03*
X152654000Y-67580000D03*
D15*
X153374000Y-66860000D03*
X153874000Y-66860000D03*
X154374000Y-66860000D03*
X154874000Y-66860000D03*
X155374000Y-66860000D03*
X155874000Y-66860000D03*
%TD*%
D16*
%TO.C,R33*%
X160075000Y-83500000D03*
X159055000Y-83500000D03*
%TD*%
D17*
%TO.C,U3*%
X167725000Y-86450000D03*
X167725000Y-87720000D03*
X167725000Y-88990000D03*
X167725000Y-90260000D03*
X162775000Y-90260000D03*
X162775000Y-88990000D03*
X162775000Y-87720000D03*
X162775000Y-86450000D03*
D18*
X165250000Y-88355000D03*
%TD*%
D19*
%TO.C,LS1*%
X160850000Y-62050000D03*
X160850000Y-55050000D03*
X167850000Y-62050000D03*
X167850000Y-55050000D03*
%TD*%
D12*
%TO.C,J4*%
X141850000Y-69280000D03*
X141850000Y-71820000D03*
X141850000Y-74360000D03*
D13*
X141850000Y-76900000D03*
%TD*%
D20*
%TO.C,C21*%
X156920000Y-72050000D03*
X157880000Y-72050000D03*
%TD*%
D21*
%TO.C,C22*%
X159025000Y-66675000D03*
X158065000Y-66675000D03*
%TD*%
%TO.C,C23*%
X150625000Y-66675000D03*
X149665000Y-66675000D03*
%TD*%
D22*
%TO.C,Q4*%
X140600000Y-63975000D03*
X139650000Y-66175000D03*
X141550000Y-66175000D03*
%TD*%
D16*
%TO.C,R29*%
X158385000Y-63475000D03*
X157365000Y-63475000D03*
%TD*%
%TO.C,R36*%
X150675000Y-67975000D03*
X149655000Y-67975000D03*
%TD*%
D23*
%TO.C,M1*%
X140450000Y-59325000D03*
X140450000Y-57075000D03*
%TD*%
D24*
%TO.C,D7*%
X157875000Y-59925000D03*
X157875000Y-62025000D03*
%TD*%
D25*
%TO.C,Q5*%
X156200000Y-57275000D03*
X158075000Y-58225000D03*
X158075000Y-56325000D03*
%TD*%
D26*
%TO.C,R35*%
X143775000Y-55260000D03*
X143775000Y-54240000D03*
%TD*%
D16*
%TO.C,R18*%
X153955000Y-72075000D03*
X154975000Y-72075000D03*
%TD*%
D27*
%TO.C,J2*%
X139700000Y-91225000D03*
X139700000Y-87475000D03*
%TD*%
D28*
%TO.C,J1*%
X159133000Y-91499000D03*
D29*
X159133000Y-87319000D03*
D28*
X150493000Y-91499000D03*
D29*
X150493000Y-87319000D03*
D30*
X157703000Y-87819000D03*
X151923000Y-87819000D03*
%TD*%
M02*
