M48
; DRILL file {KiCad 7.0.10} date 
; FORMAT={-:-/ absolute / inch / decimal}
; #@! TF.CreationDate,2024-12-04T03:17:37+05:30
; #@! TF.GenerationSoftware,Kicad,Pcbnew,7.0.10
; #@! TF.FileFunction,Plated,1,2,PTH
FMAT,2
INCH
; #@! TA.AperFunction,Plated,PTH,ViaDrill
T1C0.0063
; #@! TA.AperFunction,Plated,PTH,ComponentDrill
T2C0.0276
; #@! TA.AperFunction,Plated,PTH,ComponentDrill
T3C0.0315
; #@! TA.AperFunction,Plated,PTH,ComponentDrill
T4C0.0394
%
G90
G05
T1
X5.0689Y-3.6791
X5.2116Y-3.4626
X5.2215Y-3.6102
X5.253Y-3.6014
X5.2598Y-3.8327
X5.2608Y-2.75
X5.2707Y-3.7274
X5.2844Y-2.7667
X5.2844Y-3.2372
X5.2874Y-2.9085
X5.315Y-4.1033
X5.3159Y-3.2346
X5.3199Y-3.7224
X5.3228Y-2.9035
X5.3317Y-3.2598
X5.3317Y-3.8406
X5.3366Y-3.1811
X5.3429Y-2.9809
X5.3455Y-2.8868
X5.3484Y-3.021
X5.3504Y-4.0236
X5.3514Y-4.2116
X5.3878Y-3.7057
X5.3986Y-4.0157
X5.4016Y-4.0945
X5.4035Y-2.8199
X5.4114Y-4.1437
X5.4134Y-3.2008
X5.4193Y-3.2776
X5.4385Y-3.9975
X5.44Y-3.6988
X5.4429Y-3.8219
X5.4703Y-3.5647
X5.4774Y-3.7579
X5.503Y-4.003
X5.5296Y-3.7638
X5.5433Y-3.3661
X5.5443Y-3.4852
X5.5472Y-2.9114
X5.5482Y-2.999
X5.5482Y-3.5394
X5.5522Y-2.8681
X5.5551Y-3.0837
X5.562Y-3.2323
X5.5709Y-3.1535
X5.5778Y-3.6004
X5.5994Y-4.0463
X5.6014Y-3.9341
X5.6043Y-3.2776
X5.6132Y-2.8406
X5.6132Y-3.3248
X5.6181Y-3.3691
X5.6495Y-3.798
X5.685Y-3.3671
X5.7313Y-3.0335
X5.8858Y-3.8415
X5.9055Y-3.0089
X5.9085Y-3.8209
X5.9321Y-3.8425
X5.9449Y-3.2372
X5.9449Y-3.3366
X5.9547Y-3.3012
X5.9557Y-3.0758
X5.9636Y-3.7982
X5.9793Y-3.6014
X5.99Y-3.8505
X6.003Y-3.0266
X6.0128Y-3.8356
X6.0197Y-3.1033
X6.0453Y-3.8553
X6.0512Y-3.6024
X6.0827Y-2.9498
X6.0915Y-3.5512
X6.0974Y-3.06
X6.0984Y-3.0049
X6.1014Y-3.2756
X6.1191Y-3.9921
X6.1654Y-4.0531
X6.185Y-3.7618
X6.2156Y-3.623
X6.2224Y-3.316
X6.2244Y-3.4872
X6.2264Y-3.4419
X6.2343Y-3.0039
X6.2343Y-3.3661
X6.2392Y-3.5394
X6.2402Y-3.5778
X6.2402Y-3.9646
X6.2441Y-2.7618
X6.25Y-3.247
X6.252Y-2.8474
X6.2544Y-3.3169
X6.2608Y-3.0472
X6.2748Y-3.5945
X6.2844Y-4.2461
X6.2943Y-2.8819
X6.2943Y-4.1575
X6.2982Y-3.2667
X6.3061Y-3.7559
X6.3087Y-3.6879
X6.316Y-3.4331
X6.3179Y-3.4705
X6.3209Y-3.2461
X6.329Y-3.6661
X6.3346Y-3.2195
X6.3415Y-2.748
X6.3465Y-3.6447
X6.3563Y-4.0
X6.3642Y-3.5404
X6.3691Y-3.4951
X6.378Y-3.2854
X6.3927Y-3.7972
X6.3927Y-4.1535
X6.3967Y-2.7746
X6.4114Y-3.9272
X6.4183Y-3.0226
T3
X5.0571Y-3.3848
X5.0571Y-3.4636
X5.0571Y-3.5423
T4
X5.3228Y-3.3376
X5.3228Y-3.4376
X5.3228Y-3.5376
X5.3228Y-3.6376
X5.5183Y-3.6772
X5.6183Y-3.6772
X5.7183Y-3.6772
X5.8183Y-3.6772
X5.9183Y-3.6772
X6.0183Y-3.6772
X6.1183Y-3.6772
T2
G00X5.6594Y-3.9614
M15
G01X5.6594Y-4.0008
M16
G05
G00X5.6594Y-4.1319
M15
G01X5.6594Y-4.1594
M16
G05
G00X5.9996Y-3.9614
M15
G01X5.9996Y-4.0008
M16
G05
G00X5.9996Y-4.1319
M15
G01X5.9996Y-4.1594
M16
G05
M30
