M48
; DRILL file {KiCad 7.0.10} date 
; FORMAT={-:-/ absolute / inch / decimal}
; #@! TF.CreationDate,2024-11-30T16:41:21+05:30
; #@! TF.GenerationSoftware,Kicad,Pcbnew,7.0.10
; #@! TF.FileFunction,Plated,1,2,PTH
FMAT,2
INCH
; #@! TA.AperFunction,Plated,PTH,ViaDrill
T1C0.0063
; #@! TA.AperFunction,Plated,PTH,ComponentDrill
T2C0.0236
; #@! TA.AperFunction,Plated,PTH,ComponentDrill
T3C0.0315
; #@! TA.AperFunction,Plated,PTH,ComponentDrill
T4C0.0394
%
G90
G05
T1
X5.2667Y-3.0217
X5.2677Y-2.9085
X5.2687Y-2.7992
X5.2854Y-2.687
X5.3484Y-2.7313
X5.4242Y-2.8425
X5.437Y-3.0305
X5.4478Y-2.7234
X5.4587Y-2.686
X5.4761Y-2.1959
X5.4862Y-2.6811
X5.4911Y-3.9075
X5.4911Y-3.9852
X5.4931Y-2.1713
X5.498Y-1.9242
X5.5Y-1.7923
X5.5Y-1.8199
X5.5Y-1.8435
X5.501Y-1.8819
X5.503Y-3.8317
X5.5049Y-2.0935
X5.5049Y-3.1457
X5.5079Y-3.2549
X5.5108Y-2.7766
X5.5118Y-1.747
X5.5128Y-3.9478
X5.5157Y-3.877
X5.5197Y-3.3012
X5.5217Y-1.8681
X5.5217Y-1.9006
X5.5217Y-3.9124
X5.5217Y-3.9803
X5.5224Y-2.671
X5.5226Y-3.8012
X5.5256Y-3.6919
X5.5256Y-3.8425
X5.5276Y-1.7736
X5.5276Y-1.81
X5.5295Y-1.7205
X5.5305Y-3.6644
X5.5325Y-2.4675
X5.5384Y-1.9222
X5.5394Y-1.7549
X5.5423Y-1.8327
X5.5463Y-2.4331
X5.5551Y-3.4262
X5.5591Y-3.2746
X5.561Y-3.5659
X5.562Y-3.8002
X5.565Y-3.0965
X5.5679Y-2.0325
X5.5748Y-3.8297
X5.5768Y-1.7195
X5.5768Y-1.7569
X5.5787Y-2.1831
X5.5797Y-3.9104
X5.5807Y-3.9459
X5.5827Y-1.8465
X5.5827Y-3.8553
X5.5837Y-1.812
X5.5846Y-3.8809
X5.5896Y-1.7874
X5.5896Y-2.0925
X5.5906Y-1.876
X5.5925Y-1.7372
X5.5925Y-3.8002
X5.5925Y-3.9774
X5.5945Y-3.2224
X5.5955Y-2.5039
X5.5965Y-3.1929
X5.6004Y-1.9055
X5.6024Y-3.6398
X5.6024Y-3.8307
X5.6024Y-3.8898
X5.6053Y-3.6102
X5.6063Y-3.9311
X5.6073Y-3.2972
X5.6093Y-1.8317
X5.6093Y-1.938
X5.6102Y-3.5551
X5.6102Y-3.8632
X5.6112Y-1.8002
X5.6122Y-3.5797
X5.6132Y-1.876
X5.6132Y-3.9104
X5.6152Y-3.8061
X5.6309Y-3.6122
X5.6339Y-3.4547
X5.6378Y-2.4055
X5.6378Y-3.4026
X5.6496Y-3.2972
X5.6594Y-3.2687
X5.6634Y-2.2146
X5.6654Y-2.3583
X5.6673Y-3.4508
X5.6703Y-3.6014
X5.6713Y-2.5719
X5.6713Y-2.7628
X5.6751Y-2.0911
X5.6772Y-2.7008
X5.6791Y-2.6496
X5.686Y-2.4085
X5.687Y-3.0118
X5.7057Y-3.3071
X5.7067Y-3.3907
X5.7165Y-2.9439
X5.7205Y-3.2608
X5.7579Y-3.4183
X5.7628Y-3.5295
X5.7657Y-3.2175
X5.7687Y-3.2579
X5.7687Y-3.3031
X5.7697Y-3.1811
X5.7972Y-2.3533
X5.7972Y-2.4626
X5.7982Y-2.2106
X5.8002Y-3.4508
X5.8081Y-2.5089
X5.8081Y-3.2589
X5.813Y-2.2402
X5.8159Y-2.125
X5.8169Y-2.8504
X5.8179Y-2.2736
X5.8294Y-2.5945
X5.8297Y-2.7185
X5.8317Y-3.1644
X5.8317Y-2.1565
X5.8346Y-2.4232
X5.8376Y-2.6752
X5.8415Y-2.249
X5.8514Y-2.1004
X5.8543Y-3.1083
X5.8553Y-2.5896
X5.8573Y-3.5768
X5.8593Y-3.2431
X5.8681Y-2.189
X5.875Y-2.7402
X5.8789Y-3.3337
X5.8789Y-3.3593
X5.8829Y-2.1329
X5.8848Y-2.5778
X5.8868Y-2.5354
X5.8957Y-2.3031
X5.8986Y-2.1093
X5.9026Y-2.2185
X5.9055Y-3.5187
X5.9144Y-2.4616
X5.9154Y-3.1142
X5.9163Y-2.4183
X5.9183Y-2.2441
X5.9291Y-2.0984
X5.9301Y-2.7431
X5.9341Y-2.1673
X5.9449Y-2.3031
X5.9488Y-2.5876
X5.9537Y-2.2047
X5.9537Y-2.7146
X5.9557Y-2.2579
X5.9587Y-3.561
X5.9616Y-2.1398
X5.9636Y-2.1722
X5.9659Y-2.6725
X5.9705Y-3.0571
X5.9774Y-2.1152
X5.9783Y-2.2943
X5.9803Y-2.2146
X5.9862Y-2.1604
X5.9862Y-3.2992
X5.9902Y-3.0374
X5.9941Y-2.314
X5.9941Y-2.5246
X5.9951Y-2.5571
X5.998Y-2.2421
X6.003Y-2.1821
X6.003Y-3.5669
X6.003Y-3.2461
X6.0039Y-2.1339
X6.0059Y-2.6112
X6.0157Y-2.2087
X6.0182Y-2.8548
X6.0207Y-2.2392
X6.0256Y-2.1073
X6.0256Y-2.1624
X6.032Y-3.2362
X6.0374Y-2.1299
X6.0384Y-2.189
X6.0433Y-3.4685
X6.0463Y-2.2264
X6.0472Y-2.2648
X6.0502Y-2.564
X6.0561Y-2.1634
X6.061Y-2.127
X6.0669Y-2.2018
X6.0728Y-2.252
X6.0758Y-2.2815
X6.0778Y-2.2244
X6.0787Y-2.1811
X6.0837Y-3.6024
X6.0906Y-2.1112
X6.0945Y-2.1614
X6.0974Y-2.1388
X6.0974Y-2.2047
X6.0991Y-2.5598
X6.1083Y-3.2854
X6.1211Y-2.4075
X6.123Y-3.3091
X6.126Y-2.3652
X6.127Y-3.6024
X6.1289Y-3.56
X6.1299Y-2.1535
X6.1348Y-2.1211
X6.1398Y-2.8563
X6.1447Y-2.5177
X6.1506Y-2.3366
X6.1575Y-2.1644
X6.1649Y-2.4444
X6.1654Y-2.564
X6.1673Y-2.1309
X6.1752Y-2.2254
X6.1762Y-3.6033
X6.1893Y-3.2333
X6.1988Y-2.1467
X6.2077Y-2.5935
X6.2096Y-2.1132
X6.2096Y-2.7175
X6.2146Y-3.2569
X6.2156Y-3.5994
X6.2185Y-2.2608
X6.2244Y-2.1467
X6.2318Y-3.5014
X6.2372Y-2.5384
X6.2372Y-3.3169
X6.2461Y-2.1201
X6.248Y-3.5197
X6.2549Y-3.1634
X6.2559Y-3.5463
X6.2579Y-2.1447
X6.2687Y-2.315
X6.2766Y-2.873
X6.2844Y-2.2707
X6.2993Y-3.5324
X6.313Y-3.6191
X6.3159Y-2.686
X6.3179Y-2.625
X6.3189Y-2.3524
X6.3199Y-2.8681
X6.3209Y-3.2451
X6.3287Y-3.3504
X6.3344Y-3.5896
X6.3394Y-3.4559
X6.3415Y-3.3242
X6.3427Y-3.4863
X6.3445Y-2.5463
X6.3455Y-3.0984
X6.3494Y-2.2815
X6.3514Y-2.3642
X6.3514Y-3.251
X6.3563Y-2.6378
X6.3583Y-2.5994
X6.3652Y-2.6811
X6.3681Y-2.5236
X6.3681Y-2.814
X6.3711Y-2.7421
X6.3809Y-3.5856
X6.3947Y-3.2116
X6.4222Y-3.2096
X6.4528Y-2.9951
X6.4695Y-3.3868
X6.4705Y-3.2874
X6.4724Y-2.8189
X6.4734Y-2.7628
X6.4756Y-2.9447
X6.4793Y-2.9793
X6.4803Y-2.6762
X6.4833Y-2.5453
X6.4852Y-2.623
X6.4862Y-2.2608
X6.4941Y-2.1171
X6.4941Y-2.3642
X6.498Y-3.0246
X6.5037Y-2.4973
X6.5049Y-3.1644
X6.5069Y-2.3917
X6.5079Y-3.5699
X6.5167Y-2.4498
X6.5311Y-2.823
X6.5335Y-3.3957
X6.5358Y-2.5295
X6.5394Y-3.2766
X6.54Y-2.1762
X6.5423Y-2.2943
X6.5433Y-3.311
X6.5443Y-1.7451
X6.5463Y-3.1417
X6.5463Y-3.8583
X6.5463Y-3.9321
X6.5472Y-2.5669
X6.5472Y-3.9035
X6.5492Y-1.9173
X6.5492Y-2.7372
X6.5502Y-1.8514
X6.5502Y-3.8839
X6.5512Y-3.8317
X6.5522Y-3.9587
X6.5522Y-3.9892
X6.5531Y-1.7835
X6.5541Y-3.8071
X6.555Y-2.8688
X6.5581Y-4.0089
X6.5607Y-3.0446
X6.5613Y-3.1223
X6.562Y-3.6713
X6.5626Y-2.5893
X6.564Y-1.812
X6.5669Y-3.2933
X6.5689Y-1.7559
X6.5709Y-3.0669
X6.5709Y-3.9222
X6.5719Y-3.9705
X6.5748Y-3.8199
X6.5748Y-3.8543
X6.5758Y-3.8898
X6.5778Y-3.7037
X6.5797Y-1.872
X6.58Y-2.7664
X6.5807Y-3.9469
X6.5827Y-4.003
X6.5835Y-2.0902
X6.5837Y-3.7963
X6.5886Y-2.5961
X6.5915Y-1.7904
X6.5915Y-2.9498
X6.5935Y-2.0463
X6.5974Y-3.2995
X6.6004Y-1.7638
X6.6004Y-3.8159
X6.6014Y-1.8327
X6.6024Y-1.8967
X6.6024Y-3.0187
X6.6029Y-2.749
X6.6065Y-3.2077
X6.6102Y-3.8337
X6.6122Y-2.7717
X6.6132Y-2.2411
X6.6152Y-3.1152
X6.6152Y-3.6083
X6.6184Y-2.8758
X6.6191Y-2.7018
X6.6196Y-3.2741
X6.6201Y-2.5679
X6.6201Y-3.7051
X6.6206Y-3.6499
X6.622Y-2.6348
X6.6276Y-2.9371
X6.628Y-1.7274
X6.6289Y-3.94
X6.6309Y-1.8219
X6.6319Y-2.0699
X6.6339Y-3.8061
X6.6348Y-1.7874
X6.6348Y-3.9705
X6.6358Y-3.1594
X6.6358Y-3.8642
X6.6358Y-3.9961
X6.6368Y-1.873
X6.6388Y-3.9006
X6.6417Y-3.3721
X6.6467Y-4.0157
X6.6506Y-1.8514
X6.6506Y-3.9232
X6.6575Y-3.8829
X6.6575Y-3.9528
X6.6585Y-3.8425
X6.6594Y-3.3356
X6.6594Y-1.9124
X6.6594Y-3.9872
X6.6614Y-3.2687
X6.6683Y-2.2441
X6.6772Y-3.6821
X6.6791Y-2.0748
X6.6831Y-3.7884
T3
X5.3563Y-2.8012
X5.3563Y-2.8799
X5.3563Y-2.9587
T4
X5.5846Y-2.7276
X5.5846Y-2.8276
X5.5846Y-2.9276
X5.5846Y-3.0276
X5.795Y-2.95
X5.895Y-2.95
X5.995Y-2.95
X6.095Y-2.95
X6.195Y-2.95
X6.295Y-2.95
X6.395Y-2.95
T2
G00X5.9249Y-3.4161
M15
G01X5.9249Y-3.4594
M16
G05
G00X5.9249Y-3.5866
M15
G01X5.9249Y-3.6181
M16
G05
G00X6.2651Y-3.4161
M15
G01X6.2651Y-3.4594
M16
G05
G00X6.2651Y-3.5866
M15
G01X6.2651Y-3.6181
M16
G05
M30
