%TF.GenerationSoftware,KiCad,Pcbnew,7.0.10*%
%TF.CreationDate,2024-11-30T16:41:07+05:30*%
%TF.ProjectId,Watch_v3,57617463-685f-4763-932e-6b696361645f,Watch_v3*%
%TF.SameCoordinates,Original*%
%TF.FileFunction,Profile,NP*%
%FSLAX46Y46*%
G04 Gerber Fmt 4.6, Leading zero omitted, Abs format (unit mm)*
G04 Created by KiCad (PCBNEW 7.0.10) date 2024-11-30 16:41:07*
%MOMM*%
%LPD*%
G01*
G04 APERTURE LIST*
%TA.AperFunction,Profile*%
%ADD10C,0.200000*%
%TD*%
G04 APERTURE END LIST*
D10*
X165227000Y-52578000D02*
X143637000Y-52578000D01*
X138557000Y-52578000D02*
X138557000Y-52832000D01*
X138557000Y-52832000D02*
X138557000Y-66294000D01*
X138557000Y-79248000D02*
X131191000Y-79248000D01*
X131191000Y-79248000D02*
X131191000Y-66294000D01*
X138557000Y-66294000D02*
X131191000Y-66294000D01*
X165227000Y-92964000D02*
X165227000Y-104394000D01*
X165227000Y-104394000D02*
X170307000Y-104394000D01*
X170307000Y-92964000D02*
X170307000Y-104394000D01*
X138557000Y-104394000D02*
X143637000Y-104394000D01*
X143637000Y-92964000D02*
X143637000Y-104394000D01*
X138557000Y-92964000D02*
X138557000Y-104394000D01*
X165227000Y-41148000D02*
X170307000Y-41148000D01*
X165227000Y-41148000D02*
X165227000Y-52578000D01*
X170307000Y-41148000D02*
X170307000Y-52578000D01*
X143637000Y-41148000D02*
X143637000Y-52578000D01*
X138557000Y-41148000D02*
X143637000Y-41148000D01*
X138557000Y-52578000D02*
X138557000Y-41148000D01*
X170307000Y-92964000D02*
X170307000Y-52578000D01*
X143637000Y-92964000D02*
X165227000Y-92964000D01*
X138557000Y-79248000D02*
X138557000Y-92964000D01*
M02*
