%TF.GenerationSoftware,KiCad,Pcbnew,7.0.10*%
%TF.CreationDate,2024-11-30T16:41:07+05:30*%
%TF.ProjectId,Watch_v3,57617463-685f-4763-932e-6b696361645f,Watch_v3*%
%TF.SameCoordinates,Original*%
%TF.FileFunction,Soldermask,Top*%
%TF.FilePolarity,Negative*%
%FSLAX46Y46*%
G04 Gerber Fmt 4.6, Leading zero omitted, Abs format (unit mm)*
G04 Created by KiCad (PCBNEW 7.0.10) date 2024-11-30 16:41:07*
%MOMM*%
%LPD*%
G01*
G04 APERTURE LIST*
G04 Aperture macros list*
%AMRoundRect*
0 Rectangle with rounded corners*
0 $1 Rounding radius*
0 $2 $3 $4 $5 $6 $7 $8 $9 X,Y pos of 4 corners*
0 Add a 4 corners polygon primitive as box body*
4,1,4,$2,$3,$4,$5,$6,$7,$8,$9,$2,$3,0*
0 Add four circle primitives for the rounded corners*
1,1,$1+$1,$2,$3*
1,1,$1+$1,$4,$5*
1,1,$1+$1,$6,$7*
1,1,$1+$1,$8,$9*
0 Add four rect primitives between the rounded corners*
20,1,$1+$1,$2,$3,$4,$5,0*
20,1,$1+$1,$4,$5,$6,$7,0*
20,1,$1+$1,$6,$7,$8,$9,0*
20,1,$1+$1,$8,$9,$2,$3,0*%
G04 Aperture macros list end*
%ADD10R,2.500000X1.500000*%
%ADD11O,2.500000X1.500000*%
%ADD12C,1.500000*%
%ADD13R,3.800000X3.800000*%
%ADD14R,1.500000X0.900000*%
%ADD15R,0.900000X1.500000*%
%ADD16RoundRect,0.222222X0.577778X0.627778X-0.577778X0.627778X-0.577778X-0.627778X0.577778X-0.627778X0*%
%ADD17R,1.000000X1.250000*%
%ADD18O,1.700000X1.700000*%
%ADD19R,1.700000X1.700000*%
%ADD20RoundRect,0.140000X-0.170000X0.140000X-0.170000X-0.140000X0.170000X-0.140000X0.170000X0.140000X0*%
%ADD21RoundRect,0.135000X0.185000X-0.135000X0.185000X0.135000X-0.185000X0.135000X-0.185000X-0.135000X0*%
%ADD22RoundRect,0.140000X0.170000X-0.140000X0.170000X0.140000X-0.170000X0.140000X-0.170000X-0.140000X0*%
%ADD23RoundRect,0.135000X-0.185000X0.135000X-0.185000X-0.135000X0.185000X-0.135000X0.185000X0.135000X0*%
%ADD24RoundRect,0.147500X0.147500X0.172500X-0.147500X0.172500X-0.147500X-0.172500X0.147500X-0.172500X0*%
%ADD25RoundRect,0.135000X-0.135000X-0.185000X0.135000X-0.185000X0.135000X0.185000X-0.135000X0.185000X0*%
%ADD26RoundRect,0.150000X0.587500X0.150000X-0.587500X0.150000X-0.587500X-0.150000X0.587500X-0.150000X0*%
%ADD27RoundRect,0.140000X-0.140000X-0.170000X0.140000X-0.170000X0.140000X0.170000X-0.140000X0.170000X0*%
%ADD28RoundRect,0.150000X-0.512500X-0.150000X0.512500X-0.150000X0.512500X0.150000X-0.512500X0.150000X0*%
%ADD29RoundRect,0.147500X-0.147500X-0.172500X0.147500X-0.172500X0.147500X0.172500X-0.147500X0.172500X0*%
%ADD30RoundRect,0.135000X0.135000X0.185000X-0.135000X0.185000X-0.135000X-0.185000X0.135000X-0.185000X0*%
%ADD31RoundRect,0.147500X0.172500X-0.147500X0.172500X0.147500X-0.172500X0.147500X-0.172500X-0.147500X0*%
%ADD32RoundRect,0.140000X0.140000X0.170000X-0.140000X0.170000X-0.140000X-0.170000X0.140000X-0.170000X0*%
%ADD33RoundRect,0.150000X-0.587500X-0.150000X0.587500X-0.150000X0.587500X0.150000X-0.587500X0.150000X0*%
%ADD34O,1.000000X1.800000*%
%ADD35O,1.000000X2.100000*%
%ADD36RoundRect,0.150000X-0.150000X-0.425000X0.150000X-0.425000X0.150000X0.425000X-0.150000X0.425000X0*%
%ADD37RoundRect,0.075000X-0.075000X-0.500000X0.075000X-0.500000X0.075000X0.500000X-0.075000X0.500000X0*%
%ADD38C,0.650000*%
%ADD39R,3.350000X3.350000*%
%ADD40RoundRect,0.062500X0.337500X-0.062500X0.337500X0.062500X-0.337500X0.062500X-0.337500X-0.062500X0*%
%ADD41RoundRect,0.062500X0.062500X-0.337500X0.062500X0.337500X-0.062500X0.337500X-0.062500X-0.337500X0*%
G04 APERTURE END LIST*
D10*
%TO.C,SW2*%
X136050000Y-75150000D03*
D11*
X136050000Y-73150000D03*
X136050000Y-71150000D03*
%TD*%
D12*
%TO.C,J3*%
X132425000Y-75800000D03*
X132425000Y-73950000D03*
X132425000Y-72100000D03*
X132425000Y-70250000D03*
%TD*%
D13*
%TO.C,U4*%
X152950000Y-61125000D03*
D14*
X163200000Y-53405000D03*
X163200000Y-54675000D03*
X163200000Y-55945000D03*
X163200000Y-57215000D03*
X163200000Y-58485000D03*
X163200000Y-59755000D03*
X163200000Y-61025000D03*
X163200000Y-62295000D03*
X163200000Y-63565000D03*
X163200000Y-64835000D03*
X163200000Y-66105000D03*
X163200000Y-67375000D03*
X163200000Y-68645000D03*
X163200000Y-69915000D03*
D15*
X160170000Y-71165000D03*
X158900000Y-71165000D03*
X157630000Y-71165000D03*
X156360000Y-71165000D03*
X155090000Y-71165000D03*
X153820000Y-71165000D03*
X152550000Y-71165000D03*
X151280000Y-71165000D03*
X150010000Y-71165000D03*
X148740000Y-71165000D03*
D14*
X145700000Y-69915000D03*
X145700000Y-68645000D03*
X145700000Y-67375000D03*
X145700000Y-66105000D03*
X145700000Y-64835000D03*
X145700000Y-63565000D03*
X145700000Y-62295000D03*
X145700000Y-61025000D03*
X145700000Y-59755000D03*
X145700000Y-58485000D03*
X145700000Y-57215000D03*
X145700000Y-55945000D03*
X145700000Y-54675000D03*
X145700000Y-53405000D03*
%TD*%
D16*
%TO.C,D1*%
X143425000Y-85125000D03*
X147425000Y-85125000D03*
%TD*%
D17*
%TO.C,SW3*%
X167513000Y-54734000D03*
X167513000Y-62484000D03*
%TD*%
D18*
%TO.C,J7*%
X162433000Y-74930000D03*
X159893000Y-74930000D03*
X157353000Y-74930000D03*
X154813000Y-74930000D03*
X152273000Y-74930000D03*
X149733000Y-74930000D03*
D19*
X147193000Y-74930000D03*
%TD*%
D12*
%TO.C,J5*%
X169150000Y-64200000D03*
X169150000Y-66050000D03*
X169150000Y-67900000D03*
X169150000Y-69750000D03*
%TD*%
D20*
%TO.C,C26*%
X139550000Y-94015000D03*
X139550000Y-94975000D03*
%TD*%
D21*
%TO.C,R11*%
X165325000Y-72210000D03*
X165325000Y-71190000D03*
%TD*%
D22*
%TO.C,C2*%
X160850000Y-87055000D03*
X160850000Y-86095000D03*
%TD*%
D20*
%TO.C,C10*%
X144525000Y-77300000D03*
X144525000Y-78260000D03*
%TD*%
D23*
%TO.C,R32*%
X159125000Y-81200000D03*
X159125000Y-82220000D03*
%TD*%
D24*
%TO.C,D2*%
X148617500Y-92150000D03*
X147647500Y-92150000D03*
%TD*%
D25*
%TO.C,R3*%
X151420000Y-82875000D03*
X150400000Y-82875000D03*
%TD*%
D26*
%TO.C,Q1*%
X144375000Y-89625000D03*
X146250000Y-88675000D03*
X146250000Y-90575000D03*
%TD*%
D21*
%TO.C,R15*%
X165575000Y-67675000D03*
X165575000Y-66655000D03*
%TD*%
D25*
%TO.C,R31*%
X150415000Y-81550000D03*
X151435000Y-81550000D03*
%TD*%
D21*
%TO.C,R39*%
X166625000Y-81460000D03*
X166625000Y-80440000D03*
%TD*%
D27*
%TO.C,C15*%
X164340000Y-82500000D03*
X165300000Y-82500000D03*
%TD*%
D22*
%TO.C,C25*%
X142621000Y-51760000D03*
X142621000Y-50800000D03*
%TD*%
D23*
%TO.C,R23*%
X166243000Y-51054000D03*
X166243000Y-52074000D03*
%TD*%
D20*
%TO.C,C14*%
X149605000Y-77328000D03*
X149605000Y-78288000D03*
%TD*%
D28*
%TO.C,U1*%
X143237500Y-79725000D03*
X143237500Y-81625000D03*
X140962500Y-81625000D03*
X140962500Y-80675000D03*
X140962500Y-79725000D03*
%TD*%
D18*
%TO.C,J4*%
X141850000Y-69280000D03*
X141850000Y-71820000D03*
X141850000Y-74360000D03*
D19*
X141850000Y-76900000D03*
%TD*%
D29*
%TO.C,D3*%
X163415000Y-91925000D03*
X164385000Y-91925000D03*
%TD*%
D27*
%TO.C,C5*%
X151205000Y-85025000D03*
X150245000Y-85025000D03*
%TD*%
D17*
%TO.C,SW4*%
X141150000Y-42475000D03*
X141150000Y-50225000D03*
%TD*%
D21*
%TO.C,R24*%
X166225000Y-95160000D03*
X166225000Y-94140000D03*
%TD*%
D22*
%TO.C,C18*%
X167325000Y-74180000D03*
X167325000Y-73220000D03*
%TD*%
D25*
%TO.C,R20*%
X147951000Y-88900000D03*
X148971000Y-88900000D03*
%TD*%
D12*
%TO.C,J6*%
X169175000Y-71675000D03*
X169175000Y-73525000D03*
X169175000Y-75375000D03*
X169175000Y-77225000D03*
%TD*%
D25*
%TO.C,R6*%
X161990000Y-84875000D03*
X163010000Y-84875000D03*
%TD*%
D23*
%TO.C,R17*%
X142425000Y-88090000D03*
X142425000Y-89110000D03*
%TD*%
D30*
%TO.C,R2*%
X153289000Y-85025000D03*
X152269000Y-85025000D03*
%TD*%
D20*
%TO.C,C28*%
X169250000Y-95200000D03*
X169250000Y-94240000D03*
%TD*%
D25*
%TO.C,R7*%
X165575000Y-91900000D03*
X166595000Y-91900000D03*
%TD*%
D30*
%TO.C,R30*%
X151435000Y-80025000D03*
X150415000Y-80025000D03*
%TD*%
D23*
%TO.C,R14*%
X167650000Y-71225000D03*
X167650000Y-72245000D03*
%TD*%
D25*
%TO.C,R8*%
X165354000Y-77724000D03*
X164334000Y-77724000D03*
%TD*%
D22*
%TO.C,C3*%
X160850000Y-90510000D03*
X160850000Y-89550000D03*
%TD*%
D25*
%TO.C,R26*%
X167710000Y-64350000D03*
X166690000Y-64350000D03*
%TD*%
D20*
%TO.C,C17*%
X149100000Y-79695000D03*
X149100000Y-80655000D03*
%TD*%
D25*
%TO.C,R12*%
X143885000Y-64400000D03*
X142865000Y-64400000D03*
%TD*%
D17*
%TO.C,SW1*%
X142113000Y-62106000D03*
X142113000Y-54356000D03*
%TD*%
%TO.C,SW6*%
X167800000Y-42575000D03*
X167800000Y-50325000D03*
%TD*%
D21*
%TO.C,R10*%
X165600000Y-70000000D03*
X165600000Y-68980000D03*
%TD*%
D17*
%TO.C,SW5*%
X141075000Y-102875000D03*
X141075000Y-95125000D03*
%TD*%
D22*
%TO.C,C4*%
X159150000Y-79635000D03*
X159150000Y-78675000D03*
%TD*%
D20*
%TO.C,C12*%
X147065000Y-77356000D03*
X147065000Y-78316000D03*
%TD*%
D21*
%TO.C,R37*%
X165600000Y-74165000D03*
X165600000Y-73145000D03*
%TD*%
D31*
%TO.C,D5*%
X166850000Y-68845000D03*
X166850000Y-67875000D03*
%TD*%
D25*
%TO.C,R38*%
X166440000Y-84875000D03*
X167460000Y-84875000D03*
%TD*%
D23*
%TO.C,R25*%
X150985000Y-77298000D03*
X150985000Y-78318000D03*
%TD*%
D22*
%TO.C,C27*%
X169291000Y-52014000D03*
X169291000Y-51054000D03*
%TD*%
D28*
%TO.C,U2*%
X145287500Y-79650000D03*
X145287500Y-80600000D03*
X145287500Y-81550000D03*
X147562500Y-81550000D03*
X147562500Y-79650000D03*
%TD*%
D32*
%TO.C,C1*%
X159580000Y-85100000D03*
X158620000Y-85100000D03*
%TD*%
D31*
%TO.C,D6*%
X166525000Y-72185000D03*
X166525000Y-71215000D03*
%TD*%
D27*
%TO.C,C9*%
X139540000Y-54150000D03*
X140500000Y-54150000D03*
%TD*%
D20*
%TO.C,C13*%
X148335000Y-77328000D03*
X148335000Y-78288000D03*
%TD*%
D25*
%TO.C,R5*%
X161305000Y-91900000D03*
X162325000Y-91900000D03*
%TD*%
D12*
%TO.C,J8*%
X169225000Y-92300000D03*
X169225000Y-90450000D03*
X169225000Y-88600000D03*
X169225000Y-86750000D03*
%TD*%
D27*
%TO.C,C16*%
X164365000Y-78875000D03*
X165325000Y-78875000D03*
%TD*%
%TO.C,C6*%
X154375000Y-85025000D03*
X155335000Y-85025000D03*
%TD*%
D22*
%TO.C,C19*%
X165575000Y-76140000D03*
X165575000Y-75180000D03*
%TD*%
D25*
%TO.C,R1*%
X157495000Y-85025000D03*
X156475000Y-85025000D03*
%TD*%
%TO.C,R9*%
X164336000Y-81280000D03*
X165356000Y-81280000D03*
%TD*%
D23*
%TO.C,R16*%
X141150000Y-88115000D03*
X141150000Y-89135000D03*
%TD*%
%TO.C,R34*%
X140900000Y-84665000D03*
X140900000Y-85685000D03*
%TD*%
%TO.C,R21*%
X139573000Y-50796000D03*
X139573000Y-51816000D03*
%TD*%
D17*
%TO.C,SW7*%
X167725000Y-103050000D03*
X167725000Y-95300000D03*
%TD*%
D21*
%TO.C,R13*%
X165862000Y-54612000D03*
X165862000Y-53592000D03*
%TD*%
D33*
%TO.C,Q3*%
X160939000Y-81600000D03*
X160939000Y-83500000D03*
X162814000Y-82550000D03*
%TD*%
D29*
%TO.C,D4*%
X164330000Y-84875000D03*
X165300000Y-84875000D03*
%TD*%
D22*
%TO.C,C8*%
X169418000Y-54582000D03*
X169418000Y-53622000D03*
%TD*%
D21*
%TO.C,R22*%
X142600000Y-94950000D03*
X142600000Y-93930000D03*
%TD*%
D25*
%TO.C,R4*%
X145490000Y-92150000D03*
X146510000Y-92150000D03*
%TD*%
D20*
%TO.C,C11*%
X145795000Y-77300000D03*
X145795000Y-78260000D03*
%TD*%
D22*
%TO.C,C20*%
X166875000Y-76480000D03*
X166875000Y-75520000D03*
%TD*%
D34*
%TO.C,J1*%
X159133000Y-91499000D03*
D35*
X159133000Y-87319000D03*
D34*
X150493000Y-91499000D03*
D35*
X150493000Y-87319000D03*
D36*
X151613000Y-86744000D03*
X152413000Y-86744000D03*
D37*
X153063000Y-86744000D03*
X154063000Y-86744000D03*
X155563000Y-86744000D03*
X156563000Y-86744000D03*
D36*
X157213000Y-86744000D03*
X158013000Y-86744000D03*
X158013000Y-86744000D03*
X157213000Y-86744000D03*
D37*
X156063000Y-86744000D03*
X155063000Y-86744000D03*
X154563000Y-86744000D03*
X153563000Y-86744000D03*
D36*
X152413000Y-86744000D03*
X151613000Y-86744000D03*
D38*
X157703000Y-87819000D03*
X151923000Y-87819000D03*
%TD*%
D33*
%TO.C,Q2*%
X160939000Y-77790000D03*
X160939000Y-79690000D03*
X162814000Y-78740000D03*
%TD*%
D39*
%TO.C,U5*%
X155225000Y-80100000D03*
D40*
X152775000Y-81600000D03*
X152775000Y-81100000D03*
X152775000Y-80600000D03*
X152775000Y-80100000D03*
X152775000Y-79600000D03*
X152775000Y-79100000D03*
X152775000Y-78600000D03*
D41*
X153725000Y-77650000D03*
X154225000Y-77650000D03*
X154725000Y-77650000D03*
X155225000Y-77650000D03*
X155725000Y-77650000D03*
X156225000Y-77650000D03*
X156725000Y-77650000D03*
D40*
X157675000Y-78600000D03*
X157675000Y-79100000D03*
X157675000Y-79600000D03*
X157675000Y-80100000D03*
X157675000Y-80600000D03*
X157675000Y-81100000D03*
X157675000Y-81600000D03*
D41*
X156725000Y-82550000D03*
X156225000Y-82550000D03*
X155725000Y-82550000D03*
X155225000Y-82550000D03*
X154725000Y-82550000D03*
X154225000Y-82550000D03*
X153725000Y-82550000D03*
%TD*%
D23*
%TO.C,R19*%
X139300000Y-75946000D03*
X139300000Y-74926000D03*
%TD*%
%TO.C,R27*%
X139350000Y-61725000D03*
X139350000Y-62745000D03*
%TD*%
D22*
%TO.C,C7*%
X143800000Y-62195000D03*
X143800000Y-63155000D03*
%TD*%
M02*
