%TF.GenerationSoftware,KiCad,Pcbnew,7.0.10*%
%TF.CreationDate,2024-11-30T16:41:06+05:30*%
%TF.ProjectId,Watch_v3,57617463-685f-4763-932e-6b696361645f,Watch_v3*%
%TF.SameCoordinates,Original*%
%TF.FileFunction,Legend,Top*%
%TF.FilePolarity,Positive*%
%FSLAX46Y46*%
G04 Gerber Fmt 4.6, Leading zero omitted, Abs format (unit mm)*
G04 Created by KiCad (PCBNEW 7.0.10) date 2024-11-30 16:41:06*
%MOMM*%
%LPD*%
G01*
G04 APERTURE LIST*
%ADD10C,0.153000*%
%ADD11C,0.120000*%
%ADD12C,0.100000*%
G04 APERTURE END LIST*
D10*
X167920044Y-59514000D02*
X167967663Y-59424000D01*
X167967663Y-59424000D02*
X167967663Y-59274000D01*
X167967663Y-59274000D02*
X167920044Y-59214000D01*
X167920044Y-59214000D02*
X167872424Y-59184000D01*
X167872424Y-59184000D02*
X167777186Y-59154000D01*
X167777186Y-59154000D02*
X167681948Y-59154000D01*
X167681948Y-59154000D02*
X167586710Y-59184000D01*
X167586710Y-59184000D02*
X167539091Y-59214000D01*
X167539091Y-59214000D02*
X167491472Y-59274000D01*
X167491472Y-59274000D02*
X167443853Y-59394000D01*
X167443853Y-59394000D02*
X167396234Y-59454000D01*
X167396234Y-59454000D02*
X167348615Y-59484000D01*
X167348615Y-59484000D02*
X167253377Y-59514000D01*
X167253377Y-59514000D02*
X167158139Y-59514000D01*
X167158139Y-59514000D02*
X167062901Y-59484000D01*
X167062901Y-59484000D02*
X167015282Y-59454000D01*
X167015282Y-59454000D02*
X166967663Y-59394000D01*
X166967663Y-59394000D02*
X166967663Y-59244000D01*
X166967663Y-59244000D02*
X167015282Y-59154000D01*
X166967663Y-58944000D02*
X167967663Y-58794000D01*
X167967663Y-58794000D02*
X167253377Y-58674000D01*
X167253377Y-58674000D02*
X167967663Y-58554000D01*
X167967663Y-58554000D02*
X166967663Y-58404000D01*
X166967663Y-58224000D02*
X166967663Y-57834000D01*
X166967663Y-57834000D02*
X167348615Y-58044000D01*
X167348615Y-58044000D02*
X167348615Y-57954000D01*
X167348615Y-57954000D02*
X167396234Y-57894000D01*
X167396234Y-57894000D02*
X167443853Y-57864000D01*
X167443853Y-57864000D02*
X167539091Y-57834000D01*
X167539091Y-57834000D02*
X167777186Y-57834000D01*
X167777186Y-57834000D02*
X167872424Y-57864000D01*
X167872424Y-57864000D02*
X167920044Y-57894000D01*
X167920044Y-57894000D02*
X167967663Y-57954000D01*
X167967663Y-57954000D02*
X167967663Y-58134000D01*
X167967663Y-58134000D02*
X167920044Y-58194000D01*
X167920044Y-58194000D02*
X167872424Y-58224000D01*
X142520044Y-59514000D02*
X142567663Y-59424000D01*
X142567663Y-59424000D02*
X142567663Y-59274000D01*
X142567663Y-59274000D02*
X142520044Y-59214000D01*
X142520044Y-59214000D02*
X142472424Y-59184000D01*
X142472424Y-59184000D02*
X142377186Y-59154000D01*
X142377186Y-59154000D02*
X142281948Y-59154000D01*
X142281948Y-59154000D02*
X142186710Y-59184000D01*
X142186710Y-59184000D02*
X142139091Y-59214000D01*
X142139091Y-59214000D02*
X142091472Y-59274000D01*
X142091472Y-59274000D02*
X142043853Y-59394000D01*
X142043853Y-59394000D02*
X141996234Y-59454000D01*
X141996234Y-59454000D02*
X141948615Y-59484000D01*
X141948615Y-59484000D02*
X141853377Y-59514000D01*
X141853377Y-59514000D02*
X141758139Y-59514000D01*
X141758139Y-59514000D02*
X141662901Y-59484000D01*
X141662901Y-59484000D02*
X141615282Y-59454000D01*
X141615282Y-59454000D02*
X141567663Y-59394000D01*
X141567663Y-59394000D02*
X141567663Y-59244000D01*
X141567663Y-59244000D02*
X141615282Y-59154000D01*
X141567663Y-58944000D02*
X142567663Y-58794000D01*
X142567663Y-58794000D02*
X141853377Y-58674000D01*
X141853377Y-58674000D02*
X142567663Y-58554000D01*
X142567663Y-58554000D02*
X141567663Y-58404000D01*
X142567663Y-57834000D02*
X142567663Y-58194000D01*
X142567663Y-58014000D02*
X141567663Y-58014000D01*
X141567663Y-58014000D02*
X141710520Y-58074000D01*
X141710520Y-58074000D02*
X141805758Y-58134000D01*
X141805758Y-58134000D02*
X141853377Y-58194000D01*
X135523334Y-77782044D02*
X135611905Y-77829663D01*
X135611905Y-77829663D02*
X135759524Y-77829663D01*
X135759524Y-77829663D02*
X135818572Y-77782044D01*
X135818572Y-77782044D02*
X135848096Y-77734424D01*
X135848096Y-77734424D02*
X135877619Y-77639186D01*
X135877619Y-77639186D02*
X135877619Y-77543948D01*
X135877619Y-77543948D02*
X135848096Y-77448710D01*
X135848096Y-77448710D02*
X135818572Y-77401091D01*
X135818572Y-77401091D02*
X135759524Y-77353472D01*
X135759524Y-77353472D02*
X135641429Y-77305853D01*
X135641429Y-77305853D02*
X135582381Y-77258234D01*
X135582381Y-77258234D02*
X135552858Y-77210615D01*
X135552858Y-77210615D02*
X135523334Y-77115377D01*
X135523334Y-77115377D02*
X135523334Y-77020139D01*
X135523334Y-77020139D02*
X135552858Y-76924901D01*
X135552858Y-76924901D02*
X135582381Y-76877282D01*
X135582381Y-76877282D02*
X135641429Y-76829663D01*
X135641429Y-76829663D02*
X135789048Y-76829663D01*
X135789048Y-76829663D02*
X135877619Y-76877282D01*
X136084286Y-76829663D02*
X136231905Y-77829663D01*
X136231905Y-77829663D02*
X136350000Y-77115377D01*
X136350000Y-77115377D02*
X136468095Y-77829663D01*
X136468095Y-77829663D02*
X136615715Y-76829663D01*
X136822381Y-76924901D02*
X136851905Y-76877282D01*
X136851905Y-76877282D02*
X136910952Y-76829663D01*
X136910952Y-76829663D02*
X137058571Y-76829663D01*
X137058571Y-76829663D02*
X137117619Y-76877282D01*
X137117619Y-76877282D02*
X137147143Y-76924901D01*
X137147143Y-76924901D02*
X137176666Y-77020139D01*
X137176666Y-77020139D02*
X137176666Y-77115377D01*
X137176666Y-77115377D02*
X137147143Y-77258234D01*
X137147143Y-77258234D02*
X136792857Y-77829663D01*
X136792857Y-77829663D02*
X137176666Y-77829663D01*
X147952619Y-68529663D02*
X147952619Y-69339186D01*
X147952619Y-69339186D02*
X147982142Y-69434424D01*
X147982142Y-69434424D02*
X148011666Y-69482044D01*
X148011666Y-69482044D02*
X148070714Y-69529663D01*
X148070714Y-69529663D02*
X148188809Y-69529663D01*
X148188809Y-69529663D02*
X148247857Y-69482044D01*
X148247857Y-69482044D02*
X148277380Y-69434424D01*
X148277380Y-69434424D02*
X148306904Y-69339186D01*
X148306904Y-69339186D02*
X148306904Y-68529663D01*
X148867857Y-68862996D02*
X148867857Y-69529663D01*
X148720238Y-68482044D02*
X148572619Y-69196329D01*
X148572619Y-69196329D02*
X148956428Y-69196329D01*
X150843000Y-69011853D02*
X151053000Y-69011853D01*
X151143000Y-69535663D02*
X150843000Y-69535663D01*
X150843000Y-69535663D02*
X150843000Y-68535663D01*
X150843000Y-68535663D02*
X151143000Y-68535663D01*
X151383000Y-69488044D02*
X151473000Y-69535663D01*
X151473000Y-69535663D02*
X151623000Y-69535663D01*
X151623000Y-69535663D02*
X151683000Y-69488044D01*
X151683000Y-69488044D02*
X151713000Y-69440424D01*
X151713000Y-69440424D02*
X151743000Y-69345186D01*
X151743000Y-69345186D02*
X151743000Y-69249948D01*
X151743000Y-69249948D02*
X151713000Y-69154710D01*
X151713000Y-69154710D02*
X151683000Y-69107091D01*
X151683000Y-69107091D02*
X151623000Y-69059472D01*
X151623000Y-69059472D02*
X151503000Y-69011853D01*
X151503000Y-69011853D02*
X151443000Y-68964234D01*
X151443000Y-68964234D02*
X151413000Y-68916615D01*
X151413000Y-68916615D02*
X151383000Y-68821377D01*
X151383000Y-68821377D02*
X151383000Y-68726139D01*
X151383000Y-68726139D02*
X151413000Y-68630901D01*
X151413000Y-68630901D02*
X151443000Y-68583282D01*
X151443000Y-68583282D02*
X151503000Y-68535663D01*
X151503000Y-68535663D02*
X151653000Y-68535663D01*
X151653000Y-68535663D02*
X151743000Y-68583282D01*
X152013000Y-69535663D02*
X152013000Y-68535663D01*
X152013000Y-68535663D02*
X152253000Y-68535663D01*
X152253000Y-68535663D02*
X152313000Y-68583282D01*
X152313000Y-68583282D02*
X152343000Y-68630901D01*
X152343000Y-68630901D02*
X152373000Y-68726139D01*
X152373000Y-68726139D02*
X152373000Y-68868996D01*
X152373000Y-68868996D02*
X152343000Y-68964234D01*
X152343000Y-68964234D02*
X152313000Y-69011853D01*
X152313000Y-69011853D02*
X152253000Y-69059472D01*
X152253000Y-69059472D02*
X152013000Y-69059472D01*
X152583000Y-68535663D02*
X152973000Y-68535663D01*
X152973000Y-68535663D02*
X152763000Y-68916615D01*
X152763000Y-68916615D02*
X152853000Y-68916615D01*
X152853000Y-68916615D02*
X152913000Y-68964234D01*
X152913000Y-68964234D02*
X152943000Y-69011853D01*
X152943000Y-69011853D02*
X152973000Y-69107091D01*
X152973000Y-69107091D02*
X152973000Y-69345186D01*
X152973000Y-69345186D02*
X152943000Y-69440424D01*
X152943000Y-69440424D02*
X152913000Y-69488044D01*
X152913000Y-69488044D02*
X152853000Y-69535663D01*
X152853000Y-69535663D02*
X152673000Y-69535663D01*
X152673000Y-69535663D02*
X152613000Y-69488044D01*
X152613000Y-69488044D02*
X152583000Y-69440424D01*
X153213000Y-68630901D02*
X153243000Y-68583282D01*
X153243000Y-68583282D02*
X153303000Y-68535663D01*
X153303000Y-68535663D02*
X153453000Y-68535663D01*
X153453000Y-68535663D02*
X153513000Y-68583282D01*
X153513000Y-68583282D02*
X153543000Y-68630901D01*
X153543000Y-68630901D02*
X153573000Y-68726139D01*
X153573000Y-68726139D02*
X153573000Y-68821377D01*
X153573000Y-68821377D02*
X153543000Y-68964234D01*
X153543000Y-68964234D02*
X153183000Y-69535663D01*
X153183000Y-69535663D02*
X153573000Y-69535663D01*
X153843000Y-69154710D02*
X154323000Y-69154710D01*
X154563000Y-68535663D02*
X154713000Y-69535663D01*
X154713000Y-69535663D02*
X154833000Y-68821377D01*
X154833000Y-68821377D02*
X154953000Y-69535663D01*
X154953000Y-69535663D02*
X155103000Y-68535663D01*
X155703000Y-69535663D02*
X155493000Y-69059472D01*
X155343000Y-69535663D02*
X155343000Y-68535663D01*
X155343000Y-68535663D02*
X155583000Y-68535663D01*
X155583000Y-68535663D02*
X155643000Y-68583282D01*
X155643000Y-68583282D02*
X155673000Y-68630901D01*
X155673000Y-68630901D02*
X155703000Y-68726139D01*
X155703000Y-68726139D02*
X155703000Y-68868996D01*
X155703000Y-68868996D02*
X155673000Y-68964234D01*
X155673000Y-68964234D02*
X155643000Y-69011853D01*
X155643000Y-69011853D02*
X155583000Y-69059472D01*
X155583000Y-69059472D02*
X155343000Y-69059472D01*
X156093000Y-68535663D02*
X156213000Y-68535663D01*
X156213000Y-68535663D02*
X156273000Y-68583282D01*
X156273000Y-68583282D02*
X156333000Y-68678520D01*
X156333000Y-68678520D02*
X156363000Y-68868996D01*
X156363000Y-68868996D02*
X156363000Y-69202329D01*
X156363000Y-69202329D02*
X156333000Y-69392805D01*
X156333000Y-69392805D02*
X156273000Y-69488044D01*
X156273000Y-69488044D02*
X156213000Y-69535663D01*
X156213000Y-69535663D02*
X156093000Y-69535663D01*
X156093000Y-69535663D02*
X156033000Y-69488044D01*
X156033000Y-69488044D02*
X155973000Y-69392805D01*
X155973000Y-69392805D02*
X155943000Y-69202329D01*
X155943000Y-69202329D02*
X155943000Y-68868996D01*
X155943000Y-68868996D02*
X155973000Y-68678520D01*
X155973000Y-68678520D02*
X156033000Y-68583282D01*
X156033000Y-68583282D02*
X156093000Y-68535663D01*
X156753000Y-68535663D02*
X156873000Y-68535663D01*
X156873000Y-68535663D02*
X156933000Y-68583282D01*
X156933000Y-68583282D02*
X156993000Y-68678520D01*
X156993000Y-68678520D02*
X157023000Y-68868996D01*
X157023000Y-68868996D02*
X157023000Y-69202329D01*
X157023000Y-69202329D02*
X156993000Y-69392805D01*
X156993000Y-69392805D02*
X156933000Y-69488044D01*
X156933000Y-69488044D02*
X156873000Y-69535663D01*
X156873000Y-69535663D02*
X156753000Y-69535663D01*
X156753000Y-69535663D02*
X156693000Y-69488044D01*
X156693000Y-69488044D02*
X156633000Y-69392805D01*
X156633000Y-69392805D02*
X156603000Y-69202329D01*
X156603000Y-69202329D02*
X156603000Y-68868996D01*
X156603000Y-68868996D02*
X156633000Y-68678520D01*
X156633000Y-68678520D02*
X156693000Y-68583282D01*
X156693000Y-68583282D02*
X156753000Y-68535663D01*
X157293000Y-69535663D02*
X157293000Y-68535663D01*
X157293000Y-68535663D02*
X157503000Y-69249948D01*
X157503000Y-69249948D02*
X157713000Y-68535663D01*
X157713000Y-68535663D02*
X157713000Y-69535663D01*
X158013000Y-69154710D02*
X158493000Y-69154710D01*
X158733000Y-68535663D02*
X159123000Y-68535663D01*
X159123000Y-68535663D02*
X158913000Y-68916615D01*
X158913000Y-68916615D02*
X159003000Y-68916615D01*
X159003000Y-68916615D02*
X159063000Y-68964234D01*
X159063000Y-68964234D02*
X159093000Y-69011853D01*
X159093000Y-69011853D02*
X159123000Y-69107091D01*
X159123000Y-69107091D02*
X159123000Y-69345186D01*
X159123000Y-69345186D02*
X159093000Y-69440424D01*
X159093000Y-69440424D02*
X159063000Y-69488044D01*
X159063000Y-69488044D02*
X159003000Y-69535663D01*
X159003000Y-69535663D02*
X158823000Y-69535663D01*
X158823000Y-69535663D02*
X158763000Y-69488044D01*
X158763000Y-69488044D02*
X158733000Y-69440424D01*
X159363000Y-68630901D02*
X159393000Y-68583282D01*
X159393000Y-68583282D02*
X159453000Y-68535663D01*
X159453000Y-68535663D02*
X159603000Y-68535663D01*
X159603000Y-68535663D02*
X159663000Y-68583282D01*
X159663000Y-68583282D02*
X159693000Y-68630901D01*
X159693000Y-68630901D02*
X159723000Y-68726139D01*
X159723000Y-68726139D02*
X159723000Y-68821377D01*
X159723000Y-68821377D02*
X159693000Y-68964234D01*
X159693000Y-68964234D02*
X159333000Y-69535663D01*
X159333000Y-69535663D02*
X159723000Y-69535663D01*
X159993000Y-69535663D02*
X159993000Y-68535663D01*
X159993000Y-68535663D02*
X160143000Y-68535663D01*
X160143000Y-68535663D02*
X160233000Y-68583282D01*
X160233000Y-68583282D02*
X160293000Y-68678520D01*
X160293000Y-68678520D02*
X160323000Y-68773758D01*
X160323000Y-68773758D02*
X160353000Y-68964234D01*
X160353000Y-68964234D02*
X160353000Y-69107091D01*
X160353000Y-69107091D02*
X160323000Y-69297567D01*
X160323000Y-69297567D02*
X160293000Y-69392805D01*
X160293000Y-69392805D02*
X160233000Y-69488044D01*
X160233000Y-69488044D02*
X160143000Y-69535663D01*
X160143000Y-69535663D02*
X159993000Y-69535663D01*
X144917381Y-85704663D02*
X144917381Y-84704663D01*
X144917381Y-84704663D02*
X145065000Y-84704663D01*
X145065000Y-84704663D02*
X145153571Y-84752282D01*
X145153571Y-84752282D02*
X145212619Y-84847520D01*
X145212619Y-84847520D02*
X145242142Y-84942758D01*
X145242142Y-84942758D02*
X145271666Y-85133234D01*
X145271666Y-85133234D02*
X145271666Y-85276091D01*
X145271666Y-85276091D02*
X145242142Y-85466567D01*
X145242142Y-85466567D02*
X145212619Y-85561805D01*
X145212619Y-85561805D02*
X145153571Y-85657044D01*
X145153571Y-85657044D02*
X145065000Y-85704663D01*
X145065000Y-85704663D02*
X144917381Y-85704663D01*
X145862142Y-85704663D02*
X145507857Y-85704663D01*
X145685000Y-85704663D02*
X145685000Y-84704663D01*
X145685000Y-84704663D02*
X145625952Y-84847520D01*
X145625952Y-84847520D02*
X145566904Y-84942758D01*
X145566904Y-84942758D02*
X145507857Y-84990377D01*
X144107663Y-75394000D02*
X144821948Y-75394000D01*
X144821948Y-75394000D02*
X144964805Y-75424000D01*
X144964805Y-75424000D02*
X145060044Y-75484000D01*
X145060044Y-75484000D02*
X145107663Y-75574000D01*
X145107663Y-75574000D02*
X145107663Y-75634000D01*
X144107663Y-75154000D02*
X144107663Y-74734000D01*
X144107663Y-74734000D02*
X145107663Y-75004000D01*
X147592381Y-91529663D02*
X147592381Y-90529663D01*
X147592381Y-90529663D02*
X147740000Y-90529663D01*
X147740000Y-90529663D02*
X147828571Y-90577282D01*
X147828571Y-90577282D02*
X147887619Y-90672520D01*
X147887619Y-90672520D02*
X147917142Y-90767758D01*
X147917142Y-90767758D02*
X147946666Y-90958234D01*
X147946666Y-90958234D02*
X147946666Y-91101091D01*
X147946666Y-91101091D02*
X147917142Y-91291567D01*
X147917142Y-91291567D02*
X147887619Y-91386805D01*
X147887619Y-91386805D02*
X147828571Y-91482044D01*
X147828571Y-91482044D02*
X147740000Y-91529663D01*
X147740000Y-91529663D02*
X147592381Y-91529663D01*
X148182857Y-90624901D02*
X148212381Y-90577282D01*
X148212381Y-90577282D02*
X148271428Y-90529663D01*
X148271428Y-90529663D02*
X148419047Y-90529663D01*
X148419047Y-90529663D02*
X148478095Y-90577282D01*
X148478095Y-90577282D02*
X148507619Y-90624901D01*
X148507619Y-90624901D02*
X148537142Y-90720139D01*
X148537142Y-90720139D02*
X148537142Y-90815377D01*
X148537142Y-90815377D02*
X148507619Y-90958234D01*
X148507619Y-90958234D02*
X148153333Y-91529663D01*
X148153333Y-91529663D02*
X148537142Y-91529663D01*
X144215000Y-92674901D02*
X144155000Y-92627282D01*
X144155000Y-92627282D02*
X144095000Y-92532044D01*
X144095000Y-92532044D02*
X144005000Y-92389186D01*
X144005000Y-92389186D02*
X143945000Y-92341567D01*
X143945000Y-92341567D02*
X143885000Y-92341567D01*
X143915000Y-92579663D02*
X143855000Y-92532044D01*
X143855000Y-92532044D02*
X143795000Y-92436805D01*
X143795000Y-92436805D02*
X143765000Y-92246329D01*
X143765000Y-92246329D02*
X143765000Y-91912996D01*
X143765000Y-91912996D02*
X143795000Y-91722520D01*
X143795000Y-91722520D02*
X143855000Y-91627282D01*
X143855000Y-91627282D02*
X143915000Y-91579663D01*
X143915000Y-91579663D02*
X144035000Y-91579663D01*
X144035000Y-91579663D02*
X144095000Y-91627282D01*
X144095000Y-91627282D02*
X144155000Y-91722520D01*
X144155000Y-91722520D02*
X144185000Y-91912996D01*
X144185000Y-91912996D02*
X144185000Y-92246329D01*
X144185000Y-92246329D02*
X144155000Y-92436805D01*
X144155000Y-92436805D02*
X144095000Y-92532044D01*
X144095000Y-92532044D02*
X144035000Y-92579663D01*
X144035000Y-92579663D02*
X143915000Y-92579663D01*
X144785000Y-92579663D02*
X144425000Y-92579663D01*
X144605000Y-92579663D02*
X144605000Y-91579663D01*
X144605000Y-91579663D02*
X144545000Y-91722520D01*
X144545000Y-91722520D02*
X144485000Y-91817758D01*
X144485000Y-91817758D02*
X144425000Y-91865377D01*
X138909119Y-80429663D02*
X138909119Y-81239186D01*
X138909119Y-81239186D02*
X138938642Y-81334424D01*
X138938642Y-81334424D02*
X138968166Y-81382044D01*
X138968166Y-81382044D02*
X139027214Y-81429663D01*
X139027214Y-81429663D02*
X139145309Y-81429663D01*
X139145309Y-81429663D02*
X139204357Y-81382044D01*
X139204357Y-81382044D02*
X139233880Y-81334424D01*
X139233880Y-81334424D02*
X139263404Y-81239186D01*
X139263404Y-81239186D02*
X139263404Y-80429663D01*
X139883404Y-81429663D02*
X139529119Y-81429663D01*
X139706262Y-81429663D02*
X139706262Y-80429663D01*
X139706262Y-80429663D02*
X139647214Y-80572520D01*
X139647214Y-80572520D02*
X139588166Y-80667758D01*
X139588166Y-80667758D02*
X139529119Y-80715377D01*
X144056000Y-71898663D02*
X144056000Y-72612948D01*
X144056000Y-72612948D02*
X144026000Y-72755805D01*
X144026000Y-72755805D02*
X143966000Y-72851044D01*
X143966000Y-72851044D02*
X143876000Y-72898663D01*
X143876000Y-72898663D02*
X143816000Y-72898663D01*
X144626000Y-72231996D02*
X144626000Y-72898663D01*
X144476000Y-71851044D02*
X144326000Y-72565329D01*
X144326000Y-72565329D02*
X144716000Y-72565329D01*
X140010000Y-66279663D02*
X140130000Y-66279663D01*
X140130000Y-66279663D02*
X140190000Y-66327282D01*
X140190000Y-66327282D02*
X140250000Y-66422520D01*
X140250000Y-66422520D02*
X140280000Y-66612996D01*
X140280000Y-66612996D02*
X140280000Y-66946329D01*
X140280000Y-66946329D02*
X140250000Y-67136805D01*
X140250000Y-67136805D02*
X140190000Y-67232044D01*
X140190000Y-67232044D02*
X140130000Y-67279663D01*
X140130000Y-67279663D02*
X140010000Y-67279663D01*
X140010000Y-67279663D02*
X139950000Y-67232044D01*
X139950000Y-67232044D02*
X139890000Y-67136805D01*
X139890000Y-67136805D02*
X139860000Y-66946329D01*
X139860000Y-66946329D02*
X139860000Y-66612996D01*
X139860000Y-66612996D02*
X139890000Y-66422520D01*
X139890000Y-66422520D02*
X139950000Y-66327282D01*
X139950000Y-66327282D02*
X140010000Y-66279663D01*
X140850000Y-67279663D02*
X140550000Y-67279663D01*
X140550000Y-67279663D02*
X140550000Y-66279663D01*
X141060000Y-66755853D02*
X141270000Y-66755853D01*
X141360000Y-67279663D02*
X141060000Y-67279663D01*
X141060000Y-67279663D02*
X141060000Y-66279663D01*
X141060000Y-66279663D02*
X141360000Y-66279663D01*
X141630000Y-67279663D02*
X141630000Y-66279663D01*
X141630000Y-66279663D02*
X141780000Y-66279663D01*
X141780000Y-66279663D02*
X141870000Y-66327282D01*
X141870000Y-66327282D02*
X141930000Y-66422520D01*
X141930000Y-66422520D02*
X141960000Y-66517758D01*
X141960000Y-66517758D02*
X141990000Y-66708234D01*
X141990000Y-66708234D02*
X141990000Y-66851091D01*
X141990000Y-66851091D02*
X141960000Y-67041567D01*
X141960000Y-67041567D02*
X141930000Y-67136805D01*
X141930000Y-67136805D02*
X141870000Y-67232044D01*
X141870000Y-67232044D02*
X141780000Y-67279663D01*
X141780000Y-67279663D02*
X141630000Y-67279663D01*
X141585044Y-47350665D02*
X141632663Y-47262094D01*
X141632663Y-47262094D02*
X141632663Y-47114475D01*
X141632663Y-47114475D02*
X141585044Y-47055427D01*
X141585044Y-47055427D02*
X141537424Y-47025903D01*
X141537424Y-47025903D02*
X141442186Y-46996380D01*
X141442186Y-46996380D02*
X141346948Y-46996380D01*
X141346948Y-46996380D02*
X141251710Y-47025903D01*
X141251710Y-47025903D02*
X141204091Y-47055427D01*
X141204091Y-47055427D02*
X141156472Y-47114475D01*
X141156472Y-47114475D02*
X141108853Y-47232570D01*
X141108853Y-47232570D02*
X141061234Y-47291618D01*
X141061234Y-47291618D02*
X141013615Y-47321141D01*
X141013615Y-47321141D02*
X140918377Y-47350665D01*
X140918377Y-47350665D02*
X140823139Y-47350665D01*
X140823139Y-47350665D02*
X140727901Y-47321141D01*
X140727901Y-47321141D02*
X140680282Y-47291618D01*
X140680282Y-47291618D02*
X140632663Y-47232570D01*
X140632663Y-47232570D02*
X140632663Y-47084951D01*
X140632663Y-47084951D02*
X140680282Y-46996380D01*
X140632663Y-46789713D02*
X141632663Y-46642094D01*
X141632663Y-46642094D02*
X140918377Y-46523999D01*
X140918377Y-46523999D02*
X141632663Y-46405904D01*
X141632663Y-46405904D02*
X140632663Y-46258285D01*
X140965996Y-45756380D02*
X141632663Y-45756380D01*
X140585044Y-45903999D02*
X141299329Y-46051618D01*
X141299329Y-46051618D02*
X141299329Y-45667809D01*
X168215044Y-47336665D02*
X168262663Y-47248094D01*
X168262663Y-47248094D02*
X168262663Y-47100475D01*
X168262663Y-47100475D02*
X168215044Y-47041427D01*
X168215044Y-47041427D02*
X168167424Y-47011903D01*
X168167424Y-47011903D02*
X168072186Y-46982380D01*
X168072186Y-46982380D02*
X167976948Y-46982380D01*
X167976948Y-46982380D02*
X167881710Y-47011903D01*
X167881710Y-47011903D02*
X167834091Y-47041427D01*
X167834091Y-47041427D02*
X167786472Y-47100475D01*
X167786472Y-47100475D02*
X167738853Y-47218570D01*
X167738853Y-47218570D02*
X167691234Y-47277618D01*
X167691234Y-47277618D02*
X167643615Y-47307141D01*
X167643615Y-47307141D02*
X167548377Y-47336665D01*
X167548377Y-47336665D02*
X167453139Y-47336665D01*
X167453139Y-47336665D02*
X167357901Y-47307141D01*
X167357901Y-47307141D02*
X167310282Y-47277618D01*
X167310282Y-47277618D02*
X167262663Y-47218570D01*
X167262663Y-47218570D02*
X167262663Y-47070951D01*
X167262663Y-47070951D02*
X167310282Y-46982380D01*
X167262663Y-46775713D02*
X168262663Y-46628094D01*
X168262663Y-46628094D02*
X167548377Y-46509999D01*
X167548377Y-46509999D02*
X168262663Y-46391904D01*
X168262663Y-46391904D02*
X167262663Y-46244285D01*
X167262663Y-45742380D02*
X167262663Y-45860475D01*
X167262663Y-45860475D02*
X167310282Y-45919523D01*
X167310282Y-45919523D02*
X167357901Y-45949047D01*
X167357901Y-45949047D02*
X167500758Y-46008094D01*
X167500758Y-46008094D02*
X167691234Y-46037618D01*
X167691234Y-46037618D02*
X168072186Y-46037618D01*
X168072186Y-46037618D02*
X168167424Y-46008094D01*
X168167424Y-46008094D02*
X168215044Y-45978571D01*
X168215044Y-45978571D02*
X168262663Y-45919523D01*
X168262663Y-45919523D02*
X168262663Y-45801428D01*
X168262663Y-45801428D02*
X168215044Y-45742380D01*
X168215044Y-45742380D02*
X168167424Y-45712856D01*
X168167424Y-45712856D02*
X168072186Y-45683333D01*
X168072186Y-45683333D02*
X167834091Y-45683333D01*
X167834091Y-45683333D02*
X167738853Y-45712856D01*
X167738853Y-45712856D02*
X167691234Y-45742380D01*
X167691234Y-45742380D02*
X167643615Y-45801428D01*
X167643615Y-45801428D02*
X167643615Y-45919523D01*
X167643615Y-45919523D02*
X167691234Y-45978571D01*
X167691234Y-45978571D02*
X167738853Y-46008094D01*
X167738853Y-46008094D02*
X167834091Y-46037618D01*
X140645956Y-98240334D02*
X140598336Y-98328905D01*
X140598336Y-98328905D02*
X140598336Y-98476524D01*
X140598336Y-98476524D02*
X140645956Y-98535572D01*
X140645956Y-98535572D02*
X140693575Y-98565096D01*
X140693575Y-98565096D02*
X140788813Y-98594619D01*
X140788813Y-98594619D02*
X140884051Y-98594619D01*
X140884051Y-98594619D02*
X140979289Y-98565096D01*
X140979289Y-98565096D02*
X141026908Y-98535572D01*
X141026908Y-98535572D02*
X141074527Y-98476524D01*
X141074527Y-98476524D02*
X141122146Y-98358429D01*
X141122146Y-98358429D02*
X141169765Y-98299381D01*
X141169765Y-98299381D02*
X141217384Y-98269858D01*
X141217384Y-98269858D02*
X141312622Y-98240334D01*
X141312622Y-98240334D02*
X141407860Y-98240334D01*
X141407860Y-98240334D02*
X141503098Y-98269858D01*
X141503098Y-98269858D02*
X141550717Y-98299381D01*
X141550717Y-98299381D02*
X141598336Y-98358429D01*
X141598336Y-98358429D02*
X141598336Y-98506048D01*
X141598336Y-98506048D02*
X141550717Y-98594619D01*
X141598336Y-98801286D02*
X140598336Y-98948905D01*
X140598336Y-98948905D02*
X141312622Y-99067000D01*
X141312622Y-99067000D02*
X140598336Y-99185095D01*
X140598336Y-99185095D02*
X141598336Y-99332715D01*
X141598336Y-99864143D02*
X141598336Y-99568905D01*
X141598336Y-99568905D02*
X141122146Y-99539381D01*
X141122146Y-99539381D02*
X141169765Y-99568905D01*
X141169765Y-99568905D02*
X141217384Y-99627952D01*
X141217384Y-99627952D02*
X141217384Y-99775571D01*
X141217384Y-99775571D02*
X141169765Y-99834619D01*
X141169765Y-99834619D02*
X141122146Y-99864143D01*
X141122146Y-99864143D02*
X141026908Y-99893666D01*
X141026908Y-99893666D02*
X140788813Y-99893666D01*
X140788813Y-99893666D02*
X140693575Y-99864143D01*
X140693575Y-99864143D02*
X140645956Y-99834619D01*
X140645956Y-99834619D02*
X140598336Y-99775571D01*
X140598336Y-99775571D02*
X140598336Y-99627952D01*
X140598336Y-99627952D02*
X140645956Y-99568905D01*
X140645956Y-99568905D02*
X140693575Y-99539381D01*
X167379663Y-67167618D02*
X166379663Y-67167618D01*
X166379663Y-67167618D02*
X166379663Y-67019999D01*
X166379663Y-67019999D02*
X166427282Y-66931428D01*
X166427282Y-66931428D02*
X166522520Y-66872380D01*
X166522520Y-66872380D02*
X166617758Y-66842857D01*
X166617758Y-66842857D02*
X166808234Y-66813333D01*
X166808234Y-66813333D02*
X166951091Y-66813333D01*
X166951091Y-66813333D02*
X167141567Y-66842857D01*
X167141567Y-66842857D02*
X167236805Y-66872380D01*
X167236805Y-66872380D02*
X167332044Y-66931428D01*
X167332044Y-66931428D02*
X167379663Y-67019999D01*
X167379663Y-67019999D02*
X167379663Y-67167618D01*
X166379663Y-66252380D02*
X166379663Y-66547618D01*
X166379663Y-66547618D02*
X166855853Y-66577142D01*
X166855853Y-66577142D02*
X166808234Y-66547618D01*
X166808234Y-66547618D02*
X166760615Y-66488571D01*
X166760615Y-66488571D02*
X166760615Y-66340952D01*
X166760615Y-66340952D02*
X166808234Y-66281904D01*
X166808234Y-66281904D02*
X166855853Y-66252380D01*
X166855853Y-66252380D02*
X166951091Y-66222857D01*
X166951091Y-66222857D02*
X167189186Y-66222857D01*
X167189186Y-66222857D02*
X167284424Y-66252380D01*
X167284424Y-66252380D02*
X167332044Y-66281904D01*
X167332044Y-66281904D02*
X167379663Y-66340952D01*
X167379663Y-66340952D02*
X167379663Y-66488571D01*
X167379663Y-66488571D02*
X167332044Y-66547618D01*
X167332044Y-66547618D02*
X167284424Y-66577142D01*
X148666119Y-81629663D02*
X148666119Y-82439186D01*
X148666119Y-82439186D02*
X148695642Y-82534424D01*
X148695642Y-82534424D02*
X148725166Y-82582044D01*
X148725166Y-82582044D02*
X148784214Y-82629663D01*
X148784214Y-82629663D02*
X148902309Y-82629663D01*
X148902309Y-82629663D02*
X148961357Y-82582044D01*
X148961357Y-82582044D02*
X148990880Y-82534424D01*
X148990880Y-82534424D02*
X149020404Y-82439186D01*
X149020404Y-82439186D02*
X149020404Y-81629663D01*
X149286119Y-81724901D02*
X149315643Y-81677282D01*
X149315643Y-81677282D02*
X149374690Y-81629663D01*
X149374690Y-81629663D02*
X149522309Y-81629663D01*
X149522309Y-81629663D02*
X149581357Y-81677282D01*
X149581357Y-81677282D02*
X149610881Y-81724901D01*
X149610881Y-81724901D02*
X149640404Y-81820139D01*
X149640404Y-81820139D02*
X149640404Y-81915377D01*
X149640404Y-81915377D02*
X149610881Y-82058234D01*
X149610881Y-82058234D02*
X149256595Y-82629663D01*
X149256595Y-82629663D02*
X149640404Y-82629663D01*
X167392381Y-70604663D02*
X167392381Y-69604663D01*
X167392381Y-69604663D02*
X167540000Y-69604663D01*
X167540000Y-69604663D02*
X167628571Y-69652282D01*
X167628571Y-69652282D02*
X167687619Y-69747520D01*
X167687619Y-69747520D02*
X167717142Y-69842758D01*
X167717142Y-69842758D02*
X167746666Y-70033234D01*
X167746666Y-70033234D02*
X167746666Y-70176091D01*
X167746666Y-70176091D02*
X167717142Y-70366567D01*
X167717142Y-70366567D02*
X167687619Y-70461805D01*
X167687619Y-70461805D02*
X167628571Y-70557044D01*
X167628571Y-70557044D02*
X167540000Y-70604663D01*
X167540000Y-70604663D02*
X167392381Y-70604663D01*
X168278095Y-69604663D02*
X168160000Y-69604663D01*
X168160000Y-69604663D02*
X168100952Y-69652282D01*
X168100952Y-69652282D02*
X168071428Y-69699901D01*
X168071428Y-69699901D02*
X168012381Y-69842758D01*
X168012381Y-69842758D02*
X167982857Y-70033234D01*
X167982857Y-70033234D02*
X167982857Y-70414186D01*
X167982857Y-70414186D02*
X168012381Y-70509424D01*
X168012381Y-70509424D02*
X168041904Y-70557044D01*
X168041904Y-70557044D02*
X168100952Y-70604663D01*
X168100952Y-70604663D02*
X168219047Y-70604663D01*
X168219047Y-70604663D02*
X168278095Y-70557044D01*
X168278095Y-70557044D02*
X168307619Y-70509424D01*
X168307619Y-70509424D02*
X168337142Y-70414186D01*
X168337142Y-70414186D02*
X168337142Y-70176091D01*
X168337142Y-70176091D02*
X168307619Y-70080853D01*
X168307619Y-70080853D02*
X168278095Y-70033234D01*
X168278095Y-70033234D02*
X168219047Y-69985615D01*
X168219047Y-69985615D02*
X168100952Y-69985615D01*
X168100952Y-69985615D02*
X168041904Y-70033234D01*
X168041904Y-70033234D02*
X168012381Y-70080853D01*
X168012381Y-70080853D02*
X167982857Y-70176091D01*
X167250956Y-98446334D02*
X167203336Y-98534905D01*
X167203336Y-98534905D02*
X167203336Y-98682524D01*
X167203336Y-98682524D02*
X167250956Y-98741572D01*
X167250956Y-98741572D02*
X167298575Y-98771096D01*
X167298575Y-98771096D02*
X167393813Y-98800619D01*
X167393813Y-98800619D02*
X167489051Y-98800619D01*
X167489051Y-98800619D02*
X167584289Y-98771096D01*
X167584289Y-98771096D02*
X167631908Y-98741572D01*
X167631908Y-98741572D02*
X167679527Y-98682524D01*
X167679527Y-98682524D02*
X167727146Y-98564429D01*
X167727146Y-98564429D02*
X167774765Y-98505381D01*
X167774765Y-98505381D02*
X167822384Y-98475858D01*
X167822384Y-98475858D02*
X167917622Y-98446334D01*
X167917622Y-98446334D02*
X168012860Y-98446334D01*
X168012860Y-98446334D02*
X168108098Y-98475858D01*
X168108098Y-98475858D02*
X168155717Y-98505381D01*
X168155717Y-98505381D02*
X168203336Y-98564429D01*
X168203336Y-98564429D02*
X168203336Y-98712048D01*
X168203336Y-98712048D02*
X168155717Y-98800619D01*
X168203336Y-99007286D02*
X167203336Y-99154905D01*
X167203336Y-99154905D02*
X167917622Y-99273000D01*
X167917622Y-99273000D02*
X167203336Y-99391095D01*
X167203336Y-99391095D02*
X168203336Y-99538715D01*
X168203336Y-99715857D02*
X168203336Y-100129190D01*
X168203336Y-100129190D02*
X167203336Y-99863476D01*
X159040952Y-84124901D02*
X158981904Y-84077282D01*
X158981904Y-84077282D02*
X158922857Y-83982044D01*
X158922857Y-83982044D02*
X158834285Y-83839186D01*
X158834285Y-83839186D02*
X158775238Y-83791567D01*
X158775238Y-83791567D02*
X158716190Y-83791567D01*
X158745714Y-84029663D02*
X158686666Y-83982044D01*
X158686666Y-83982044D02*
X158627619Y-83886805D01*
X158627619Y-83886805D02*
X158598095Y-83696329D01*
X158598095Y-83696329D02*
X158598095Y-83362996D01*
X158598095Y-83362996D02*
X158627619Y-83172520D01*
X158627619Y-83172520D02*
X158686666Y-83077282D01*
X158686666Y-83077282D02*
X158745714Y-83029663D01*
X158745714Y-83029663D02*
X158863809Y-83029663D01*
X158863809Y-83029663D02*
X158922857Y-83077282D01*
X158922857Y-83077282D02*
X158981904Y-83172520D01*
X158981904Y-83172520D02*
X159011428Y-83362996D01*
X159011428Y-83362996D02*
X159011428Y-83696329D01*
X159011428Y-83696329D02*
X158981904Y-83886805D01*
X158981904Y-83886805D02*
X158922857Y-83982044D01*
X158922857Y-83982044D02*
X158863809Y-84029663D01*
X158863809Y-84029663D02*
X158745714Y-84029663D01*
X159218095Y-83029663D02*
X159601904Y-83029663D01*
X159601904Y-83029663D02*
X159395238Y-83410615D01*
X159395238Y-83410615D02*
X159483809Y-83410615D01*
X159483809Y-83410615D02*
X159542857Y-83458234D01*
X159542857Y-83458234D02*
X159572381Y-83505853D01*
X159572381Y-83505853D02*
X159601904Y-83601091D01*
X159601904Y-83601091D02*
X159601904Y-83839186D01*
X159601904Y-83839186D02*
X159572381Y-83934424D01*
X159572381Y-83934424D02*
X159542857Y-83982044D01*
X159542857Y-83982044D02*
X159483809Y-84029663D01*
X159483809Y-84029663D02*
X159306666Y-84029663D01*
X159306666Y-84029663D02*
X159247619Y-83982044D01*
X159247619Y-83982044D02*
X159218095Y-83934424D01*
X164517381Y-84204663D02*
X164517381Y-83204663D01*
X164517381Y-83204663D02*
X164665000Y-83204663D01*
X164665000Y-83204663D02*
X164753571Y-83252282D01*
X164753571Y-83252282D02*
X164812619Y-83347520D01*
X164812619Y-83347520D02*
X164842142Y-83442758D01*
X164842142Y-83442758D02*
X164871666Y-83633234D01*
X164871666Y-83633234D02*
X164871666Y-83776091D01*
X164871666Y-83776091D02*
X164842142Y-83966567D01*
X164842142Y-83966567D02*
X164812619Y-84061805D01*
X164812619Y-84061805D02*
X164753571Y-84157044D01*
X164753571Y-84157044D02*
X164665000Y-84204663D01*
X164665000Y-84204663D02*
X164517381Y-84204663D01*
X165403095Y-83537996D02*
X165403095Y-84204663D01*
X165255476Y-83157044D02*
X165107857Y-83871329D01*
X165107857Y-83871329D02*
X165491666Y-83871329D01*
X154603000Y-89878663D02*
X154603000Y-90592948D01*
X154603000Y-90592948D02*
X154573000Y-90735805D01*
X154573000Y-90735805D02*
X154513000Y-90831044D01*
X154513000Y-90831044D02*
X154423000Y-90878663D01*
X154423000Y-90878663D02*
X154363000Y-90878663D01*
X155233000Y-90878663D02*
X154873000Y-90878663D01*
X155053000Y-90878663D02*
X155053000Y-89878663D01*
X155053000Y-89878663D02*
X154993000Y-90021520D01*
X154993000Y-90021520D02*
X154933000Y-90116758D01*
X154933000Y-90116758D02*
X154873000Y-90164377D01*
X159115952Y-78024901D02*
X159056904Y-77977282D01*
X159056904Y-77977282D02*
X158997857Y-77882044D01*
X158997857Y-77882044D02*
X158909285Y-77739186D01*
X158909285Y-77739186D02*
X158850238Y-77691567D01*
X158850238Y-77691567D02*
X158791190Y-77691567D01*
X158820714Y-77929663D02*
X158761666Y-77882044D01*
X158761666Y-77882044D02*
X158702619Y-77786805D01*
X158702619Y-77786805D02*
X158673095Y-77596329D01*
X158673095Y-77596329D02*
X158673095Y-77262996D01*
X158673095Y-77262996D02*
X158702619Y-77072520D01*
X158702619Y-77072520D02*
X158761666Y-76977282D01*
X158761666Y-76977282D02*
X158820714Y-76929663D01*
X158820714Y-76929663D02*
X158938809Y-76929663D01*
X158938809Y-76929663D02*
X158997857Y-76977282D01*
X158997857Y-76977282D02*
X159056904Y-77072520D01*
X159056904Y-77072520D02*
X159086428Y-77262996D01*
X159086428Y-77262996D02*
X159086428Y-77596329D01*
X159086428Y-77596329D02*
X159056904Y-77786805D01*
X159056904Y-77786805D02*
X158997857Y-77882044D01*
X158997857Y-77882044D02*
X158938809Y-77929663D01*
X158938809Y-77929663D02*
X158820714Y-77929663D01*
X159322619Y-77024901D02*
X159352143Y-76977282D01*
X159352143Y-76977282D02*
X159411190Y-76929663D01*
X159411190Y-76929663D02*
X159558809Y-76929663D01*
X159558809Y-76929663D02*
X159617857Y-76977282D01*
X159617857Y-76977282D02*
X159647381Y-77024901D01*
X159647381Y-77024901D02*
X159676904Y-77120139D01*
X159676904Y-77120139D02*
X159676904Y-77215377D01*
X159676904Y-77215377D02*
X159647381Y-77358234D01*
X159647381Y-77358234D02*
X159293095Y-77929663D01*
X159293095Y-77929663D02*
X159676904Y-77929663D01*
X152727619Y-83354663D02*
X152727619Y-84164186D01*
X152727619Y-84164186D02*
X152757142Y-84259424D01*
X152757142Y-84259424D02*
X152786666Y-84307044D01*
X152786666Y-84307044D02*
X152845714Y-84354663D01*
X152845714Y-84354663D02*
X152963809Y-84354663D01*
X152963809Y-84354663D02*
X153022857Y-84307044D01*
X153022857Y-84307044D02*
X153052380Y-84259424D01*
X153052380Y-84259424D02*
X153081904Y-84164186D01*
X153081904Y-84164186D02*
X153081904Y-83354663D01*
X153672381Y-83354663D02*
X153377143Y-83354663D01*
X153377143Y-83354663D02*
X153347619Y-83830853D01*
X153347619Y-83830853D02*
X153377143Y-83783234D01*
X153377143Y-83783234D02*
X153436190Y-83735615D01*
X153436190Y-83735615D02*
X153583809Y-83735615D01*
X153583809Y-83735615D02*
X153642857Y-83783234D01*
X153642857Y-83783234D02*
X153672381Y-83830853D01*
X153672381Y-83830853D02*
X153701904Y-83926091D01*
X153701904Y-83926091D02*
X153701904Y-84164186D01*
X153701904Y-84164186D02*
X153672381Y-84259424D01*
X153672381Y-84259424D02*
X153642857Y-84307044D01*
X153642857Y-84307044D02*
X153583809Y-84354663D01*
X153583809Y-84354663D02*
X153436190Y-84354663D01*
X153436190Y-84354663D02*
X153377143Y-84307044D01*
X153377143Y-84307044D02*
X153347619Y-84259424D01*
D11*
%TO.C,SW2*%
X133790000Y-77560000D02*
X133790000Y-68740000D01*
X134100000Y-77560000D02*
X133790000Y-77560000D01*
X138310000Y-77560000D02*
X138000000Y-77560000D01*
X134000000Y-75650000D02*
X134500000Y-75150000D01*
X134500000Y-75150000D02*
X134000000Y-74650000D01*
X134000000Y-74650000D02*
X134000000Y-75650000D01*
X133790000Y-68740000D02*
X134100000Y-68740000D01*
X138310000Y-68740000D02*
X138310000Y-77560000D01*
X138310000Y-68740000D02*
X138000000Y-68740000D01*
%TO.C,U4*%
X163570000Y-71535000D02*
X162570000Y-71535000D01*
X163570000Y-70755000D02*
X163570000Y-71535000D01*
X145330000Y-71535000D02*
X146330000Y-71535000D01*
X145330000Y-70755000D02*
X145330000Y-71535000D01*
%TO.C,D1*%
X148875000Y-83475000D02*
X143425000Y-83475000D01*
X148875000Y-86775000D02*
X143425000Y-86775000D01*
X148875000Y-86775000D02*
X148875000Y-83475000D01*
%TO.C,SW3*%
X169513000Y-55409000D02*
X168313000Y-55409000D01*
X166713000Y-55409000D02*
X165513000Y-55409000D01*
X165513000Y-55409000D02*
X165513000Y-61809000D01*
X169513000Y-61809000D02*
X169513000Y-55409000D01*
X168313000Y-61809000D02*
X169513000Y-61809000D01*
X165513000Y-61809000D02*
X166713000Y-61809000D01*
%TO.C,J7*%
X148463000Y-73600000D02*
X163763000Y-73600000D01*
X163763000Y-76260000D02*
X163763000Y-73600000D01*
X148463000Y-76260000D02*
X148463000Y-73600000D01*
X148463000Y-76260000D02*
X163763000Y-76260000D01*
X147193000Y-76260000D02*
X145863000Y-76260000D01*
X145863000Y-76260000D02*
X145863000Y-74930000D01*
%TO.C,C26*%
X139910000Y-94387164D02*
X139910000Y-94602836D01*
X139190000Y-94387164D02*
X139190000Y-94602836D01*
%TO.C,R11*%
X164945000Y-71853641D02*
X164945000Y-71546359D01*
X165705000Y-71853641D02*
X165705000Y-71546359D01*
%TO.C,C2*%
X160490000Y-86682836D02*
X160490000Y-86467164D01*
X161210000Y-86682836D02*
X161210000Y-86467164D01*
%TO.C,C10*%
X144885000Y-77672164D02*
X144885000Y-77887836D01*
X144165000Y-77672164D02*
X144165000Y-77887836D01*
%TO.C,R32*%
X159505000Y-81556359D02*
X159505000Y-81863641D01*
X158745000Y-81556359D02*
X158745000Y-81863641D01*
D12*
%TO.C,D2*%
X149272500Y-92150000D02*
G75*
G03*
X149172500Y-92150000I-50000J0D01*
G01*
X149172500Y-92150000D02*
G75*
G03*
X149272500Y-92150000I50000J0D01*
G01*
D11*
%TO.C,R3*%
X150756359Y-83255000D02*
X151063641Y-83255000D01*
X150756359Y-82495000D02*
X151063641Y-82495000D01*
%TO.C,Q1*%
X145312500Y-88065000D02*
X144662500Y-88065000D01*
X145312500Y-88065000D02*
X145962500Y-88065000D01*
X145312500Y-91185000D02*
X144662500Y-91185000D01*
X145312500Y-91185000D02*
X146987500Y-91185000D01*
%TO.C,R15*%
X165195000Y-67318641D02*
X165195000Y-67011359D01*
X165955000Y-67318641D02*
X165955000Y-67011359D01*
%TO.C,R31*%
X150771359Y-81170000D02*
X151078641Y-81170000D01*
X150771359Y-81930000D02*
X151078641Y-81930000D01*
%TO.C,R39*%
X166245000Y-81103641D02*
X166245000Y-80796359D01*
X167005000Y-81103641D02*
X167005000Y-80796359D01*
%TO.C,C15*%
X164712164Y-82140000D02*
X164927836Y-82140000D01*
X164712164Y-82860000D02*
X164927836Y-82860000D01*
%TO.C,C25*%
X142261000Y-51387836D02*
X142261000Y-51172164D01*
X142981000Y-51387836D02*
X142981000Y-51172164D01*
%TO.C,R23*%
X166623000Y-51410359D02*
X166623000Y-51717641D01*
X165863000Y-51410359D02*
X165863000Y-51717641D01*
%TO.C,C14*%
X149965000Y-77700164D02*
X149965000Y-77915836D01*
X149245000Y-77700164D02*
X149245000Y-77915836D01*
%TO.C,U1*%
X142100000Y-82235000D02*
X142900000Y-82235000D01*
X142100000Y-82235000D02*
X141300000Y-82235000D01*
X142100000Y-79115000D02*
X142900000Y-79115000D01*
X142100000Y-79115000D02*
X140300000Y-79115000D01*
%TO.C,J4*%
X140520000Y-75630000D02*
X140520000Y-67950000D01*
X143180000Y-67950000D02*
X140520000Y-67950000D01*
X143180000Y-75630000D02*
X140520000Y-75630000D01*
X143180000Y-75630000D02*
X143180000Y-67950000D01*
X143180000Y-76900000D02*
X143180000Y-78230000D01*
X143180000Y-78230000D02*
X141850000Y-78230000D01*
D12*
%TO.C,D3*%
X162860000Y-91925000D02*
G75*
G03*
X162760000Y-91925000I-50000J0D01*
G01*
X162760000Y-91925000D02*
G75*
G03*
X162860000Y-91925000I50000J0D01*
G01*
D11*
%TO.C,C5*%
X150617164Y-85385000D02*
X150832836Y-85385000D01*
X150617164Y-84665000D02*
X150832836Y-84665000D01*
%TO.C,SW4*%
X143150000Y-43150000D02*
X141950000Y-43150000D01*
X140350000Y-43150000D02*
X139150000Y-43150000D01*
X139150000Y-43150000D02*
X139150000Y-49550000D01*
X143150000Y-49550000D02*
X143150000Y-43150000D01*
X141950000Y-49550000D02*
X143150000Y-49550000D01*
X139150000Y-49550000D02*
X140350000Y-49550000D01*
%TO.C,R24*%
X165845000Y-94803641D02*
X165845000Y-94496359D01*
X166605000Y-94803641D02*
X166605000Y-94496359D01*
%TO.C,C18*%
X166965000Y-73807836D02*
X166965000Y-73592164D01*
X167685000Y-73807836D02*
X167685000Y-73592164D01*
%TO.C,R20*%
X148307359Y-88520000D02*
X148614641Y-88520000D01*
X148307359Y-89280000D02*
X148614641Y-89280000D01*
%TO.C,R6*%
X162346359Y-84495000D02*
X162653641Y-84495000D01*
X162346359Y-85255000D02*
X162653641Y-85255000D01*
%TO.C,R17*%
X142805000Y-88446359D02*
X142805000Y-88753641D01*
X142045000Y-88446359D02*
X142045000Y-88753641D01*
%TO.C,R2*%
X152932641Y-85405000D02*
X152625359Y-85405000D01*
X152932641Y-84645000D02*
X152625359Y-84645000D01*
%TO.C,C28*%
X168890000Y-94612164D02*
X168890000Y-94827836D01*
X169610000Y-94612164D02*
X169610000Y-94827836D01*
%TO.C,R7*%
X165931359Y-91520000D02*
X166238641Y-91520000D01*
X165931359Y-92280000D02*
X166238641Y-92280000D01*
%TO.C,R30*%
X151078641Y-80405000D02*
X150771359Y-80405000D01*
X151078641Y-79645000D02*
X150771359Y-79645000D01*
%TO.C,R14*%
X168030000Y-71581359D02*
X168030000Y-71888641D01*
X167270000Y-71581359D02*
X167270000Y-71888641D01*
%TO.C,R8*%
X164690359Y-78104000D02*
X164997641Y-78104000D01*
X164690359Y-77344000D02*
X164997641Y-77344000D01*
%TO.C,C3*%
X160490000Y-90137836D02*
X160490000Y-89922164D01*
X161210000Y-90137836D02*
X161210000Y-89922164D01*
%TO.C,R26*%
X167046359Y-64730000D02*
X167353641Y-64730000D01*
X167046359Y-63970000D02*
X167353641Y-63970000D01*
%TO.C,C17*%
X149460000Y-80067164D02*
X149460000Y-80282836D01*
X148740000Y-80067164D02*
X148740000Y-80282836D01*
%TO.C,R12*%
X143221359Y-64780000D02*
X143528641Y-64780000D01*
X143221359Y-64020000D02*
X143528641Y-64020000D01*
%TO.C,SW1*%
X140113000Y-61431000D02*
X141313000Y-61431000D01*
X142913000Y-61431000D02*
X144113000Y-61431000D01*
X144113000Y-61431000D02*
X144113000Y-55031000D01*
X140113000Y-55031000D02*
X140113000Y-61431000D01*
X141313000Y-55031000D02*
X140113000Y-55031000D01*
X144113000Y-55031000D02*
X142913000Y-55031000D01*
%TO.C,SW6*%
X169800000Y-43250000D02*
X168600000Y-43250000D01*
X167000000Y-43250000D02*
X165800000Y-43250000D01*
X165800000Y-43250000D02*
X165800000Y-49650000D01*
X169800000Y-49650000D02*
X169800000Y-43250000D01*
X168600000Y-49650000D02*
X169800000Y-49650000D01*
X165800000Y-49650000D02*
X167000000Y-49650000D01*
%TO.C,R10*%
X165220000Y-69643641D02*
X165220000Y-69336359D01*
X165980000Y-69643641D02*
X165980000Y-69336359D01*
%TO.C,SW5*%
X139075000Y-102200000D02*
X140275000Y-102200000D01*
X141875000Y-102200000D02*
X143075000Y-102200000D01*
X143075000Y-102200000D02*
X143075000Y-95800000D01*
X139075000Y-95800000D02*
X139075000Y-102200000D01*
X140275000Y-95800000D02*
X139075000Y-95800000D01*
X143075000Y-95800000D02*
X141875000Y-95800000D01*
%TO.C,C4*%
X158790000Y-79262836D02*
X158790000Y-79047164D01*
X159510000Y-79262836D02*
X159510000Y-79047164D01*
%TO.C,C12*%
X147425000Y-77728164D02*
X147425000Y-77943836D01*
X146705000Y-77728164D02*
X146705000Y-77943836D01*
%TO.C,R37*%
X165220000Y-73808641D02*
X165220000Y-73501359D01*
X165980000Y-73808641D02*
X165980000Y-73501359D01*
D12*
%TO.C,D5*%
X166900000Y-69450000D02*
G75*
G03*
X166800000Y-69450000I-50000J0D01*
G01*
X166800000Y-69450000D02*
G75*
G03*
X166900000Y-69450000I50000J0D01*
G01*
D11*
%TO.C,R38*%
X166796359Y-84495000D02*
X167103641Y-84495000D01*
X166796359Y-85255000D02*
X167103641Y-85255000D01*
%TO.C,R25*%
X151365000Y-77654359D02*
X151365000Y-77961641D01*
X150605000Y-77654359D02*
X150605000Y-77961641D01*
%TO.C,C27*%
X168931000Y-51641836D02*
X168931000Y-51426164D01*
X169651000Y-51641836D02*
X169651000Y-51426164D01*
%TO.C,U2*%
X146425000Y-79040000D02*
X144625000Y-79040000D01*
X146425000Y-79040000D02*
X147225000Y-79040000D01*
X146425000Y-82160000D02*
X145625000Y-82160000D01*
X146425000Y-82160000D02*
X147225000Y-82160000D01*
%TO.C,C1*%
X159207836Y-85460000D02*
X158992164Y-85460000D01*
X159207836Y-84740000D02*
X158992164Y-84740000D01*
D12*
%TO.C,D6*%
X166575000Y-72790000D02*
G75*
G03*
X166475000Y-72790000I-50000J0D01*
G01*
X166475000Y-72790000D02*
G75*
G03*
X166575000Y-72790000I50000J0D01*
G01*
D11*
%TO.C,C9*%
X139912164Y-53790000D02*
X140127836Y-53790000D01*
X139912164Y-54510000D02*
X140127836Y-54510000D01*
%TO.C,C13*%
X148695000Y-77700164D02*
X148695000Y-77915836D01*
X147975000Y-77700164D02*
X147975000Y-77915836D01*
%TO.C,R5*%
X161661359Y-91520000D02*
X161968641Y-91520000D01*
X161661359Y-92280000D02*
X161968641Y-92280000D01*
%TO.C,C16*%
X164737164Y-78515000D02*
X164952836Y-78515000D01*
X164737164Y-79235000D02*
X164952836Y-79235000D01*
%TO.C,C6*%
X154747164Y-84665000D02*
X154962836Y-84665000D01*
X154747164Y-85385000D02*
X154962836Y-85385000D01*
%TO.C,C19*%
X165215000Y-75767836D02*
X165215000Y-75552164D01*
X165935000Y-75767836D02*
X165935000Y-75552164D01*
%TO.C,R1*%
X156831359Y-85405000D02*
X157138641Y-85405000D01*
X156831359Y-84645000D02*
X157138641Y-84645000D01*
%TO.C,R9*%
X164692359Y-80900000D02*
X164999641Y-80900000D01*
X164692359Y-81660000D02*
X164999641Y-81660000D01*
%TO.C,R16*%
X141530000Y-88471359D02*
X141530000Y-88778641D01*
X140770000Y-88471359D02*
X140770000Y-88778641D01*
%TO.C,R34*%
X141280000Y-85021359D02*
X141280000Y-85328641D01*
X140520000Y-85021359D02*
X140520000Y-85328641D01*
%TO.C,R21*%
X139953000Y-51152359D02*
X139953000Y-51459641D01*
X139193000Y-51152359D02*
X139193000Y-51459641D01*
%TO.C,SW7*%
X165725000Y-102375000D02*
X166925000Y-102375000D01*
X168525000Y-102375000D02*
X169725000Y-102375000D01*
X169725000Y-102375000D02*
X169725000Y-95975000D01*
X165725000Y-95975000D02*
X165725000Y-102375000D01*
X166925000Y-95975000D02*
X165725000Y-95975000D01*
X169725000Y-95975000D02*
X168525000Y-95975000D01*
%TO.C,R13*%
X165482000Y-54255641D02*
X165482000Y-53948359D01*
X166242000Y-54255641D02*
X166242000Y-53948359D01*
%TO.C,Q3*%
X161876500Y-80990000D02*
X160201500Y-80990000D01*
X161876500Y-80990000D02*
X162526500Y-80990000D01*
X161876500Y-84110000D02*
X161226500Y-84110000D01*
X161876500Y-84110000D02*
X162526500Y-84110000D01*
D12*
%TO.C,D4*%
X163775000Y-84875000D02*
G75*
G03*
X163675000Y-84875000I-50000J0D01*
G01*
X163675000Y-84875000D02*
G75*
G03*
X163775000Y-84875000I50000J0D01*
G01*
D11*
%TO.C,C8*%
X169058000Y-54209836D02*
X169058000Y-53994164D01*
X169778000Y-54209836D02*
X169778000Y-53994164D01*
%TO.C,R22*%
X142220000Y-94593641D02*
X142220000Y-94286359D01*
X142980000Y-94593641D02*
X142980000Y-94286359D01*
%TO.C,R4*%
X145846359Y-91770000D02*
X146153641Y-91770000D01*
X145846359Y-92530000D02*
X146153641Y-92530000D01*
%TO.C,C11*%
X146155000Y-77672164D02*
X146155000Y-77887836D01*
X145435000Y-77672164D02*
X145435000Y-77887836D01*
%TO.C,C20*%
X166515000Y-76107836D02*
X166515000Y-75892164D01*
X167235000Y-76107836D02*
X167235000Y-75892164D01*
%TO.C,J1*%
X159483000Y-90324000D02*
X159483000Y-88624000D01*
X150143000Y-90324000D02*
X150143000Y-88624000D01*
%TO.C,Q2*%
X161876500Y-77180000D02*
X160201500Y-77180000D01*
X161876500Y-77180000D02*
X162526500Y-77180000D01*
X161876500Y-80300000D02*
X161226500Y-80300000D01*
X161876500Y-80300000D02*
X162526500Y-80300000D01*
%TO.C,U5*%
X157835000Y-77490000D02*
X157110000Y-77490000D01*
X152615000Y-77490000D02*
X153340000Y-77490000D01*
X157835000Y-78215000D02*
X157835000Y-77490000D01*
X152615000Y-78215000D02*
X152615000Y-77490000D01*
X157835000Y-81985000D02*
X157835000Y-82710000D01*
X152615000Y-81985000D02*
X152615000Y-82710000D01*
X157835000Y-82710000D02*
X157110000Y-82710000D01*
%TO.C,R19*%
X138920000Y-75282359D02*
X138920000Y-75589641D01*
X139680000Y-75282359D02*
X139680000Y-75589641D01*
%TO.C,R27*%
X139730000Y-62081359D02*
X139730000Y-62388641D01*
X138970000Y-62081359D02*
X138970000Y-62388641D01*
%TO.C,C7*%
X144160000Y-62782836D02*
X144160000Y-62567164D01*
X143440000Y-62782836D02*
X143440000Y-62567164D01*
%TD*%
M02*
