%TF.GenerationSoftware,KiCad,Pcbnew,7.0.10*%
%TF.CreationDate,2024-11-30T16:41:06+05:30*%
%TF.ProjectId,Watch_v3,57617463-685f-4763-932e-6b696361645f,Watch_v3*%
%TF.SameCoordinates,Original*%
%TF.FileFunction,Paste,Bot*%
%TF.FilePolarity,Positive*%
%FSLAX46Y46*%
G04 Gerber Fmt 4.6, Leading zero omitted, Abs format (unit mm)*
G04 Created by KiCad (PCBNEW 7.0.10) date 2024-11-30 16:41:06*
%MOMM*%
%LPD*%
G01*
G04 APERTURE LIST*
G04 Aperture macros list*
%AMRoundRect*
0 Rectangle with rounded corners*
0 $1 Rounding radius*
0 $2 $3 $4 $5 $6 $7 $8 $9 X,Y pos of 4 corners*
0 Add a 4 corners polygon primitive as box body*
4,1,4,$2,$3,$4,$5,$6,$7,$8,$9,$2,$3,0*
0 Add four circle primitives for the rounded corners*
1,1,$1+$1,$2,$3*
1,1,$1+$1,$4,$5*
1,1,$1+$1,$6,$7*
1,1,$1+$1,$8,$9*
0 Add four rect primitives between the rounded corners*
20,1,$1+$1,$2,$3,$4,$5,0*
20,1,$1+$1,$4,$5,$6,$7,0*
20,1,$1+$1,$6,$7,$8,$9,0*
20,1,$1+$1,$8,$9,$2,$3,0*%
G04 Aperture macros list end*
%ADD10C,0.010000*%
%ADD11R,0.790000X0.280000*%
%ADD12R,0.280000X0.790000*%
%ADD13RoundRect,0.135000X0.135000X0.185000X-0.135000X0.185000X-0.135000X-0.185000X0.135000X-0.185000X0*%
%ADD14RoundRect,0.075000X0.910000X0.225000X-0.910000X0.225000X-0.910000X-0.225000X0.910000X-0.225000X0*%
%ADD15R,2.500000X2.500000*%
%ADD16RoundRect,0.140000X-0.140000X-0.170000X0.140000X-0.170000X0.140000X0.170000X-0.140000X0.170000X0*%
%ADD17RoundRect,0.140000X0.140000X0.170000X-0.140000X0.170000X-0.140000X-0.170000X0.140000X-0.170000X0*%
%ADD18R,1.000000X1.400000*%
%ADD19C,1.500000*%
%ADD20RoundRect,0.112500X-0.112500X0.187500X-0.112500X-0.187500X0.112500X-0.187500X0.112500X0.187500X0*%
%ADD21RoundRect,0.150000X0.587500X0.150000X-0.587500X0.150000X-0.587500X-0.150000X0.587500X-0.150000X0*%
%ADD22RoundRect,0.135000X0.185000X-0.135000X0.185000X0.135000X-0.185000X0.135000X-0.185000X-0.135000X0*%
%ADD23RoundRect,0.381000X0.381000X-0.762000X0.381000X0.762000X-0.381000X0.762000X-0.381000X-0.762000X0*%
G04 APERTURE END LIST*
%TO.C,U3*%
D10*
X165895000Y-89175000D02*
X164605000Y-89175000D01*
X164605000Y-87535000D01*
X165895000Y-87535000D01*
X165895000Y-89175000D01*
G36*
X165895000Y-89175000D02*
G01*
X164605000Y-89175000D01*
X164605000Y-87535000D01*
X165895000Y-87535000D01*
X165895000Y-89175000D01*
G37*
%TD*%
D11*
%TO.C,U6*%
X156594000Y-67580000D03*
X156594000Y-68080000D03*
X156594000Y-68580000D03*
X156594000Y-69080000D03*
X156594000Y-69580000D03*
X156594000Y-70080000D03*
D12*
X155874000Y-70800000D03*
X155374000Y-70800000D03*
X154874000Y-70800000D03*
X154374000Y-70800000D03*
X153874000Y-70800000D03*
X153374000Y-70800000D03*
D11*
X152654000Y-70080000D03*
X152654000Y-69580000D03*
X152654000Y-69080000D03*
X152654000Y-68580000D03*
X152654000Y-68080000D03*
X152654000Y-67580000D03*
D12*
X153374000Y-66860000D03*
X153874000Y-66860000D03*
X154374000Y-66860000D03*
X154874000Y-66860000D03*
X155374000Y-66860000D03*
X155874000Y-66860000D03*
%TD*%
D13*
%TO.C,R33*%
X160075000Y-83500000D03*
X159055000Y-83500000D03*
%TD*%
D14*
%TO.C,U3*%
X167725000Y-86450000D03*
X167725000Y-87720000D03*
X167725000Y-88990000D03*
X167725000Y-90260000D03*
X162775000Y-90260000D03*
X162775000Y-88990000D03*
X162775000Y-87720000D03*
X162775000Y-86450000D03*
%TD*%
D15*
%TO.C,LS1*%
X160850000Y-62050000D03*
X160850000Y-55050000D03*
X167850000Y-62050000D03*
X167850000Y-55050000D03*
%TD*%
D16*
%TO.C,C21*%
X156920000Y-72050000D03*
X157880000Y-72050000D03*
%TD*%
D17*
%TO.C,C22*%
X159025000Y-66675000D03*
X158065000Y-66675000D03*
%TD*%
%TO.C,C23*%
X150625000Y-66675000D03*
X149665000Y-66675000D03*
%TD*%
D18*
%TO.C,Q4*%
X140600000Y-63975000D03*
X139650000Y-66175000D03*
X141550000Y-66175000D03*
%TD*%
D13*
%TO.C,R29*%
X158385000Y-63475000D03*
X157365000Y-63475000D03*
%TD*%
%TO.C,R36*%
X150675000Y-67975000D03*
X149655000Y-67975000D03*
%TD*%
D19*
%TO.C,M1*%
X140450000Y-59325000D03*
X140450000Y-57075000D03*
%TD*%
D20*
%TO.C,D7*%
X157875000Y-59925000D03*
X157875000Y-62025000D03*
%TD*%
D21*
%TO.C,Q5*%
X156200000Y-57275000D03*
X158075000Y-58225000D03*
X158075000Y-56325000D03*
%TD*%
D22*
%TO.C,R35*%
X143775000Y-55260000D03*
X143775000Y-54240000D03*
%TD*%
D13*
%TO.C,R18*%
X153955000Y-72075000D03*
X154975000Y-72075000D03*
%TD*%
D23*
%TO.C,J2*%
X139700000Y-91225000D03*
X139700000Y-87475000D03*
%TD*%
M02*
