%TF.GenerationSoftware,KiCad,Pcbnew,7.0.10*%
%TF.CreationDate,2024-11-30T16:41:06+05:30*%
%TF.ProjectId,Watch_v3,57617463-685f-4763-932e-6b696361645f,Watch_v3*%
%TF.SameCoordinates,Original*%
%TF.FileFunction,Copper,L2,Bot*%
%TF.FilePolarity,Positive*%
%FSLAX46Y46*%
G04 Gerber Fmt 4.6, Leading zero omitted, Abs format (unit mm)*
G04 Created by KiCad (PCBNEW 7.0.10) date 2024-11-30 16:41:06*
%MOMM*%
%LPD*%
G01*
G04 APERTURE LIST*
G04 Aperture macros list*
%AMRoundRect*
0 Rectangle with rounded corners*
0 $1 Rounding radius*
0 $2 $3 $4 $5 $6 $7 $8 $9 X,Y pos of 4 corners*
0 Add a 4 corners polygon primitive as box body*
4,1,4,$2,$3,$4,$5,$6,$7,$8,$9,$2,$3,0*
0 Add four circle primitives for the rounded corners*
1,1,$1+$1,$2,$3*
1,1,$1+$1,$4,$5*
1,1,$1+$1,$6,$7*
1,1,$1+$1,$8,$9*
0 Add four rect primitives between the rounded corners*
20,1,$1+$1,$2,$3,$4,$5,0*
20,1,$1+$1,$4,$5,$6,$7,0*
20,1,$1+$1,$6,$7,$8,$9,0*
20,1,$1+$1,$8,$9,$2,$3,0*%
G04 Aperture macros list end*
%TA.AperFunction,ComponentPad*%
%ADD10R,2.500000X1.500000*%
%TD*%
%TA.AperFunction,ComponentPad*%
%ADD11O,2.500000X1.500000*%
%TD*%
%TA.AperFunction,ComponentPad*%
%ADD12O,1.700000X1.700000*%
%TD*%
%TA.AperFunction,ComponentPad*%
%ADD13R,1.700000X1.700000*%
%TD*%
%TA.AperFunction,SMDPad,CuDef*%
%ADD14R,0.790000X0.280000*%
%TD*%
%TA.AperFunction,SMDPad,CuDef*%
%ADD15R,0.280000X0.790000*%
%TD*%
%TA.AperFunction,SMDPad,CuDef*%
%ADD16RoundRect,0.135000X0.135000X0.185000X-0.135000X0.185000X-0.135000X-0.185000X0.135000X-0.185000X0*%
%TD*%
%TA.AperFunction,SMDPad,CuDef*%
%ADD17RoundRect,0.075000X0.910000X0.225000X-0.910000X0.225000X-0.910000X-0.225000X0.910000X-0.225000X0*%
%TD*%
%TA.AperFunction,SMDPad,CuDef*%
%ADD18R,2.413000X3.302000*%
%TD*%
%TA.AperFunction,SMDPad,CuDef*%
%ADD19R,2.500000X2.500000*%
%TD*%
%TA.AperFunction,SMDPad,CuDef*%
%ADD20RoundRect,0.140000X-0.140000X-0.170000X0.140000X-0.170000X0.140000X0.170000X-0.140000X0.170000X0*%
%TD*%
%TA.AperFunction,SMDPad,CuDef*%
%ADD21RoundRect,0.140000X0.140000X0.170000X-0.140000X0.170000X-0.140000X-0.170000X0.140000X-0.170000X0*%
%TD*%
%TA.AperFunction,SMDPad,CuDef*%
%ADD22R,1.000000X1.400000*%
%TD*%
%TA.AperFunction,SMDPad,CuDef*%
%ADD23C,1.500000*%
%TD*%
%TA.AperFunction,SMDPad,CuDef*%
%ADD24RoundRect,0.112500X-0.112500X0.187500X-0.112500X-0.187500X0.112500X-0.187500X0.112500X0.187500X0*%
%TD*%
%TA.AperFunction,SMDPad,CuDef*%
%ADD25RoundRect,0.150000X0.587500X0.150000X-0.587500X0.150000X-0.587500X-0.150000X0.587500X-0.150000X0*%
%TD*%
%TA.AperFunction,SMDPad,CuDef*%
%ADD26RoundRect,0.135000X0.185000X-0.135000X0.185000X0.135000X-0.185000X0.135000X-0.185000X-0.135000X0*%
%TD*%
%TA.AperFunction,SMDPad,CuDef*%
%ADD27RoundRect,0.381000X0.381000X-0.762000X0.381000X0.762000X-0.381000X0.762000X-0.381000X-0.762000X0*%
%TD*%
%TA.AperFunction,ComponentPad*%
%ADD28O,1.000000X1.800000*%
%TD*%
%TA.AperFunction,ComponentPad*%
%ADD29O,1.000000X2.100000*%
%TD*%
%TA.AperFunction,ViaPad*%
%ADD30C,0.470000*%
%TD*%
%TA.AperFunction,Conductor*%
%ADD31C,0.160000*%
%TD*%
%TA.AperFunction,Conductor*%
%ADD32C,0.170000*%
%TD*%
G04 APERTURE END LIST*
D10*
%TO.P,SW2,1,A*%
%TO.N,Net-(SW2-A)*%
X136050000Y-75150000D03*
D11*
%TO.P,SW2,2,B*%
%TO.N,VBUS*%
X136050000Y-73150000D03*
%TO.P,SW2,3,C*%
%TO.N,unconnected-(SW2-C-Pad3)*%
X136050000Y-71150000D03*
%TD*%
D12*
%TO.P,J7,7,Pin_7*%
%TO.N,GND*%
X162433000Y-74930000D03*
%TO.P,J7,6,Pin_6*%
%TO.N,unconnected-(J7-Pin_6-Pad6)*%
X159893000Y-74930000D03*
%TO.P,J7,5,Pin_5*%
%TO.N,unconnected-(J7-Pin_5-Pad5)*%
X157353000Y-74930000D03*
%TO.P,J7,4,Pin_4*%
%TO.N,unconnected-(J7-Pin_4-Pad4)*%
X154813000Y-74930000D03*
%TO.P,J7,3,Pin_3*%
%TO.N,/SDA*%
X152273000Y-74930000D03*
%TO.P,J7,2,Pin_2*%
%TO.N,/SCL*%
X149733000Y-74930000D03*
D13*
%TO.P,J7,1,Pin_1*%
%TO.N,+3.3V*%
X147193000Y-74930000D03*
%TD*%
D14*
%TO.P,U6,1,CLKIN*%
%TO.N,GND*%
X156594000Y-67580000D03*
%TO.P,U6,2,NC*%
%TO.N,unconnected-(U6-NC-Pad14)*%
X156594000Y-68080000D03*
%TO.P,U6,3,NC*%
X156594000Y-68580000D03*
%TO.P,U6,4,NC*%
X156594000Y-69080000D03*
%TO.P,U6,5,NC*%
X156594000Y-69580000D03*
%TO.P,U6,6,AUX_DA*%
%TO.N,unconnected-(U6-AUX_DA-Pad6)*%
X156594000Y-70080000D03*
D15*
%TO.P,U6,7,AUX_CL*%
%TO.N,unconnected-(U6-AUX_CL-Pad7)*%
X155874000Y-70800000D03*
%TO.P,U6,8,VLOGIC*%
%TO.N,Net-(U6-VDD)*%
X155374000Y-70800000D03*
%TO.P,U6,9,AD0*%
%TO.N,Net-(U6-AD0)*%
X154874000Y-70800000D03*
%TO.P,U6,10,REGOUT*%
%TO.N,Net-(U6-REGOUT)*%
X154374000Y-70800000D03*
%TO.P,U6,11,FSYNC*%
%TO.N,GND*%
X153874000Y-70800000D03*
%TO.P,U6,12,INT*%
%TO.N,unconnected-(U6-INT-Pad12)*%
X153374000Y-70800000D03*
D14*
%TO.P,U6,13,VDD*%
%TO.N,Net-(U6-VDD)*%
X152654000Y-70080000D03*
%TO.P,U6,14,NC*%
%TO.N,unconnected-(U6-NC-Pad14)*%
X152654000Y-69580000D03*
%TO.P,U6,15,NC*%
X152654000Y-69080000D03*
%TO.P,U6,16,NC*%
X152654000Y-68580000D03*
%TO.P,U6,17,NC*%
X152654000Y-68080000D03*
%TO.P,U6,18,GND*%
%TO.N,GND*%
X152654000Y-67580000D03*
D15*
%TO.P,U6,19,RESV*%
%TO.N,unconnected-(U6-RESV-Pad19)*%
X153374000Y-66860000D03*
%TO.P,U6,20,CPOUT*%
%TO.N,Net-(U6-CPOUT)*%
X153874000Y-66860000D03*
%TO.P,U6,21,RESV*%
%TO.N,unconnected-(U6-RESV-Pad21)*%
X154374000Y-66860000D03*
%TO.P,U6,22,RESV*%
%TO.N,unconnected-(U6-RESV-Pad22)*%
X154874000Y-66860000D03*
%TO.P,U6,23,SCL*%
%TO.N,/SCL*%
X155374000Y-66860000D03*
%TO.P,U6,24,SDA*%
%TO.N,/SDA*%
X155874000Y-66860000D03*
%TD*%
D16*
%TO.P,R33,1*%
%TO.N,VBUS*%
X160075000Y-83500000D03*
%TO.P,R33,2*%
%TO.N,Net-(U5-VBUS)*%
X159055000Y-83500000D03*
%TD*%
D17*
%TO.P,U3,1,TEMP*%
%TO.N,Net-(U3-PROG)*%
X167725000Y-86450000D03*
%TO.P,U3,2,PROG*%
X167725000Y-87720000D03*
%TO.P,U3,3,GND*%
%TO.N,GND*%
X167725000Y-88990000D03*
%TO.P,U3,4,VCC*%
%TO.N,Net-(U3-VCC)*%
X167725000Y-90260000D03*
%TO.P,U3,5,BAT*%
%TO.N,+BATT*%
X162775000Y-90260000D03*
%TO.P,U3,6,~{STDBY}*%
%TO.N,Net-(U3-~{STDBY})*%
X162775000Y-88990000D03*
%TO.P,U3,7,~{CHRG}*%
%TO.N,Net-(U3-~{CHRG})*%
X162775000Y-87720000D03*
%TO.P,U3,8,CE*%
%TO.N,+5V*%
X162775000Y-86450000D03*
D18*
%TO.P,U3,9,EP*%
%TO.N,GND*%
X165250000Y-88355000D03*
%TD*%
D19*
%TO.P,LS1,P*%
%TO.N,Net-(D7-PadC)*%
X160850000Y-62050000D03*
%TO.P,LS1,N*%
%TO.N,Net-(Q5-C)*%
X160850000Y-55050000D03*
%TO.P,LS1,2*%
%TO.N,N/C*%
X167850000Y-62050000D03*
%TO.P,LS1,1*%
X167850000Y-55050000D03*
%TD*%
D12*
%TO.P,J4,4,Pin_4*%
%TO.N,/SDA*%
X141850000Y-69280000D03*
%TO.P,J4,3,Pin_3*%
%TO.N,/SCL*%
X141850000Y-71820000D03*
%TO.P,J4,2,Pin_2*%
%TO.N,Net-(J4-Pin_2)*%
X141850000Y-74360000D03*
D13*
%TO.P,J4,1,Pin_1*%
%TO.N,GND*%
X141850000Y-76900000D03*
%TD*%
D20*
%TO.P,C21,1*%
%TO.N,Net-(U6-VDD)*%
X156920000Y-72050000D03*
%TO.P,C21,2*%
%TO.N,GND*%
X157880000Y-72050000D03*
%TD*%
D21*
%TO.P,C22,1*%
%TO.N,Net-(U6-REGOUT)*%
X159025000Y-66675000D03*
%TO.P,C22,2*%
%TO.N,GND*%
X158065000Y-66675000D03*
%TD*%
%TO.P,C23,1*%
%TO.N,Net-(U6-CPOUT)*%
X150625000Y-66675000D03*
%TO.P,C23,2*%
%TO.N,GND*%
X149665000Y-66675000D03*
%TD*%
D22*
%TO.P,Q4,3*%
%TO.N,Net-(Q4-Pad3)*%
X140600000Y-63975000D03*
%TO.P,Q4,2*%
%TO.N,Net-(M1-+)*%
X139650000Y-66175000D03*
%TO.P,Q4,1*%
%TO.N,/motor*%
X141550000Y-66175000D03*
%TD*%
D16*
%TO.P,R29,1*%
%TO.N,+3.3V*%
X158385000Y-63475000D03*
%TO.P,R29,2*%
%TO.N,Net-(D7-PadC)*%
X157365000Y-63475000D03*
%TD*%
%TO.P,R36,1*%
%TO.N,+3.3V*%
X150675000Y-67975000D03*
%TO.P,R36,2*%
%TO.N,Net-(U6-VDD)*%
X149655000Y-67975000D03*
%TD*%
D23*
%TO.P,M1,1,+*%
%TO.N,Net-(M1-+)*%
X140450000Y-59325000D03*
%TO.P,M1,2,-*%
%TO.N,GND*%
X140450000Y-57075000D03*
%TD*%
D24*
%TO.P,D7,A*%
%TO.N,Net-(Q5-C)*%
X157875000Y-59925000D03*
%TO.P,D7,C*%
%TO.N,Net-(D7-PadC)*%
X157875000Y-62025000D03*
%TD*%
D25*
%TO.P,Q5,3,C*%
%TO.N,Net-(Q5-C)*%
X156200000Y-57275000D03*
%TO.P,Q5,2,E*%
%TO.N,GND*%
X158075000Y-58225000D03*
%TO.P,Q5,1,B*%
%TO.N,/Buzz*%
X158075000Y-56325000D03*
%TD*%
D26*
%TO.P,R35,1*%
%TO.N,Net-(U4-VDD)*%
X143775000Y-55260000D03*
%TO.P,R35,2*%
%TO.N,+3.3V*%
X143775000Y-54240000D03*
%TD*%
D16*
%TO.P,R18,2*%
%TO.N,GND*%
X153955000Y-72075000D03*
%TO.P,R18,1*%
%TO.N,Net-(U6-AD0)*%
X154975000Y-72075000D03*
%TD*%
D27*
%TO.P,J2,2,Pin_2*%
%TO.N,GND*%
X139700000Y-91225000D03*
%TO.P,J2,1,Pin_1*%
%TO.N,+BATT*%
X139700000Y-87475000D03*
%TD*%
D28*
%TO.P,J1,S1,SHIELD*%
%TO.N,GND*%
X159133000Y-91499000D03*
D29*
X159133000Y-87319000D03*
D28*
X150493000Y-91499000D03*
D29*
X150493000Y-87319000D03*
%TD*%
D30*
%TO.N,GND*%
X154525000Y-91500000D03*
X157875000Y-91425000D03*
X156875000Y-91525000D03*
X155625000Y-91500000D03*
X143025000Y-91750000D03*
X142500000Y-90300000D03*
X142550000Y-90925000D03*
X142375000Y-91700000D03*
X142300000Y-92450000D03*
X149325000Y-85325000D03*
X149325000Y-84675000D03*
X147525000Y-82775000D03*
X146525000Y-82750000D03*
X146450000Y-81725000D03*
X142100000Y-81850000D03*
X142150000Y-81100000D03*
X148075000Y-69050000D03*
X147275000Y-56150000D03*
X148375000Y-57125000D03*
X147775000Y-57750000D03*
X147650000Y-56900000D03*
X150600000Y-53300000D03*
X156225000Y-59350000D03*
X156850000Y-56525000D03*
X167225000Y-96425000D03*
X166400000Y-97325000D03*
X167000000Y-97900000D03*
X167025000Y-98800000D03*
X166900000Y-99625000D03*
X166275000Y-98000000D03*
X166375000Y-98650000D03*
X166300000Y-99150000D03*
X166275000Y-99875000D03*
X167150000Y-100250000D03*
X166925000Y-100850000D03*
X166425000Y-100550000D03*
X166425000Y-101325000D03*
X166575000Y-101825000D03*
X167200000Y-101675000D03*
X169150000Y-101275000D03*
X168825000Y-102000000D03*
X168550000Y-101500000D03*
X168525000Y-100850000D03*
X168375000Y-100075000D03*
X169100000Y-100400000D03*
X168925000Y-99650000D03*
X168625000Y-99075000D03*
X169100000Y-98625000D03*
X169125000Y-97600000D03*
X168550000Y-98150000D03*
X167900000Y-97375000D03*
X168500000Y-96675000D03*
X167650000Y-96925000D03*
X167000000Y-97025000D03*
X166475000Y-96700000D03*
X141275000Y-96525000D03*
X142050000Y-96525000D03*
X142625000Y-96675000D03*
X142500000Y-98125000D03*
X142300000Y-97300000D03*
X141600000Y-97275000D03*
X141800000Y-97925000D03*
X141850000Y-98575000D03*
X141725000Y-99325000D03*
X142300000Y-98800000D03*
X142575000Y-99325000D03*
X142400000Y-99850000D03*
X141750000Y-100225000D03*
X140250000Y-101100000D03*
X139475000Y-101225000D03*
X140025000Y-100275000D03*
X140250000Y-99375000D03*
X139475000Y-99250000D03*
X140100000Y-98475000D03*
X140350000Y-97600000D03*
X139775000Y-97325000D03*
X142575000Y-47650000D03*
X142250000Y-48400000D03*
X140700000Y-44575000D03*
X140450000Y-43700000D03*
X141650000Y-43675000D03*
X141650000Y-44625000D03*
X141825000Y-46025000D03*
X142525000Y-45725000D03*
X141800000Y-46900000D03*
X142000000Y-47650000D03*
X140775000Y-46550000D03*
X140675000Y-48825000D03*
X139650000Y-48875000D03*
X140250000Y-48275000D03*
X140250000Y-47450000D03*
X139725000Y-47800000D03*
X139700000Y-46825000D03*
X139700000Y-46225000D03*
X139700000Y-45525000D03*
X140400000Y-45050000D03*
X140400000Y-45975000D03*
X142475000Y-46525000D03*
X141975000Y-45400000D03*
X142050000Y-44125000D03*
X140000000Y-44375000D03*
X168525000Y-45400000D03*
X167650000Y-44800000D03*
X167425000Y-45475000D03*
X167675000Y-46550000D03*
X168925000Y-47025000D03*
X168575000Y-47575000D03*
X169150000Y-48575000D03*
X167700000Y-48175000D03*
X166375000Y-47025000D03*
X166350000Y-48700000D03*
X167125000Y-47550000D03*
X168425000Y-46275000D03*
X166450000Y-45300000D03*
X166725000Y-46025000D03*
X166850000Y-44600000D03*
X166225000Y-44325000D03*
X145300000Y-82825000D03*
X143750000Y-83025000D03*
X140200000Y-83850000D03*
X141200000Y-83175000D03*
X155675000Y-90425000D03*
%TO.N,*%
X162425000Y-81575000D03*
X161325000Y-82575000D03*
%TO.N,GND*%
X143500000Y-83750000D03*
X142425000Y-83750000D03*
X143200000Y-86425000D03*
X146525000Y-83900000D03*
X144925000Y-84000000D03*
X152500000Y-54200000D03*
X154700000Y-53625000D03*
X148625000Y-53350000D03*
X152250000Y-58775000D03*
X151850000Y-58275000D03*
X149925000Y-56350000D03*
X151275000Y-57350000D03*
X154100000Y-55925000D03*
X154875000Y-56000000D03*
%TO.N,*%
X161750000Y-71475000D03*
X161825000Y-69650000D03*
%TO.N,GND*%
X147250000Y-59775000D03*
%TO.N,*%
X160475000Y-66675000D03*
X161450000Y-67000000D03*
%TO.N,GND*%
X147725000Y-53975000D03*
X148125000Y-54775000D03*
X151225000Y-56000000D03*
X151900000Y-56250000D03*
X152350000Y-56950000D03*
X154325000Y-57950000D03*
X158950000Y-54475000D03*
X158650000Y-53850000D03*
X158100000Y-54525000D03*
X157725000Y-53675000D03*
X157450000Y-54525000D03*
X156650000Y-54125000D03*
X156400000Y-54975000D03*
X155700000Y-54700000D03*
X150725000Y-55050000D03*
X151425000Y-54350000D03*
X153050000Y-53525000D03*
X155825000Y-53875000D03*
X151825000Y-53725000D03*
X149425000Y-54175000D03*
X149825000Y-53575000D03*
X151475000Y-55175000D03*
X154250000Y-57200000D03*
X153600000Y-57525000D03*
X152925000Y-56875000D03*
X152800000Y-56100000D03*
X154800000Y-54900000D03*
X153050000Y-54925000D03*
X152050000Y-54875000D03*
X152475000Y-55425000D03*
X154375000Y-56500000D03*
X153575000Y-56550000D03*
X153375000Y-55600000D03*
X154400000Y-55400000D03*
X154875000Y-54325000D03*
X153950000Y-54025000D03*
X153825000Y-54950000D03*
X153350000Y-54100000D03*
X142050000Y-101025000D03*
X140350000Y-93775000D03*
%TO.N,/SDA*%
X166641988Y-77334035D03*
X165050000Y-76825000D03*
%TO.N,+3.3V*%
X167425000Y-74925000D03*
%TO.N,/SDA*%
X167950000Y-70400000D03*
X159425000Y-72975000D03*
%TO.N,VBUS*%
X146550000Y-80800000D03*
X141350000Y-78650000D03*
%TO.N,unconnected-(U6-NC-Pad14)*%
X157725000Y-69025000D03*
X151225000Y-68950000D03*
%TO.N,GND*%
X150625000Y-69675000D03*
%TO.N,/TX*%
X161325000Y-60050000D03*
X161150000Y-64675000D03*
X160525000Y-72850000D03*
X152150000Y-77150000D03*
%TO.N,GND*%
X137775000Y-72200000D03*
X133775000Y-76750000D03*
%TO.N,/27*%
X135850000Y-69375000D03*
X133800000Y-73875000D03*
X134250000Y-68250000D03*
X144250000Y-67300000D03*
%TO.N,/14*%
X144200000Y-68600000D03*
X138650000Y-68225000D03*
X133825000Y-71100000D03*
X140267719Y-67842719D03*
%TO.N,/12*%
X139975000Y-70525000D03*
X144050000Y-70175000D03*
%TO.N,/EN*%
X149750000Y-58500000D03*
X148200000Y-61550000D03*
X149475000Y-65475000D03*
X149525000Y-64400000D03*
X151100000Y-65725000D03*
X163900000Y-76075000D03*
X161175000Y-78700000D03*
%TO.N,/RX*%
X164400000Y-71600000D03*
X166655798Y-79305583D03*
X169200000Y-83025000D03*
X168137500Y-83162500D03*
%TO.N,Net-(J6-Pin_2)*%
X167700000Y-76675000D03*
X168550000Y-80250000D03*
%TO.N,/SCL*%
X168341812Y-74601325D03*
X168200000Y-66925000D03*
X164725000Y-66625000D03*
X166010115Y-64249676D03*
X165192719Y-63432281D03*
X164950000Y-60050000D03*
%TO.N,GND*%
X168125000Y-68625000D03*
X169375000Y-57000000D03*
%TO.N,+3.3V*%
X165889046Y-71703608D03*
X166350000Y-69525000D03*
X168108000Y-73044178D03*
%TO.N,Net-(U1-VOUT)*%
X148700000Y-78950000D03*
X151651500Y-77651500D03*
%TO.N,+3.3V*%
X148124997Y-80375003D03*
X150250000Y-79100000D03*
%TO.N,/TX*%
X161275000Y-57950000D03*
X164750000Y-57425000D03*
X166175000Y-58275000D03*
X167350000Y-65941000D03*
X167132590Y-70267412D03*
X168150000Y-65225000D03*
%TO.N,Net-(J4-Pin_2)*%
X164480219Y-74794781D03*
X166497478Y-72868546D03*
X164425000Y-70175000D03*
X145200000Y-74775000D03*
X144450000Y-76500000D03*
%TO.N,/Down*%
X138100000Y-76975000D03*
X138375000Y-69175000D03*
%TO.N,/TX*%
X152475000Y-90600000D03*
X152475001Y-82450001D03*
X158900000Y-90075000D03*
X160350000Y-91925000D03*
X166675000Y-93250000D03*
X168025006Y-91650000D03*
%TO.N,+3.3V*%
X161500000Y-66025000D03*
X164675000Y-64650000D03*
%TO.N,/RX*%
X166300000Y-65200000D03*
X167714490Y-69824308D03*
%TO.N,GND*%
X151000000Y-58500000D03*
X144425000Y-61175000D03*
%TO.N,/Up*%
X147250000Y-62550000D03*
X148275000Y-67950000D03*
X147525000Y-63725000D03*
X149225000Y-69600000D03*
X160425000Y-68225000D03*
X168025000Y-79125000D03*
X166275000Y-79800000D03*
X166800000Y-83650000D03*
%TO.N,+5V*%
X169148000Y-84725000D03*
X166200000Y-84100000D03*
%TO.N,/Up*%
X168163784Y-92708160D03*
X168150000Y-94109001D03*
%TO.N,GND*%
X147750000Y-72400000D03*
%TO.N,/SCL*%
X150275000Y-61425000D03*
X155600000Y-60075000D03*
X148067000Y-65900000D03*
X156587500Y-62087500D03*
%TO.N,/SDA*%
X155475000Y-61149998D03*
X148725000Y-65775000D03*
X150225000Y-62525000D03*
%TO.N,GND*%
X168350000Y-43875000D03*
X169650000Y-52700000D03*
%TO.N,/IO0*%
X166117000Y-55275000D03*
X167975000Y-56925000D03*
%TO.N,Net-(Q4-Pad3)*%
X140525000Y-62675000D03*
%TO.N,+3.3V*%
X140875000Y-61800000D03*
X142125000Y-63600000D03*
%TO.N,Net-(U6-VDD)*%
X152861123Y-72512324D03*
X155950000Y-72550000D03*
%TO.N,Net-(U5-VBUS)*%
X157850000Y-82725000D03*
%TO.N,Net-(U5-~{RST})*%
X158875000Y-80350000D03*
X160550000Y-82425000D03*
%TO.N,VBUS*%
X155525000Y-84050000D03*
X157208000Y-82125000D03*
X139900000Y-82675000D03*
X139825000Y-79900000D03*
%TO.N,+3.3V*%
X152275000Y-64950000D03*
X144050000Y-65325000D03*
%TO.N,Net-(Q1-D)*%
X143950000Y-87650000D03*
X144950000Y-86125000D03*
%TO.N,+3.3V*%
X146250000Y-86825000D03*
X144025000Y-91475000D03*
%TO.N,Net-(Q1-G)*%
X158700000Y-89400000D03*
X160002952Y-89722567D03*
%TO.N,/Mode*%
X141425000Y-51625000D03*
X150325000Y-57000000D03*
%TO.N,GND*%
X153675000Y-65125000D03*
X152250000Y-64125000D03*
%TO.N,/motor*%
X156600000Y-65125000D03*
X154916790Y-65019646D03*
X161750000Y-64100000D03*
%TO.N,+3.3V*%
X164950000Y-53775000D03*
X165275000Y-60750000D03*
%TO.N,/IO0*%
X167219936Y-53090503D03*
X168450000Y-52575000D03*
%TO.N,/Select*%
X149050000Y-55600000D03*
X167475000Y-51975000D03*
%TO.N,GND*%
X168700000Y-85651493D03*
%TO.N,+BATT*%
X162075000Y-91075000D03*
X161104000Y-88552926D03*
X158287093Y-88934818D03*
X147325000Y-87650000D03*
X150000000Y-89375000D03*
%TO.N,Net-(U3-~{STDBY})*%
X160892671Y-91176999D03*
%TO.N,Net-(U3-VCC)*%
X167574998Y-83808000D03*
%TO.N,+3.3V*%
X167804000Y-81475000D03*
X167075000Y-94075000D03*
%TO.N,GND*%
X169600000Y-93525000D03*
X169750000Y-96225000D03*
%TO.N,VBUS*%
X165225000Y-80375000D03*
X164350000Y-83500000D03*
%TO.N,/DTR*%
X158425000Y-84250000D03*
X153213055Y-82199798D03*
%TO.N,VBUS*%
X152050000Y-83800000D03*
X148825000Y-82375000D03*
%TO.N,/DTR*%
X166100000Y-83225000D03*
X166900000Y-77900000D03*
%TO.N,/IO0*%
X164575000Y-75675000D03*
X163125000Y-81525000D03*
%TO.N,+3.3V*%
X164600000Y-67975000D03*
X166690000Y-65767000D03*
%TO.N,/IO0*%
X165525000Y-62225000D03*
X161675000Y-68100000D03*
%TO.N,/SDA*%
X156075000Y-63950000D03*
%TO.N,/SCL*%
X159225000Y-58800000D03*
%TO.N,Net-(U4-VDD)*%
X139525000Y-55150000D03*
X139825000Y-53175000D03*
X143850000Y-56250000D03*
%TO.N,+3.3V*%
X139092000Y-55775000D03*
%TO.N,/EN*%
X143900000Y-59900000D03*
X143199996Y-61100000D03*
%TO.N,+3.3V*%
X141975000Y-53150000D03*
%TO.N,GND*%
X144147366Y-53113000D03*
X142475000Y-49225000D03*
X141700000Y-55450000D03*
X157950000Y-57425000D03*
%TO.N,/Buzz*%
X160500000Y-59750000D03*
%TO.N,GND*%
X159625000Y-57675000D03*
X152550000Y-66325000D03*
X157675000Y-65875000D03*
%TO.N,+3.3V*%
X158425000Y-64475000D03*
X151532716Y-67882334D03*
%TO.N,/ADC_Batt*%
X139350000Y-68100000D03*
X143100000Y-87750000D03*
%TO.N,GND*%
X141250000Y-90575000D03*
%TO.N,+BATT*%
X141100000Y-87025000D03*
%TO.N,GND*%
X140475000Y-93075000D03*
X140275000Y-96550000D03*
%TO.N,/D+*%
X153500000Y-88100000D03*
X155150000Y-83450000D03*
%TO.N,GND*%
X165300000Y-90675000D03*
%TO.N,Net-(Q1-D)*%
X151350000Y-90450000D03*
X148775000Y-90850000D03*
X160750000Y-85099968D03*
X146375000Y-89650000D03*
%TO.N,Net-(U3-PROG)*%
X165950000Y-86250000D03*
%TO.N,Net-(U3-~{CHRG})*%
X161020998Y-87780346D03*
%TO.N,+5V*%
X164325000Y-86025000D03*
X161074197Y-84435268D03*
%TD*%
D31*
%TO.N,GND*%
X142050000Y-96525000D02*
X142050000Y-97050000D01*
X142050000Y-97550000D02*
X142050000Y-97675000D01*
X142300000Y-97300000D02*
X142050000Y-97550000D01*
X142050000Y-97050000D02*
X142300000Y-97300000D01*
X142050000Y-98175000D02*
X142050000Y-98550000D01*
X141800000Y-97925000D02*
X142050000Y-98175000D01*
X142050000Y-97675000D02*
X141800000Y-97925000D01*
X141850000Y-98575000D02*
X142300000Y-98800000D01*
X142050000Y-99050000D02*
X142050000Y-99925000D01*
X142300000Y-98800000D02*
X142050000Y-99050000D01*
X142050000Y-98550000D02*
X141850000Y-98575000D01*
X142050000Y-100525000D02*
X142050000Y-101025000D01*
X141750000Y-100225000D02*
X142050000Y-100525000D01*
X142050000Y-99925000D02*
X141750000Y-100225000D01*
%TO.N,/TX*%
X160350000Y-90775000D02*
X160350000Y-91925000D01*
X159650000Y-90075000D02*
X160350000Y-90775000D01*
X158900000Y-90075000D02*
X159650000Y-90075000D01*
%TO.N,GND*%
X165300000Y-90675000D02*
X163525000Y-92450000D01*
X163525000Y-92450000D02*
X160084000Y-92450000D01*
X160084000Y-92450000D02*
X159133000Y-91499000D01*
X142050000Y-94300000D02*
X142050000Y-96525000D01*
X141525000Y-93775000D02*
X141850000Y-94100000D01*
X140350000Y-93775000D02*
X141525000Y-93775000D01*
X141850000Y-94100000D02*
X142050000Y-94300000D01*
%TO.N,/SDA*%
X149717000Y-71171919D02*
X149717000Y-68881562D01*
%TO.N,/Up*%
X149225000Y-68900000D02*
X149225000Y-69600000D01*
X148275000Y-67950000D02*
X149225000Y-68900000D01*
%TO.N,/SDA*%
X152273000Y-74930000D02*
X152273000Y-73727919D01*
X149717000Y-68881562D02*
X148792000Y-67956562D01*
X148792000Y-67956562D02*
X148792000Y-65842000D01*
X148792000Y-65842000D02*
X148725000Y-65775000D01*
X152273000Y-73727919D02*
X149717000Y-71171919D01*
%TO.N,/DTR*%
X167425000Y-79196819D02*
X167425000Y-78425000D01*
X167425000Y-78425000D02*
X166900000Y-77900000D01*
X166100000Y-83225000D02*
X167025000Y-82300000D01*
%TO.N,/SDA*%
X166550000Y-74200000D02*
X166875000Y-74525000D01*
X166875000Y-74525000D02*
X166875000Y-77101023D01*
X166875000Y-77101023D02*
X166641988Y-77334035D01*
%TO.N,/DTR*%
X167025000Y-79596819D02*
X167425000Y-79196819D01*
X167025000Y-82300000D02*
X167025000Y-79596819D01*
%TO.N,/RX*%
X166008000Y-78657785D02*
X166655798Y-79305583D01*
X166008000Y-73208000D02*
X166008000Y-78657785D01*
X164400000Y-71600000D02*
X166008000Y-73208000D01*
%TO.N,Net-(J4-Pin_2)*%
X164319781Y-74794781D02*
X164480219Y-74794781D01*
%TO.N,/EN*%
X161750000Y-78700000D02*
X163900000Y-76550000D01*
X163900000Y-76550000D02*
X163900000Y-76075000D01*
X161175000Y-78700000D02*
X161750000Y-78700000D01*
%TO.N,Net-(J4-Pin_2)*%
X144450000Y-76500000D02*
X144633000Y-76683000D01*
X162431562Y-76683000D02*
X164319781Y-74794781D01*
X144633000Y-76683000D02*
X162431562Y-76683000D01*
%TO.N,/IO0*%
X163125000Y-81525000D02*
X164575000Y-80075000D01*
X164575000Y-80075000D02*
X164575000Y-75675000D01*
%TO.N,/SDA*%
X165075000Y-76850000D02*
X165050000Y-76825000D01*
X165050000Y-76800000D02*
X165050000Y-76825000D01*
%TO.N,/Up*%
X160425000Y-68225000D02*
X160425000Y-69225000D01*
X160425000Y-69225000D02*
X165625000Y-74425000D01*
X165625000Y-74425000D02*
X165625000Y-79150000D01*
X165625000Y-79150000D02*
X166275000Y-79800000D01*
%TO.N,+3.3V*%
X167425000Y-74925000D02*
X169600000Y-77100000D01*
X169600000Y-80125000D02*
X168250000Y-81475000D01*
X169600000Y-77100000D02*
X169600000Y-80125000D01*
X168250000Y-81475000D02*
X167804000Y-81475000D01*
%TO.N,/SCL*%
X167658000Y-69058000D02*
X167658000Y-67467000D01*
X168341812Y-74601325D02*
X169200000Y-73743137D01*
X169200000Y-73743137D02*
X169200000Y-70600000D01*
X169200000Y-70600000D02*
X167658000Y-69058000D01*
X167658000Y-67467000D02*
X168200000Y-66925000D01*
%TO.N,/SDA*%
X164025000Y-73475000D02*
X165050000Y-74500000D01*
X165050000Y-74500000D02*
X165050000Y-76800000D01*
X160275000Y-73475000D02*
X164025000Y-73475000D01*
X159425000Y-72975000D02*
X159775000Y-72975000D01*
X159775000Y-72975000D02*
X160275000Y-73475000D01*
%TO.N,+3.3V*%
X168108000Y-73044178D02*
X168250000Y-72902178D01*
X168250000Y-72902178D02*
X168250000Y-72075000D01*
X168250000Y-72075000D02*
X166350000Y-70175000D01*
%TO.N,/SDA*%
X167175000Y-73825000D02*
X166925000Y-73825000D01*
X166925000Y-73825000D02*
X166550000Y-74200000D01*
%TO.N,Net-(J6-Pin_2)*%
X168700000Y-80100000D02*
X168700000Y-77675000D01*
X168550000Y-80250000D02*
X168700000Y-80100000D01*
X168700000Y-77675000D02*
X167700000Y-76675000D01*
%TO.N,/SDA*%
X168050000Y-73825000D02*
X167175000Y-73825000D01*
X168575000Y-73300000D02*
X168050000Y-73825000D01*
%TO.N,Net-(J4-Pin_2)*%
X164942000Y-70692000D02*
X164942000Y-71417000D01*
X166393546Y-72868546D02*
X166497478Y-72868546D01*
X164942000Y-71417000D02*
X166393546Y-72868546D01*
X164425000Y-70175000D02*
X164942000Y-70692000D01*
%TO.N,/RX*%
X167346000Y-67118562D02*
X167346000Y-69455818D01*
X167825000Y-66639562D02*
X167346000Y-67118562D01*
%TO.N,/SDA*%
X167950000Y-71000000D02*
X168575000Y-71625000D01*
%TO.N,/RX*%
X167825000Y-65560438D02*
X167825000Y-66639562D01*
X166300000Y-65200000D02*
X167464562Y-65200000D01*
X167346000Y-69455818D02*
X167714490Y-69824308D01*
X167464562Y-65200000D02*
X167825000Y-65560438D01*
%TO.N,/SDA*%
X167950000Y-70400000D02*
X167950000Y-71000000D01*
X168575000Y-71625000D02*
X168575000Y-73300000D01*
%TO.N,Net-(U6-REGOUT)*%
X159025000Y-66675000D02*
X159025000Y-72375000D01*
X159025000Y-72375000D02*
X158375000Y-73025000D01*
X158375000Y-73025000D02*
X154914000Y-73025000D01*
X154914000Y-73025000D02*
X154457000Y-72568000D01*
X154457000Y-72568000D02*
X154457000Y-70883000D01*
X154457000Y-70883000D02*
X154374000Y-70800000D01*
%TO.N,GND*%
X148475000Y-76225000D02*
X161138000Y-76225000D01*
X161138000Y-76225000D02*
X162433000Y-74930000D01*
%TO.N,VBUS*%
X146550000Y-80800000D02*
X143500000Y-80800000D01*
X143500000Y-80800000D02*
X141350000Y-78650000D01*
D32*
%TO.N,unconnected-(U6-NC-Pad14)*%
X152654000Y-69080000D02*
X151355000Y-69080000D01*
X151355000Y-69080000D02*
X151225000Y-68950000D01*
D31*
%TO.N,+3.3V*%
X151440050Y-67975000D02*
X151532716Y-67882334D01*
X150675000Y-67975000D02*
X151440050Y-67975000D01*
%TO.N,GND*%
X153955000Y-72075000D02*
X153955000Y-72394999D01*
%TO.N,Net-(U6-VDD)*%
X151092000Y-69556562D02*
X151615438Y-70080000D01*
X151615438Y-70080000D02*
X152654000Y-70080000D01*
X149655000Y-68044562D02*
X151092000Y-69481562D01*
%TO.N,GND*%
X150625000Y-71425000D02*
X150625000Y-69675000D01*
X152450000Y-73250000D02*
X150625000Y-71425000D01*
%TO.N,Net-(U6-VDD)*%
X151092000Y-69481562D02*
X151092000Y-69556562D01*
%TO.N,GND*%
X153099999Y-73250000D02*
X152450000Y-73250000D01*
%TO.N,Net-(U6-VDD)*%
X149655000Y-67975000D02*
X149655000Y-68044562D01*
%TO.N,GND*%
X153955000Y-72394999D02*
X153099999Y-73250000D01*
D32*
%TO.N,unconnected-(U6-NC-Pad14)*%
X156594000Y-68080000D02*
X156780000Y-68080000D01*
X156780000Y-68080000D02*
X157725000Y-69025000D01*
D31*
%TO.N,GND*%
X157880000Y-72050000D02*
X158250000Y-71680000D01*
X158250000Y-71680000D02*
X158250000Y-66860000D01*
X158250000Y-66860000D02*
X158065000Y-66675000D01*
D32*
%TO.N,unconnected-(U6-NC-Pad14)*%
X152654000Y-68580000D02*
X152654000Y-68080000D01*
X152654000Y-69080000D02*
X152654000Y-68580000D01*
X152654000Y-69580000D02*
X152654000Y-69080000D01*
X156594000Y-69580000D02*
X156594000Y-69080000D01*
X156594000Y-68080000D02*
X156594000Y-68580000D01*
X156594000Y-69080000D02*
X156594000Y-68580000D01*
D31*
%TO.N,Net-(U6-VDD)*%
X152654000Y-72305201D02*
X152861123Y-72512324D01*
X152654000Y-70080000D02*
X152654000Y-72305201D01*
%TO.N,/IO0*%
X165738000Y-62438000D02*
X165525000Y-62225000D01*
%TO.N,/TX*%
X166175000Y-63800000D02*
X166050000Y-63675000D01*
X166050000Y-58400000D02*
X166175000Y-58275000D01*
%TO.N,/IO0*%
X165738000Y-63751562D02*
X165738000Y-62438000D01*
X165275000Y-64214562D02*
X165738000Y-63751562D01*
X165275000Y-65025000D02*
X165275000Y-64214562D01*
X161675000Y-68100000D02*
X162200000Y-68100000D01*
X162200000Y-68100000D02*
X165275000Y-65025000D01*
%TO.N,/TX*%
X166050000Y-63675000D02*
X166050000Y-58400000D01*
X168150000Y-65225000D02*
X168150000Y-64675000D01*
X168150000Y-64675000D02*
X167275000Y-63800000D01*
X167275000Y-63800000D02*
X166175000Y-63800000D01*
%TO.N,Net-(U6-VDD)*%
X156920000Y-72050000D02*
X156450000Y-72050000D01*
X156450000Y-72050000D02*
X155950000Y-72550000D01*
%TO.N,/TX*%
X161325000Y-60050000D02*
X161325000Y-58000000D01*
X160607281Y-65092719D02*
X161025000Y-64675000D01*
X161025000Y-64675000D02*
X161150000Y-64675000D01*
X161325000Y-60075000D02*
X161325000Y-60050000D01*
X161325000Y-58000000D02*
X161275000Y-57950000D01*
%TO.N,+3.3V*%
X164675000Y-64650000D02*
X163300000Y-66025000D01*
X163300000Y-66025000D02*
X161500000Y-66025000D01*
%TO.N,/TX*%
X160525000Y-72850000D02*
X159700000Y-72025000D01*
X159700000Y-72025000D02*
X159700000Y-66000000D01*
X159700000Y-66000000D02*
X160607281Y-65092719D01*
%TO.N,/motor*%
X156600000Y-65125000D02*
X158975000Y-65125000D01*
X158975000Y-65125000D02*
X160000000Y-64100000D01*
X160000000Y-64100000D02*
X161750000Y-64100000D01*
%TO.N,/TX*%
X152475001Y-77475001D02*
X152150000Y-77150000D01*
X152475001Y-82450001D02*
X152475001Y-77475001D01*
%TO.N,Net-(U1-VOUT)*%
X149998500Y-77651500D02*
X151651500Y-77651500D01*
X148700000Y-78950000D02*
X149998500Y-77651500D01*
%TO.N,+3.3V*%
X152225000Y-65000000D02*
X146875000Y-65000000D01*
X146875000Y-65000000D02*
X144375000Y-65000000D01*
X146525000Y-71475000D02*
X146875000Y-71125000D01*
X146875000Y-71125000D02*
X146875000Y-65000000D01*
X147193000Y-74930000D02*
X147193000Y-72143000D01*
X147193000Y-72143000D02*
X146525000Y-71475000D01*
%TO.N,GND*%
X137775000Y-76300000D02*
X137325000Y-76750000D01*
X137325000Y-76750000D02*
X133775000Y-76750000D01*
X137775000Y-72200000D02*
X137775000Y-76300000D01*
%TO.N,/Down*%
X138100000Y-76975000D02*
X138625000Y-76450000D01*
X138625000Y-76450000D02*
X138625000Y-69425000D01*
X138625000Y-69425000D02*
X138375000Y-69175000D01*
%TO.N,/14*%
X138650000Y-68225000D02*
X135575000Y-68225000D01*
X135575000Y-68225000D02*
X133825000Y-69975000D01*
X133825000Y-69975000D02*
X133825000Y-71100000D01*
%TO.N,/27*%
X135850000Y-69375000D02*
X135525000Y-69375000D01*
X135525000Y-69375000D02*
X134292000Y-70608000D01*
X134292000Y-70608000D02*
X134292000Y-73383000D01*
X134292000Y-73383000D02*
X133800000Y-73875000D01*
X135200000Y-67300000D02*
X134250000Y-68250000D01*
X144250000Y-67300000D02*
X135200000Y-67300000D01*
%TO.N,/14*%
X140310438Y-67800000D02*
X140267719Y-67842719D01*
X143400000Y-67800000D02*
X140310438Y-67800000D01*
X144200000Y-68600000D02*
X143400000Y-67800000D01*
%TO.N,/ADC_Batt*%
X143100000Y-87750000D02*
X139349999Y-83999999D01*
X139349999Y-83999999D02*
X139350000Y-68100000D01*
%TO.N,/12*%
X144050000Y-70175000D02*
X143863000Y-70362000D01*
X140138000Y-70362000D02*
X139975000Y-70525000D01*
X143863000Y-70362000D02*
X140138000Y-70362000D01*
%TO.N,/EN*%
X149750000Y-58500000D02*
X145300000Y-58500000D01*
X145300000Y-58500000D02*
X143900000Y-59900000D01*
X149400000Y-64400000D02*
X148850000Y-63850000D01*
X149525000Y-64400000D02*
X149400000Y-64400000D01*
X148850000Y-63850000D02*
X148200000Y-63200000D01*
X148200000Y-63200000D02*
X148200000Y-61550000D01*
%TO.N,/motor*%
X144200000Y-63525000D02*
X145100000Y-63525000D01*
X151375000Y-63475000D02*
X153372144Y-63475000D01*
X153372144Y-63475000D02*
X154916790Y-65019646D01*
X145100000Y-63525000D02*
X147800000Y-60825000D01*
X147800000Y-60825000D02*
X149750000Y-60825000D01*
X149750000Y-60825000D02*
X149750000Y-63700000D01*
X141550000Y-66175000D02*
X144200000Y-63525000D01*
X149750000Y-63700000D02*
X149950000Y-63900000D01*
X149950000Y-63900000D02*
X150950000Y-63900000D01*
X150950000Y-63900000D02*
X151375000Y-63475000D01*
%TO.N,/EN*%
X150350000Y-65725000D02*
X149725000Y-65725000D01*
X149725000Y-65725000D02*
X149475000Y-65475000D01*
%TO.N,+3.3V*%
X152275000Y-64950000D02*
X152225000Y-65000000D01*
X144375000Y-65000000D02*
X144050000Y-65325000D01*
%TO.N,/EN*%
X151100000Y-65725000D02*
X150350000Y-65725000D01*
%TO.N,GND*%
X152654000Y-66429000D02*
X152550000Y-66325000D01*
X152654000Y-67580000D02*
X152654000Y-66429000D01*
%TO.N,Net-(U6-CPOUT)*%
X153874000Y-66860000D02*
X153874000Y-66305000D01*
X153069000Y-65500000D02*
X152350000Y-65500000D01*
X153874000Y-66305000D02*
X153069000Y-65500000D01*
X152350000Y-65500000D02*
X151175000Y-66675000D01*
X151175000Y-66675000D02*
X150625000Y-66675000D01*
%TO.N,/Up*%
X147250000Y-62550000D02*
X147525000Y-62825000D01*
%TO.N,/SCL*%
X149733000Y-74930000D02*
X149733000Y-72033000D01*
X149733000Y-72033000D02*
X147450000Y-69750000D01*
X147450000Y-69750000D02*
X147450000Y-66517000D01*
%TO.N,/Up*%
X147525000Y-62825000D02*
X147525000Y-63725000D01*
%TO.N,/SCL*%
X147450000Y-66517000D02*
X148067000Y-65900000D01*
%TO.N,+3.3V*%
X166350000Y-70175000D02*
X165889046Y-70635954D01*
X165889046Y-70635954D02*
X165889046Y-71703608D01*
X168764242Y-90792000D02*
X169927000Y-89629242D01*
%TO.N,/Up*%
X167337000Y-80538000D02*
X168025000Y-79850000D01*
%TO.N,+3.3V*%
X169927000Y-89629242D02*
X169927000Y-82852000D01*
X167358000Y-90792000D02*
X168764242Y-90792000D01*
%TO.N,/Up*%
X168025000Y-79850000D02*
X168025000Y-79125000D01*
%TO.N,+3.3V*%
X168550000Y-81475000D02*
X167804000Y-81475000D01*
X166300000Y-94075000D02*
X165675000Y-93450000D01*
X167075000Y-94075000D02*
X166300000Y-94075000D01*
X169927000Y-82852000D02*
X168550000Y-81475000D01*
X165675000Y-92475000D02*
X167358000Y-90792000D01*
%TO.N,/Up*%
X167275000Y-82491234D02*
X167337000Y-82429234D01*
X167275000Y-83175000D02*
X167275000Y-82491234D01*
X166800000Y-83650000D02*
X167275000Y-83175000D01*
X167337000Y-82429234D02*
X167337000Y-80538000D01*
%TO.N,+3.3V*%
X165675000Y-93450000D02*
X165675000Y-92475000D01*
%TO.N,VBUS*%
X165225000Y-82625000D02*
X165225000Y-80375000D01*
X164350000Y-83500000D02*
X165225000Y-82625000D01*
%TO.N,/RX*%
X168137500Y-83162500D02*
X169062500Y-83162500D01*
X169062500Y-83162500D02*
X169200000Y-83025000D01*
%TO.N,Net-(U3-VCC)*%
X167725000Y-90260000D02*
X168709999Y-90260000D01*
X168709999Y-90260000D02*
X169615000Y-89354999D01*
X169615000Y-89354999D02*
X169615000Y-84365000D01*
X169615000Y-84365000D02*
X169058000Y-83808000D01*
X169058000Y-83808000D02*
X167574998Y-83808000D01*
%TO.N,GND*%
X165250000Y-88355000D02*
X165250000Y-85925000D01*
X168623507Y-85575000D02*
X168700000Y-85651493D01*
X165600000Y-85575000D02*
X168623507Y-85575000D01*
X165250000Y-85925000D02*
X165600000Y-85575000D01*
%TO.N,+5V*%
X166200000Y-84100000D02*
X166825000Y-84725000D01*
X166825000Y-84725000D02*
X169148000Y-84725000D01*
%TO.N,/TX*%
X166883000Y-70017822D02*
X167132590Y-70267412D01*
X166883000Y-66408000D02*
X166883000Y-70017822D01*
X167350000Y-65941000D02*
X166883000Y-66408000D01*
%TO.N,GND*%
X169375000Y-67375000D02*
X168125000Y-68625000D01*
X169375000Y-57000000D02*
X169375000Y-67375000D01*
%TO.N,+3.3V*%
X165858000Y-66606562D02*
X166690000Y-65774562D01*
X164600000Y-67975000D02*
X165858000Y-66717000D01*
X166690000Y-65774562D02*
X166690000Y-65767000D01*
X165858000Y-66717000D02*
X165858000Y-66606562D01*
%TO.N,/SCL*%
X166010115Y-64249676D02*
X166010115Y-64714885D01*
X165475000Y-65925000D02*
X164775000Y-66625000D01*
X165675000Y-65050000D02*
X165675000Y-65725000D01*
X166010115Y-64714885D02*
X165675000Y-65050000D01*
X165675000Y-65725000D02*
X165475000Y-65925000D01*
X164775000Y-66625000D02*
X164725000Y-66625000D01*
X164950000Y-60325000D02*
X164600000Y-60675000D01*
X164950000Y-60050000D02*
X164950000Y-60325000D01*
X164600000Y-62839562D02*
X165192719Y-63432281D01*
X164600000Y-60675000D02*
X164600000Y-62839562D01*
%TO.N,/IO0*%
X167975000Y-56925000D02*
X166761000Y-56925000D01*
%TO.N,+3.3V*%
X164950000Y-53775000D02*
X165650000Y-54475000D01*
X165650000Y-60375000D02*
X165275000Y-60750000D01*
%TO.N,/IO0*%
X166761000Y-56925000D02*
X166117000Y-56281000D01*
X166117000Y-56281000D02*
X166117000Y-55275000D01*
%TO.N,+3.3V*%
X165650000Y-54475000D02*
X165650000Y-60375000D01*
%TO.N,/TX*%
X161800000Y-57425000D02*
X164750000Y-57425000D01*
X161275000Y-57950000D02*
X161800000Y-57425000D01*
%TO.N,+3.3V*%
X166350000Y-70175000D02*
X166350000Y-69525000D01*
X150250000Y-79100000D02*
X148974997Y-80375003D01*
X148974997Y-80375003D02*
X148124997Y-80375003D01*
%TO.N,Net-(J4-Pin_2)*%
X144785000Y-74360000D02*
X145200000Y-74775000D01*
X141850000Y-74360000D02*
X144785000Y-74360000D01*
%TO.N,GND*%
X142880985Y-75869015D02*
X141850000Y-76900000D01*
X145763408Y-76225000D02*
X145407423Y-75869015D01*
X148475000Y-76225000D02*
X145763408Y-76225000D01*
X145407423Y-75869015D02*
X142880985Y-75869015D01*
%TO.N,Net-(Q1-D)*%
X160750000Y-85099968D02*
X159200032Y-85099968D01*
X159200032Y-85099968D02*
X152900000Y-91400000D01*
X152300000Y-91400000D02*
X151350000Y-90450000D01*
X152900000Y-91400000D02*
X152300000Y-91400000D01*
%TO.N,GND*%
X150493000Y-91499000D02*
X150919000Y-91925000D01*
X158707000Y-91925000D02*
X159133000Y-91499000D01*
X150919000Y-91925000D02*
X158707000Y-91925000D01*
%TO.N,/TX*%
X152746055Y-90328945D02*
X152746055Y-82721055D01*
X152475000Y-90600000D02*
X152746055Y-90328945D01*
X152746055Y-82721055D02*
X152475001Y-82450001D01*
%TO.N,Net-(Q1-G)*%
X159680385Y-89400000D02*
X158700000Y-89400000D01*
X160002952Y-89722567D02*
X159680385Y-89400000D01*
%TO.N,GND*%
X159133000Y-87319000D02*
X157820093Y-88631907D01*
%TO.N,+BATT*%
X158288911Y-88933000D02*
X158287093Y-88934818D01*
%TO.N,GND*%
X157820093Y-90186093D02*
X159133000Y-91499000D01*
%TO.N,+BATT*%
X160723926Y-88933000D02*
X158288911Y-88933000D01*
X161104000Y-88552926D02*
X160723926Y-88933000D01*
%TO.N,GND*%
X157820093Y-88631907D02*
X157820093Y-90186093D01*
%TO.N,Net-(U3-~{STDBY})*%
X160892671Y-89707329D02*
X161610000Y-88990000D01*
X160892671Y-91176999D02*
X160892671Y-89707329D01*
X161610000Y-88990000D02*
X162775000Y-88990000D01*
%TO.N,/Up*%
X168163784Y-92708160D02*
X168150000Y-92721944D01*
X168150000Y-92721944D02*
X168150000Y-94109001D01*
%TO.N,/TX*%
X168025006Y-91650000D02*
X168025006Y-91899994D01*
X168025006Y-91899994D02*
X166675000Y-93250000D01*
%TO.N,GND*%
X150050000Y-59450000D02*
X151000000Y-58500000D01*
X146300000Y-59450000D02*
X150050000Y-59450000D01*
X144575000Y-61175000D02*
X146300000Y-59450000D01*
X144425000Y-61175000D02*
X144575000Y-61175000D01*
%TO.N,/EN*%
X143900000Y-60399996D02*
X143199996Y-61100000D01*
X143900000Y-59900000D02*
X143900000Y-60399996D01*
%TO.N,Net-(U3-PROG)*%
X166150000Y-86450000D02*
X167725000Y-86450000D01*
X165950000Y-86250000D02*
X166150000Y-86450000D01*
%TO.N,/Mode*%
X148925000Y-57000000D02*
X150325000Y-57000000D01*
X143538000Y-53738000D02*
X145663000Y-53738000D01*
X141425000Y-51625000D02*
X143538000Y-53738000D01*
X145663000Y-53738000D02*
X148925000Y-57000000D01*
%TO.N,GND*%
X148475000Y-73850000D02*
X148475000Y-76225000D01*
X148525000Y-73800000D02*
X148475000Y-73850000D01*
X147750000Y-72400000D02*
X147750000Y-73025000D01*
X147750000Y-73025000D02*
X148525000Y-73800000D01*
%TO.N,/SCL*%
X150275000Y-61425000D02*
X154250000Y-61425000D01*
X154250000Y-61425000D02*
X155600000Y-60075000D01*
%TO.N,/SDA*%
X154099998Y-62525000D02*
X155475000Y-61149998D01*
X150225000Y-62525000D02*
X154099998Y-62525000D01*
%TO.N,GND*%
X169650000Y-52700000D02*
X169650000Y-45175000D01*
X169650000Y-45175000D02*
X168350000Y-43875000D01*
%TO.N,/IO0*%
X167219936Y-53090503D02*
X167934497Y-53090503D01*
X167934497Y-53090503D02*
X168450000Y-52575000D01*
%TO.N,Net-(Q4-Pad3)*%
X140525000Y-62675000D02*
X140525000Y-63900000D01*
X140525000Y-63900000D02*
X140600000Y-63975000D01*
%TO.N,+3.3V*%
X140875000Y-61775000D02*
X140925000Y-61825000D01*
X140875000Y-61800000D02*
X140875000Y-61775000D01*
X140900000Y-61800000D02*
X140875000Y-61800000D01*
%TO.N,Net-(M1-+)*%
X139650000Y-66175000D02*
X139650000Y-63475000D01*
X139650000Y-63475000D02*
X139325000Y-63150000D01*
X139325000Y-63150000D02*
X140025000Y-62450000D01*
X140025000Y-59750000D02*
X140450000Y-59325000D01*
X140025000Y-62450000D02*
X140025000Y-59750000D01*
%TO.N,+3.3V*%
X142125000Y-63600000D02*
X142125000Y-63025000D01*
X142125000Y-63025000D02*
X140900000Y-61800000D01*
%TO.N,Net-(U6-VDD)*%
X155374000Y-70800000D02*
X155374000Y-71524000D01*
X155374000Y-71524000D02*
X155875000Y-72025000D01*
X155950000Y-72100000D02*
X155950000Y-72550000D01*
X155875000Y-72025000D02*
X155950000Y-72100000D01*
%TO.N,Net-(U5-VBUS)*%
X159055000Y-83500000D02*
X158625000Y-83500000D01*
X158625000Y-83500000D02*
X157850000Y-82725000D01*
%TO.N,VBUS*%
X158700000Y-82125000D02*
X157208000Y-82125000D01*
X160075000Y-83500000D02*
X158700000Y-82125000D01*
%TO.N,Net-(U5-~{RST})*%
X160550000Y-81475000D02*
X159425000Y-80350000D01*
X160550000Y-82425000D02*
X160550000Y-81475000D01*
X159425000Y-80350000D02*
X158875000Y-80350000D01*
%TO.N,VBUS*%
X160075000Y-83500000D02*
X160075000Y-83825000D01*
X156200000Y-84725000D02*
X155525000Y-84050000D01*
X160075000Y-83825000D02*
X159175000Y-84725000D01*
X159175000Y-84725000D02*
X156200000Y-84725000D01*
%TO.N,/D+*%
X153500000Y-85100000D02*
X155150000Y-83450000D01*
X153500000Y-88100000D02*
X153500000Y-85100000D01*
%TO.N,VBUS*%
X139900000Y-79975000D02*
X139825000Y-79900000D01*
X139900000Y-82675000D02*
X139900000Y-79975000D01*
%TO.N,Net-(Q1-D)*%
X143950000Y-87125000D02*
X144950000Y-86125000D01*
X143950000Y-87650000D02*
X143950000Y-87125000D01*
%TO.N,+3.3V*%
X144850000Y-88225000D02*
X144850000Y-90250000D01*
X146250000Y-86825000D02*
X144850000Y-88225000D01*
X144850000Y-90250000D02*
X144850000Y-90650000D01*
X144850000Y-90650000D02*
X144025000Y-91475000D01*
%TO.N,VBUS*%
X152050000Y-83800000D02*
X150250000Y-83800000D01*
X150250000Y-83800000D02*
X148825000Y-82375000D01*
%TO.N,+BATT*%
X147325000Y-87650000D02*
X148925000Y-87650000D01*
X148925000Y-87650000D02*
X150000000Y-88725000D01*
X150000000Y-88725000D02*
X150000000Y-89375000D01*
%TO.N,Net-(Q1-D)*%
X146375000Y-89650000D02*
X147575000Y-89650000D01*
X147575000Y-89650000D02*
X148775000Y-90850000D01*
%TO.N,GND*%
X144147366Y-53113000D02*
X143388000Y-53113000D01*
X142475000Y-52200000D02*
X142475000Y-49225000D01*
X143388000Y-53113000D02*
X142475000Y-52200000D01*
%TO.N,+3.3V*%
X141975000Y-53150000D02*
X143065000Y-54240000D01*
X143065000Y-54240000D02*
X143775000Y-54240000D01*
%TO.N,/DTR*%
X156374798Y-82199798D02*
X158425000Y-84250000D01*
X153213055Y-82199798D02*
X156374798Y-82199798D01*
%TO.N,GND*%
X152250000Y-64125000D02*
X152725000Y-64125000D01*
X152725000Y-64125000D02*
X153675000Y-65075000D01*
X153675000Y-65075000D02*
X153675000Y-65125000D01*
%TO.N,/SCL*%
X155374000Y-66860000D02*
X155383790Y-66850210D01*
X155383790Y-66850210D02*
X155383790Y-63291210D01*
X159225000Y-59450000D02*
X159225000Y-58800000D01*
X155383790Y-63291210D02*
X159225000Y-59450000D01*
%TO.N,/Select*%
X166400000Y-53050000D02*
X167475000Y-51975000D01*
X149050000Y-55600000D02*
X151600000Y-53050000D01*
X151600000Y-53050000D02*
X166400000Y-53050000D01*
%TO.N,+5V*%
X162775000Y-86450000D02*
X163900000Y-86450000D01*
X163900000Y-86450000D02*
X164325000Y-86025000D01*
%TO.N,Net-(U3-~{CHRG})*%
X161081344Y-87720000D02*
X161020998Y-87780346D01*
X162775000Y-87720000D02*
X161081344Y-87720000D01*
%TO.N,+BATT*%
X162075000Y-91075000D02*
X162125000Y-91025000D01*
X162125000Y-91025000D02*
X163300000Y-91025000D01*
X163300000Y-91025000D02*
X163300000Y-90785000D01*
X163300000Y-90785000D02*
X162775000Y-90260000D01*
%TO.N,GND*%
X169750000Y-96225000D02*
X169900000Y-96075000D01*
X169900000Y-96075000D02*
X169900000Y-93825000D01*
X169900000Y-93825000D02*
X169600000Y-93525000D01*
%TO.N,VBUS*%
X160075000Y-83500000D02*
X164350000Y-83500000D01*
%TO.N,/SDA*%
X156075000Y-63950000D02*
X155874000Y-64151000D01*
X155874000Y-64151000D02*
X155874000Y-66860000D01*
%TO.N,Net-(U4-VDD)*%
X139525000Y-53475000D02*
X139825000Y-53175000D01*
X139525000Y-55150000D02*
X139525000Y-53475000D01*
%TO.N,+3.3V*%
X140150000Y-55775000D02*
X141975000Y-53950000D01*
X139092000Y-55775000D02*
X140150000Y-55775000D01*
X141975000Y-53950000D02*
X141975000Y-53150000D01*
%TO.N,GND*%
X141700000Y-55825000D02*
X141700000Y-55450000D01*
X140450000Y-57075000D02*
X141700000Y-55825000D01*
%TO.N,Net-(U4-VDD)*%
X143850000Y-56250000D02*
X143850000Y-55335000D01*
X143850000Y-55335000D02*
X143775000Y-55260000D01*
%TO.N,GND*%
X158075000Y-58225000D02*
X158075000Y-57550000D01*
X158075000Y-57550000D02*
X157950000Y-57425000D01*
%TO.N,/Buzz*%
X158725000Y-56975000D02*
X159200000Y-56975000D01*
X160475000Y-59725000D02*
X160500000Y-59750000D01*
X159900000Y-56975000D02*
X160475000Y-57550000D01*
X160475000Y-57550000D02*
X160475000Y-59725000D01*
X158075000Y-56325000D02*
X158725000Y-56975000D01*
X159200000Y-56975000D02*
X159900000Y-56975000D01*
%TO.N,Net-(Q5-C)*%
X160850000Y-55050000D02*
X157525000Y-55050000D01*
X157525000Y-55050000D02*
X156200000Y-56375000D01*
X156200000Y-56375000D02*
X156200000Y-57275000D01*
%TO.N,GND*%
X158075000Y-58225000D02*
X159075000Y-58225000D01*
X159075000Y-58225000D02*
X159625000Y-57675000D01*
%TO.N,Net-(Q5-C)*%
X157875000Y-59925000D02*
X156200000Y-58250000D01*
X156200000Y-58250000D02*
X156200000Y-57275000D01*
%TO.N,Net-(D7-PadC)*%
X157365000Y-63475000D02*
X157365000Y-62535000D01*
X157365000Y-62535000D02*
X157875000Y-62025000D01*
X160850000Y-62050000D02*
X157900000Y-62050000D01*
X157900000Y-62050000D02*
X157875000Y-62025000D01*
%TO.N,GND*%
X157675000Y-65875000D02*
X157675000Y-66285000D01*
X157675000Y-66285000D02*
X158065000Y-66675000D01*
X156594000Y-67580000D02*
X157160000Y-67580000D01*
X157160000Y-67580000D02*
X158065000Y-66675000D01*
%TO.N,Net-(U6-AD0)*%
X154975000Y-72075000D02*
X154975000Y-70901000D01*
X154975000Y-70901000D02*
X154874000Y-70800000D01*
%TO.N,GND*%
X153955000Y-72075000D02*
X153955000Y-70881000D01*
X153955000Y-70881000D02*
X153874000Y-70800000D01*
X150020000Y-66945000D02*
X149935000Y-66945000D01*
X149935000Y-66945000D02*
X149665000Y-66675000D01*
%TO.N,+3.3V*%
X158425000Y-64475000D02*
X158425000Y-63515000D01*
X158425000Y-63515000D02*
X158385000Y-63475000D01*
%TO.N,GND*%
X152349000Y-67275000D02*
X152654000Y-67580000D01*
X150020000Y-66945000D02*
X150350000Y-67275000D01*
X150350000Y-67275000D02*
X152349000Y-67275000D01*
X141250000Y-90575000D02*
X140600000Y-91225000D01*
X140600000Y-91225000D02*
X139700000Y-91225000D01*
%TO.N,+BATT*%
X139700000Y-87475000D02*
X140650000Y-87475000D01*
X140650000Y-87475000D02*
X141100000Y-87025000D01*
%TO.N,GND*%
X140475000Y-93075000D02*
X140475000Y-92000000D01*
X140475000Y-92000000D02*
X139700000Y-91225000D01*
X140275000Y-96550000D02*
X139700000Y-95975000D01*
X139700000Y-95975000D02*
X139700000Y-91225000D01*
X165250000Y-90625000D02*
X165250000Y-88355000D01*
X165300000Y-90675000D02*
X165250000Y-90625000D01*
%TO.N,+5V*%
X162775000Y-86136071D02*
X161074197Y-84435268D01*
X162775000Y-86450000D02*
X162775000Y-86136071D01*
%TO.N,Net-(U3-PROG)*%
X167725000Y-87720000D02*
X167725000Y-86450000D01*
%TO.N,GND*%
X165250000Y-88355000D02*
X167090000Y-88355000D01*
X167090000Y-88355000D02*
X167725000Y-88990000D01*
X150493000Y-87319000D02*
X150493000Y-91499000D01*
%TD*%
%TA.AperFunction,Conductor*%
%TO.N,GND*%
G36*
X141942389Y-87440146D02*
G01*
X142023171Y-87494122D01*
X142308495Y-87779446D01*
X142362471Y-87860228D01*
X142373148Y-87901548D01*
X142375289Y-87901060D01*
X142378401Y-87914693D01*
X142378402Y-87914698D01*
X142378403Y-87914700D01*
X142433144Y-88071141D01*
X142433145Y-88071142D01*
X142433145Y-88071143D01*
X142459164Y-88112552D01*
X142521324Y-88211478D01*
X142638522Y-88328676D01*
X142778859Y-88416856D01*
X142935300Y-88471597D01*
X142950424Y-88473301D01*
X143099996Y-88490154D01*
X143100000Y-88490154D01*
X143100004Y-88490154D01*
X143207559Y-88478035D01*
X143264700Y-88471597D01*
X143421141Y-88416856D01*
X143496131Y-88369735D01*
X143586895Y-88335089D01*
X143684012Y-88337814D01*
X143710844Y-88345544D01*
X143730724Y-88352500D01*
X143785300Y-88371597D01*
X143821451Y-88375670D01*
X143949996Y-88390154D01*
X143950000Y-88390154D01*
X143950002Y-88390154D01*
X143992621Y-88385352D01*
X144089432Y-88393518D01*
X144175749Y-88438110D01*
X144238430Y-88512340D01*
X144267934Y-88604907D01*
X144269500Y-88632786D01*
X144269500Y-90306409D01*
X144250546Y-90401697D01*
X144196570Y-90482478D01*
X143995549Y-90683498D01*
X143914770Y-90737473D01*
X143873438Y-90748136D01*
X143873931Y-90750292D01*
X143860303Y-90753402D01*
X143860300Y-90753402D01*
X143860300Y-90753403D01*
X143703859Y-90808144D01*
X143703857Y-90808145D01*
X143703856Y-90808145D01*
X143563523Y-90896323D01*
X143446323Y-91013523D01*
X143358145Y-91153856D01*
X143358144Y-91153859D01*
X143303403Y-91310299D01*
X143303401Y-91310310D01*
X143284846Y-91474996D01*
X143284846Y-91475003D01*
X143303401Y-91639689D01*
X143303403Y-91639698D01*
X143303403Y-91639700D01*
X143353746Y-91783573D01*
X143358144Y-91796140D01*
X143358145Y-91796143D01*
X143383966Y-91837236D01*
X143446324Y-91936478D01*
X143563522Y-92053676D01*
X143703859Y-92141856D01*
X143811366Y-92179474D01*
X143895045Y-92228835D01*
X143953466Y-92306463D01*
X143977733Y-92400538D01*
X143964152Y-92496739D01*
X143914790Y-92580420D01*
X143837162Y-92638841D01*
X143743087Y-92663108D01*
X143729125Y-92663500D01*
X143713650Y-92663500D01*
X143688341Y-92659969D01*
X143688179Y-92661728D01*
X143665207Y-92659599D01*
X143665205Y-92659599D01*
X143634569Y-92662438D01*
X143611594Y-92663500D01*
X143609156Y-92663500D01*
X143609153Y-92663500D01*
X143609146Y-92663501D01*
X143606728Y-92663953D01*
X143583983Y-92667124D01*
X143553344Y-92669963D01*
X143539746Y-92673832D01*
X143526569Y-92678937D01*
X143500408Y-92695135D01*
X143480328Y-92706319D01*
X143452772Y-92720040D01*
X143446548Y-92724741D01*
X143359084Y-92767038D01*
X143329100Y-92770884D01*
X143324999Y-92774999D01*
X143336499Y-97937945D01*
X143336500Y-97938500D01*
X143336500Y-103746463D01*
X143317546Y-103841751D01*
X143263570Y-103922533D01*
X143182788Y-103976509D01*
X143087500Y-103995463D01*
X143083232Y-103995426D01*
X139218012Y-103929165D01*
X139123063Y-103908581D01*
X139043218Y-103853228D01*
X138990635Y-103771533D01*
X138973286Y-103681960D01*
X138902322Y-93615183D01*
X138920603Y-93519773D01*
X138974009Y-93438613D01*
X139054408Y-93384068D01*
X139149560Y-93364443D01*
X139164524Y-93364788D01*
X139224966Y-93367998D01*
X139225007Y-93368000D01*
X140174993Y-93368000D01*
X140175036Y-93367998D01*
X140227816Y-93365195D01*
X140458626Y-93320556D01*
X140458632Y-93320554D01*
X140678568Y-93237554D01*
X140678571Y-93237552D01*
X140881314Y-93118579D01*
X140881321Y-93118574D01*
X140884112Y-93116219D01*
X139168963Y-91401070D01*
X139114987Y-91320288D01*
X139096033Y-91225000D01*
X139096033Y-91224999D01*
X140407107Y-91224999D01*
X141435976Y-92253868D01*
X141459195Y-92133816D01*
X141461998Y-92081036D01*
X141462000Y-92080992D01*
X141462000Y-90369007D01*
X141461998Y-90368963D01*
X141459195Y-90316183D01*
X141435976Y-90196130D01*
X140407107Y-91224999D01*
X139096033Y-91224999D01*
X139114987Y-91129712D01*
X139168963Y-91048930D01*
X139700000Y-90517893D01*
X140884112Y-89333779D01*
X140884112Y-89333778D01*
X140881323Y-89331426D01*
X140881317Y-89331422D01*
X140755349Y-89257501D01*
X140682759Y-89192927D01*
X140640406Y-89105489D01*
X140634738Y-89008500D01*
X140666618Y-88916724D01*
X140705310Y-88866670D01*
X140707984Y-88863994D01*
X140707990Y-88863990D01*
X140828116Y-88714547D01*
X140913307Y-88542775D01*
X140959581Y-88356704D01*
X140962500Y-88313657D01*
X140962499Y-88089706D01*
X140981453Y-87994420D01*
X141035429Y-87913638D01*
X141059918Y-87892161D01*
X141064017Y-87889017D01*
X141077439Y-87871525D01*
X141098910Y-87847039D01*
X141129449Y-87816500D01*
X141210228Y-87762527D01*
X141251566Y-87751882D01*
X141251070Y-87749708D01*
X141264696Y-87746597D01*
X141264700Y-87746597D01*
X141421141Y-87691856D01*
X141561478Y-87603676D01*
X141671034Y-87494119D01*
X141751813Y-87440146D01*
X141847101Y-87421192D01*
X141942389Y-87440146D01*
G37*
%TD.AperFunction*%
%TA.AperFunction,Conductor*%
G36*
X169851456Y-90743117D02*
G01*
X169932238Y-90797093D01*
X169986214Y-90877875D01*
X170005168Y-90973163D01*
X170005168Y-90973263D01*
X170000099Y-103627375D01*
X169981107Y-103722655D01*
X169927098Y-103803415D01*
X169846295Y-103857359D01*
X169752522Y-103876271D01*
X165848743Y-103898578D01*
X165753348Y-103880169D01*
X165672259Y-103826655D01*
X165617822Y-103746183D01*
X165598326Y-103651261D01*
X165538310Y-94728828D01*
X165556622Y-94633417D01*
X165610054Y-94552275D01*
X165690471Y-94497756D01*
X165785629Y-94478162D01*
X165881043Y-94496474D01*
X165938891Y-94529616D01*
X165947826Y-94536473D01*
X165947834Y-94536477D01*
X165947835Y-94536478D01*
X166007246Y-94582066D01*
X166089332Y-94616067D01*
X166148458Y-94640558D01*
X166165198Y-94642761D01*
X166261953Y-94655500D01*
X166261954Y-94655500D01*
X166270012Y-94656561D01*
X166270043Y-94656564D01*
X166300000Y-94660508D01*
X166321863Y-94657630D01*
X166354361Y-94655500D01*
X166544689Y-94655500D01*
X166639977Y-94674454D01*
X166677163Y-94693664D01*
X166753859Y-94741856D01*
X166910300Y-94796597D01*
X166946451Y-94800670D01*
X167074996Y-94815154D01*
X167075000Y-94815154D01*
X167075004Y-94815154D01*
X167182559Y-94803035D01*
X167239700Y-94796597D01*
X167396141Y-94741856D01*
X167452967Y-94706150D01*
X167543733Y-94671501D01*
X167640850Y-94674226D01*
X167717917Y-94706147D01*
X167828859Y-94775857D01*
X167985300Y-94830598D01*
X168021451Y-94834671D01*
X168149996Y-94849155D01*
X168150000Y-94849155D01*
X168150004Y-94849155D01*
X168257559Y-94837036D01*
X168314700Y-94830598D01*
X168471141Y-94775857D01*
X168611478Y-94687677D01*
X168728676Y-94570479D01*
X168816856Y-94430142D01*
X168871597Y-94273701D01*
X168890154Y-94109001D01*
X168871597Y-93944301D01*
X168855482Y-93898249D01*
X168816858Y-93787864D01*
X168816856Y-93787861D01*
X168816856Y-93787860D01*
X168768664Y-93711163D01*
X168734018Y-93620398D01*
X168730500Y-93578689D01*
X168730500Y-93260408D01*
X168749454Y-93165120D01*
X168768666Y-93127931D01*
X168830640Y-93029301D01*
X168885381Y-92872860D01*
X168900567Y-92738081D01*
X168903938Y-92708163D01*
X168903938Y-92708156D01*
X168885382Y-92543470D01*
X168885381Y-92543460D01*
X168830640Y-92387019D01*
X168742460Y-92246682D01*
X168742457Y-92246679D01*
X168733742Y-92235750D01*
X168734926Y-92234805D01*
X168689697Y-92167114D01*
X168670743Y-92071826D01*
X168688086Y-91984635D01*
X168687243Y-91984340D01*
X168689333Y-91978366D01*
X168689697Y-91976538D01*
X168690962Y-91973709D01*
X168691858Y-91971146D01*
X168691862Y-91971141D01*
X168746603Y-91814700D01*
X168754811Y-91741852D01*
X168765160Y-91650003D01*
X168765160Y-91650001D01*
X168763998Y-91639689D01*
X168761376Y-91616418D01*
X168769541Y-91519611D01*
X168814132Y-91433294D01*
X168888361Y-91370611D01*
X168913524Y-91358493D01*
X168915780Y-91357558D01*
X168915783Y-91357558D01*
X169056996Y-91299066D01*
X169098973Y-91266856D01*
X169147814Y-91229379D01*
X169147813Y-91229379D01*
X169164064Y-91216910D01*
X169164068Y-91216905D01*
X169178259Y-91206017D01*
X169191691Y-91188512D01*
X169213146Y-91164046D01*
X169580104Y-90797088D01*
X169660880Y-90743117D01*
X169756168Y-90724163D01*
X169851456Y-90743117D01*
G37*
%TD.AperFunction*%
%TA.AperFunction,Conductor*%
G36*
X157257076Y-88081255D02*
G01*
X157323113Y-88125379D01*
X157324959Y-88123249D01*
X157442185Y-88224826D01*
X157442191Y-88224830D01*
X157511672Y-88256561D01*
X157590476Y-88313386D01*
X157641534Y-88396042D01*
X157657075Y-88491946D01*
X157634732Y-88586497D01*
X157621616Y-88610812D01*
X157620237Y-88613677D01*
X157565496Y-88770117D01*
X157565494Y-88770128D01*
X157546939Y-88934814D01*
X157546939Y-88934821D01*
X157565494Y-89099507D01*
X157565496Y-89099518D01*
X157620237Y-89255959D01*
X157708417Y-89396296D01*
X157825615Y-89513494D01*
X157924723Y-89575768D01*
X157995319Y-89642510D01*
X158027272Y-89704361D01*
X158033143Y-89721140D01*
X158065554Y-89772722D01*
X158100202Y-89863489D01*
X158097477Y-89960606D01*
X158057795Y-90049287D01*
X158037916Y-90073840D01*
X157945232Y-90174522D01*
X157945230Y-90174524D01*
X157809268Y-90382630D01*
X157809268Y-90382631D01*
X157709413Y-90610277D01*
X157709410Y-90610285D01*
X157648389Y-90851251D01*
X157648387Y-90851259D01*
X157636145Y-90998999D01*
X157636145Y-90999000D01*
X158850014Y-90999000D01*
X158833000Y-91042920D01*
X158833000Y-91926802D01*
X158846496Y-91999000D01*
X157636145Y-91999000D01*
X157648387Y-92146739D01*
X157700715Y-92353373D01*
X157705733Y-92450399D01*
X157673239Y-92541959D01*
X157608180Y-92614114D01*
X157520461Y-92655881D01*
X157459334Y-92663500D01*
X152166666Y-92663500D01*
X152071378Y-92644546D01*
X151990596Y-92590570D01*
X151936620Y-92509788D01*
X151917666Y-92414500D01*
X151925285Y-92353374D01*
X151973170Y-92164282D01*
X152014937Y-92076562D01*
X152087092Y-92011503D01*
X152178652Y-91979009D01*
X152247050Y-91978538D01*
X152300000Y-91985509D01*
X152321869Y-91982629D01*
X152354368Y-91980500D01*
X152845639Y-91980500D01*
X152878138Y-91982629D01*
X152900000Y-91985508D01*
X152938041Y-91980500D01*
X152938047Y-91980500D01*
X153051541Y-91965558D01*
X153192754Y-91907066D01*
X153240481Y-91870444D01*
X153275116Y-91843868D01*
X153275122Y-91843862D01*
X153275132Y-91843855D01*
X153283572Y-91837379D01*
X153283574Y-91837376D01*
X153314017Y-91814017D01*
X153327384Y-91796597D01*
X153327439Y-91796525D01*
X153348910Y-91772039D01*
X156985721Y-88135228D01*
X157066500Y-88081255D01*
X157161788Y-88062301D01*
X157257076Y-88081255D01*
G37*
%TD.AperFunction*%
%TA.AperFunction,Conductor*%
G36*
X165155490Y-86452041D02*
G01*
X165236272Y-86506017D01*
X165274579Y-86560006D01*
X165275704Y-86559300D01*
X165283143Y-86571140D01*
X165283144Y-86571141D01*
X165371324Y-86711478D01*
X165488522Y-86828676D01*
X165488524Y-86828677D01*
X165488525Y-86828678D01*
X165533927Y-86857206D01*
X165617933Y-86909991D01*
X165633476Y-86919757D01*
X165704075Y-86986502D01*
X165743757Y-87075183D01*
X165750000Y-87130591D01*
X165750000Y-91005999D01*
X165756976Y-91012975D01*
X165817197Y-91024954D01*
X165897979Y-91078930D01*
X165951955Y-91159712D01*
X165970909Y-91255000D01*
X165951955Y-91350288D01*
X165897979Y-91431070D01*
X165897978Y-91431070D01*
X165302960Y-92026086D01*
X165278482Y-92047554D01*
X165260988Y-92060978D01*
X165260979Y-92060987D01*
X165235178Y-92094609D01*
X165235085Y-92094732D01*
X165198393Y-92142552D01*
X165198355Y-92142601D01*
X165198354Y-92142601D01*
X165167936Y-92182242D01*
X165167931Y-92182250D01*
X165109443Y-92323454D01*
X165109442Y-92323457D01*
X165109442Y-92323459D01*
X165101074Y-92387019D01*
X165093436Y-92445036D01*
X165093192Y-92446895D01*
X165062002Y-92538907D01*
X164997975Y-92611980D01*
X164910857Y-92654988D01*
X164846308Y-92663500D01*
X161205143Y-92663500D01*
X161109855Y-92644546D01*
X161029073Y-92590570D01*
X160975097Y-92509788D01*
X160956143Y-92414500D01*
X160975097Y-92319212D01*
X160994310Y-92282022D01*
X161016856Y-92246141D01*
X161071597Y-92089700D01*
X161077319Y-92038919D01*
X161106822Y-91946352D01*
X161169503Y-91872122D01*
X161202163Y-91851601D01*
X161201971Y-91851295D01*
X161213812Y-91843855D01*
X161354149Y-91755675D01*
X161376464Y-91733359D01*
X161457241Y-91679384D01*
X161552529Y-91660429D01*
X161647818Y-91679382D01*
X161685009Y-91698595D01*
X161753852Y-91741852D01*
X161753853Y-91741852D01*
X161753859Y-91741856D01*
X161910300Y-91796597D01*
X161946451Y-91800670D01*
X162074996Y-91815154D01*
X162075000Y-91815154D01*
X162075004Y-91815154D01*
X162191187Y-91802063D01*
X162239700Y-91796597D01*
X162396141Y-91741856D01*
X162536478Y-91653676D01*
X162536479Y-91653674D01*
X162548318Y-91646236D01*
X162549972Y-91648868D01*
X162615098Y-91615228D01*
X162684018Y-91605500D01*
X163245632Y-91605500D01*
X163278131Y-91607629D01*
X163300000Y-91610509D01*
X163451541Y-91590558D01*
X163592754Y-91532066D01*
X163714017Y-91439017D01*
X163732018Y-91415558D01*
X163807066Y-91317755D01*
X163810154Y-91310300D01*
X163871804Y-91161464D01*
X163875413Y-91162959D01*
X163904760Y-91103437D01*
X163977798Y-91039372D01*
X164069794Y-91008133D01*
X164102319Y-91006000D01*
X164749999Y-91006000D01*
X164750000Y-91005999D01*
X164750000Y-86743293D01*
X164768954Y-86648005D01*
X164822929Y-86567225D01*
X164830854Y-86559300D01*
X164884136Y-86506017D01*
X164964914Y-86452043D01*
X165060202Y-86433088D01*
X165155490Y-86452041D01*
G37*
%TD.AperFunction*%
%TA.AperFunction,Conductor*%
G36*
X159479288Y-91017954D02*
G01*
X159560070Y-91071930D01*
X159614046Y-91152712D01*
X159633000Y-91248000D01*
X159633000Y-91712103D01*
X159629145Y-91746310D01*
X159629969Y-91746403D01*
X159628403Y-91760298D01*
X159628403Y-91760300D01*
X159627082Y-91772031D01*
X159626423Y-91777877D01*
X159596920Y-91870444D01*
X159534239Y-91944675D01*
X159447922Y-91989268D01*
X159418126Y-91993474D01*
X159433000Y-91955080D01*
X159433000Y-91071198D01*
X159420875Y-91006334D01*
X159479288Y-91017954D01*
G37*
%TD.AperFunction*%
%TA.AperFunction,Conductor*%
G36*
X151216477Y-78250954D02*
G01*
X151253663Y-78270164D01*
X151330359Y-78318356D01*
X151486800Y-78373097D01*
X151525718Y-78377482D01*
X151665395Y-78393220D01*
X151665131Y-78395558D01*
X151740789Y-78410608D01*
X151821571Y-78464584D01*
X151875547Y-78545366D01*
X151894501Y-78640654D01*
X151894501Y-81919689D01*
X151875547Y-82014977D01*
X151856337Y-82052161D01*
X151834231Y-82087343D01*
X151808142Y-82128864D01*
X151753405Y-82285296D01*
X151753402Y-82285311D01*
X151734847Y-82449997D01*
X151734847Y-82450004D01*
X151753402Y-82614690D01*
X151753404Y-82614701D01*
X151808145Y-82771141D01*
X151808147Y-82771146D01*
X151816301Y-82784122D01*
X151850950Y-82874889D01*
X151848226Y-82972006D01*
X151808544Y-83060687D01*
X151737947Y-83127433D01*
X151694202Y-83154920D01*
X151652165Y-83181333D01*
X151561401Y-83215981D01*
X151519689Y-83219500D01*
X150593591Y-83219500D01*
X150498303Y-83200546D01*
X150417521Y-83146570D01*
X149616503Y-82345552D01*
X149562527Y-82264770D01*
X149551877Y-82223434D01*
X149549708Y-82223930D01*
X149546597Y-82210301D01*
X149546597Y-82210300D01*
X149491856Y-82053859D01*
X149403676Y-81913522D01*
X149286478Y-81796324D01*
X149178496Y-81728474D01*
X149146143Y-81708145D01*
X149146142Y-81708144D01*
X149146141Y-81708144D01*
X148989700Y-81653403D01*
X148989689Y-81653401D01*
X148825004Y-81634846D01*
X148824996Y-81634846D01*
X148660310Y-81653401D01*
X148660299Y-81653403D01*
X148503859Y-81708144D01*
X148503856Y-81708145D01*
X148363523Y-81796323D01*
X148246323Y-81913523D01*
X148158145Y-82053856D01*
X148158144Y-82053859D01*
X148103403Y-82210299D01*
X148103401Y-82210310D01*
X148084846Y-82374996D01*
X148084846Y-82375003D01*
X148103401Y-82539689D01*
X148103403Y-82539700D01*
X148158144Y-82696141D01*
X148246324Y-82836478D01*
X148363522Y-82953676D01*
X148503859Y-83041856D01*
X148660300Y-83096597D01*
X148660301Y-83096597D01*
X148673930Y-83099708D01*
X148673097Y-83103355D01*
X148739792Y-83124567D01*
X148795552Y-83166503D01*
X149801086Y-84172037D01*
X149822559Y-84196523D01*
X149835983Y-84214017D01*
X149859958Y-84232413D01*
X149859974Y-84232428D01*
X149884880Y-84251538D01*
X149884885Y-84251541D01*
X149957246Y-84307066D01*
X150057089Y-84348421D01*
X150057093Y-84348424D01*
X150057094Y-84348424D01*
X150076307Y-84356382D01*
X150098458Y-84365558D01*
X150115198Y-84367761D01*
X150211953Y-84380500D01*
X150211954Y-84380500D01*
X150220012Y-84381561D01*
X150220043Y-84381564D01*
X150250000Y-84385508D01*
X150271863Y-84382630D01*
X150304361Y-84380500D01*
X151519689Y-84380500D01*
X151614977Y-84399454D01*
X151652163Y-84418664D01*
X151728859Y-84466856D01*
X151885300Y-84521597D01*
X151899676Y-84523216D01*
X151944433Y-84528260D01*
X152037000Y-84557763D01*
X152111230Y-84620444D01*
X152155823Y-84706761D01*
X152165555Y-84775694D01*
X152165555Y-85750167D01*
X152146601Y-85845455D01*
X152092625Y-85926237D01*
X152011843Y-85980213D01*
X151916555Y-85999167D01*
X151821267Y-85980213D01*
X151740485Y-85926237D01*
X151708101Y-85886358D01*
X151680772Y-85844528D01*
X151680767Y-85844522D01*
X151512411Y-85661639D01*
X151512399Y-85661629D01*
X151316237Y-85508949D01*
X151316230Y-85508944D01*
X151097606Y-85390630D01*
X151097599Y-85390627D01*
X150993000Y-85354719D01*
X150993000Y-87570000D01*
X150974046Y-87665288D01*
X150920070Y-87746070D01*
X150839288Y-87800046D01*
X150793000Y-87809253D01*
X150793000Y-86741198D01*
X150777588Y-86658750D01*
X150718543Y-86563390D01*
X150629038Y-86495799D01*
X150521160Y-86465105D01*
X150409479Y-86475454D01*
X150309078Y-86525448D01*
X150233516Y-86608334D01*
X150193000Y-86712920D01*
X150193000Y-87809253D01*
X150146712Y-87800046D01*
X150065930Y-87746070D01*
X150011954Y-87665288D01*
X149993000Y-87570000D01*
X149993000Y-85354719D01*
X149992999Y-85354719D01*
X149888400Y-85390627D01*
X149888393Y-85390630D01*
X149669769Y-85508944D01*
X149669762Y-85508949D01*
X149473600Y-85661629D01*
X149473588Y-85661639D01*
X149305232Y-85844522D01*
X149305230Y-85844524D01*
X149169268Y-86052630D01*
X149169268Y-86052631D01*
X149069413Y-86280277D01*
X149069410Y-86280285D01*
X149008389Y-86521251D01*
X149008387Y-86521258D01*
X148993000Y-86706958D01*
X148993000Y-86820500D01*
X148974046Y-86915788D01*
X148920070Y-86996570D01*
X148839288Y-87050546D01*
X148744000Y-87069500D01*
X147855311Y-87069500D01*
X147760023Y-87050546D01*
X147722836Y-87031335D01*
X147656575Y-86989700D01*
X147646143Y-86983145D01*
X147646142Y-86983144D01*
X147646141Y-86983144D01*
X147489700Y-86928403D01*
X147489689Y-86928401D01*
X147325004Y-86909846D01*
X147325002Y-86909846D01*
X147325000Y-86909846D01*
X147304019Y-86912209D01*
X147251223Y-86918158D01*
X147154412Y-86909991D01*
X147068096Y-86865397D01*
X147005415Y-86791166D01*
X146975913Y-86698601D01*
X146971598Y-86660310D01*
X146971597Y-86660300D01*
X146916856Y-86503859D01*
X146828676Y-86363522D01*
X146711478Y-86246324D01*
X146620479Y-86189145D01*
X146571143Y-86158145D01*
X146571142Y-86158144D01*
X146571141Y-86158144D01*
X146414700Y-86103403D01*
X146414689Y-86103401D01*
X146250004Y-86084846D01*
X146249996Y-86084846D01*
X146085310Y-86103401D01*
X146085295Y-86103404D01*
X145995434Y-86134848D01*
X145899233Y-86148429D01*
X145805158Y-86124162D01*
X145727530Y-86065740D01*
X145678169Y-85982059D01*
X145673314Y-85965211D01*
X145671597Y-85960303D01*
X145671597Y-85960300D01*
X145616856Y-85803859D01*
X145528676Y-85663522D01*
X145411478Y-85546324D01*
X145271141Y-85458144D01*
X145114700Y-85403403D01*
X145114689Y-85403401D01*
X144950004Y-85384846D01*
X144949996Y-85384846D01*
X144785310Y-85403401D01*
X144785299Y-85403403D01*
X144628859Y-85458144D01*
X144628856Y-85458145D01*
X144488523Y-85546323D01*
X144371323Y-85663523D01*
X144283145Y-85803856D01*
X144283145Y-85803857D01*
X144283144Y-85803859D01*
X144248351Y-85903291D01*
X144228402Y-85960303D01*
X144225292Y-85973931D01*
X144221662Y-85973102D01*
X144200322Y-86039990D01*
X144158497Y-86095550D01*
X143577961Y-86676086D01*
X143553482Y-86697554D01*
X143535988Y-86710978D01*
X143535979Y-86710987D01*
X143510100Y-86744712D01*
X143510096Y-86744717D01*
X143455741Y-86815556D01*
X143455737Y-86815561D01*
X143432996Y-86845197D01*
X143431744Y-86844236D01*
X143380164Y-86903050D01*
X143293027Y-86946017D01*
X143196079Y-86952368D01*
X143104082Y-86921134D01*
X143052520Y-86881569D01*
X140003429Y-83832478D01*
X139949453Y-83751696D01*
X139930499Y-83656408D01*
X139930499Y-83620231D01*
X139949453Y-83524943D01*
X140003429Y-83444161D01*
X140084211Y-83390185D01*
X140097259Y-83385204D01*
X140221141Y-83341856D01*
X140361478Y-83253676D01*
X140478676Y-83136478D01*
X140566856Y-82996141D01*
X140621597Y-82839700D01*
X140640154Y-82675000D01*
X140621597Y-82510300D01*
X140600499Y-82450004D01*
X140566858Y-82353863D01*
X140566856Y-82353860D01*
X140566856Y-82353859D01*
X140518664Y-82277162D01*
X140484018Y-82186397D01*
X140480500Y-82144688D01*
X140480500Y-80295901D01*
X140494473Y-80213662D01*
X140504397Y-80185300D01*
X140546597Y-80064700D01*
X140563732Y-79912621D01*
X140565154Y-79900003D01*
X140565154Y-79899996D01*
X140546598Y-79735310D01*
X140546597Y-79735300D01*
X140491856Y-79578859D01*
X140404955Y-79440557D01*
X140402617Y-79434433D01*
X140383145Y-79417991D01*
X140286478Y-79321324D01*
X140146141Y-79233144D01*
X140097256Y-79216038D01*
X140013578Y-79166677D01*
X139955157Y-79089049D01*
X139930891Y-78994974D01*
X139930499Y-78981013D01*
X139930499Y-78692549D01*
X139949453Y-78597261D01*
X140003429Y-78516479D01*
X140084211Y-78462503D01*
X140179499Y-78443549D01*
X140274787Y-78462503D01*
X140336854Y-78499571D01*
X140446868Y-78589277D01*
X140495440Y-78614649D01*
X140571124Y-78675567D01*
X140617735Y-78760811D01*
X140627588Y-78807472D01*
X140628401Y-78814691D01*
X140628402Y-78814696D01*
X140628403Y-78814700D01*
X140683144Y-78971141D01*
X140683145Y-78971142D01*
X140683147Y-78971147D01*
X140770043Y-79109440D01*
X140772381Y-79115565D01*
X140791853Y-79132007D01*
X140888522Y-79228676D01*
X141028859Y-79316856D01*
X141185300Y-79371597D01*
X141185301Y-79371597D01*
X141198930Y-79374708D01*
X141198097Y-79378355D01*
X141264792Y-79399567D01*
X141320552Y-79441503D01*
X143051086Y-81172037D01*
X143072559Y-81196523D01*
X143085979Y-81214012D01*
X143085983Y-81214017D01*
X143109966Y-81232420D01*
X143109972Y-81232425D01*
X143116427Y-81237378D01*
X143116428Y-81237379D01*
X143147835Y-81261478D01*
X143207246Y-81307066D01*
X143307089Y-81348421D01*
X143307093Y-81348424D01*
X143307094Y-81348424D01*
X143326307Y-81356382D01*
X143348458Y-81365558D01*
X143365198Y-81367761D01*
X143461953Y-81380500D01*
X143461954Y-81380500D01*
X143470012Y-81381561D01*
X143470043Y-81381564D01*
X143500000Y-81385508D01*
X143521863Y-81382630D01*
X143554361Y-81380500D01*
X146019689Y-81380500D01*
X146114977Y-81399454D01*
X146152163Y-81418664D01*
X146228859Y-81466856D01*
X146385300Y-81521597D01*
X146420349Y-81525546D01*
X146549996Y-81540154D01*
X146550000Y-81540154D01*
X146550004Y-81540154D01*
X146657559Y-81528035D01*
X146714700Y-81521597D01*
X146871141Y-81466856D01*
X147011478Y-81378676D01*
X147128676Y-81261478D01*
X147216856Y-81121141D01*
X147245162Y-81040245D01*
X147294523Y-80956567D01*
X147372150Y-80898146D01*
X147466226Y-80873879D01*
X147562427Y-80887460D01*
X147646108Y-80936822D01*
X147656239Y-80946399D01*
X147663519Y-80953679D01*
X147803856Y-81041859D01*
X147960297Y-81096600D01*
X147996448Y-81100673D01*
X148124993Y-81115157D01*
X148124997Y-81115157D01*
X148125001Y-81115157D01*
X148242684Y-81101897D01*
X148289697Y-81096600D01*
X148446138Y-81041859D01*
X148522832Y-80993668D01*
X148613598Y-80959021D01*
X148655308Y-80955503D01*
X148920636Y-80955503D01*
X148953135Y-80957632D01*
X148974997Y-80960511D01*
X149013038Y-80955503D01*
X149013044Y-80955503D01*
X149126538Y-80940561D01*
X149267751Y-80882069D01*
X149267755Y-80882066D01*
X149267763Y-80882060D01*
X149374818Y-80799914D01*
X149374823Y-80799908D01*
X149389014Y-80789020D01*
X149402436Y-80771528D01*
X149423907Y-80747042D01*
X150279449Y-79891500D01*
X150360228Y-79837527D01*
X150401566Y-79826882D01*
X150401070Y-79824708D01*
X150414696Y-79821597D01*
X150414700Y-79821597D01*
X150571141Y-79766856D01*
X150711478Y-79678676D01*
X150828676Y-79561478D01*
X150916856Y-79421141D01*
X150971597Y-79264700D01*
X150982072Y-79171732D01*
X150990154Y-79100003D01*
X150990154Y-79099996D01*
X150971598Y-78935310D01*
X150971597Y-78935300D01*
X150916856Y-78778859D01*
X150828676Y-78638522D01*
X150828673Y-78638519D01*
X150828672Y-78638517D01*
X150826866Y-78636252D01*
X150825093Y-78632821D01*
X150821236Y-78626682D01*
X150821753Y-78626356D01*
X150782272Y-78549936D01*
X150774104Y-78453125D01*
X150803606Y-78360558D01*
X150866287Y-78286327D01*
X150952603Y-78241733D01*
X151021539Y-78232000D01*
X151121189Y-78232000D01*
X151216477Y-78250954D01*
G37*
%TD.AperFunction*%
%TA.AperFunction,Conductor*%
G36*
X165357818Y-83746518D02*
G01*
X165428416Y-83813264D01*
X165468099Y-83901945D01*
X165472777Y-83985230D01*
X165459846Y-84100003D01*
X165478401Y-84264689D01*
X165478403Y-84264700D01*
X165525555Y-84399454D01*
X165533144Y-84421140D01*
X165533145Y-84421143D01*
X165561868Y-84466855D01*
X165621324Y-84561478D01*
X165738522Y-84678676D01*
X165878859Y-84766856D01*
X166035300Y-84821597D01*
X166035301Y-84821597D01*
X166048930Y-84824708D01*
X166048097Y-84828355D01*
X166114792Y-84849567D01*
X166170552Y-84891503D01*
X166376086Y-85097037D01*
X166397559Y-85121523D01*
X166419951Y-85150704D01*
X166462923Y-85237839D01*
X166469278Y-85334786D01*
X166438050Y-85426785D01*
X166373992Y-85499831D01*
X166286857Y-85542803D01*
X166189910Y-85549158D01*
X166140173Y-85537316D01*
X166114700Y-85528403D01*
X166114697Y-85528402D01*
X166114689Y-85528401D01*
X165950004Y-85509846D01*
X165949996Y-85509846D01*
X165785310Y-85528401D01*
X165785299Y-85528403D01*
X165628859Y-85583144D01*
X165628856Y-85583145D01*
X165488520Y-85671325D01*
X165390864Y-85768981D01*
X165310082Y-85822957D01*
X165214794Y-85841911D01*
X165119506Y-85822957D01*
X165038725Y-85768980D01*
X165000420Y-85714993D01*
X164999296Y-85715700D01*
X164971413Y-85671325D01*
X164903676Y-85563522D01*
X164786478Y-85446324D01*
X164646141Y-85358144D01*
X164489700Y-85303403D01*
X164489689Y-85303401D01*
X164325004Y-85284846D01*
X164324996Y-85284846D01*
X164160310Y-85303401D01*
X164160299Y-85303403D01*
X164003859Y-85358144D01*
X164003856Y-85358145D01*
X163863523Y-85446323D01*
X163863522Y-85446323D01*
X163863522Y-85446324D01*
X163746324Y-85563522D01*
X163746322Y-85563524D01*
X163736437Y-85573410D01*
X163734226Y-85571199D01*
X163678294Y-85618430D01*
X163585727Y-85647934D01*
X163557847Y-85649500D01*
X163212520Y-85649500D01*
X163117232Y-85630546D01*
X163036450Y-85576570D01*
X161965450Y-84505570D01*
X161911474Y-84424788D01*
X161892520Y-84329500D01*
X161911474Y-84234212D01*
X161965450Y-84153430D01*
X162046232Y-84099454D01*
X162141520Y-84080500D01*
X163819689Y-84080500D01*
X163914977Y-84099454D01*
X163952163Y-84118664D01*
X164028859Y-84166856D01*
X164185300Y-84221597D01*
X164221451Y-84225670D01*
X164349996Y-84240154D01*
X164350000Y-84240154D01*
X164350004Y-84240154D01*
X164457559Y-84228035D01*
X164514700Y-84221597D01*
X164671141Y-84166856D01*
X164811478Y-84078676D01*
X164928676Y-83961478D01*
X165014511Y-83824872D01*
X165081253Y-83754279D01*
X165169934Y-83714596D01*
X165267051Y-83711871D01*
X165357818Y-83746518D01*
G37*
%TD.AperFunction*%
%TA.AperFunction,Conductor*%
G36*
X134548196Y-66643954D02*
G01*
X134628978Y-66697930D01*
X134682954Y-66778712D01*
X134701908Y-66874000D01*
X134682954Y-66969288D01*
X134628978Y-67050070D01*
X134628977Y-67050070D01*
X134220549Y-67458497D01*
X134139768Y-67512473D01*
X134098439Y-67523140D01*
X134098931Y-67525292D01*
X134085303Y-67528402D01*
X134085300Y-67528402D01*
X134085300Y-67528403D01*
X133928859Y-67583144D01*
X133928857Y-67583145D01*
X133928856Y-67583145D01*
X133788523Y-67671323D01*
X133671323Y-67788523D01*
X133583145Y-67928856D01*
X133583144Y-67928859D01*
X133528403Y-68085299D01*
X133528401Y-68085310D01*
X133509846Y-68249996D01*
X133509846Y-68250003D01*
X133528401Y-68414689D01*
X133528403Y-68414700D01*
X133575835Y-68550254D01*
X133583144Y-68571140D01*
X133583145Y-68571143D01*
X133605717Y-68607066D01*
X133671324Y-68711478D01*
X133788522Y-68828676D01*
X133788524Y-68828677D01*
X133793377Y-68833530D01*
X133847353Y-68914312D01*
X133866307Y-69009600D01*
X133847353Y-69104888D01*
X133793377Y-69185670D01*
X133452961Y-69526086D01*
X133428482Y-69547554D01*
X133410988Y-69560978D01*
X133410980Y-69560986D01*
X133387620Y-69591427D01*
X133387621Y-69591428D01*
X133322312Y-69676541D01*
X133322305Y-69676550D01*
X133317933Y-69682246D01*
X133259443Y-69823454D01*
X133259442Y-69823457D01*
X133259442Y-69823459D01*
X133244737Y-69935153D01*
X133243436Y-69945036D01*
X133243435Y-69945043D01*
X133239492Y-69974998D01*
X133242370Y-69996860D01*
X133244500Y-70029360D01*
X133244500Y-70569688D01*
X133225546Y-70664976D01*
X133206336Y-70702160D01*
X133194814Y-70720499D01*
X133158141Y-70778863D01*
X133103404Y-70935295D01*
X133103401Y-70935310D01*
X133084846Y-71099996D01*
X133084846Y-71100003D01*
X133103401Y-71264689D01*
X133103403Y-71264700D01*
X133158144Y-71421141D01*
X133246324Y-71561478D01*
X133363522Y-71678676D01*
X133503859Y-71766856D01*
X133544741Y-71781161D01*
X133628420Y-71830522D01*
X133686841Y-71908150D01*
X133711108Y-72002225D01*
X133711500Y-72016187D01*
X133711500Y-72950064D01*
X133692546Y-73045352D01*
X133638570Y-73126134D01*
X133557788Y-73180110D01*
X133544742Y-73185090D01*
X133478860Y-73208143D01*
X133478856Y-73208145D01*
X133338523Y-73296323D01*
X133221323Y-73413523D01*
X133133145Y-73553856D01*
X133133144Y-73553859D01*
X133078403Y-73710299D01*
X133078401Y-73710310D01*
X133059846Y-73874996D01*
X133059846Y-73875003D01*
X133078401Y-74039689D01*
X133078403Y-74039700D01*
X133133144Y-74196141D01*
X133221324Y-74336478D01*
X133338522Y-74453676D01*
X133478859Y-74541856D01*
X133635300Y-74596597D01*
X133671451Y-74600670D01*
X133799996Y-74615154D01*
X133800000Y-74615154D01*
X133800004Y-74615154D01*
X133907559Y-74603035D01*
X133964700Y-74596597D01*
X133968260Y-74595351D01*
X133973227Y-74594649D01*
X133978326Y-74593486D01*
X133978424Y-74593916D01*
X134064456Y-74581768D01*
X134158532Y-74606033D01*
X134236161Y-74664453D01*
X134285525Y-74748132D01*
X134299500Y-74830377D01*
X134299500Y-75947865D01*
X134299501Y-75947869D01*
X134305908Y-76007480D01*
X134305909Y-76007484D01*
X134340815Y-76101072D01*
X134356204Y-76142331D01*
X134442454Y-76257546D01*
X134557669Y-76343796D01*
X134692517Y-76394091D01*
X134752127Y-76400500D01*
X137170866Y-76400499D01*
X137266154Y-76419453D01*
X137346936Y-76473429D01*
X137400912Y-76554211D01*
X137419866Y-76649499D01*
X137405893Y-76731737D01*
X137378404Y-76810295D01*
X137378401Y-76810310D01*
X137359846Y-76974996D01*
X137359846Y-76975003D01*
X137378401Y-77139689D01*
X137378403Y-77139700D01*
X137430500Y-77288586D01*
X137433144Y-77296140D01*
X137433145Y-77296143D01*
X137477234Y-77366309D01*
X137521324Y-77436478D01*
X137638522Y-77553676D01*
X137778859Y-77641856D01*
X137935300Y-77696597D01*
X137971451Y-77700670D01*
X138099996Y-77715154D01*
X138100000Y-77715154D01*
X138100004Y-77715154D01*
X138207559Y-77703035D01*
X138264700Y-77696597D01*
X138421141Y-77641856D01*
X138421142Y-77641854D01*
X138434340Y-77637237D01*
X138435352Y-77640131D01*
X138506526Y-77621768D01*
X138602727Y-77635345D01*
X138686411Y-77684703D01*
X138744835Y-77762328D01*
X138769107Y-77856403D01*
X138769499Y-77870376D01*
X138769499Y-78698500D01*
X138750545Y-78793788D01*
X138696569Y-78874570D01*
X138615787Y-78928546D01*
X138520499Y-78947500D01*
X131896375Y-78947500D01*
X131801087Y-78928546D01*
X131720305Y-78874570D01*
X131666329Y-78793788D01*
X131647383Y-78700508D01*
X131647319Y-78692549D01*
X131552024Y-66876006D01*
X131570209Y-66780570D01*
X131623532Y-66699356D01*
X131703876Y-66644730D01*
X131799008Y-66625008D01*
X131801016Y-66625000D01*
X134452908Y-66625000D01*
X134548196Y-66643954D01*
G37*
%TD.AperFunction*%
%TA.AperFunction,Conductor*%
G36*
X145701536Y-75455997D02*
G01*
X145779164Y-75514418D01*
X145828527Y-75598099D01*
X145842500Y-75680337D01*
X145842500Y-75827865D01*
X145842858Y-75834524D01*
X145841704Y-75834585D01*
X145833738Y-75923643D01*
X145788709Y-76009733D01*
X145714163Y-76072038D01*
X145621448Y-76101072D01*
X145594822Y-76102500D01*
X145195793Y-76102500D01*
X145100505Y-76083546D01*
X145019726Y-76029572D01*
X144920270Y-75930116D01*
X144866297Y-75849338D01*
X144847343Y-75754050D01*
X144866297Y-75658762D01*
X144920273Y-75577980D01*
X145001055Y-75524004D01*
X145096343Y-75505050D01*
X145124221Y-75506615D01*
X145129752Y-75507239D01*
X145199999Y-75515154D01*
X145200000Y-75515154D01*
X145200004Y-75515154D01*
X145307559Y-75503035D01*
X145364700Y-75496597D01*
X145511267Y-75445310D01*
X145607461Y-75431731D01*
X145701536Y-75455997D01*
G37*
%TD.AperFunction*%
%TA.AperFunction,Conductor*%
G36*
X144397297Y-74959454D02*
G01*
X144478079Y-75013430D01*
X144525452Y-75084330D01*
X144527080Y-75083547D01*
X144533145Y-75096143D01*
X144570190Y-75155099D01*
X144621324Y-75236478D01*
X144729728Y-75344882D01*
X144783702Y-75425661D01*
X144802656Y-75520949D01*
X144783702Y-75616237D01*
X144729726Y-75697019D01*
X144648944Y-75750995D01*
X144553656Y-75769949D01*
X144525779Y-75768384D01*
X144504102Y-75765941D01*
X144450000Y-75759846D01*
X144449998Y-75759846D01*
X144449997Y-75759846D01*
X144449996Y-75759846D01*
X144285310Y-75778401D01*
X144285299Y-75778403D01*
X144128859Y-75833144D01*
X144128854Y-75833146D01*
X144027453Y-75896861D01*
X143936686Y-75931508D01*
X143839569Y-75928783D01*
X143750888Y-75889100D01*
X143684143Y-75818501D01*
X143655585Y-75754524D01*
X143633443Y-75677142D01*
X143633439Y-75677132D01*
X143539280Y-75496873D01*
X143539276Y-75496867D01*
X143416956Y-75346855D01*
X143371429Y-75261027D01*
X143362211Y-75164311D01*
X143390708Y-75071429D01*
X143452579Y-74996522D01*
X143538407Y-74950995D01*
X143609934Y-74940500D01*
X144302009Y-74940500D01*
X144397297Y-74959454D01*
G37*
%TD.AperFunction*%
%TA.AperFunction,Conductor*%
G36*
X154029288Y-72988045D02*
G01*
X154110070Y-73042021D01*
X154152070Y-73084021D01*
X154206046Y-73164803D01*
X154225000Y-73260091D01*
X154225000Y-73409779D01*
X154243145Y-73435289D01*
X154264875Y-73529983D01*
X154248713Y-73625784D01*
X154197120Y-73708108D01*
X154140487Y-73752895D01*
X154135176Y-73755961D01*
X153941600Y-73891504D01*
X153774501Y-74058603D01*
X153746968Y-74097925D01*
X153676787Y-74165109D01*
X153586237Y-74200321D01*
X153489106Y-74198201D01*
X153400179Y-74159072D01*
X153339032Y-74097925D01*
X153311498Y-74058603D01*
X153311496Y-74058601D01*
X153311495Y-74058599D01*
X153144401Y-73891505D01*
X152950830Y-73755965D01*
X152950828Y-73755964D01*
X152942949Y-73750447D01*
X152875765Y-73680265D01*
X152840553Y-73589716D01*
X152838900Y-73578975D01*
X152838558Y-73576378D01*
X152837979Y-73574980D01*
X152837389Y-73572014D01*
X152834334Y-73560612D01*
X152835081Y-73560411D01*
X152819025Y-73479692D01*
X152837979Y-73384404D01*
X152891955Y-73303622D01*
X152972737Y-73249646D01*
X153012616Y-73236935D01*
X153025817Y-73233921D01*
X153025823Y-73233921D01*
X153044918Y-73227239D01*
X153141114Y-73213658D01*
X153235190Y-73237923D01*
X153266722Y-73256057D01*
X153273571Y-73260692D01*
X153273586Y-73260700D01*
X153472833Y-73346023D01*
X153472838Y-73346024D01*
X153684635Y-73392099D01*
X153684648Y-73392100D01*
X153684999Y-73392121D01*
X153685000Y-73392120D01*
X153685000Y-73218091D01*
X153703954Y-73122803D01*
X153757930Y-73042021D01*
X153838712Y-72988045D01*
X153934000Y-72969091D01*
X154029288Y-72988045D01*
G37*
%TD.AperFunction*%
%TA.AperFunction,Conductor*%
G36*
X147829206Y-70962157D02*
G01*
X147880776Y-71001727D01*
X149079570Y-72200521D01*
X149133546Y-72281303D01*
X149152500Y-72376591D01*
X149152500Y-73558192D01*
X149133546Y-73653480D01*
X149079570Y-73734262D01*
X149046321Y-73762160D01*
X148861595Y-73891507D01*
X148857605Y-73894855D01*
X148853954Y-73896857D01*
X148852694Y-73897740D01*
X148852597Y-73897601D01*
X148772423Y-73941580D01*
X148675845Y-73952150D01*
X148582573Y-73924957D01*
X148506808Y-73864140D01*
X148498133Y-73851429D01*
X148497469Y-73851927D01*
X148486796Y-73837670D01*
X148486796Y-73837669D01*
X148400546Y-73722454D01*
X148285331Y-73636204D01*
X148192100Y-73601431D01*
X148150481Y-73585908D01*
X148090876Y-73579500D01*
X148090873Y-73579500D01*
X148022500Y-73579500D01*
X147927212Y-73560546D01*
X147846430Y-73506570D01*
X147792454Y-73425788D01*
X147773500Y-73330500D01*
X147773500Y-72197368D01*
X147775630Y-72164868D01*
X147776072Y-72161509D01*
X147778509Y-72143000D01*
X147770510Y-72082246D01*
X147758558Y-71991459D01*
X147700066Y-71850246D01*
X147681323Y-71825820D01*
X147681322Y-71825818D01*
X147625425Y-71752972D01*
X147625414Y-71752959D01*
X147607017Y-71728983D01*
X147607015Y-71728982D01*
X147607015Y-71728981D01*
X147589524Y-71715560D01*
X147565036Y-71694085D01*
X147472367Y-71601416D01*
X147418391Y-71520634D01*
X147399437Y-71425346D01*
X147418391Y-71330058D01*
X147440556Y-71276545D01*
X147440558Y-71276541D01*
X147457837Y-71145291D01*
X147489066Y-71053297D01*
X147553124Y-70980252D01*
X147640260Y-70937281D01*
X147737207Y-70930927D01*
X147829206Y-70962157D01*
G37*
%TD.AperFunction*%
%TA.AperFunction,Conductor*%
G36*
X137932673Y-71777262D02*
G01*
X138001756Y-71845574D01*
X138039439Y-71935123D01*
X138044500Y-71985071D01*
X138044500Y-72306797D01*
X138025546Y-72402085D01*
X137971570Y-72482867D01*
X137890788Y-72536843D01*
X137795500Y-72555797D01*
X137700212Y-72536843D01*
X137619430Y-72482867D01*
X137600824Y-72462046D01*
X137592065Y-72451063D01*
X137483918Y-72315451D01*
X137474886Y-72304125D01*
X137430294Y-72217808D01*
X137422128Y-72120997D01*
X137451631Y-72028430D01*
X137489584Y-71976803D01*
X137531632Y-71932825D01*
X137587693Y-71847895D01*
X137656003Y-71778815D01*
X137745552Y-71741132D01*
X137842706Y-71740587D01*
X137932673Y-71777262D01*
G37*
%TD.AperFunction*%
%TA.AperFunction,Conductor*%
G36*
X150641788Y-69954107D02*
G01*
X150722570Y-70008083D01*
X151166524Y-70452037D01*
X151187997Y-70476523D01*
X151201421Y-70494017D01*
X151231863Y-70517376D01*
X151231866Y-70517379D01*
X151260681Y-70539489D01*
X151260683Y-70539492D01*
X151322681Y-70587064D01*
X151322683Y-70587066D01*
X151382935Y-70612022D01*
X151422527Y-70628421D01*
X151422534Y-70628426D01*
X151422535Y-70628425D01*
X151441976Y-70636478D01*
X151463896Y-70645558D01*
X151466978Y-70645963D01*
X151466988Y-70645967D01*
X151466988Y-70645965D01*
X151577391Y-70660500D01*
X151577395Y-70660500D01*
X151585462Y-70661562D01*
X151585484Y-70661564D01*
X151615438Y-70665508D01*
X151637301Y-70662630D01*
X151669799Y-70660500D01*
X151824500Y-70660500D01*
X151919788Y-70679454D01*
X152000570Y-70733430D01*
X152054546Y-70814212D01*
X152073500Y-70909500D01*
X152073500Y-72106328D01*
X152054546Y-72201616D01*
X152000570Y-72282398D01*
X151919788Y-72336374D01*
X151824500Y-72355328D01*
X151729212Y-72336374D01*
X151648430Y-72282398D01*
X150370430Y-71004398D01*
X150316454Y-70923616D01*
X150297500Y-70828328D01*
X150297500Y-70184153D01*
X150316454Y-70088865D01*
X150370430Y-70008083D01*
X150451212Y-69954107D01*
X150546500Y-69935153D01*
X150641788Y-69954107D01*
G37*
%TD.AperFunction*%
%TA.AperFunction,Conductor*%
G36*
X158250907Y-69649325D02*
G01*
X158339588Y-69689007D01*
X158406334Y-69759605D01*
X158440982Y-69850372D01*
X158444500Y-69892082D01*
X158444500Y-70497698D01*
X158425546Y-70592986D01*
X158371570Y-70673768D01*
X158290788Y-70727744D01*
X158195500Y-70746698D01*
X158178251Y-70746100D01*
X158160000Y-70744832D01*
X158160000Y-71620885D01*
X158141046Y-71716173D01*
X158087070Y-71796955D01*
X158006288Y-71850931D01*
X157911000Y-71869885D01*
X157815712Y-71850931D01*
X157734930Y-71796955D01*
X157680954Y-71716173D01*
X157671888Y-71690356D01*
X157652495Y-71623610D01*
X157652494Y-71623605D01*
X157634673Y-71593471D01*
X157602484Y-71501804D01*
X157600000Y-71466723D01*
X157600000Y-70744832D01*
X157530511Y-70680001D01*
X157525098Y-70676903D01*
X157465665Y-70600047D01*
X157440169Y-70506297D01*
X157452490Y-70409926D01*
X157455266Y-70402085D01*
X157483091Y-70327483D01*
X157489500Y-70267873D01*
X157489499Y-70014153D01*
X157508453Y-69918867D01*
X157562429Y-69838085D01*
X157643210Y-69784108D01*
X157711532Y-69770517D01*
X157711105Y-69766720D01*
X157829623Y-69753366D01*
X157889700Y-69746597D01*
X158046141Y-69691856D01*
X158063024Y-69681247D01*
X158153790Y-69646600D01*
X158250907Y-69649325D01*
G37*
%TD.AperFunction*%
%TA.AperFunction,Conductor*%
G36*
X169876827Y-63451979D02*
G01*
X169951377Y-63514279D01*
X169996412Y-63600366D01*
X170006500Y-63670524D01*
X170006500Y-69982223D01*
X169987546Y-70077511D01*
X169933570Y-70158293D01*
X169852788Y-70212269D01*
X169757500Y-70231223D01*
X169662212Y-70212269D01*
X169605922Y-70179771D01*
X169596528Y-70172563D01*
X169572036Y-70151085D01*
X168311430Y-68890479D01*
X168257454Y-68809697D01*
X168238500Y-68714409D01*
X168238500Y-67867431D01*
X168257454Y-67772143D01*
X168311430Y-67691361D01*
X168392212Y-67637385D01*
X168405245Y-67632409D01*
X168521141Y-67591856D01*
X168661478Y-67503676D01*
X168778676Y-67386478D01*
X168866856Y-67246141D01*
X168921597Y-67089700D01*
X168940154Y-66925000D01*
X168930410Y-66838522D01*
X168923881Y-66780570D01*
X168921597Y-66760300D01*
X168866856Y-66603859D01*
X168778676Y-66463522D01*
X168661478Y-66346324D01*
X168661475Y-66346322D01*
X168661474Y-66346321D01*
X168540209Y-66270125D01*
X168469610Y-66203380D01*
X168429928Y-66114698D01*
X168427203Y-66017581D01*
X168461851Y-65926815D01*
X168528596Y-65856216D01*
X168540188Y-65848470D01*
X168611478Y-65803676D01*
X168728676Y-65686478D01*
X168816856Y-65546141D01*
X168871597Y-65389700D01*
X168889290Y-65232669D01*
X168890154Y-65225003D01*
X168890154Y-65224996D01*
X168871859Y-65062623D01*
X168871597Y-65060300D01*
X168842802Y-64978008D01*
X168816857Y-64903860D01*
X168816856Y-64903859D01*
X168772440Y-64833171D01*
X168737792Y-64742405D01*
X168736839Y-64691320D01*
X168735509Y-64691320D01*
X168735509Y-64674999D01*
X168729397Y-64628581D01*
X168729396Y-64628574D01*
X168728201Y-64619500D01*
X168715558Y-64523459D01*
X168705398Y-64498931D01*
X168657068Y-64382250D01*
X168657066Y-64382246D01*
X168635283Y-64353858D01*
X168582432Y-64284979D01*
X168582408Y-64284951D01*
X168581350Y-64283572D01*
X168564017Y-64260983D01*
X168559210Y-64257294D01*
X168546516Y-64247553D01*
X168522034Y-64226083D01*
X168521520Y-64225569D01*
X168467544Y-64144787D01*
X168448590Y-64049499D01*
X168467544Y-63954211D01*
X168521520Y-63873429D01*
X168602302Y-63819453D01*
X168697590Y-63800499D01*
X169147866Y-63800499D01*
X169147872Y-63800499D01*
X169207483Y-63794091D01*
X169342331Y-63743796D01*
X169457546Y-63657546D01*
X169543796Y-63542331D01*
X169543796Y-63542329D01*
X169554469Y-63528073D01*
X169556812Y-63529827D01*
X169601255Y-63476647D01*
X169687342Y-63431612D01*
X169784110Y-63422950D01*
X169876827Y-63451979D01*
G37*
%TD.AperFunction*%
%TA.AperFunction,Conductor*%
G36*
X153123841Y-64074454D02*
G01*
X153204623Y-64128430D01*
X153715650Y-64639457D01*
X153769626Y-64720239D01*
X153788580Y-64815527D01*
X153769626Y-64910815D01*
X153715650Y-64991597D01*
X153634868Y-65045573D01*
X153539580Y-65064527D01*
X153444292Y-65045573D01*
X153387999Y-65013072D01*
X153361757Y-64992936D01*
X153361747Y-64992930D01*
X153220544Y-64934443D01*
X153220513Y-64934434D01*
X153219798Y-64934343D01*
X153192403Y-64930736D01*
X153100404Y-64899506D01*
X153027360Y-64835446D01*
X152989882Y-64766109D01*
X152941856Y-64628859D01*
X152853676Y-64488522D01*
X152845720Y-64480566D01*
X152791747Y-64399788D01*
X152772793Y-64304500D01*
X152791747Y-64209212D01*
X152845723Y-64128430D01*
X152926505Y-64074454D01*
X153021793Y-64055500D01*
X153028553Y-64055500D01*
X153123841Y-64074454D01*
G37*
%TD.AperFunction*%
%TA.AperFunction,Conductor*%
G36*
X158945788Y-53649454D02*
G01*
X159026570Y-53703430D01*
X159080546Y-53784212D01*
X159099500Y-53879500D01*
X159099500Y-54220500D01*
X159080546Y-54315788D01*
X159026570Y-54396570D01*
X158945788Y-54450546D01*
X158850500Y-54469500D01*
X157579361Y-54469500D01*
X157546861Y-54467370D01*
X157525000Y-54464492D01*
X157524999Y-54464492D01*
X157495043Y-54468435D01*
X157495035Y-54468435D01*
X157495036Y-54468436D01*
X157486954Y-54469500D01*
X157486953Y-54469500D01*
X157373459Y-54484442D01*
X157373457Y-54484442D01*
X157373454Y-54484443D01*
X157232250Y-54542931D01*
X157232247Y-54542933D01*
X157144733Y-54610085D01*
X157144609Y-54610178D01*
X157110987Y-54635979D01*
X157110979Y-54635987D01*
X157097555Y-54653481D01*
X157076087Y-54677960D01*
X155827961Y-55926086D01*
X155803482Y-55947554D01*
X155785988Y-55960978D01*
X155785979Y-55960987D01*
X155760100Y-55994712D01*
X155760089Y-55994727D01*
X155727365Y-56037375D01*
X155727363Y-56037378D01*
X155692933Y-56082246D01*
X155692931Y-56082250D01*
X155634442Y-56223456D01*
X155634442Y-56223458D01*
X155625858Y-56288653D01*
X155594627Y-56380651D01*
X155530567Y-56453695D01*
X155448460Y-56495260D01*
X155352107Y-56523254D01*
X155352101Y-56523256D01*
X155210635Y-56606919D01*
X155094419Y-56723135D01*
X155010756Y-56864601D01*
X154964903Y-57022427D01*
X154964901Y-57022436D01*
X154962000Y-57059295D01*
X154962000Y-57490704D01*
X154964901Y-57527563D01*
X154964901Y-57527566D01*
X154964902Y-57527569D01*
X155010756Y-57685398D01*
X155094419Y-57826865D01*
X155210635Y-57943081D01*
X155352102Y-58026744D01*
X155438192Y-58051755D01*
X155524408Y-58096541D01*
X155586923Y-58170911D01*
X155615593Y-58258369D01*
X155618434Y-58279950D01*
X155618440Y-58280003D01*
X155627453Y-58348452D01*
X155627453Y-58348459D01*
X155627454Y-58348459D01*
X155634441Y-58401539D01*
X155634443Y-58401545D01*
X155692930Y-58542747D01*
X155692933Y-58542753D01*
X155692934Y-58542754D01*
X155762621Y-58633572D01*
X155762623Y-58633574D01*
X155785983Y-58664017D01*
X155785986Y-58664019D01*
X155803475Y-58677439D01*
X155827962Y-58698913D01*
X156097378Y-58968329D01*
X156151354Y-59049111D01*
X156170308Y-59144399D01*
X156151354Y-59239687D01*
X156097378Y-59320469D01*
X156016596Y-59374445D01*
X155921308Y-59393399D01*
X155839070Y-59379426D01*
X155812339Y-59370072D01*
X155764701Y-59353403D01*
X155764689Y-59353401D01*
X155600004Y-59334846D01*
X155599996Y-59334846D01*
X155435310Y-59353401D01*
X155435299Y-59353403D01*
X155278859Y-59408144D01*
X155278856Y-59408145D01*
X155138523Y-59496323D01*
X155021323Y-59613523D01*
X154933145Y-59753856D01*
X154933145Y-59753857D01*
X154933144Y-59753859D01*
X154883166Y-59896687D01*
X154878402Y-59910303D01*
X154875292Y-59923931D01*
X154871658Y-59923101D01*
X154850350Y-59989941D01*
X154808496Y-60045551D01*
X154441947Y-60412102D01*
X154082480Y-60771569D01*
X154001698Y-60825546D01*
X153906410Y-60844500D01*
X150805311Y-60844500D01*
X150710023Y-60825546D01*
X150672836Y-60806335D01*
X150596141Y-60758144D01*
X150439700Y-60703403D01*
X150439697Y-60703402D01*
X150426501Y-60698785D01*
X150427023Y-60697291D01*
X150353021Y-60664176D01*
X150286277Y-60593576D01*
X150267068Y-60556392D01*
X150257068Y-60532250D01*
X150257066Y-60532246D01*
X150164017Y-60410983D01*
X150149699Y-60399996D01*
X150042757Y-60317935D01*
X150042755Y-60317934D01*
X149901541Y-60259442D01*
X149901538Y-60259441D01*
X149883488Y-60257065D01*
X149883487Y-60257064D01*
X149883487Y-60257065D01*
X149788047Y-60244500D01*
X149788047Y-60244499D01*
X149750000Y-60239491D01*
X149748413Y-60239700D01*
X149728132Y-60242370D01*
X149695632Y-60244500D01*
X147854368Y-60244500D01*
X147821868Y-60242370D01*
X147800000Y-60239491D01*
X147799999Y-60239491D01*
X147761952Y-60244499D01*
X147761953Y-60244500D01*
X147666513Y-60257065D01*
X147666512Y-60257065D01*
X147648458Y-60259441D01*
X147507250Y-60317931D01*
X147507247Y-60317933D01*
X147419733Y-60385085D01*
X147419609Y-60385178D01*
X147385987Y-60410979D01*
X147385979Y-60410987D01*
X147372555Y-60428481D01*
X147351087Y-60452960D01*
X144932479Y-62871570D01*
X144851697Y-62925546D01*
X144756409Y-62944500D01*
X144254361Y-62944500D01*
X144221861Y-62942370D01*
X144200000Y-62939492D01*
X144199999Y-62939492D01*
X144170043Y-62943435D01*
X144170035Y-62943435D01*
X144170036Y-62943436D01*
X144161954Y-62944500D01*
X144161953Y-62944500D01*
X144048459Y-62959442D01*
X144048457Y-62959442D01*
X144048454Y-62959443D01*
X143907250Y-63017931D01*
X143907247Y-63017933D01*
X143819733Y-63085085D01*
X143819609Y-63085178D01*
X143785987Y-63110979D01*
X143785979Y-63110987D01*
X143772555Y-63128481D01*
X143751087Y-63152960D01*
X143275210Y-63628837D01*
X143194428Y-63682813D01*
X143099140Y-63701767D01*
X143003852Y-63682813D01*
X142923070Y-63628837D01*
X142869094Y-63548055D01*
X142851706Y-63480648D01*
X142846597Y-63435300D01*
X142816005Y-63347873D01*
X142791858Y-63278862D01*
X142775973Y-63253581D01*
X142744717Y-63203838D01*
X142710071Y-63113075D01*
X142708684Y-63038859D01*
X142710509Y-63025000D01*
X142700561Y-62949442D01*
X142699910Y-62944500D01*
X142690558Y-62873459D01*
X142690557Y-62873456D01*
X142632066Y-62732246D01*
X142627008Y-62725655D01*
X142627001Y-62725646D01*
X142562379Y-62641428D01*
X142562376Y-62641425D01*
X142539017Y-62610983D01*
X142539015Y-62610982D01*
X142539015Y-62610981D01*
X142521524Y-62597560D01*
X142497036Y-62576085D01*
X141658498Y-61737547D01*
X141604522Y-61656765D01*
X141599541Y-61643716D01*
X141596597Y-61635303D01*
X141596597Y-61635300D01*
X141541856Y-61478859D01*
X141453676Y-61338522D01*
X141336478Y-61221324D01*
X141196141Y-61133144D01*
X141039700Y-61078403D01*
X141039689Y-61078401D01*
X140875004Y-61059846D01*
X140861017Y-61059846D01*
X140861017Y-61057213D01*
X140785557Y-61050845D01*
X140699242Y-61006249D01*
X140636564Y-60932016D01*
X140607064Y-60839448D01*
X140605500Y-60811580D01*
X140605500Y-60769012D01*
X140624454Y-60673724D01*
X140678430Y-60592942D01*
X140759212Y-60538966D01*
X140790047Y-60528498D01*
X140879330Y-60504575D01*
X141077639Y-60412102D01*
X141256877Y-60286598D01*
X141411598Y-60131877D01*
X141537102Y-59952639D01*
X141629575Y-59754330D01*
X141686207Y-59542977D01*
X141705277Y-59325000D01*
X141686207Y-59107023D01*
X141629575Y-58895670D01*
X141578772Y-58786723D01*
X141537105Y-58697368D01*
X141537101Y-58697360D01*
X141466228Y-58596143D01*
X141411598Y-58518123D01*
X141256877Y-58363402D01*
X141077639Y-58237898D01*
X141022013Y-58211959D01*
X140879328Y-58145424D01*
X140853601Y-58138531D01*
X140766465Y-58095560D01*
X140741978Y-58074086D01*
X140449999Y-57782107D01*
X140158020Y-58074085D01*
X140077239Y-58128061D01*
X140046404Y-58138529D01*
X140020666Y-58145426D01*
X139822364Y-58237896D01*
X139822360Y-58237898D01*
X139643124Y-58363401D01*
X139488401Y-58518124D01*
X139362898Y-58697360D01*
X139362896Y-58697364D01*
X139332170Y-58763257D01*
X139274721Y-58841607D01*
X139191662Y-58892008D01*
X139095637Y-58906787D01*
X139001267Y-58883694D01*
X138922917Y-58826245D01*
X138872516Y-58743186D01*
X138857500Y-58658024D01*
X138857500Y-58063531D01*
X138876454Y-57968243D01*
X138930430Y-57887461D01*
X138930431Y-57887461D01*
X139742894Y-57074999D01*
X141157107Y-57074999D01*
X141989907Y-57907799D01*
X142031119Y-57836420D01*
X142126941Y-57592268D01*
X142185305Y-57336558D01*
X142204906Y-57075000D01*
X142185305Y-56813441D01*
X142126941Y-56557732D01*
X142031115Y-56313571D01*
X141989908Y-56242198D01*
X141989907Y-56242198D01*
X141157107Y-57074999D01*
X139742894Y-57074999D01*
X140450001Y-56367893D01*
X141297043Y-55520848D01*
X141297562Y-55502363D01*
X141337244Y-55413681D01*
X141364245Y-55381704D01*
X142198930Y-54547020D01*
X142279711Y-54493044D01*
X142374999Y-54474090D01*
X142470287Y-54493044D01*
X142551069Y-54547020D01*
X142616086Y-54612037D01*
X142637559Y-54636523D01*
X142650983Y-54654017D01*
X142681425Y-54677376D01*
X142681428Y-54677379D01*
X142772246Y-54747066D01*
X142772248Y-54747067D01*
X142805681Y-54760915D01*
X142886463Y-54814891D01*
X142940440Y-54895672D01*
X142959395Y-54990959D01*
X142957491Y-55012047D01*
X142958333Y-55012114D01*
X142954500Y-55060810D01*
X142954500Y-55459170D01*
X142954501Y-55459184D01*
X142957334Y-55495199D01*
X142957336Y-55495209D01*
X143002129Y-55649388D01*
X143002129Y-55649390D01*
X143083865Y-55787598D01*
X143093469Y-55799979D01*
X143092489Y-55800738D01*
X143137371Y-55867909D01*
X143156325Y-55963197D01*
X143142353Y-56045434D01*
X143128403Y-56085300D01*
X143128401Y-56085310D01*
X143109846Y-56249996D01*
X143109846Y-56250003D01*
X143128401Y-56414689D01*
X143128403Y-56414700D01*
X143183144Y-56571141D01*
X143271324Y-56711478D01*
X143388522Y-56828676D01*
X143528859Y-56916856D01*
X143685300Y-56971597D01*
X143721451Y-56975670D01*
X143849996Y-56990154D01*
X143850000Y-56990154D01*
X143850004Y-56990154D01*
X143957559Y-56978035D01*
X144014700Y-56971597D01*
X144171141Y-56916856D01*
X144311478Y-56828676D01*
X144428676Y-56711478D01*
X144516856Y-56571141D01*
X144571597Y-56414700D01*
X144582991Y-56313571D01*
X144590154Y-56250003D01*
X144590154Y-56249996D01*
X144571598Y-56085310D01*
X144571597Y-56085300D01*
X144554829Y-56037379D01*
X144516857Y-55928859D01*
X144514420Y-55923799D01*
X144512551Y-55916554D01*
X144512238Y-55915659D01*
X144512313Y-55915632D01*
X144490154Y-55829724D01*
X144503736Y-55733523D01*
X144524438Y-55689012D01*
X144547869Y-55649393D01*
X144547871Y-55649388D01*
X144592663Y-55495210D01*
X144592665Y-55495204D01*
X144595500Y-55459181D01*
X144595499Y-55060820D01*
X144592665Y-55024796D01*
X144547869Y-54870607D01*
X144547866Y-54870603D01*
X144541650Y-54856237D01*
X144543949Y-54855241D01*
X144519312Y-54785088D01*
X144524649Y-54688080D01*
X144542799Y-54644260D01*
X144541650Y-54643763D01*
X144547866Y-54629396D01*
X144547869Y-54629393D01*
X144547871Y-54629387D01*
X144586034Y-54498031D01*
X144630820Y-54411814D01*
X144705191Y-54349300D01*
X144797823Y-54320004D01*
X144825147Y-54318500D01*
X145319409Y-54318500D01*
X145414697Y-54337454D01*
X145495479Y-54391430D01*
X148476086Y-57372037D01*
X148497559Y-57396523D01*
X148510983Y-57414017D01*
X148541425Y-57437376D01*
X148541428Y-57437379D01*
X148572835Y-57461478D01*
X148587791Y-57472954D01*
X148651850Y-57545998D01*
X148683081Y-57637997D01*
X148676727Y-57734944D01*
X148633757Y-57822080D01*
X148560713Y-57886139D01*
X148468714Y-57917370D01*
X148436211Y-57919500D01*
X145354361Y-57919500D01*
X145321861Y-57917370D01*
X145300000Y-57914492D01*
X145299999Y-57914492D01*
X145270043Y-57918435D01*
X145270035Y-57918435D01*
X145270036Y-57918436D01*
X145261954Y-57919500D01*
X145261953Y-57919500D01*
X145148459Y-57934442D01*
X145148457Y-57934442D01*
X145148454Y-57934443D01*
X145007250Y-57992931D01*
X145007247Y-57992933D01*
X144919733Y-58060085D01*
X144919609Y-58060178D01*
X144885987Y-58085979D01*
X144885979Y-58085987D01*
X144872555Y-58103481D01*
X144851087Y-58127960D01*
X143870550Y-59108497D01*
X143789768Y-59162473D01*
X143748439Y-59173140D01*
X143748931Y-59175292D01*
X143735303Y-59178402D01*
X143735300Y-59178402D01*
X143735300Y-59178403D01*
X143578859Y-59233144D01*
X143578857Y-59233145D01*
X143578856Y-59233145D01*
X143438523Y-59321323D01*
X143321323Y-59438523D01*
X143233145Y-59578856D01*
X143233144Y-59578859D01*
X143178403Y-59735299D01*
X143178401Y-59735310D01*
X143159846Y-59899996D01*
X143159846Y-59900003D01*
X143178401Y-60064689D01*
X143178402Y-60064695D01*
X143178403Y-60064700D01*
X143178404Y-60064704D01*
X143181514Y-60078326D01*
X143180333Y-60078595D01*
X143191929Y-60160754D01*
X143167658Y-60254828D01*
X143109234Y-60332454D01*
X143025562Y-60381808D01*
X142878858Y-60433142D01*
X142878852Y-60433145D01*
X142738519Y-60521323D01*
X142621319Y-60638523D01*
X142533141Y-60778856D01*
X142533140Y-60778859D01*
X142478399Y-60935299D01*
X142478397Y-60935310D01*
X142459842Y-61099996D01*
X142459842Y-61100003D01*
X142478397Y-61264689D01*
X142478399Y-61264698D01*
X142478399Y-61264700D01*
X142533140Y-61421141D01*
X142621320Y-61561478D01*
X142738518Y-61678676D01*
X142878855Y-61766856D01*
X143035296Y-61821597D01*
X143071447Y-61825670D01*
X143199992Y-61840154D01*
X143199996Y-61840154D01*
X143200000Y-61840154D01*
X143307555Y-61828035D01*
X143364696Y-61821597D01*
X143521137Y-61766856D01*
X143661474Y-61678676D01*
X143778672Y-61561478D01*
X143866852Y-61421141D01*
X143921593Y-61264700D01*
X143921593Y-61264696D01*
X143924704Y-61251070D01*
X143928355Y-61251903D01*
X143949536Y-61185256D01*
X143991495Y-61129450D01*
X144272043Y-60848902D01*
X144296523Y-60827435D01*
X144314017Y-60814013D01*
X144324906Y-60799820D01*
X144324911Y-60799816D01*
X144337377Y-60783569D01*
X144337379Y-60783568D01*
X144373893Y-60735981D01*
X144407066Y-60692750D01*
X144465558Y-60551537D01*
X144480500Y-60438043D01*
X144480500Y-60438041D01*
X144481564Y-60429960D01*
X144481565Y-60429949D01*
X144486634Y-60391441D01*
X144517862Y-60299442D01*
X144522671Y-60291461D01*
X144566851Y-60221149D01*
X144566851Y-60221148D01*
X144566856Y-60221141D01*
X144621597Y-60064700D01*
X144621597Y-60064696D01*
X144624708Y-60051070D01*
X144628362Y-60051903D01*
X144649526Y-59985280D01*
X144691500Y-59929449D01*
X145467521Y-59153430D01*
X145548302Y-59099454D01*
X145643590Y-59080500D01*
X149219689Y-59080500D01*
X149314977Y-59099454D01*
X149352163Y-59118664D01*
X149428859Y-59166856D01*
X149585300Y-59221597D01*
X149621451Y-59225670D01*
X149749996Y-59240154D01*
X149750000Y-59240154D01*
X149750004Y-59240154D01*
X149857559Y-59228035D01*
X149914700Y-59221597D01*
X150071141Y-59166856D01*
X150211478Y-59078676D01*
X150328676Y-58961478D01*
X150416856Y-58821141D01*
X150471597Y-58664700D01*
X150490154Y-58500000D01*
X150488623Y-58486415D01*
X150471598Y-58335310D01*
X150471597Y-58335300D01*
X150416856Y-58178859D01*
X150360572Y-58089284D01*
X150325925Y-57998519D01*
X150328650Y-57901402D01*
X150368332Y-57812720D01*
X150438930Y-57745975D01*
X150489168Y-57721782D01*
X150489695Y-57721597D01*
X150489700Y-57721597D01*
X150646141Y-57666856D01*
X150786478Y-57578676D01*
X150903676Y-57461478D01*
X150991856Y-57321141D01*
X151046597Y-57164700D01*
X151058473Y-57059295D01*
X151065154Y-57000003D01*
X151065154Y-56999996D01*
X151050670Y-56871451D01*
X151046597Y-56835300D01*
X150991856Y-56678859D01*
X150903676Y-56538522D01*
X150786478Y-56421324D01*
X150712754Y-56375000D01*
X150646143Y-56333145D01*
X150646142Y-56333144D01*
X150646141Y-56333144D01*
X150489700Y-56278403D01*
X150489689Y-56278401D01*
X150325004Y-56259846D01*
X150324996Y-56259846D01*
X150160310Y-56278401D01*
X150160299Y-56278403D01*
X150003849Y-56333147D01*
X149999820Y-56335088D01*
X149994057Y-56336573D01*
X149990660Y-56337763D01*
X149990559Y-56337476D01*
X149905743Y-56359350D01*
X149809543Y-56345763D01*
X149725865Y-56296396D01*
X149667449Y-56218765D01*
X149643187Y-56124688D01*
X149656774Y-56028488D01*
X149680960Y-55978267D01*
X149716856Y-55921141D01*
X149771597Y-55764700D01*
X149771597Y-55764696D01*
X149774708Y-55751070D01*
X149778359Y-55751903D01*
X149799540Y-55685256D01*
X149841504Y-55629446D01*
X151767522Y-53703430D01*
X151848303Y-53649454D01*
X151943591Y-53630500D01*
X158850500Y-53630500D01*
X158945788Y-53649454D01*
G37*
%TD.AperFunction*%
%TA.AperFunction,Conductor*%
G36*
X169876827Y-56451979D02*
G01*
X169951377Y-56514279D01*
X169996412Y-56600366D01*
X170006500Y-56670524D01*
X170006500Y-60429475D01*
X169987546Y-60524763D01*
X169933570Y-60605545D01*
X169852788Y-60659521D01*
X169757500Y-60678475D01*
X169662212Y-60659521D01*
X169581430Y-60605545D01*
X169555619Y-60571066D01*
X169554469Y-60571927D01*
X169543796Y-60557670D01*
X169543796Y-60557669D01*
X169457546Y-60442454D01*
X169342331Y-60356204D01*
X169262117Y-60326286D01*
X169207481Y-60305908D01*
X169147876Y-60299500D01*
X169147873Y-60299500D01*
X166879500Y-60299500D01*
X166784212Y-60280546D01*
X166703430Y-60226570D01*
X166649454Y-60145788D01*
X166630500Y-60050500D01*
X166630500Y-58962793D01*
X166649454Y-58867505D01*
X166703427Y-58786726D01*
X166753676Y-58736478D01*
X166841856Y-58596141D01*
X166896597Y-58439700D01*
X166909070Y-58329000D01*
X166915154Y-58275003D01*
X166915154Y-58274996D01*
X166896598Y-58110310D01*
X166896597Y-58110300D01*
X166841856Y-57953859D01*
X166835083Y-57943080D01*
X166799831Y-57886976D01*
X166765183Y-57796209D01*
X166767908Y-57699092D01*
X166807590Y-57610411D01*
X166878189Y-57543666D01*
X166968956Y-57509018D01*
X167010665Y-57505500D01*
X167444689Y-57505500D01*
X167539977Y-57524454D01*
X167577163Y-57543664D01*
X167653859Y-57591856D01*
X167810300Y-57646597D01*
X167846451Y-57650670D01*
X167974996Y-57665154D01*
X167975000Y-57665154D01*
X167975004Y-57665154D01*
X168082559Y-57653035D01*
X168139700Y-57646597D01*
X168296141Y-57591856D01*
X168436478Y-57503676D01*
X168553676Y-57386478D01*
X168641856Y-57246141D01*
X168696597Y-57089700D01*
X168704176Y-57022436D01*
X168704268Y-57021621D01*
X168733771Y-56929054D01*
X168796452Y-56854824D01*
X168882769Y-56810231D01*
X168951702Y-56800499D01*
X169147866Y-56800499D01*
X169147872Y-56800499D01*
X169207483Y-56794091D01*
X169342331Y-56743796D01*
X169457546Y-56657546D01*
X169543796Y-56542331D01*
X169543796Y-56542329D01*
X169554469Y-56528073D01*
X169556812Y-56529827D01*
X169601255Y-56476647D01*
X169687342Y-56431612D01*
X169784110Y-56422950D01*
X169876827Y-56451979D01*
G37*
%TD.AperFunction*%
%TA.AperFunction,Conductor*%
G36*
X150444697Y-52897454D02*
G01*
X150525479Y-52951430D01*
X150579455Y-53032212D01*
X150598409Y-53127500D01*
X150579455Y-53222788D01*
X150525479Y-53303570D01*
X150525478Y-53303570D01*
X149020549Y-54808497D01*
X148939768Y-54862473D01*
X148898439Y-54873140D01*
X148898931Y-54875292D01*
X148885303Y-54878402D01*
X148885300Y-54878402D01*
X148885300Y-54878403D01*
X148728859Y-54933144D01*
X148728857Y-54933145D01*
X148728856Y-54933145D01*
X148588523Y-55021323D01*
X148471320Y-55138526D01*
X148410989Y-55234542D01*
X148344244Y-55305141D01*
X148255562Y-55344822D01*
X148158445Y-55347547D01*
X148067679Y-55312898D01*
X148024086Y-55278135D01*
X146111913Y-53365962D01*
X146090438Y-53341474D01*
X146089077Y-53339700D01*
X146077017Y-53323983D01*
X146077012Y-53323979D01*
X146065477Y-53312444D01*
X146066474Y-53311446D01*
X146014343Y-53252002D01*
X145983112Y-53160003D01*
X145989466Y-53063056D01*
X146032436Y-52975920D01*
X146105480Y-52911861D01*
X146197479Y-52880630D01*
X146229982Y-52878500D01*
X150349409Y-52878500D01*
X150444697Y-52897454D01*
G37*
%TD.AperFunction*%
%TA.AperFunction,Conductor*%
G36*
X143100685Y-41543954D02*
G01*
X143181467Y-41597930D01*
X143235443Y-41678712D01*
X143254357Y-41769564D01*
X143336460Y-46377567D01*
X143336500Y-46382003D01*
X143336500Y-52114409D01*
X143317546Y-52209697D01*
X143263570Y-52290479D01*
X143182788Y-52344455D01*
X143087500Y-52363409D01*
X142992212Y-52344455D01*
X142911430Y-52290479D01*
X142216503Y-51595552D01*
X142162527Y-51514770D01*
X142151877Y-51473434D01*
X142149708Y-51473930D01*
X142146597Y-51460301D01*
X142146597Y-51460300D01*
X142091856Y-51303859D01*
X142003676Y-51163522D01*
X141886478Y-51046324D01*
X141746141Y-50958144D01*
X141589700Y-50903403D01*
X141589689Y-50903401D01*
X141425004Y-50884846D01*
X141424996Y-50884846D01*
X141260310Y-50903401D01*
X141260299Y-50903403D01*
X141103859Y-50958144D01*
X141103856Y-50958145D01*
X140963523Y-51046323D01*
X140846323Y-51163523D01*
X140758145Y-51303856D01*
X140758144Y-51303859D01*
X140703403Y-51460299D01*
X140703401Y-51460310D01*
X140684846Y-51624996D01*
X140684846Y-51625003D01*
X140703401Y-51789689D01*
X140703403Y-51789700D01*
X140758144Y-51946141D01*
X140846324Y-52086478D01*
X140963522Y-52203676D01*
X141103859Y-52291856D01*
X141253216Y-52344118D01*
X141336896Y-52393481D01*
X141395317Y-52471109D01*
X141419583Y-52565185D01*
X141406002Y-52661386D01*
X141381809Y-52711621D01*
X141308147Y-52828851D01*
X141308144Y-52828859D01*
X141253403Y-52985299D01*
X141253401Y-52985310D01*
X141234846Y-53149996D01*
X141234846Y-53150003D01*
X141253401Y-53314689D01*
X141253403Y-53314700D01*
X141308144Y-53471141D01*
X141308146Y-53471144D01*
X141308147Y-53471146D01*
X141327817Y-53502451D01*
X141362464Y-53593218D01*
X141359739Y-53690335D01*
X141320056Y-53779016D01*
X141293052Y-53810996D01*
X140530570Y-54573478D01*
X140449788Y-54627454D01*
X140354500Y-54646408D01*
X140259212Y-54627454D01*
X140178430Y-54573478D01*
X140124454Y-54492696D01*
X140105500Y-54397408D01*
X140105500Y-54005009D01*
X140124454Y-53909721D01*
X140178430Y-53828939D01*
X140222020Y-53794177D01*
X140286478Y-53753676D01*
X140403676Y-53636478D01*
X140491856Y-53496141D01*
X140546597Y-53339700D01*
X140565154Y-53175000D01*
X140563464Y-53160003D01*
X140550670Y-53046451D01*
X140546597Y-53010300D01*
X140491856Y-52853859D01*
X140403676Y-52713522D01*
X140286478Y-52596324D01*
X140190604Y-52536082D01*
X140146143Y-52508145D01*
X140146142Y-52508144D01*
X140146141Y-52508144D01*
X139989700Y-52453403D01*
X139989689Y-52453401D01*
X139825004Y-52434846D01*
X139824996Y-52434846D01*
X139660310Y-52453401D01*
X139660299Y-52453403D01*
X139503859Y-52508144D01*
X139503856Y-52508145D01*
X139363523Y-52596323D01*
X139363522Y-52596323D01*
X139363522Y-52596324D01*
X139282566Y-52677279D01*
X139201788Y-52731253D01*
X139106500Y-52750207D01*
X139011212Y-52731253D01*
X138930430Y-52677277D01*
X138876454Y-52596495D01*
X138857500Y-52501207D01*
X138857500Y-41774000D01*
X138876454Y-41678712D01*
X138930430Y-41597930D01*
X139011212Y-41543954D01*
X139106500Y-41525000D01*
X143005397Y-41525000D01*
X143100685Y-41543954D01*
G37*
%TD.AperFunction*%
%TA.AperFunction,Conductor*%
G36*
X169852788Y-41493954D02*
G01*
X169933570Y-41547930D01*
X169987546Y-41628712D01*
X170006500Y-41724000D01*
X170006500Y-53429475D01*
X169987546Y-53524763D01*
X169933570Y-53605545D01*
X169852788Y-53659521D01*
X169757500Y-53678475D01*
X169662212Y-53659521D01*
X169581430Y-53605545D01*
X169555619Y-53571066D01*
X169554469Y-53571927D01*
X169543796Y-53557670D01*
X169543796Y-53557669D01*
X169457546Y-53442454D01*
X169342331Y-53356204D01*
X169211978Y-53307585D01*
X169129322Y-53256527D01*
X169072497Y-53177724D01*
X169050154Y-53083173D01*
X169065694Y-52987269D01*
X169088161Y-52941808D01*
X169106978Y-52911861D01*
X169116856Y-52896141D01*
X169171597Y-52739700D01*
X169187732Y-52596495D01*
X169190154Y-52575003D01*
X169190154Y-52574996D01*
X169171598Y-52410310D01*
X169171597Y-52410300D01*
X169116856Y-52253859D01*
X169028676Y-52113522D01*
X168911478Y-51996324D01*
X168771141Y-51908144D01*
X168614700Y-51853403D01*
X168614689Y-51853401D01*
X168450004Y-51834846D01*
X168450002Y-51834846D01*
X168450000Y-51834846D01*
X168428702Y-51837245D01*
X168411790Y-51839151D01*
X168314979Y-51830984D01*
X168228663Y-51786390D01*
X168165982Y-51712160D01*
X168148891Y-51673965D01*
X168141856Y-51653859D01*
X168053676Y-51513522D01*
X167936478Y-51396324D01*
X167796141Y-51308144D01*
X167639700Y-51253403D01*
X167639689Y-51253401D01*
X167475004Y-51234846D01*
X167474996Y-51234846D01*
X167310310Y-51253401D01*
X167310299Y-51253403D01*
X167153859Y-51308144D01*
X167153856Y-51308145D01*
X167013523Y-51396323D01*
X166896323Y-51513523D01*
X166808145Y-51653856D01*
X166808145Y-51653857D01*
X166808144Y-51653859D01*
X166760615Y-51789689D01*
X166753402Y-51810303D01*
X166750292Y-51823931D01*
X166746658Y-51823101D01*
X166725350Y-51889941D01*
X166683497Y-51945551D01*
X166232480Y-52396569D01*
X166151698Y-52450546D01*
X166056410Y-52469500D01*
X165799000Y-52469500D01*
X165703712Y-52450546D01*
X165622930Y-52396570D01*
X165568954Y-52315788D01*
X165550000Y-52220500D01*
X165550000Y-41724000D01*
X165568954Y-41628712D01*
X165622930Y-41547930D01*
X165703712Y-41493954D01*
X165799000Y-41475000D01*
X169757500Y-41475000D01*
X169852788Y-41493954D01*
G37*
%TD.AperFunction*%
%TD*%
M02*
