%TF.GenerationSoftware,KiCad,Pcbnew,7.0.10*%
%TF.CreationDate,2024-12-13T01:24:43+05:30*%
%TF.ProjectId,remote_v2,72656d6f-7465-45f7-9632-2e6b69636164,rev?*%
%TF.SameCoordinates,Original*%
%TF.FileFunction,Legend,Bot*%
%TF.FilePolarity,Positive*%
%FSLAX46Y46*%
G04 Gerber Fmt 4.6, Leading zero omitted, Abs format (unit mm)*
G04 Created by KiCad (PCBNEW 7.0.10) date 2024-12-13 01:24:43*
%MOMM*%
%LPD*%
G01*
G04 APERTURE LIST*
%ADD10C,0.160000*%
%ADD11C,1.250000*%
%ADD12C,0.375000*%
%ADD13C,0.250000*%
%ADD14C,0.120000*%
G04 APERTURE END LIST*
D10*
X205681929Y-44469299D02*
X206081929Y-44469299D01*
X205881929Y-45469299D02*
X205881929Y-44469299D01*
X206248596Y-44469299D02*
X206715262Y-45469299D01*
X206715262Y-44469299D02*
X206248596Y-45469299D01*
D11*
X89450012Y-119101190D02*
X91116679Y-114339285D01*
X92307155Y-119101190D02*
X92307155Y-109101190D01*
X92307155Y-109101190D02*
X90402393Y-109101190D01*
X90402393Y-109101190D02*
X89926203Y-109577380D01*
X89926203Y-109577380D02*
X89688108Y-110053571D01*
X89688108Y-110053571D02*
X89450012Y-111005952D01*
X89450012Y-111005952D02*
X89450012Y-112434523D01*
X89450012Y-112434523D02*
X89688108Y-113386904D01*
X89688108Y-113386904D02*
X89926203Y-113863095D01*
X89926203Y-113863095D02*
X90402393Y-114339285D01*
X90402393Y-114339285D02*
X92307155Y-114339285D01*
D10*
X158355263Y-86369299D02*
X158788596Y-86369299D01*
X158788596Y-86369299D02*
X158555263Y-86750251D01*
X158555263Y-86750251D02*
X158655263Y-86750251D01*
X158655263Y-86750251D02*
X158721929Y-86797870D01*
X158721929Y-86797870D02*
X158755263Y-86845489D01*
X158755263Y-86845489D02*
X158788596Y-86940727D01*
X158788596Y-86940727D02*
X158788596Y-87178822D01*
X158788596Y-87178822D02*
X158755263Y-87274060D01*
X158755263Y-87274060D02*
X158721929Y-87321680D01*
X158721929Y-87321680D02*
X158655263Y-87369299D01*
X158655263Y-87369299D02*
X158455263Y-87369299D01*
X158455263Y-87369299D02*
X158388596Y-87321680D01*
X158388596Y-87321680D02*
X158355263Y-87274060D01*
X159088596Y-87274060D02*
X159121930Y-87321680D01*
X159121930Y-87321680D02*
X159088596Y-87369299D01*
X159088596Y-87369299D02*
X159055263Y-87321680D01*
X159055263Y-87321680D02*
X159088596Y-87274060D01*
X159088596Y-87274060D02*
X159088596Y-87369299D01*
X159355263Y-86369299D02*
X159788596Y-86369299D01*
X159788596Y-86369299D02*
X159555263Y-86750251D01*
X159555263Y-86750251D02*
X159655263Y-86750251D01*
X159655263Y-86750251D02*
X159721929Y-86797870D01*
X159721929Y-86797870D02*
X159755263Y-86845489D01*
X159755263Y-86845489D02*
X159788596Y-86940727D01*
X159788596Y-86940727D02*
X159788596Y-87178822D01*
X159788596Y-87178822D02*
X159755263Y-87274060D01*
X159755263Y-87274060D02*
X159721929Y-87321680D01*
X159721929Y-87321680D02*
X159655263Y-87369299D01*
X159655263Y-87369299D02*
X159455263Y-87369299D01*
X159455263Y-87369299D02*
X159388596Y-87321680D01*
X159388596Y-87321680D02*
X159355263Y-87274060D01*
X159988596Y-86369299D02*
X160221930Y-87369299D01*
X160221930Y-87369299D02*
X160455263Y-86369299D01*
X158718596Y-95706918D02*
X158651929Y-95659299D01*
X158651929Y-95659299D02*
X158551929Y-95659299D01*
X158551929Y-95659299D02*
X158451929Y-95706918D01*
X158451929Y-95706918D02*
X158385263Y-95802156D01*
X158385263Y-95802156D02*
X158351929Y-95897394D01*
X158351929Y-95897394D02*
X158318596Y-96087870D01*
X158318596Y-96087870D02*
X158318596Y-96230727D01*
X158318596Y-96230727D02*
X158351929Y-96421203D01*
X158351929Y-96421203D02*
X158385263Y-96516441D01*
X158385263Y-96516441D02*
X158451929Y-96611680D01*
X158451929Y-96611680D02*
X158551929Y-96659299D01*
X158551929Y-96659299D02*
X158618596Y-96659299D01*
X158618596Y-96659299D02*
X158718596Y-96611680D01*
X158718596Y-96611680D02*
X158751929Y-96564060D01*
X158751929Y-96564060D02*
X158751929Y-96230727D01*
X158751929Y-96230727D02*
X158618596Y-96230727D01*
X159051929Y-96659299D02*
X159051929Y-95659299D01*
X159051929Y-95659299D02*
X159451929Y-96659299D01*
X159451929Y-96659299D02*
X159451929Y-95659299D01*
X159785262Y-96659299D02*
X159785262Y-95659299D01*
X159785262Y-95659299D02*
X159951929Y-95659299D01*
X159951929Y-95659299D02*
X160051929Y-95706918D01*
X160051929Y-95706918D02*
X160118596Y-95802156D01*
X160118596Y-95802156D02*
X160151929Y-95897394D01*
X160151929Y-95897394D02*
X160185262Y-96087870D01*
X160185262Y-96087870D02*
X160185262Y-96230727D01*
X160185262Y-96230727D02*
X160151929Y-96421203D01*
X160151929Y-96421203D02*
X160118596Y-96516441D01*
X160118596Y-96516441D02*
X160051929Y-96611680D01*
X160051929Y-96611680D02*
X159951929Y-96659299D01*
X159951929Y-96659299D02*
X159785262Y-96659299D01*
X205748596Y-42586918D02*
X205681929Y-42539299D01*
X205681929Y-42539299D02*
X205581929Y-42539299D01*
X205581929Y-42539299D02*
X205481929Y-42586918D01*
X205481929Y-42586918D02*
X205415263Y-42682156D01*
X205415263Y-42682156D02*
X205381929Y-42777394D01*
X205381929Y-42777394D02*
X205348596Y-42967870D01*
X205348596Y-42967870D02*
X205348596Y-43110727D01*
X205348596Y-43110727D02*
X205381929Y-43301203D01*
X205381929Y-43301203D02*
X205415263Y-43396441D01*
X205415263Y-43396441D02*
X205481929Y-43491680D01*
X205481929Y-43491680D02*
X205581929Y-43539299D01*
X205581929Y-43539299D02*
X205648596Y-43539299D01*
X205648596Y-43539299D02*
X205748596Y-43491680D01*
X205748596Y-43491680D02*
X205781929Y-43444060D01*
X205781929Y-43444060D02*
X205781929Y-43110727D01*
X205781929Y-43110727D02*
X205648596Y-43110727D01*
X206081929Y-43539299D02*
X206081929Y-42539299D01*
X206081929Y-42539299D02*
X206481929Y-43539299D01*
X206481929Y-43539299D02*
X206481929Y-42539299D01*
X206815262Y-43539299D02*
X206815262Y-42539299D01*
X206815262Y-42539299D02*
X206981929Y-42539299D01*
X206981929Y-42539299D02*
X207081929Y-42586918D01*
X207081929Y-42586918D02*
X207148596Y-42682156D01*
X207148596Y-42682156D02*
X207181929Y-42777394D01*
X207181929Y-42777394D02*
X207215262Y-42967870D01*
X207215262Y-42967870D02*
X207215262Y-43110727D01*
X207215262Y-43110727D02*
X207181929Y-43301203D01*
X207181929Y-43301203D02*
X207148596Y-43396441D01*
X207148596Y-43396441D02*
X207081929Y-43491680D01*
X207081929Y-43491680D02*
X206981929Y-43539299D01*
X206981929Y-43539299D02*
X206815262Y-43539299D01*
X205551929Y-50939299D02*
X205551929Y-49939299D01*
X206018596Y-49939299D02*
X206151929Y-49939299D01*
X206151929Y-49939299D02*
X206218596Y-49986918D01*
X206218596Y-49986918D02*
X206285262Y-50082156D01*
X206285262Y-50082156D02*
X206318596Y-50272632D01*
X206318596Y-50272632D02*
X206318596Y-50605965D01*
X206318596Y-50605965D02*
X206285262Y-50796441D01*
X206285262Y-50796441D02*
X206218596Y-50891680D01*
X206218596Y-50891680D02*
X206151929Y-50939299D01*
X206151929Y-50939299D02*
X206018596Y-50939299D01*
X206018596Y-50939299D02*
X205951929Y-50891680D01*
X205951929Y-50891680D02*
X205885262Y-50796441D01*
X205885262Y-50796441D02*
X205851929Y-50605965D01*
X205851929Y-50605965D02*
X205851929Y-50272632D01*
X205851929Y-50272632D02*
X205885262Y-50082156D01*
X205885262Y-50082156D02*
X205951929Y-49986918D01*
X205951929Y-49986918D02*
X206018596Y-49939299D01*
X206751929Y-49939299D02*
X206818595Y-49939299D01*
X206818595Y-49939299D02*
X206885262Y-49986918D01*
X206885262Y-49986918D02*
X206918595Y-50034537D01*
X206918595Y-50034537D02*
X206951929Y-50129775D01*
X206951929Y-50129775D02*
X206985262Y-50320251D01*
X206985262Y-50320251D02*
X206985262Y-50558346D01*
X206985262Y-50558346D02*
X206951929Y-50748822D01*
X206951929Y-50748822D02*
X206918595Y-50844060D01*
X206918595Y-50844060D02*
X206885262Y-50891680D01*
X206885262Y-50891680D02*
X206818595Y-50939299D01*
X206818595Y-50939299D02*
X206751929Y-50939299D01*
X206751929Y-50939299D02*
X206685262Y-50891680D01*
X206685262Y-50891680D02*
X206651929Y-50844060D01*
X206651929Y-50844060D02*
X206618595Y-50748822D01*
X206618595Y-50748822D02*
X206585262Y-50558346D01*
X206585262Y-50558346D02*
X206585262Y-50320251D01*
X206585262Y-50320251D02*
X206618595Y-50129775D01*
X206618595Y-50129775D02*
X206651929Y-50034537D01*
X206651929Y-50034537D02*
X206685262Y-49986918D01*
X206685262Y-49986918D02*
X206751929Y-49939299D01*
X159141929Y-92929299D02*
X158908596Y-92453108D01*
X158741929Y-92929299D02*
X158741929Y-91929299D01*
X158741929Y-91929299D02*
X159008596Y-91929299D01*
X159008596Y-91929299D02*
X159075263Y-91976918D01*
X159075263Y-91976918D02*
X159108596Y-92024537D01*
X159108596Y-92024537D02*
X159141929Y-92119775D01*
X159141929Y-92119775D02*
X159141929Y-92262632D01*
X159141929Y-92262632D02*
X159108596Y-92357870D01*
X159108596Y-92357870D02*
X159075263Y-92405489D01*
X159075263Y-92405489D02*
X159008596Y-92453108D01*
X159008596Y-92453108D02*
X158741929Y-92453108D01*
X159375263Y-91929299D02*
X159841929Y-92929299D01*
X159841929Y-91929299D02*
X159375263Y-92929299D01*
D11*
X67174748Y-109725000D02*
X67889034Y-109248809D01*
X67889034Y-109248809D02*
X69079510Y-109248809D01*
X69079510Y-109248809D02*
X69555701Y-109725000D01*
X69555701Y-109725000D02*
X69793796Y-110201190D01*
X69793796Y-110201190D02*
X70031891Y-111153571D01*
X70031891Y-111153571D02*
X70031891Y-112105952D01*
X70031891Y-112105952D02*
X69793796Y-113058333D01*
X69793796Y-113058333D02*
X69555701Y-113534523D01*
X69555701Y-113534523D02*
X69079510Y-114010714D01*
X69079510Y-114010714D02*
X68127129Y-114486904D01*
X68127129Y-114486904D02*
X67650939Y-114963095D01*
X67650939Y-114963095D02*
X67412844Y-115439285D01*
X67412844Y-115439285D02*
X67174748Y-116391666D01*
X67174748Y-116391666D02*
X67174748Y-117344047D01*
X67174748Y-117344047D02*
X67412844Y-118296428D01*
X67412844Y-118296428D02*
X67650939Y-118772619D01*
X67650939Y-118772619D02*
X68127129Y-119248809D01*
X68127129Y-119248809D02*
X69317606Y-119248809D01*
X69317606Y-119248809D02*
X70031891Y-118772619D01*
D10*
X206091929Y-47219299D02*
X205858596Y-46743108D01*
X205691929Y-47219299D02*
X205691929Y-46219299D01*
X205691929Y-46219299D02*
X205958596Y-46219299D01*
X205958596Y-46219299D02*
X206025263Y-46266918D01*
X206025263Y-46266918D02*
X206058596Y-46314537D01*
X206058596Y-46314537D02*
X206091929Y-46409775D01*
X206091929Y-46409775D02*
X206091929Y-46552632D01*
X206091929Y-46552632D02*
X206058596Y-46647870D01*
X206058596Y-46647870D02*
X206025263Y-46695489D01*
X206025263Y-46695489D02*
X205958596Y-46743108D01*
X205958596Y-46743108D02*
X205691929Y-46743108D01*
X206325263Y-46219299D02*
X206791929Y-47219299D01*
X206791929Y-46219299D02*
X206325263Y-47219299D01*
D12*
X164416147Y-74641214D02*
X164201861Y-74712642D01*
X164201861Y-74712642D02*
X164130432Y-74784071D01*
X164130432Y-74784071D02*
X164059004Y-74926928D01*
X164059004Y-74926928D02*
X164059004Y-75141214D01*
X164059004Y-75141214D02*
X164130432Y-75284071D01*
X164130432Y-75284071D02*
X164201861Y-75355500D01*
X164201861Y-75355500D02*
X164344718Y-75426928D01*
X164344718Y-75426928D02*
X164916147Y-75426928D01*
X164916147Y-75426928D02*
X164916147Y-73926928D01*
X164916147Y-73926928D02*
X164416147Y-73926928D01*
X164416147Y-73926928D02*
X164273290Y-73998357D01*
X164273290Y-73998357D02*
X164201861Y-74069785D01*
X164201861Y-74069785D02*
X164130432Y-74212642D01*
X164130432Y-74212642D02*
X164130432Y-74355500D01*
X164130432Y-74355500D02*
X164201861Y-74498357D01*
X164201861Y-74498357D02*
X164273290Y-74569785D01*
X164273290Y-74569785D02*
X164416147Y-74641214D01*
X164416147Y-74641214D02*
X164916147Y-74641214D01*
X163130432Y-73926928D02*
X162844718Y-73926928D01*
X162844718Y-73926928D02*
X162701861Y-73998357D01*
X162701861Y-73998357D02*
X162559004Y-74141214D01*
X162559004Y-74141214D02*
X162487575Y-74426928D01*
X162487575Y-74426928D02*
X162487575Y-74926928D01*
X162487575Y-74926928D02*
X162559004Y-75212642D01*
X162559004Y-75212642D02*
X162701861Y-75355500D01*
X162701861Y-75355500D02*
X162844718Y-75426928D01*
X162844718Y-75426928D02*
X163130432Y-75426928D01*
X163130432Y-75426928D02*
X163273290Y-75355500D01*
X163273290Y-75355500D02*
X163416147Y-75212642D01*
X163416147Y-75212642D02*
X163487575Y-74926928D01*
X163487575Y-74926928D02*
X163487575Y-74426928D01*
X163487575Y-74426928D02*
X163416147Y-74141214D01*
X163416147Y-74141214D02*
X163273290Y-73998357D01*
X163273290Y-73998357D02*
X163130432Y-73926928D01*
X162059003Y-73926928D02*
X161201861Y-73926928D01*
X161630432Y-75426928D02*
X161630432Y-73926928D01*
D10*
X158621929Y-89279299D02*
X158621929Y-88279299D01*
X159088596Y-88279299D02*
X159221929Y-88279299D01*
X159221929Y-88279299D02*
X159288596Y-88326918D01*
X159288596Y-88326918D02*
X159355262Y-88422156D01*
X159355262Y-88422156D02*
X159388596Y-88612632D01*
X159388596Y-88612632D02*
X159388596Y-88945965D01*
X159388596Y-88945965D02*
X159355262Y-89136441D01*
X159355262Y-89136441D02*
X159288596Y-89231680D01*
X159288596Y-89231680D02*
X159221929Y-89279299D01*
X159221929Y-89279299D02*
X159088596Y-89279299D01*
X159088596Y-89279299D02*
X159021929Y-89231680D01*
X159021929Y-89231680D02*
X158955262Y-89136441D01*
X158955262Y-89136441D02*
X158921929Y-88945965D01*
X158921929Y-88945965D02*
X158921929Y-88612632D01*
X158921929Y-88612632D02*
X158955262Y-88422156D01*
X158955262Y-88422156D02*
X159021929Y-88326918D01*
X159021929Y-88326918D02*
X159088596Y-88279299D01*
X159821929Y-88279299D02*
X159888595Y-88279299D01*
X159888595Y-88279299D02*
X159955262Y-88326918D01*
X159955262Y-88326918D02*
X159988595Y-88374537D01*
X159988595Y-88374537D02*
X160021929Y-88469775D01*
X160021929Y-88469775D02*
X160055262Y-88660251D01*
X160055262Y-88660251D02*
X160055262Y-88898346D01*
X160055262Y-88898346D02*
X160021929Y-89088822D01*
X160021929Y-89088822D02*
X159988595Y-89184060D01*
X159988595Y-89184060D02*
X159955262Y-89231680D01*
X159955262Y-89231680D02*
X159888595Y-89279299D01*
X159888595Y-89279299D02*
X159821929Y-89279299D01*
X159821929Y-89279299D02*
X159755262Y-89231680D01*
X159755262Y-89231680D02*
X159721929Y-89184060D01*
X159721929Y-89184060D02*
X159688595Y-89088822D01*
X159688595Y-89088822D02*
X159655262Y-88898346D01*
X159655262Y-88898346D02*
X159655262Y-88660251D01*
X159655262Y-88660251D02*
X159688595Y-88469775D01*
X159688595Y-88469775D02*
X159721929Y-88374537D01*
X159721929Y-88374537D02*
X159755262Y-88326918D01*
X159755262Y-88326918D02*
X159821929Y-88279299D01*
D13*
X135410809Y-95497431D02*
X135410809Y-95164098D01*
X135934619Y-95021241D02*
X135934619Y-95497431D01*
X135934619Y-95497431D02*
X134934619Y-95497431D01*
X134934619Y-95497431D02*
X134934619Y-95021241D01*
X135887000Y-94640288D02*
X135934619Y-94497431D01*
X135934619Y-94497431D02*
X135934619Y-94259336D01*
X135934619Y-94259336D02*
X135887000Y-94164098D01*
X135887000Y-94164098D02*
X135839380Y-94116479D01*
X135839380Y-94116479D02*
X135744142Y-94068860D01*
X135744142Y-94068860D02*
X135648904Y-94068860D01*
X135648904Y-94068860D02*
X135553666Y-94116479D01*
X135553666Y-94116479D02*
X135506047Y-94164098D01*
X135506047Y-94164098D02*
X135458428Y-94259336D01*
X135458428Y-94259336D02*
X135410809Y-94449812D01*
X135410809Y-94449812D02*
X135363190Y-94545050D01*
X135363190Y-94545050D02*
X135315571Y-94592669D01*
X135315571Y-94592669D02*
X135220333Y-94640288D01*
X135220333Y-94640288D02*
X135125095Y-94640288D01*
X135125095Y-94640288D02*
X135029857Y-94592669D01*
X135029857Y-94592669D02*
X134982238Y-94545050D01*
X134982238Y-94545050D02*
X134934619Y-94449812D01*
X134934619Y-94449812D02*
X134934619Y-94211717D01*
X134934619Y-94211717D02*
X134982238Y-94068860D01*
X135934619Y-93640288D02*
X134934619Y-93640288D01*
X134934619Y-93640288D02*
X134934619Y-93259336D01*
X134934619Y-93259336D02*
X134982238Y-93164098D01*
X134982238Y-93164098D02*
X135029857Y-93116479D01*
X135029857Y-93116479D02*
X135125095Y-93068860D01*
X135125095Y-93068860D02*
X135267952Y-93068860D01*
X135267952Y-93068860D02*
X135363190Y-93116479D01*
X135363190Y-93116479D02*
X135410809Y-93164098D01*
X135410809Y-93164098D02*
X135458428Y-93259336D01*
X135458428Y-93259336D02*
X135458428Y-93640288D01*
X135267952Y-91878383D02*
X136125095Y-91878383D01*
X136125095Y-91878383D02*
X136220333Y-91926002D01*
X136220333Y-91926002D02*
X136267952Y-92021240D01*
X136267952Y-92021240D02*
X136267952Y-92068859D01*
X134934619Y-91878383D02*
X134982238Y-91926002D01*
X134982238Y-91926002D02*
X135029857Y-91878383D01*
X135029857Y-91878383D02*
X134982238Y-91830764D01*
X134982238Y-91830764D02*
X134934619Y-91878383D01*
X134934619Y-91878383D02*
X135029857Y-91878383D01*
X135934619Y-91259336D02*
X135887000Y-91354574D01*
X135887000Y-91354574D02*
X135839380Y-91402193D01*
X135839380Y-91402193D02*
X135744142Y-91449812D01*
X135744142Y-91449812D02*
X135458428Y-91449812D01*
X135458428Y-91449812D02*
X135363190Y-91402193D01*
X135363190Y-91402193D02*
X135315571Y-91354574D01*
X135315571Y-91354574D02*
X135267952Y-91259336D01*
X135267952Y-91259336D02*
X135267952Y-91116479D01*
X135267952Y-91116479D02*
X135315571Y-91021241D01*
X135315571Y-91021241D02*
X135363190Y-90973622D01*
X135363190Y-90973622D02*
X135458428Y-90926003D01*
X135458428Y-90926003D02*
X135744142Y-90926003D01*
X135744142Y-90926003D02*
X135839380Y-90973622D01*
X135839380Y-90973622D02*
X135887000Y-91021241D01*
X135887000Y-91021241D02*
X135934619Y-91116479D01*
X135934619Y-91116479D02*
X135934619Y-91259336D01*
X135267952Y-90592669D02*
X135934619Y-90354574D01*
X135267952Y-90116479D02*
X135934619Y-90354574D01*
X135934619Y-90354574D02*
X136172714Y-90449812D01*
X136172714Y-90449812D02*
X136220333Y-90497431D01*
X136220333Y-90497431D02*
X136267952Y-90592669D01*
X135887000Y-89783145D02*
X135934619Y-89687907D01*
X135934619Y-89687907D02*
X135934619Y-89497431D01*
X135934619Y-89497431D02*
X135887000Y-89402193D01*
X135887000Y-89402193D02*
X135791761Y-89354574D01*
X135791761Y-89354574D02*
X135744142Y-89354574D01*
X135744142Y-89354574D02*
X135648904Y-89402193D01*
X135648904Y-89402193D02*
X135601285Y-89497431D01*
X135601285Y-89497431D02*
X135601285Y-89640288D01*
X135601285Y-89640288D02*
X135553666Y-89735526D01*
X135553666Y-89735526D02*
X135458428Y-89783145D01*
X135458428Y-89783145D02*
X135410809Y-89783145D01*
X135410809Y-89783145D02*
X135315571Y-89735526D01*
X135315571Y-89735526D02*
X135267952Y-89640288D01*
X135267952Y-89640288D02*
X135267952Y-89497431D01*
X135267952Y-89497431D02*
X135315571Y-89402193D01*
X135267952Y-89068859D02*
X135267952Y-88687907D01*
X134934619Y-88926002D02*
X135791761Y-88926002D01*
X135791761Y-88926002D02*
X135887000Y-88878383D01*
X135887000Y-88878383D02*
X135934619Y-88783145D01*
X135934619Y-88783145D02*
X135934619Y-88687907D01*
X135934619Y-88354573D02*
X135267952Y-88354573D01*
X134934619Y-88354573D02*
X134982238Y-88402192D01*
X134982238Y-88402192D02*
X135029857Y-88354573D01*
X135029857Y-88354573D02*
X134982238Y-88306954D01*
X134982238Y-88306954D02*
X134934619Y-88354573D01*
X134934619Y-88354573D02*
X135029857Y-88354573D01*
X135887000Y-87449812D02*
X135934619Y-87545050D01*
X135934619Y-87545050D02*
X135934619Y-87735526D01*
X135934619Y-87735526D02*
X135887000Y-87830764D01*
X135887000Y-87830764D02*
X135839380Y-87878383D01*
X135839380Y-87878383D02*
X135744142Y-87926002D01*
X135744142Y-87926002D02*
X135458428Y-87926002D01*
X135458428Y-87926002D02*
X135363190Y-87878383D01*
X135363190Y-87878383D02*
X135315571Y-87830764D01*
X135315571Y-87830764D02*
X135267952Y-87735526D01*
X135267952Y-87735526D02*
X135267952Y-87545050D01*
X135267952Y-87545050D02*
X135315571Y-87449812D01*
X135934619Y-87021240D02*
X134934619Y-87021240D01*
X135553666Y-86926002D02*
X135934619Y-86640288D01*
X135267952Y-86640288D02*
X135648904Y-87021240D01*
D10*
X158851929Y-90555489D02*
X159085263Y-90555489D01*
X159185263Y-91079299D02*
X158851929Y-91079299D01*
X158851929Y-91079299D02*
X158851929Y-90079299D01*
X158851929Y-90079299D02*
X159185263Y-90079299D01*
X159485262Y-91079299D02*
X159485262Y-90079299D01*
X159485262Y-90079299D02*
X159885262Y-91079299D01*
X159885262Y-91079299D02*
X159885262Y-90079299D01*
X158811929Y-93789299D02*
X159211929Y-93789299D01*
X159011929Y-94789299D02*
X159011929Y-93789299D01*
X159378596Y-93789299D02*
X159845262Y-94789299D01*
X159845262Y-93789299D02*
X159378596Y-94789299D01*
X205671929Y-48585489D02*
X205905263Y-48585489D01*
X206005263Y-49109299D02*
X205671929Y-49109299D01*
X205671929Y-49109299D02*
X205671929Y-48109299D01*
X205671929Y-48109299D02*
X206005263Y-48109299D01*
X206305262Y-49109299D02*
X206305262Y-48109299D01*
X206305262Y-48109299D02*
X206705262Y-49109299D01*
X206705262Y-49109299D02*
X206705262Y-48109299D01*
X160782632Y-95538070D02*
X161639775Y-95538070D01*
X161639775Y-95538070D02*
X161735013Y-95571403D01*
X161735013Y-95571403D02*
X161782632Y-95638070D01*
X161782632Y-95638070D02*
X161782632Y-95671403D01*
X160449299Y-95538070D02*
X160496918Y-95571403D01*
X160496918Y-95571403D02*
X160544537Y-95538070D01*
X160544537Y-95538070D02*
X160496918Y-95504737D01*
X160496918Y-95504737D02*
X160449299Y-95538070D01*
X160449299Y-95538070D02*
X160544537Y-95538070D01*
X161449299Y-95104737D02*
X161401680Y-95171404D01*
X161401680Y-95171404D02*
X161354060Y-95204737D01*
X161354060Y-95204737D02*
X161258822Y-95238070D01*
X161258822Y-95238070D02*
X160973108Y-95238070D01*
X160973108Y-95238070D02*
X160877870Y-95204737D01*
X160877870Y-95204737D02*
X160830251Y-95171404D01*
X160830251Y-95171404D02*
X160782632Y-95104737D01*
X160782632Y-95104737D02*
X160782632Y-95004737D01*
X160782632Y-95004737D02*
X160830251Y-94938070D01*
X160830251Y-94938070D02*
X160877870Y-94904737D01*
X160877870Y-94904737D02*
X160973108Y-94871404D01*
X160973108Y-94871404D02*
X161258822Y-94871404D01*
X161258822Y-94871404D02*
X161354060Y-94904737D01*
X161354060Y-94904737D02*
X161401680Y-94938070D01*
X161401680Y-94938070D02*
X161449299Y-95004737D01*
X161449299Y-95004737D02*
X161449299Y-95104737D01*
X160782632Y-94638071D02*
X161449299Y-94471404D01*
X160782632Y-94304737D02*
X161449299Y-94471404D01*
X161449299Y-94471404D02*
X161687394Y-94538071D01*
X161687394Y-94538071D02*
X161735013Y-94571404D01*
X161735013Y-94571404D02*
X161782632Y-94638071D01*
X161401680Y-94071404D02*
X161449299Y-94004738D01*
X161449299Y-94004738D02*
X161449299Y-93871404D01*
X161449299Y-93871404D02*
X161401680Y-93804738D01*
X161401680Y-93804738D02*
X161306441Y-93771404D01*
X161306441Y-93771404D02*
X161258822Y-93771404D01*
X161258822Y-93771404D02*
X161163584Y-93804738D01*
X161163584Y-93804738D02*
X161115965Y-93871404D01*
X161115965Y-93871404D02*
X161115965Y-93971404D01*
X161115965Y-93971404D02*
X161068346Y-94038071D01*
X161068346Y-94038071D02*
X160973108Y-94071404D01*
X160973108Y-94071404D02*
X160925489Y-94071404D01*
X160925489Y-94071404D02*
X160830251Y-94038071D01*
X160830251Y-94038071D02*
X160782632Y-93971404D01*
X160782632Y-93971404D02*
X160782632Y-93871404D01*
X160782632Y-93871404D02*
X160830251Y-93804738D01*
X160782632Y-93571404D02*
X160782632Y-93304737D01*
X160449299Y-93471404D02*
X161306441Y-93471404D01*
X161306441Y-93471404D02*
X161401680Y-93438071D01*
X161401680Y-93438071D02*
X161449299Y-93371404D01*
X161449299Y-93371404D02*
X161449299Y-93304737D01*
X161449299Y-93071404D02*
X160782632Y-93071404D01*
X160449299Y-93071404D02*
X160496918Y-93104737D01*
X160496918Y-93104737D02*
X160544537Y-93071404D01*
X160544537Y-93071404D02*
X160496918Y-93038071D01*
X160496918Y-93038071D02*
X160449299Y-93071404D01*
X160449299Y-93071404D02*
X160544537Y-93071404D01*
X161401680Y-92438071D02*
X161449299Y-92504738D01*
X161449299Y-92504738D02*
X161449299Y-92638071D01*
X161449299Y-92638071D02*
X161401680Y-92704738D01*
X161401680Y-92704738D02*
X161354060Y-92738071D01*
X161354060Y-92738071D02*
X161258822Y-92771404D01*
X161258822Y-92771404D02*
X160973108Y-92771404D01*
X160973108Y-92771404D02*
X160877870Y-92738071D01*
X160877870Y-92738071D02*
X160830251Y-92704738D01*
X160830251Y-92704738D02*
X160782632Y-92638071D01*
X160782632Y-92638071D02*
X160782632Y-92504738D01*
X160782632Y-92504738D02*
X160830251Y-92438071D01*
X161449299Y-92138071D02*
X160449299Y-92138071D01*
X161068346Y-92071404D02*
X161449299Y-91871404D01*
X160782632Y-91871404D02*
X161163584Y-92138071D01*
X161401680Y-90771404D02*
X161449299Y-90838071D01*
X161449299Y-90838071D02*
X161449299Y-90971404D01*
X161449299Y-90971404D02*
X161401680Y-91038071D01*
X161401680Y-91038071D02*
X161306441Y-91071404D01*
X161306441Y-91071404D02*
X160925489Y-91071404D01*
X160925489Y-91071404D02*
X160830251Y-91038071D01*
X160830251Y-91038071D02*
X160782632Y-90971404D01*
X160782632Y-90971404D02*
X160782632Y-90838071D01*
X160782632Y-90838071D02*
X160830251Y-90771404D01*
X160830251Y-90771404D02*
X160925489Y-90738071D01*
X160925489Y-90738071D02*
X161020727Y-90738071D01*
X161020727Y-90738071D02*
X161115965Y-91071404D01*
X161401680Y-90471404D02*
X161449299Y-90404738D01*
X161449299Y-90404738D02*
X161449299Y-90271404D01*
X161449299Y-90271404D02*
X161401680Y-90204738D01*
X161401680Y-90204738D02*
X161306441Y-90171404D01*
X161306441Y-90171404D02*
X161258822Y-90171404D01*
X161258822Y-90171404D02*
X161163584Y-90204738D01*
X161163584Y-90204738D02*
X161115965Y-90271404D01*
X161115965Y-90271404D02*
X161115965Y-90371404D01*
X161115965Y-90371404D02*
X161068346Y-90438071D01*
X161068346Y-90438071D02*
X160973108Y-90471404D01*
X160973108Y-90471404D02*
X160925489Y-90471404D01*
X160925489Y-90471404D02*
X160830251Y-90438071D01*
X160830251Y-90438071D02*
X160782632Y-90371404D01*
X160782632Y-90371404D02*
X160782632Y-90271404D01*
X160782632Y-90271404D02*
X160830251Y-90204738D01*
X160782632Y-89871404D02*
X161782632Y-89871404D01*
X160830251Y-89871404D02*
X160782632Y-89804737D01*
X160782632Y-89804737D02*
X160782632Y-89671404D01*
X160782632Y-89671404D02*
X160830251Y-89604737D01*
X160830251Y-89604737D02*
X160877870Y-89571404D01*
X160877870Y-89571404D02*
X160973108Y-89538071D01*
X160973108Y-89538071D02*
X161258822Y-89538071D01*
X161258822Y-89538071D02*
X161354060Y-89571404D01*
X161354060Y-89571404D02*
X161401680Y-89604737D01*
X161401680Y-89604737D02*
X161449299Y-89671404D01*
X161449299Y-89671404D02*
X161449299Y-89804737D01*
X161449299Y-89804737D02*
X161401680Y-89871404D01*
X150468596Y-69983584D02*
X150801929Y-69983584D01*
X150401929Y-70269299D02*
X150635263Y-69269299D01*
X150635263Y-69269299D02*
X150868596Y-70269299D01*
X151101929Y-70269299D02*
X151101929Y-69269299D01*
X151101929Y-69269299D02*
X151268596Y-69269299D01*
X151268596Y-69269299D02*
X151368596Y-69316918D01*
X151368596Y-69316918D02*
X151435263Y-69412156D01*
X151435263Y-69412156D02*
X151468596Y-69507394D01*
X151468596Y-69507394D02*
X151501929Y-69697870D01*
X151501929Y-69697870D02*
X151501929Y-69840727D01*
X151501929Y-69840727D02*
X151468596Y-70031203D01*
X151468596Y-70031203D02*
X151435263Y-70126441D01*
X151435263Y-70126441D02*
X151368596Y-70221680D01*
X151368596Y-70221680D02*
X151268596Y-70269299D01*
X151268596Y-70269299D02*
X151101929Y-70269299D01*
X151768596Y-70221680D02*
X151868596Y-70269299D01*
X151868596Y-70269299D02*
X152035263Y-70269299D01*
X152035263Y-70269299D02*
X152101929Y-70221680D01*
X152101929Y-70221680D02*
X152135263Y-70174060D01*
X152135263Y-70174060D02*
X152168596Y-70078822D01*
X152168596Y-70078822D02*
X152168596Y-69983584D01*
X152168596Y-69983584D02*
X152135263Y-69888346D01*
X152135263Y-69888346D02*
X152101929Y-69840727D01*
X152101929Y-69840727D02*
X152035263Y-69793108D01*
X152035263Y-69793108D02*
X151901929Y-69745489D01*
X151901929Y-69745489D02*
X151835263Y-69697870D01*
X151835263Y-69697870D02*
X151801929Y-69650251D01*
X151801929Y-69650251D02*
X151768596Y-69555013D01*
X151768596Y-69555013D02*
X151768596Y-69459775D01*
X151768596Y-69459775D02*
X151801929Y-69364537D01*
X151801929Y-69364537D02*
X151835263Y-69316918D01*
X151835263Y-69316918D02*
X151901929Y-69269299D01*
X151901929Y-69269299D02*
X152068596Y-69269299D01*
X152068596Y-69269299D02*
X152168596Y-69316918D01*
X152835263Y-70269299D02*
X152435263Y-70269299D01*
X152635263Y-70269299D02*
X152635263Y-69269299D01*
X152635263Y-69269299D02*
X152568596Y-69412156D01*
X152568596Y-69412156D02*
X152501930Y-69507394D01*
X152501930Y-69507394D02*
X152435263Y-69555013D01*
X153501930Y-70269299D02*
X153101930Y-70269299D01*
X153301930Y-70269299D02*
X153301930Y-69269299D01*
X153301930Y-69269299D02*
X153235263Y-69412156D01*
X153235263Y-69412156D02*
X153168597Y-69507394D01*
X153168597Y-69507394D02*
X153101930Y-69555013D01*
X154168597Y-70269299D02*
X153768597Y-70269299D01*
X153968597Y-70269299D02*
X153968597Y-69269299D01*
X153968597Y-69269299D02*
X153901930Y-69412156D01*
X153901930Y-69412156D02*
X153835264Y-69507394D01*
X153835264Y-69507394D02*
X153768597Y-69555013D01*
X154801931Y-69269299D02*
X154468597Y-69269299D01*
X154468597Y-69269299D02*
X154435264Y-69745489D01*
X154435264Y-69745489D02*
X154468597Y-69697870D01*
X154468597Y-69697870D02*
X154535264Y-69650251D01*
X154535264Y-69650251D02*
X154701931Y-69650251D01*
X154701931Y-69650251D02*
X154768597Y-69697870D01*
X154768597Y-69697870D02*
X154801931Y-69745489D01*
X154801931Y-69745489D02*
X154835264Y-69840727D01*
X154835264Y-69840727D02*
X154835264Y-70078822D01*
X154835264Y-70078822D02*
X154801931Y-70174060D01*
X154801931Y-70174060D02*
X154768597Y-70221680D01*
X154768597Y-70221680D02*
X154701931Y-70269299D01*
X154701931Y-70269299D02*
X154535264Y-70269299D01*
X154535264Y-70269299D02*
X154468597Y-70221680D01*
X154468597Y-70221680D02*
X154435264Y-70174060D01*
X132298596Y-70123584D02*
X132631929Y-70123584D01*
X132231929Y-70409299D02*
X132465263Y-69409299D01*
X132465263Y-69409299D02*
X132698596Y-70409299D01*
X132931929Y-70409299D02*
X132931929Y-69409299D01*
X132931929Y-69409299D02*
X133098596Y-69409299D01*
X133098596Y-69409299D02*
X133198596Y-69456918D01*
X133198596Y-69456918D02*
X133265263Y-69552156D01*
X133265263Y-69552156D02*
X133298596Y-69647394D01*
X133298596Y-69647394D02*
X133331929Y-69837870D01*
X133331929Y-69837870D02*
X133331929Y-69980727D01*
X133331929Y-69980727D02*
X133298596Y-70171203D01*
X133298596Y-70171203D02*
X133265263Y-70266441D01*
X133265263Y-70266441D02*
X133198596Y-70361680D01*
X133198596Y-70361680D02*
X133098596Y-70409299D01*
X133098596Y-70409299D02*
X132931929Y-70409299D01*
X133598596Y-70361680D02*
X133698596Y-70409299D01*
X133698596Y-70409299D02*
X133865263Y-70409299D01*
X133865263Y-70409299D02*
X133931929Y-70361680D01*
X133931929Y-70361680D02*
X133965263Y-70314060D01*
X133965263Y-70314060D02*
X133998596Y-70218822D01*
X133998596Y-70218822D02*
X133998596Y-70123584D01*
X133998596Y-70123584D02*
X133965263Y-70028346D01*
X133965263Y-70028346D02*
X133931929Y-69980727D01*
X133931929Y-69980727D02*
X133865263Y-69933108D01*
X133865263Y-69933108D02*
X133731929Y-69885489D01*
X133731929Y-69885489D02*
X133665263Y-69837870D01*
X133665263Y-69837870D02*
X133631929Y-69790251D01*
X133631929Y-69790251D02*
X133598596Y-69695013D01*
X133598596Y-69695013D02*
X133598596Y-69599775D01*
X133598596Y-69599775D02*
X133631929Y-69504537D01*
X133631929Y-69504537D02*
X133665263Y-69456918D01*
X133665263Y-69456918D02*
X133731929Y-69409299D01*
X133731929Y-69409299D02*
X133898596Y-69409299D01*
X133898596Y-69409299D02*
X133998596Y-69456918D01*
X134665263Y-70409299D02*
X134265263Y-70409299D01*
X134465263Y-70409299D02*
X134465263Y-69409299D01*
X134465263Y-69409299D02*
X134398596Y-69552156D01*
X134398596Y-69552156D02*
X134331930Y-69647394D01*
X134331930Y-69647394D02*
X134265263Y-69695013D01*
X135331930Y-70409299D02*
X134931930Y-70409299D01*
X135131930Y-70409299D02*
X135131930Y-69409299D01*
X135131930Y-69409299D02*
X135065263Y-69552156D01*
X135065263Y-69552156D02*
X134998597Y-69647394D01*
X134998597Y-69647394D02*
X134931930Y-69695013D01*
X135998597Y-70409299D02*
X135598597Y-70409299D01*
X135798597Y-70409299D02*
X135798597Y-69409299D01*
X135798597Y-69409299D02*
X135731930Y-69552156D01*
X135731930Y-69552156D02*
X135665264Y-69647394D01*
X135665264Y-69647394D02*
X135598597Y-69695013D01*
X136631931Y-69409299D02*
X136298597Y-69409299D01*
X136298597Y-69409299D02*
X136265264Y-69885489D01*
X136265264Y-69885489D02*
X136298597Y-69837870D01*
X136298597Y-69837870D02*
X136365264Y-69790251D01*
X136365264Y-69790251D02*
X136531931Y-69790251D01*
X136531931Y-69790251D02*
X136598597Y-69837870D01*
X136598597Y-69837870D02*
X136631931Y-69885489D01*
X136631931Y-69885489D02*
X136665264Y-69980727D01*
X136665264Y-69980727D02*
X136665264Y-70218822D01*
X136665264Y-70218822D02*
X136631931Y-70314060D01*
X136631931Y-70314060D02*
X136598597Y-70361680D01*
X136598597Y-70361680D02*
X136531931Y-70409299D01*
X136531931Y-70409299D02*
X136365264Y-70409299D01*
X136365264Y-70409299D02*
X136298597Y-70361680D01*
X136298597Y-70361680D02*
X136265264Y-70314060D01*
D11*
X116007155Y-119081190D02*
X116007155Y-109081190D01*
X113150012Y-119081190D02*
X115292870Y-113366904D01*
X113150012Y-109081190D02*
X116007155Y-114795476D01*
D12*
X99336147Y-127346928D02*
X99336147Y-128561214D01*
X99336147Y-128561214D02*
X99264718Y-128704071D01*
X99264718Y-128704071D02*
X99193290Y-128775500D01*
X99193290Y-128775500D02*
X99050432Y-128846928D01*
X99050432Y-128846928D02*
X98764718Y-128846928D01*
X98764718Y-128846928D02*
X98621861Y-128775500D01*
X98621861Y-128775500D02*
X98550432Y-128704071D01*
X98550432Y-128704071D02*
X98479004Y-128561214D01*
X98479004Y-128561214D02*
X98479004Y-127346928D01*
X97979003Y-127846928D02*
X97407575Y-127846928D01*
X97764718Y-127346928D02*
X97764718Y-128632642D01*
X97764718Y-128632642D02*
X97693289Y-128775500D01*
X97693289Y-128775500D02*
X97550432Y-128846928D01*
X97550432Y-128846928D02*
X97407575Y-128846928D01*
X96907575Y-128846928D02*
X96907575Y-127846928D01*
X96907575Y-127346928D02*
X96979003Y-127418357D01*
X96979003Y-127418357D02*
X96907575Y-127489785D01*
X96907575Y-127489785D02*
X96836146Y-127418357D01*
X96836146Y-127418357D02*
X96907575Y-127346928D01*
X96907575Y-127346928D02*
X96907575Y-127489785D01*
X95979003Y-128846928D02*
X96121860Y-128775500D01*
X96121860Y-128775500D02*
X96193289Y-128632642D01*
X96193289Y-128632642D02*
X96193289Y-127346928D01*
X95407575Y-128846928D02*
X95407575Y-127846928D01*
X95407575Y-127346928D02*
X95479003Y-127418357D01*
X95479003Y-127418357D02*
X95407575Y-127489785D01*
X95407575Y-127489785D02*
X95336146Y-127418357D01*
X95336146Y-127418357D02*
X95407575Y-127346928D01*
X95407575Y-127346928D02*
X95407575Y-127489785D01*
X94907574Y-127846928D02*
X94336146Y-127846928D01*
X94693289Y-127346928D02*
X94693289Y-128632642D01*
X94693289Y-128632642D02*
X94621860Y-128775500D01*
X94621860Y-128775500D02*
X94479003Y-128846928D01*
X94479003Y-128846928D02*
X94336146Y-128846928D01*
X93979003Y-127846928D02*
X93621860Y-128846928D01*
X93264717Y-127846928D02*
X93621860Y-128846928D01*
X93621860Y-128846928D02*
X93764717Y-129204071D01*
X93764717Y-129204071D02*
X93836146Y-129275500D01*
X93836146Y-129275500D02*
X93979003Y-129346928D01*
X93050432Y-128989785D02*
X91907574Y-128989785D01*
X90693289Y-128846928D02*
X91193289Y-128132642D01*
X91550432Y-128846928D02*
X91550432Y-127346928D01*
X91550432Y-127346928D02*
X90979003Y-127346928D01*
X90979003Y-127346928D02*
X90836146Y-127418357D01*
X90836146Y-127418357D02*
X90764717Y-127489785D01*
X90764717Y-127489785D02*
X90693289Y-127632642D01*
X90693289Y-127632642D02*
X90693289Y-127846928D01*
X90693289Y-127846928D02*
X90764717Y-127989785D01*
X90764717Y-127989785D02*
X90836146Y-128061214D01*
X90836146Y-128061214D02*
X90979003Y-128132642D01*
X90979003Y-128132642D02*
X91550432Y-128132642D01*
X89479003Y-128775500D02*
X89621860Y-128846928D01*
X89621860Y-128846928D02*
X89907575Y-128846928D01*
X89907575Y-128846928D02*
X90050432Y-128775500D01*
X90050432Y-128775500D02*
X90121860Y-128632642D01*
X90121860Y-128632642D02*
X90121860Y-128061214D01*
X90121860Y-128061214D02*
X90050432Y-127918357D01*
X90050432Y-127918357D02*
X89907575Y-127846928D01*
X89907575Y-127846928D02*
X89621860Y-127846928D01*
X89621860Y-127846928D02*
X89479003Y-127918357D01*
X89479003Y-127918357D02*
X89407575Y-128061214D01*
X89407575Y-128061214D02*
X89407575Y-128204071D01*
X89407575Y-128204071D02*
X90121860Y-128346928D01*
X88764718Y-128846928D02*
X88764718Y-127846928D01*
X88764718Y-127989785D02*
X88693289Y-127918357D01*
X88693289Y-127918357D02*
X88550432Y-127846928D01*
X88550432Y-127846928D02*
X88336146Y-127846928D01*
X88336146Y-127846928D02*
X88193289Y-127918357D01*
X88193289Y-127918357D02*
X88121861Y-128061214D01*
X88121861Y-128061214D02*
X88121861Y-128846928D01*
X88121861Y-128061214D02*
X88050432Y-127918357D01*
X88050432Y-127918357D02*
X87907575Y-127846928D01*
X87907575Y-127846928D02*
X87693289Y-127846928D01*
X87693289Y-127846928D02*
X87550432Y-127918357D01*
X87550432Y-127918357D02*
X87479003Y-128061214D01*
X87479003Y-128061214D02*
X87479003Y-128846928D01*
X86550432Y-128846928D02*
X86693289Y-128775500D01*
X86693289Y-128775500D02*
X86764718Y-128704071D01*
X86764718Y-128704071D02*
X86836146Y-128561214D01*
X86836146Y-128561214D02*
X86836146Y-128132642D01*
X86836146Y-128132642D02*
X86764718Y-127989785D01*
X86764718Y-127989785D02*
X86693289Y-127918357D01*
X86693289Y-127918357D02*
X86550432Y-127846928D01*
X86550432Y-127846928D02*
X86336146Y-127846928D01*
X86336146Y-127846928D02*
X86193289Y-127918357D01*
X86193289Y-127918357D02*
X86121861Y-127989785D01*
X86121861Y-127989785D02*
X86050432Y-128132642D01*
X86050432Y-128132642D02*
X86050432Y-128561214D01*
X86050432Y-128561214D02*
X86121861Y-128704071D01*
X86121861Y-128704071D02*
X86193289Y-128775500D01*
X86193289Y-128775500D02*
X86336146Y-128846928D01*
X86336146Y-128846928D02*
X86550432Y-128846928D01*
X85621860Y-127846928D02*
X85050432Y-127846928D01*
X85407575Y-127346928D02*
X85407575Y-128632642D01*
X85407575Y-128632642D02*
X85336146Y-128775500D01*
X85336146Y-128775500D02*
X85193289Y-128846928D01*
X85193289Y-128846928D02*
X85050432Y-128846928D01*
X83979003Y-128775500D02*
X84121860Y-128846928D01*
X84121860Y-128846928D02*
X84407575Y-128846928D01*
X84407575Y-128846928D02*
X84550432Y-128775500D01*
X84550432Y-128775500D02*
X84621860Y-128632642D01*
X84621860Y-128632642D02*
X84621860Y-128061214D01*
X84621860Y-128061214D02*
X84550432Y-127918357D01*
X84550432Y-127918357D02*
X84407575Y-127846928D01*
X84407575Y-127846928D02*
X84121860Y-127846928D01*
X84121860Y-127846928D02*
X83979003Y-127918357D01*
X83979003Y-127918357D02*
X83907575Y-128061214D01*
X83907575Y-128061214D02*
X83907575Y-128204071D01*
X83907575Y-128204071D02*
X84621860Y-128346928D01*
X180151928Y-77676147D02*
X181366214Y-77676147D01*
X181366214Y-77676147D02*
X181509071Y-77604718D01*
X181509071Y-77604718D02*
X181580500Y-77533290D01*
X181580500Y-77533290D02*
X181651928Y-77390432D01*
X181651928Y-77390432D02*
X181651928Y-77104718D01*
X181651928Y-77104718D02*
X181580500Y-76961861D01*
X181580500Y-76961861D02*
X181509071Y-76890432D01*
X181509071Y-76890432D02*
X181366214Y-76819004D01*
X181366214Y-76819004D02*
X180151928Y-76819004D01*
X181580500Y-76176146D02*
X181651928Y-75961861D01*
X181651928Y-75961861D02*
X181651928Y-75604718D01*
X181651928Y-75604718D02*
X181580500Y-75461861D01*
X181580500Y-75461861D02*
X181509071Y-75390432D01*
X181509071Y-75390432D02*
X181366214Y-75319003D01*
X181366214Y-75319003D02*
X181223357Y-75319003D01*
X181223357Y-75319003D02*
X181080500Y-75390432D01*
X181080500Y-75390432D02*
X181009071Y-75461861D01*
X181009071Y-75461861D02*
X180937642Y-75604718D01*
X180937642Y-75604718D02*
X180866214Y-75890432D01*
X180866214Y-75890432D02*
X180794785Y-76033289D01*
X180794785Y-76033289D02*
X180723357Y-76104718D01*
X180723357Y-76104718D02*
X180580500Y-76176146D01*
X180580500Y-76176146D02*
X180437642Y-76176146D01*
X180437642Y-76176146D02*
X180294785Y-76104718D01*
X180294785Y-76104718D02*
X180223357Y-76033289D01*
X180223357Y-76033289D02*
X180151928Y-75890432D01*
X180151928Y-75890432D02*
X180151928Y-75533289D01*
X180151928Y-75533289D02*
X180223357Y-75319003D01*
X180866214Y-74176147D02*
X180937642Y-73961861D01*
X180937642Y-73961861D02*
X181009071Y-73890432D01*
X181009071Y-73890432D02*
X181151928Y-73819004D01*
X181151928Y-73819004D02*
X181366214Y-73819004D01*
X181366214Y-73819004D02*
X181509071Y-73890432D01*
X181509071Y-73890432D02*
X181580500Y-73961861D01*
X181580500Y-73961861D02*
X181651928Y-74104718D01*
X181651928Y-74104718D02*
X181651928Y-74676147D01*
X181651928Y-74676147D02*
X180151928Y-74676147D01*
X180151928Y-74676147D02*
X180151928Y-74176147D01*
X180151928Y-74176147D02*
X180223357Y-74033290D01*
X180223357Y-74033290D02*
X180294785Y-73961861D01*
X180294785Y-73961861D02*
X180437642Y-73890432D01*
X180437642Y-73890432D02*
X180580500Y-73890432D01*
X180580500Y-73890432D02*
X180723357Y-73961861D01*
X180723357Y-73961861D02*
X180794785Y-74033290D01*
X180794785Y-74033290D02*
X180866214Y-74176147D01*
X180866214Y-74176147D02*
X180866214Y-74676147D01*
X180866214Y-71533290D02*
X180937642Y-71319004D01*
X180937642Y-71319004D02*
X181009071Y-71247575D01*
X181009071Y-71247575D02*
X181151928Y-71176147D01*
X181151928Y-71176147D02*
X181366214Y-71176147D01*
X181366214Y-71176147D02*
X181509071Y-71247575D01*
X181509071Y-71247575D02*
X181580500Y-71319004D01*
X181580500Y-71319004D02*
X181651928Y-71461861D01*
X181651928Y-71461861D02*
X181651928Y-72033290D01*
X181651928Y-72033290D02*
X180151928Y-72033290D01*
X180151928Y-72033290D02*
X180151928Y-71533290D01*
X180151928Y-71533290D02*
X180223357Y-71390433D01*
X180223357Y-71390433D02*
X180294785Y-71319004D01*
X180294785Y-71319004D02*
X180437642Y-71247575D01*
X180437642Y-71247575D02*
X180580500Y-71247575D01*
X180580500Y-71247575D02*
X180723357Y-71319004D01*
X180723357Y-71319004D02*
X180794785Y-71390433D01*
X180794785Y-71390433D02*
X180866214Y-71533290D01*
X180866214Y-71533290D02*
X180866214Y-72033290D01*
X180651928Y-69890433D02*
X181651928Y-69890433D01*
X180651928Y-70533290D02*
X181437642Y-70533290D01*
X181437642Y-70533290D02*
X181580500Y-70461861D01*
X181580500Y-70461861D02*
X181651928Y-70319004D01*
X181651928Y-70319004D02*
X181651928Y-70104718D01*
X181651928Y-70104718D02*
X181580500Y-69961861D01*
X181580500Y-69961861D02*
X181509071Y-69890433D01*
X181580500Y-68533290D02*
X181651928Y-68676147D01*
X181651928Y-68676147D02*
X181651928Y-68961861D01*
X181651928Y-68961861D02*
X181580500Y-69104718D01*
X181580500Y-69104718D02*
X181509071Y-69176147D01*
X181509071Y-69176147D02*
X181366214Y-69247575D01*
X181366214Y-69247575D02*
X180937642Y-69247575D01*
X180937642Y-69247575D02*
X180794785Y-69176147D01*
X180794785Y-69176147D02*
X180723357Y-69104718D01*
X180723357Y-69104718D02*
X180651928Y-68961861D01*
X180651928Y-68961861D02*
X180651928Y-68676147D01*
X180651928Y-68676147D02*
X180723357Y-68533290D01*
X181651928Y-67890433D02*
X180151928Y-67890433D01*
X181080500Y-67747576D02*
X181651928Y-67319004D01*
X180651928Y-67319004D02*
X181223357Y-67890433D01*
X182566928Y-74390433D02*
X182566928Y-73461861D01*
X182566928Y-73461861D02*
X183138357Y-73961861D01*
X183138357Y-73961861D02*
X183138357Y-73747576D01*
X183138357Y-73747576D02*
X183209785Y-73604719D01*
X183209785Y-73604719D02*
X183281214Y-73533290D01*
X183281214Y-73533290D02*
X183424071Y-73461861D01*
X183424071Y-73461861D02*
X183781214Y-73461861D01*
X183781214Y-73461861D02*
X183924071Y-73533290D01*
X183924071Y-73533290D02*
X183995500Y-73604719D01*
X183995500Y-73604719D02*
X184066928Y-73747576D01*
X184066928Y-73747576D02*
X184066928Y-74176147D01*
X184066928Y-74176147D02*
X183995500Y-74319004D01*
X183995500Y-74319004D02*
X183924071Y-74390433D01*
X183638357Y-72890433D02*
X183638357Y-72176148D01*
X184066928Y-73033290D02*
X182566928Y-72533290D01*
X182566928Y-72533290D02*
X184066928Y-72033290D01*
X167316147Y-65236928D02*
X167316147Y-63736928D01*
X167316147Y-63736928D02*
X166959004Y-63736928D01*
X166959004Y-63736928D02*
X166744718Y-63808357D01*
X166744718Y-63808357D02*
X166601861Y-63951214D01*
X166601861Y-63951214D02*
X166530432Y-64094071D01*
X166530432Y-64094071D02*
X166459004Y-64379785D01*
X166459004Y-64379785D02*
X166459004Y-64594071D01*
X166459004Y-64594071D02*
X166530432Y-64879785D01*
X166530432Y-64879785D02*
X166601861Y-65022642D01*
X166601861Y-65022642D02*
X166744718Y-65165500D01*
X166744718Y-65165500D02*
X166959004Y-65236928D01*
X166959004Y-65236928D02*
X167316147Y-65236928D01*
X165816147Y-65236928D02*
X165816147Y-63736928D01*
X165816147Y-64451214D02*
X164959004Y-64451214D01*
X164959004Y-65236928D02*
X164959004Y-63736928D01*
X164316146Y-64808357D02*
X163601861Y-64808357D01*
X164459003Y-65236928D02*
X163959003Y-63736928D01*
X163959003Y-63736928D02*
X163459003Y-65236928D01*
X162101861Y-65236928D02*
X162601861Y-64522642D01*
X162959004Y-65236928D02*
X162959004Y-63736928D01*
X162959004Y-63736928D02*
X162387575Y-63736928D01*
X162387575Y-63736928D02*
X162244718Y-63808357D01*
X162244718Y-63808357D02*
X162173289Y-63879785D01*
X162173289Y-63879785D02*
X162101861Y-64022642D01*
X162101861Y-64022642D02*
X162101861Y-64236928D01*
X162101861Y-64236928D02*
X162173289Y-64379785D01*
X162173289Y-64379785D02*
X162244718Y-64451214D01*
X162244718Y-64451214D02*
X162387575Y-64522642D01*
X162387575Y-64522642D02*
X162959004Y-64522642D01*
X161459004Y-65236928D02*
X161459004Y-63736928D01*
X161459004Y-63736928D02*
X160959004Y-64808357D01*
X160959004Y-64808357D02*
X160459004Y-63736928D01*
X160459004Y-63736928D02*
X160459004Y-65236928D01*
X159816146Y-64808357D02*
X159101861Y-64808357D01*
X159959003Y-65236928D02*
X159459003Y-63736928D01*
X159459003Y-63736928D02*
X158959003Y-65236928D01*
D10*
X204621680Y-50411403D02*
X204669299Y-50478070D01*
X204669299Y-50478070D02*
X204669299Y-50611403D01*
X204669299Y-50611403D02*
X204621680Y-50678070D01*
X204621680Y-50678070D02*
X204526441Y-50711403D01*
X204526441Y-50711403D02*
X204145489Y-50711403D01*
X204145489Y-50711403D02*
X204050251Y-50678070D01*
X204050251Y-50678070D02*
X204002632Y-50611403D01*
X204002632Y-50611403D02*
X204002632Y-50478070D01*
X204002632Y-50478070D02*
X204050251Y-50411403D01*
X204050251Y-50411403D02*
X204145489Y-50378070D01*
X204145489Y-50378070D02*
X204240727Y-50378070D01*
X204240727Y-50378070D02*
X204335965Y-50711403D01*
X204621680Y-50111403D02*
X204669299Y-50044737D01*
X204669299Y-50044737D02*
X204669299Y-49911403D01*
X204669299Y-49911403D02*
X204621680Y-49844737D01*
X204621680Y-49844737D02*
X204526441Y-49811403D01*
X204526441Y-49811403D02*
X204478822Y-49811403D01*
X204478822Y-49811403D02*
X204383584Y-49844737D01*
X204383584Y-49844737D02*
X204335965Y-49911403D01*
X204335965Y-49911403D02*
X204335965Y-50011403D01*
X204335965Y-50011403D02*
X204288346Y-50078070D01*
X204288346Y-50078070D02*
X204193108Y-50111403D01*
X204193108Y-50111403D02*
X204145489Y-50111403D01*
X204145489Y-50111403D02*
X204050251Y-50078070D01*
X204050251Y-50078070D02*
X204002632Y-50011403D01*
X204002632Y-50011403D02*
X204002632Y-49911403D01*
X204002632Y-49911403D02*
X204050251Y-49844737D01*
X204002632Y-49511403D02*
X205002632Y-49511403D01*
X204050251Y-49511403D02*
X204002632Y-49444736D01*
X204002632Y-49444736D02*
X204002632Y-49311403D01*
X204002632Y-49311403D02*
X204050251Y-49244736D01*
X204050251Y-49244736D02*
X204097870Y-49211403D01*
X204097870Y-49211403D02*
X204193108Y-49178070D01*
X204193108Y-49178070D02*
X204478822Y-49178070D01*
X204478822Y-49178070D02*
X204574060Y-49211403D01*
X204574060Y-49211403D02*
X204621680Y-49244736D01*
X204621680Y-49244736D02*
X204669299Y-49311403D01*
X204669299Y-49311403D02*
X204669299Y-49444736D01*
X204669299Y-49444736D02*
X204621680Y-49511403D01*
X204764537Y-49044737D02*
X204764537Y-48511403D01*
X204002632Y-48344737D02*
X204669299Y-48344737D01*
X204097870Y-48344737D02*
X204050251Y-48311404D01*
X204050251Y-48311404D02*
X204002632Y-48244737D01*
X204002632Y-48244737D02*
X204002632Y-48144737D01*
X204002632Y-48144737D02*
X204050251Y-48078070D01*
X204050251Y-48078070D02*
X204145489Y-48044737D01*
X204145489Y-48044737D02*
X204669299Y-48044737D01*
X204669299Y-47611404D02*
X204621680Y-47678071D01*
X204621680Y-47678071D02*
X204574060Y-47711404D01*
X204574060Y-47711404D02*
X204478822Y-47744737D01*
X204478822Y-47744737D02*
X204193108Y-47744737D01*
X204193108Y-47744737D02*
X204097870Y-47711404D01*
X204097870Y-47711404D02*
X204050251Y-47678071D01*
X204050251Y-47678071D02*
X204002632Y-47611404D01*
X204002632Y-47611404D02*
X204002632Y-47511404D01*
X204002632Y-47511404D02*
X204050251Y-47444737D01*
X204050251Y-47444737D02*
X204097870Y-47411404D01*
X204097870Y-47411404D02*
X204193108Y-47378071D01*
X204193108Y-47378071D02*
X204478822Y-47378071D01*
X204478822Y-47378071D02*
X204574060Y-47411404D01*
X204574060Y-47411404D02*
X204621680Y-47444737D01*
X204621680Y-47444737D02*
X204669299Y-47511404D01*
X204669299Y-47511404D02*
X204669299Y-47611404D01*
X204669299Y-46978071D02*
X204621680Y-47044738D01*
X204621680Y-47044738D02*
X204574060Y-47078071D01*
X204574060Y-47078071D02*
X204478822Y-47111404D01*
X204478822Y-47111404D02*
X204193108Y-47111404D01*
X204193108Y-47111404D02*
X204097870Y-47078071D01*
X204097870Y-47078071D02*
X204050251Y-47044738D01*
X204050251Y-47044738D02*
X204002632Y-46978071D01*
X204002632Y-46978071D02*
X204002632Y-46878071D01*
X204002632Y-46878071D02*
X204050251Y-46811404D01*
X204050251Y-46811404D02*
X204097870Y-46778071D01*
X204097870Y-46778071D02*
X204193108Y-46744738D01*
X204193108Y-46744738D02*
X204478822Y-46744738D01*
X204478822Y-46744738D02*
X204574060Y-46778071D01*
X204574060Y-46778071D02*
X204621680Y-46811404D01*
X204621680Y-46811404D02*
X204669299Y-46878071D01*
X204669299Y-46878071D02*
X204669299Y-46978071D01*
X204002632Y-46511405D02*
X204669299Y-46378071D01*
X204669299Y-46378071D02*
X204193108Y-46244738D01*
X204193108Y-46244738D02*
X204669299Y-46111405D01*
X204669299Y-46111405D02*
X204002632Y-45978071D01*
X204621680Y-44911405D02*
X204669299Y-44978072D01*
X204669299Y-44978072D02*
X204669299Y-45111405D01*
X204669299Y-45111405D02*
X204621680Y-45178072D01*
X204621680Y-45178072D02*
X204526441Y-45211405D01*
X204526441Y-45211405D02*
X204145489Y-45211405D01*
X204145489Y-45211405D02*
X204050251Y-45178072D01*
X204050251Y-45178072D02*
X204002632Y-45111405D01*
X204002632Y-45111405D02*
X204002632Y-44978072D01*
X204002632Y-44978072D02*
X204050251Y-44911405D01*
X204050251Y-44911405D02*
X204145489Y-44878072D01*
X204145489Y-44878072D02*
X204240727Y-44878072D01*
X204240727Y-44878072D02*
X204335965Y-45211405D01*
X204621680Y-44611405D02*
X204669299Y-44544739D01*
X204669299Y-44544739D02*
X204669299Y-44411405D01*
X204669299Y-44411405D02*
X204621680Y-44344739D01*
X204621680Y-44344739D02*
X204526441Y-44311405D01*
X204526441Y-44311405D02*
X204478822Y-44311405D01*
X204478822Y-44311405D02*
X204383584Y-44344739D01*
X204383584Y-44344739D02*
X204335965Y-44411405D01*
X204335965Y-44411405D02*
X204335965Y-44511405D01*
X204335965Y-44511405D02*
X204288346Y-44578072D01*
X204288346Y-44578072D02*
X204193108Y-44611405D01*
X204193108Y-44611405D02*
X204145489Y-44611405D01*
X204145489Y-44611405D02*
X204050251Y-44578072D01*
X204050251Y-44578072D02*
X204002632Y-44511405D01*
X204002632Y-44511405D02*
X204002632Y-44411405D01*
X204002632Y-44411405D02*
X204050251Y-44344739D01*
X204002632Y-44011405D02*
X205002632Y-44011405D01*
X204050251Y-44011405D02*
X204002632Y-43944738D01*
X204002632Y-43944738D02*
X204002632Y-43811405D01*
X204002632Y-43811405D02*
X204050251Y-43744738D01*
X204050251Y-43744738D02*
X204097870Y-43711405D01*
X204097870Y-43711405D02*
X204193108Y-43678072D01*
X204193108Y-43678072D02*
X204478822Y-43678072D01*
X204478822Y-43678072D02*
X204574060Y-43711405D01*
X204574060Y-43711405D02*
X204621680Y-43744738D01*
X204621680Y-43744738D02*
X204669299Y-43811405D01*
X204669299Y-43811405D02*
X204669299Y-43944738D01*
X204669299Y-43944738D02*
X204621680Y-44011405D01*
X205225263Y-51809299D02*
X205658596Y-51809299D01*
X205658596Y-51809299D02*
X205425263Y-52190251D01*
X205425263Y-52190251D02*
X205525263Y-52190251D01*
X205525263Y-52190251D02*
X205591929Y-52237870D01*
X205591929Y-52237870D02*
X205625263Y-52285489D01*
X205625263Y-52285489D02*
X205658596Y-52380727D01*
X205658596Y-52380727D02*
X205658596Y-52618822D01*
X205658596Y-52618822D02*
X205625263Y-52714060D01*
X205625263Y-52714060D02*
X205591929Y-52761680D01*
X205591929Y-52761680D02*
X205525263Y-52809299D01*
X205525263Y-52809299D02*
X205325263Y-52809299D01*
X205325263Y-52809299D02*
X205258596Y-52761680D01*
X205258596Y-52761680D02*
X205225263Y-52714060D01*
X205958596Y-52714060D02*
X205991930Y-52761680D01*
X205991930Y-52761680D02*
X205958596Y-52809299D01*
X205958596Y-52809299D02*
X205925263Y-52761680D01*
X205925263Y-52761680D02*
X205958596Y-52714060D01*
X205958596Y-52714060D02*
X205958596Y-52809299D01*
X206225263Y-51809299D02*
X206658596Y-51809299D01*
X206658596Y-51809299D02*
X206425263Y-52190251D01*
X206425263Y-52190251D02*
X206525263Y-52190251D01*
X206525263Y-52190251D02*
X206591929Y-52237870D01*
X206591929Y-52237870D02*
X206625263Y-52285489D01*
X206625263Y-52285489D02*
X206658596Y-52380727D01*
X206658596Y-52380727D02*
X206658596Y-52618822D01*
X206658596Y-52618822D02*
X206625263Y-52714060D01*
X206625263Y-52714060D02*
X206591929Y-52761680D01*
X206591929Y-52761680D02*
X206525263Y-52809299D01*
X206525263Y-52809299D02*
X206325263Y-52809299D01*
X206325263Y-52809299D02*
X206258596Y-52761680D01*
X206258596Y-52761680D02*
X206225263Y-52714060D01*
X206858596Y-51809299D02*
X207091930Y-52809299D01*
X207091930Y-52809299D02*
X207325263Y-51809299D01*
D14*
%TO.C,C32*%
X149482164Y-134580000D02*
X149697836Y-134580000D01*
X149482164Y-135630000D02*
X149697836Y-135630000D01*
%TO.C,C96*%
X195607164Y-89682500D02*
X195822836Y-89682500D01*
X195607164Y-90732500D02*
X195822836Y-90732500D01*
D10*
%TO.C,U21*%
X172130000Y-84340000D02*
X185210000Y-84340000D01*
X172130000Y-84340000D02*
X172230000Y-61940000D01*
X185310000Y-84340000D02*
X185410000Y-61940000D01*
X172220000Y-61890000D02*
X185410000Y-61940000D01*
D14*
%TO.C,C92*%
X148427836Y-105020000D02*
X148212164Y-105020000D01*
X148427836Y-103970000D02*
X148212164Y-103970000D01*
%TO.C,R24*%
X195513641Y-48195000D02*
X195206359Y-48195000D01*
X195513641Y-47195000D02*
X195206359Y-47195000D01*
%TO.C,R5*%
X128242500Y-127863641D02*
X128242500Y-127556359D01*
X129242500Y-127863641D02*
X129242500Y-127556359D01*
%TO.C,C39*%
X149502164Y-132980000D02*
X149717836Y-132980000D01*
X149502164Y-134030000D02*
X149717836Y-134030000D01*
%TO.C,C5*%
X147617836Y-129410000D02*
X147402164Y-129410000D01*
X147617836Y-128360000D02*
X147402164Y-128360000D01*
%TO.C,C10*%
X131010000Y-127602164D02*
X131010000Y-127817836D01*
X129960000Y-127602164D02*
X129960000Y-127817836D01*
%TO.C,C3*%
X126500000Y-127847836D02*
X126500000Y-127632164D01*
X127550000Y-127847836D02*
X127550000Y-127632164D01*
%TO.C,R4*%
X132266359Y-115470000D02*
X132573641Y-115470000D01*
X132266359Y-116470000D02*
X132573641Y-116470000D01*
%TO.C,U4*%
X133750000Y-131810000D02*
X127740000Y-131810000D01*
X131500000Y-138630000D02*
X127740000Y-138630000D01*
X127740000Y-138630000D02*
X127740000Y-137370000D01*
X127740000Y-131810000D02*
X127740000Y-133070000D01*
%TO.C,C38*%
X149562164Y-123290000D02*
X149777836Y-123290000D01*
X149562164Y-124340000D02*
X149777836Y-124340000D01*
%TO.C,C90*%
X187610000Y-41887164D02*
X187610000Y-42102836D01*
X186560000Y-41887164D02*
X186560000Y-42102836D01*
%TO.C,R95*%
X198135000Y-90603859D02*
X198135000Y-90911141D01*
X197135000Y-90603859D02*
X197135000Y-90911141D01*
%TO.C,U23*%
X132185000Y-100190000D02*
X132185000Y-99190000D01*
X132965000Y-100190000D02*
X132185000Y-100190000D01*
X151510000Y-100190000D02*
X151510000Y-100570000D01*
X157925000Y-100190000D02*
X151510000Y-100190000D01*
X157925000Y-100190000D02*
X157925000Y-81950000D01*
X132185000Y-81950000D02*
X132185000Y-82950000D01*
X132965000Y-81950000D02*
X132185000Y-81950000D01*
X157925000Y-81950000D02*
X151510000Y-81950000D01*
%TO.C,U9*%
X136222500Y-122940000D02*
X142232500Y-122940000D01*
X138472500Y-116120000D02*
X142232500Y-116120000D01*
X142232500Y-116120000D02*
X142232500Y-117380000D01*
X142232500Y-122940000D02*
X142232500Y-121680000D01*
%TO.C,R2*%
X132626359Y-118950000D02*
X132933641Y-118950000D01*
X132626359Y-119950000D02*
X132933641Y-119950000D01*
%TO.C,R6*%
X147693641Y-135620000D02*
X147386359Y-135620000D01*
X147693641Y-134620000D02*
X147386359Y-134620000D01*
%TO.C,Q1*%
X129182500Y-116930000D02*
X128532500Y-116930000D01*
X129182500Y-116930000D02*
X129832500Y-116930000D01*
X129182500Y-120050000D02*
X127507500Y-120050000D01*
X129182500Y-120050000D02*
X129832500Y-120050000D01*
%TO.C,D1*%
X133240000Y-126240000D02*
X127790000Y-126240000D01*
X133240000Y-122940000D02*
X133240000Y-126240000D01*
X133240000Y-122940000D02*
X127790000Y-122940000D01*
%TO.C,U3*%
X136300000Y-138510000D02*
X142310000Y-138510000D01*
X138550000Y-131690000D02*
X142310000Y-131690000D01*
X142310000Y-131690000D02*
X142310000Y-132950000D01*
X142310000Y-138510000D02*
X142310000Y-137250000D01*
%TO.C,R34*%
X148216359Y-102320000D02*
X148523641Y-102320000D01*
X148216359Y-103320000D02*
X148523641Y-103320000D01*
%TO.C,C6*%
X147637836Y-130940000D02*
X147422164Y-130940000D01*
X147637836Y-129890000D02*
X147422164Y-129890000D01*
%TO.C,G\u002A\u002A\u002A*%
G36*
X91850960Y-131195302D02*
G01*
X91903012Y-131190574D01*
X91988751Y-131209065D01*
X92010268Y-131214709D01*
X92102036Y-131230053D01*
X92248721Y-131249489D01*
X92438751Y-131271632D01*
X92660553Y-131295095D01*
X92902556Y-131318494D01*
X93133798Y-131339941D01*
X93345724Y-131358868D01*
X93355336Y-131359561D01*
X93503178Y-131370220D01*
X93615740Y-131373061D01*
X93692991Y-131366455D01*
X93744512Y-131349464D01*
X93779883Y-131321154D01*
X93808685Y-131280587D01*
X93840499Y-131226827D01*
X93889526Y-131185969D01*
X93978278Y-131164809D01*
X93987817Y-131165182D01*
X94073172Y-131190579D01*
X94160080Y-131243577D01*
X94225260Y-131306886D01*
X94245436Y-131363219D01*
X94249668Y-131392013D01*
X94290067Y-131422308D01*
X94377366Y-131448703D01*
X94520063Y-131473602D01*
X94726655Y-131499410D01*
X95106629Y-131542017D01*
X95368371Y-131258299D01*
X95450458Y-131166415D01*
X95543623Y-131053544D01*
X95607497Y-130965371D01*
X95631550Y-130915608D01*
X95640092Y-130878667D01*
X95686868Y-130811918D01*
X95761320Y-130778682D01*
X95851902Y-130803801D01*
X95954217Y-130895506D01*
X96071192Y-131055655D01*
X96168274Y-131203394D01*
X96275882Y-131361826D01*
X96368696Y-131493539D01*
X96436264Y-131586568D01*
X96470278Y-131633400D01*
X96508767Y-131686393D01*
X96763862Y-131674709D01*
X97018956Y-131663025D01*
X97125390Y-131871389D01*
X97176786Y-131983608D01*
X97198330Y-132065086D01*
X97224845Y-132165363D01*
X97222668Y-132224652D01*
X97220339Y-132288061D01*
X97218218Y-132345818D01*
X97211251Y-132369587D01*
X97200630Y-132405821D01*
X97168942Y-132513932D01*
X97158148Y-132550757D01*
X97153495Y-132562835D01*
X97145626Y-132583260D01*
X97075715Y-132750044D01*
X97066608Y-132771769D01*
X96991640Y-132908466D01*
X96986956Y-132914106D01*
X96907942Y-133009255D01*
X96802735Y-133090043D01*
X96663239Y-133166734D01*
X96648314Y-133174181D01*
X96511904Y-133244842D01*
X96391903Y-133311118D01*
X96312784Y-133359545D01*
X96265791Y-133387353D01*
X96176200Y-133409679D01*
X96052096Y-133400724D01*
X96028429Y-133397270D01*
X95937684Y-133389089D01*
X95896399Y-133401587D01*
X95886625Y-133438904D01*
X95882878Y-133467032D01*
X95850511Y-133487912D01*
X95768865Y-133478538D01*
X95670338Y-133441997D01*
X95596754Y-133385835D01*
X95542671Y-133344892D01*
X95428953Y-133300713D01*
X95282751Y-133266536D01*
X95124312Y-133244942D01*
X94973882Y-133238513D01*
X94851710Y-133249829D01*
X94778043Y-133281471D01*
X94760526Y-133300455D01*
X94742324Y-133341404D01*
X94754880Y-133399304D01*
X94800607Y-133497245D01*
X94813129Y-133520701D01*
X94871048Y-133618881D01*
X94956968Y-133757046D01*
X95061464Y-133920767D01*
X95175111Y-134095617D01*
X95288480Y-134267169D01*
X95392147Y-134420993D01*
X95476685Y-134542663D01*
X95532668Y-134617750D01*
X95560420Y-134646078D01*
X95638012Y-134716519D01*
X95747801Y-134811405D01*
X95875655Y-134918350D01*
X95932652Y-134965813D01*
X96074696Y-135092585D01*
X96162061Y-135189914D01*
X96199224Y-135265658D01*
X96190662Y-135327672D01*
X96140852Y-135383815D01*
X96055102Y-135425905D01*
X95917539Y-135447960D01*
X95769195Y-135439236D01*
X95640161Y-135398832D01*
X95627877Y-135392345D01*
X95531631Y-135327080D01*
X95453749Y-135238520D01*
X95383056Y-135110808D01*
X95308377Y-134928088D01*
X95299640Y-134905048D01*
X95252242Y-134792554D01*
X95193707Y-134675907D01*
X95118408Y-134546317D01*
X95020722Y-134394995D01*
X94895025Y-134213149D01*
X94735690Y-133991990D01*
X94537094Y-133722728D01*
X94529107Y-133711964D01*
X94418227Y-133559964D01*
X94319827Y-133420625D01*
X94244338Y-133308978D01*
X94202188Y-133240056D01*
X94200763Y-133237316D01*
X94153387Y-133158848D01*
X94114832Y-133114652D01*
X94077718Y-133128396D01*
X93998412Y-133182351D01*
X93889005Y-133267979D01*
X93761293Y-133376541D01*
X93648668Y-133474220D01*
X93502655Y-133596914D01*
X93372747Y-133701995D01*
X93277781Y-133773979D01*
X93223641Y-133813051D01*
X93096132Y-133909800D01*
X92987909Y-133997449D01*
X92964971Y-134016313D01*
X92924176Y-134048864D01*
X92898003Y-134077893D01*
X92889590Y-134112840D01*
X92902077Y-134163142D01*
X92938604Y-134238239D01*
X93002309Y-134347568D01*
X93096332Y-134500568D01*
X93223813Y-134706677D01*
X93324436Y-134871887D01*
X93423654Y-135038216D01*
X93507234Y-135181733D01*
X93563783Y-135283124D01*
X93598685Y-135345864D01*
X93648931Y-135423977D01*
X93711370Y-135504762D01*
X93794332Y-135597384D01*
X93906146Y-135711012D01*
X94055141Y-135854812D01*
X94249648Y-136037951D01*
X94271680Y-136058626D01*
X94424060Y-136207645D01*
X94522741Y-136320982D01*
X94570564Y-136406871D01*
X94570366Y-136473548D01*
X94524988Y-136529249D01*
X94437267Y-136582209D01*
X94405102Y-136597058D01*
X94276772Y-136626482D01*
X94135779Y-136606324D01*
X93963873Y-136534755D01*
X93830036Y-136456497D01*
X93704003Y-136341838D01*
X93616796Y-136193829D01*
X93553850Y-135993239D01*
X93549028Y-135973417D01*
X93506738Y-135830603D01*
X93449231Y-135695177D01*
X93366251Y-135546007D01*
X93247546Y-135361957D01*
X93168512Y-135243168D01*
X93048893Y-135060224D01*
X92937015Y-134885865D01*
X92849439Y-134745724D01*
X92844477Y-134737645D01*
X92744337Y-134588082D01*
X92632548Y-134440227D01*
X92532392Y-134324976D01*
X92457129Y-134243660D01*
X92395561Y-134167535D01*
X92371932Y-134124504D01*
X92369392Y-134106810D01*
X92340296Y-134029803D01*
X92287486Y-133925152D01*
X92222026Y-133811430D01*
X92154980Y-133707206D01*
X92097411Y-133631053D01*
X92060382Y-133601542D01*
X92048646Y-133600902D01*
X91996554Y-133567483D01*
X91991016Y-133494386D01*
X92007695Y-133456606D01*
X92435799Y-133456606D01*
X92532528Y-133583425D01*
X92559896Y-133618572D01*
X92615014Y-133684206D01*
X92643485Y-133710244D01*
X92658368Y-133698467D01*
X92708132Y-133643869D01*
X92777518Y-133559821D01*
X92862357Y-133457653D01*
X92974427Y-133328712D01*
X93087552Y-133203264D01*
X93108135Y-133180840D01*
X93194357Y-133083969D01*
X93254918Y-133011118D01*
X93277781Y-132976630D01*
X93265068Y-132967377D01*
X93199079Y-132948957D01*
X93095653Y-132931082D01*
X93075216Y-132928291D01*
X92979050Y-132919253D01*
X92913218Y-132931686D01*
X92851287Y-132976238D01*
X92766820Y-133063559D01*
X92707291Y-133128767D01*
X92606701Y-133243587D01*
X92527957Y-133338846D01*
X92435799Y-133456606D01*
X92007695Y-133456606D01*
X92034014Y-133396990D01*
X92035854Y-133394196D01*
X92096006Y-133315159D01*
X92187196Y-133208058D01*
X92290439Y-133095234D01*
X92308362Y-133076171D01*
X92393856Y-132978235D01*
X92451167Y-132900669D01*
X92452381Y-132897774D01*
X95930296Y-132897774D01*
X95930568Y-132954340D01*
X95943514Y-132976630D01*
X95946418Y-132981629D01*
X95974204Y-132954194D01*
X95986518Y-132914106D01*
X95972049Y-132878233D01*
X95937202Y-132886676D01*
X95930296Y-132897774D01*
X92452381Y-132897774D01*
X92468702Y-132858847D01*
X92448183Y-132847334D01*
X92364728Y-132823460D01*
X92320312Y-132813453D01*
X95144263Y-132813453D01*
X95145591Y-132848586D01*
X95183269Y-132876863D01*
X95219047Y-132852603D01*
X95234414Y-132768161D01*
X95227494Y-132714361D01*
X95937567Y-132714361D01*
X95975072Y-132731927D01*
X96002068Y-132727492D01*
X96024425Y-132703387D01*
X96343810Y-132703387D01*
X96344563Y-132750044D01*
X96352733Y-132768161D01*
X96356296Y-132776061D01*
X96379660Y-132804395D01*
X96386148Y-132798388D01*
X96393900Y-132750044D01*
X96389947Y-132725058D01*
X96358804Y-132695693D01*
X96343810Y-132703387D01*
X96024425Y-132703387D01*
X96031561Y-132695693D01*
X96030585Y-132687096D01*
X95997465Y-132659459D01*
X95987300Y-132660841D01*
X95940976Y-132695693D01*
X95937567Y-132714361D01*
X95227494Y-132714361D01*
X95227438Y-132713928D01*
X95202923Y-132665264D01*
X95175060Y-132657901D01*
X95159174Y-132704751D01*
X95156558Y-132732487D01*
X95144263Y-132813453D01*
X92320312Y-132813453D01*
X92226275Y-132792266D01*
X92042590Y-132755595D01*
X91823436Y-132715293D01*
X91578578Y-132673203D01*
X91317779Y-132631169D01*
X91050804Y-132591036D01*
X90896768Y-132574889D01*
X90784382Y-132581767D01*
X90723487Y-132616795D01*
X90705170Y-132682327D01*
X90717895Y-132721707D01*
X90761003Y-132813156D01*
X90827394Y-132939366D01*
X90909559Y-133085523D01*
X90977592Y-133203137D01*
X91063546Y-133352085D01*
X91134635Y-133475662D01*
X91180112Y-133555211D01*
X91208202Y-133596436D01*
X91288253Y-133692729D01*
X91397585Y-133810494D01*
X91521029Y-133932923D01*
X91565671Y-133975642D01*
X91678892Y-134089566D01*
X91747528Y-134171892D01*
X91780049Y-134233993D01*
X91784928Y-134287242D01*
X91779614Y-134320068D01*
X91756461Y-134361062D01*
X91699919Y-134381320D01*
X91590449Y-134391295D01*
X91572532Y-134392271D01*
X91459357Y-134390811D01*
X91383384Y-134366201D01*
X91314255Y-134309446D01*
X91292436Y-134284654D01*
X91225166Y-134176443D01*
X91175955Y-134053551D01*
X91159037Y-134001396D01*
X91098507Y-133858877D01*
X91026400Y-133726509D01*
X90986173Y-133661692D01*
X90940394Y-133583105D01*
X90922574Y-133545156D01*
X90905018Y-133506602D01*
X90850318Y-133417227D01*
X90764497Y-133287357D01*
X90653705Y-133126278D01*
X90524088Y-132943273D01*
X90483562Y-132886299D01*
X90390022Y-132751130D01*
X90311926Y-132633463D01*
X90272270Y-132568874D01*
X94183629Y-132568874D01*
X94201746Y-132586991D01*
X94215003Y-132573734D01*
X96726415Y-132573734D01*
X96756240Y-132586991D01*
X96775422Y-132584376D01*
X96780396Y-132562835D01*
X96775085Y-132558499D01*
X96732084Y-132562835D01*
X96728943Y-132568874D01*
X96726415Y-132573734D01*
X94215003Y-132573734D01*
X94219863Y-132568874D01*
X94201746Y-132550757D01*
X94183629Y-132568874D01*
X90272270Y-132568874D01*
X90262989Y-132553758D01*
X90251141Y-132534779D01*
X96357667Y-132534779D01*
X96364464Y-132542354D01*
X96414156Y-132550757D01*
X96440014Y-132545443D01*
X96447886Y-132513932D01*
X96431993Y-132500204D01*
X96384218Y-132500957D01*
X96357667Y-132534779D01*
X90251141Y-132534779D01*
X90232401Y-132504760D01*
X90169658Y-132454379D01*
X90071234Y-132442055D01*
X90066656Y-132442023D01*
X89962756Y-132433668D01*
X89819656Y-132413412D01*
X89666891Y-132385395D01*
X89641834Y-132380332D01*
X89579719Y-132369587D01*
X96756240Y-132369587D01*
X96757293Y-132378248D01*
X96792474Y-132405821D01*
X96801135Y-132404768D01*
X96815079Y-132386976D01*
X97126321Y-132386976D01*
X97130657Y-132429977D01*
X97141556Y-132435646D01*
X97154813Y-132405821D01*
X97152199Y-132386639D01*
X97130657Y-132381665D01*
X97126321Y-132386976D01*
X96815079Y-132386976D01*
X96828708Y-132369587D01*
X96827655Y-132360927D01*
X96792474Y-132333353D01*
X96783813Y-132334406D01*
X96756240Y-132369587D01*
X89579719Y-132369587D01*
X89507604Y-132357112D01*
X89401925Y-132345046D01*
X89345836Y-132346672D01*
X89321427Y-132365913D01*
X89258087Y-132434229D01*
X89171411Y-132538678D01*
X89072717Y-132666028D01*
X89012069Y-132745819D01*
X88902783Y-132885449D01*
X88804901Y-133005727D01*
X88734144Y-133087103D01*
X88621946Y-133206758D01*
X88714035Y-133376975D01*
X88739361Y-133423826D01*
X88809901Y-133554508D01*
X88895086Y-133712487D01*
X88981721Y-133873296D01*
X88995308Y-133898474D01*
X89106241Y-134097307D01*
X89204300Y-134254833D01*
X89305434Y-134393050D01*
X89425587Y-134533955D01*
X89580707Y-134699544D01*
X89683860Y-134809690D01*
X89789544Y-134936268D01*
X89844268Y-135029824D01*
X89850492Y-135098688D01*
X89810676Y-135151189D01*
X89727283Y-135195658D01*
X89674237Y-135213683D01*
X89594490Y-135214586D01*
X89493381Y-135176262D01*
X89361710Y-135092334D01*
X89248819Y-134955119D01*
X89169005Y-134762445D01*
X89144132Y-134687914D01*
X89085152Y-134538679D01*
X89019700Y-134396031D01*
X89011332Y-134379705D01*
X88950478Y-134269727D01*
X88867056Y-134128106D01*
X88769560Y-133968273D01*
X88666486Y-133803660D01*
X88566326Y-133647697D01*
X88477576Y-133513816D01*
X88408729Y-133415447D01*
X88368281Y-133366021D01*
X88362852Y-133360276D01*
X88323725Y-133299434D01*
X88268004Y-133195191D01*
X88205878Y-133066349D01*
X88190617Y-133033568D01*
X88118693Y-132896265D01*
X88057748Y-132815850D01*
X88000035Y-132781608D01*
X87945643Y-132761902D01*
X87915156Y-132734411D01*
X87916811Y-132728018D01*
X87923438Y-132714744D01*
X88334474Y-132714744D01*
X88349668Y-132767609D01*
X88389236Y-132823742D01*
X88430324Y-132830217D01*
X88481502Y-132780063D01*
X88552517Y-132668518D01*
X88585930Y-132612965D01*
X88679837Y-132465814D01*
X88771747Y-132331277D01*
X88825261Y-132248176D01*
X92770505Y-132248176D01*
X92791308Y-132280207D01*
X92861090Y-132297120D01*
X92920464Y-132294876D01*
X92951125Y-132288061D01*
X92948624Y-132277476D01*
X92933742Y-132224652D01*
X97118579Y-132224652D01*
X97119632Y-132233312D01*
X97154813Y-132260886D01*
X97163474Y-132259833D01*
X97191047Y-132224652D01*
X97189994Y-132215991D01*
X97154813Y-132188418D01*
X97146153Y-132189471D01*
X97118579Y-132224652D01*
X92933742Y-132224652D01*
X92931145Y-132215434D01*
X92902587Y-132118502D01*
X92854599Y-131958001D01*
X92831116Y-132025365D01*
X92812552Y-132078616D01*
X92809512Y-132087465D01*
X92801200Y-132115950D01*
X92781863Y-132182223D01*
X92770505Y-132248176D01*
X88825261Y-132248176D01*
X88840943Y-132223823D01*
X88911916Y-132097105D01*
X90060700Y-132097105D01*
X90065037Y-132140106D01*
X90075935Y-132145774D01*
X90089193Y-132115950D01*
X90086578Y-132096768D01*
X90065037Y-132091794D01*
X90060700Y-132097105D01*
X88911916Y-132097105D01*
X88926030Y-132071906D01*
X88948901Y-132025365D01*
X90052959Y-132025365D01*
X90071076Y-132043482D01*
X90089193Y-132025365D01*
X90071076Y-132007248D01*
X90052959Y-132025365D01*
X88948901Y-132025365D01*
X88971727Y-131978915D01*
X92545443Y-131978915D01*
X92562844Y-132002286D01*
X92594760Y-131960646D01*
X92636967Y-131850394D01*
X92656648Y-131787589D01*
X92681504Y-131701932D01*
X92997162Y-131701932D01*
X93020364Y-131796394D01*
X93077928Y-131945953D01*
X93120053Y-132038183D01*
X93152805Y-132085355D01*
X93165766Y-132065086D01*
X93158318Y-131978786D01*
X93129842Y-131827862D01*
X93120035Y-131785899D01*
X93080834Y-131679974D01*
X93035329Y-131644908D01*
X93007180Y-131654492D01*
X92997162Y-131701932D01*
X92681504Y-131701932D01*
X92685892Y-131686811D01*
X92693804Y-131633400D01*
X92681097Y-131612356D01*
X92648488Y-131608674D01*
X92633413Y-131614097D01*
X92602159Y-131663025D01*
X92595622Y-131673259D01*
X92563530Y-131787752D01*
X92546778Y-131894135D01*
X92545853Y-131952897D01*
X92545443Y-131978915D01*
X88971727Y-131978915D01*
X88984512Y-131952897D01*
X89364514Y-131952897D01*
X89382631Y-131971014D01*
X89400748Y-131952897D01*
X89382631Y-131934780D01*
X89364514Y-131952897D01*
X88984512Y-131952897D01*
X89000663Y-131920031D01*
X89001320Y-131918569D01*
X89066438Y-131781512D01*
X89128591Y-131663025D01*
X90306597Y-131663025D01*
X90324714Y-131681142D01*
X90342831Y-131663025D01*
X90324714Y-131644908D01*
X90306597Y-131663025D01*
X89128591Y-131663025D01*
X89131183Y-131658084D01*
X89181632Y-131574845D01*
X89191056Y-131555883D01*
X95495650Y-131555883D01*
X95525633Y-131569372D01*
X95605446Y-131585155D01*
X95708656Y-131596478D01*
X95811518Y-131601630D01*
X95890288Y-131598897D01*
X95921222Y-131586568D01*
X95916529Y-131568393D01*
X95886638Y-131497016D01*
X95838627Y-131399678D01*
X95757669Y-131245032D01*
X95616156Y-131389954D01*
X95558729Y-131452713D01*
X95507146Y-131520981D01*
X95495650Y-131555883D01*
X89191056Y-131555883D01*
X89212412Y-131512915D01*
X90793533Y-131512915D01*
X90794602Y-131527958D01*
X90840919Y-131505268D01*
X90940691Y-131444676D01*
X90985596Y-131416649D01*
X91041755Y-131376656D01*
X91043057Y-131359561D01*
X90995042Y-131356361D01*
X90922907Y-131375673D01*
X90871471Y-131419436D01*
X90839356Y-131446760D01*
X90829505Y-131460309D01*
X90793533Y-131512915D01*
X89212412Y-131512915D01*
X89215254Y-131507196D01*
X89231988Y-131419436D01*
X89222664Y-131348187D01*
X89186774Y-131318803D01*
X89158266Y-131346729D01*
X89105510Y-131421670D01*
X89040321Y-131527148D01*
X88994772Y-131603960D01*
X88879240Y-131794222D01*
X88739894Y-132019250D01*
X88587409Y-132261871D01*
X88432462Y-132504913D01*
X88401488Y-132554141D01*
X88349764Y-132649883D01*
X88334474Y-132714744D01*
X87923438Y-132714744D01*
X87944580Y-132672393D01*
X87999505Y-132576808D01*
X88072353Y-132457526D01*
X88128850Y-132366271D01*
X88223913Y-132209744D01*
X88330758Y-132031234D01*
X88443255Y-131841256D01*
X88555269Y-131650327D01*
X88660669Y-131468963D01*
X88753322Y-131307680D01*
X88827095Y-131176994D01*
X88875856Y-131087421D01*
X88893472Y-131049476D01*
X88897156Y-131038292D01*
X88932480Y-130981247D01*
X88993116Y-130900178D01*
X89015432Y-130873916D01*
X89116151Y-130794622D01*
X89211516Y-130779119D01*
X89292046Y-130829644D01*
X89336656Y-130862354D01*
X89423301Y-130883995D01*
X89478582Y-130892494D01*
X89509450Y-130920229D01*
X89503318Y-130936898D01*
X89455099Y-130956463D01*
X89408423Y-130974970D01*
X89413614Y-131036154D01*
X89475683Y-131141098D01*
X89485041Y-131153735D01*
X89542716Y-131209221D01*
X89618444Y-131239230D01*
X89724996Y-131244704D01*
X89875145Y-131226587D01*
X90081662Y-131185820D01*
X90194693Y-131164195D01*
X90409944Y-131138428D01*
X90599204Y-131135466D01*
X90741404Y-131156254D01*
X90782162Y-131139988D01*
X90801009Y-131122350D01*
X91185290Y-131122350D01*
X91193067Y-131161570D01*
X91257738Y-131187263D01*
X91313009Y-131200664D01*
X91366440Y-131209606D01*
X91392131Y-131184339D01*
X91382772Y-131121535D01*
X91341505Y-131044915D01*
X91309240Y-131004370D01*
X91277831Y-130996994D01*
X91233955Y-131047048D01*
X91231195Y-131050666D01*
X91185290Y-131122350D01*
X90801009Y-131122350D01*
X90848203Y-131078183D01*
X90923515Y-130988007D01*
X90994341Y-130887526D01*
X91046925Y-130794811D01*
X91067510Y-130727929D01*
X91073676Y-130700848D01*
X91121861Y-130653489D01*
X91146970Y-130638017D01*
X91176211Y-130581370D01*
X91187875Y-130542512D01*
X91244432Y-130513518D01*
X91330758Y-130523939D01*
X91427560Y-130574318D01*
X91447984Y-130590018D01*
X91504697Y-130643850D01*
X91517420Y-130675645D01*
X91517899Y-130706483D01*
X91546326Y-130785050D01*
X91596873Y-130891294D01*
X91660598Y-131006701D01*
X91728558Y-131112759D01*
X91732278Y-131117936D01*
X91796301Y-131181584D01*
X91807278Y-131184339D01*
X91850960Y-131195302D01*
G37*
%TO.C,C40*%
X149542164Y-131420000D02*
X149757836Y-131420000D01*
X149542164Y-132470000D02*
X149757836Y-132470000D01*
%TO.C,C9*%
X132660000Y-127572164D02*
X132660000Y-127787836D01*
X131610000Y-127572164D02*
X131610000Y-127787836D01*
%TO.C,R27*%
X188831359Y-41845000D02*
X189138641Y-41845000D01*
X188831359Y-42845000D02*
X189138641Y-42845000D01*
%TO.C,R25*%
X195106359Y-43345000D02*
X195413641Y-43345000D01*
X195106359Y-44345000D02*
X195413641Y-44345000D01*
%TO.C,C4*%
X147637836Y-134085000D02*
X147422164Y-134085000D01*
X147637836Y-133035000D02*
X147422164Y-133035000D01*
%TO.C,C2*%
X147512164Y-124970000D02*
X147727836Y-124970000D01*
X147512164Y-126020000D02*
X147727836Y-126020000D01*
%TO.C,C44*%
X149592164Y-126640000D02*
X149807836Y-126640000D01*
X149592164Y-127690000D02*
X149807836Y-127690000D01*
%TO.C,C8*%
X147707836Y-127770000D02*
X147492164Y-127770000D01*
X147707836Y-126720000D02*
X147492164Y-126720000D01*
%TO.C,C42*%
X149552164Y-128320000D02*
X149767836Y-128320000D01*
X149552164Y-129370000D02*
X149767836Y-129370000D01*
%TO.C,C31*%
X201262836Y-125407500D02*
X201047164Y-125407500D01*
X201262836Y-124357500D02*
X201047164Y-124357500D01*
%TO.C,U1*%
X136240000Y-130700000D02*
X142250000Y-130700000D01*
X138490000Y-123880000D02*
X142250000Y-123880000D01*
X142250000Y-123880000D02*
X142250000Y-125140000D01*
X142250000Y-130700000D02*
X142250000Y-129440000D01*
%TO.C,C41*%
X149552164Y-129860000D02*
X149767836Y-129860000D01*
X149552164Y-130910000D02*
X149767836Y-130910000D01*
%TO.C,C7*%
X147627836Y-132520000D02*
X147412164Y-132520000D01*
X147627836Y-131470000D02*
X147412164Y-131470000D01*
%TO.C,C43*%
X149592164Y-124905000D02*
X149807836Y-124905000D01*
X149592164Y-125955000D02*
X149807836Y-125955000D01*
%TO.C,C36*%
X149442164Y-136080000D02*
X149657836Y-136080000D01*
X149442164Y-137130000D02*
X149657836Y-137130000D01*
%TD*%
M02*
