%TF.GenerationSoftware,KiCad,Pcbnew,7.0.10*%
%TF.CreationDate,2024-12-05T21:17:43+05:30*%
%TF.ProjectId,remote_v2,72656d6f-7465-45f7-9632-2e6b69636164,rev?*%
%TF.SameCoordinates,Original*%
%TF.FileFunction,Paste,Top*%
%TF.FilePolarity,Positive*%
%FSLAX46Y46*%
G04 Gerber Fmt 4.6, Leading zero omitted, Abs format (unit mm)*
G04 Created by KiCad (PCBNEW 7.0.10) date 2024-12-05 21:17:43*
%MOMM*%
%LPD*%
G01*
G04 APERTURE LIST*
G04 Aperture macros list*
%AMRoundRect*
0 Rectangle with rounded corners*
0 $1 Rounding radius*
0 $2 $3 $4 $5 $6 $7 $8 $9 X,Y pos of 4 corners*
0 Add a 4 corners polygon primitive as box body*
4,1,4,$2,$3,$4,$5,$6,$7,$8,$9,$2,$3,0*
0 Add four circle primitives for the rounded corners*
1,1,$1+$1,$2,$3*
1,1,$1+$1,$4,$5*
1,1,$1+$1,$6,$7*
1,1,$1+$1,$8,$9*
0 Add four rect primitives between the rounded corners*
20,1,$1+$1,$2,$3,$4,$5,0*
20,1,$1+$1,$4,$5,$6,$7,0*
20,1,$1+$1,$6,$7,$8,$9,0*
20,1,$1+$1,$8,$9,$2,$3,0*%
%AMFreePoly0*
4,1,14,0.266715,0.088284,0.363284,-0.008285,0.375000,-0.036569,0.375000,-0.060000,0.363284,-0.088284,0.335000,-0.100000,-0.335000,-0.100000,-0.363284,-0.088284,-0.375000,-0.060000,-0.375000,0.060000,-0.363284,0.088284,-0.335000,0.100000,0.238431,0.100000,0.266715,0.088284,0.266715,0.088284,$1*%
%AMFreePoly1*
4,1,14,0.363284,0.088284,0.375000,0.060000,0.375000,0.036569,0.363284,0.008285,0.266715,-0.088284,0.238431,-0.100000,-0.335000,-0.100000,-0.363284,-0.088284,-0.375000,-0.060000,-0.375000,0.060000,-0.363284,0.088284,-0.335000,0.100000,0.335000,0.100000,0.363284,0.088284,0.363284,0.088284,$1*%
%AMFreePoly2*
4,1,14,0.088284,0.363284,0.100000,0.335000,0.100000,-0.335000,0.088284,-0.363284,0.060000,-0.375000,-0.060000,-0.375000,-0.088284,-0.363284,-0.100000,-0.335000,-0.100000,0.238431,-0.088284,0.266715,0.008285,0.363284,0.036569,0.375000,0.060000,0.375000,0.088284,0.363284,0.088284,0.363284,$1*%
%AMFreePoly3*
4,1,14,-0.008285,0.363284,0.088284,0.266715,0.100000,0.238431,0.100000,-0.335000,0.088284,-0.363284,0.060000,-0.375000,-0.060000,-0.375000,-0.088284,-0.363284,-0.100000,-0.335000,-0.100000,0.335000,-0.088284,0.363284,-0.060000,0.375000,-0.036569,0.375000,-0.008285,0.363284,-0.008285,0.363284,$1*%
%AMFreePoly4*
4,1,14,0.363284,0.088284,0.375000,0.060000,0.375000,-0.060000,0.363284,-0.088284,0.335000,-0.100000,-0.238431,-0.100000,-0.266715,-0.088284,-0.363284,0.008285,-0.375000,0.036569,-0.375000,0.060000,-0.363284,0.088284,-0.335000,0.100000,0.335000,0.100000,0.363284,0.088284,0.363284,0.088284,$1*%
%AMFreePoly5*
4,1,14,0.363284,0.088284,0.375000,0.060000,0.375000,-0.060000,0.363284,-0.088284,0.335000,-0.100000,-0.335000,-0.100000,-0.363284,-0.088284,-0.375000,-0.060000,-0.375000,-0.036569,-0.363284,-0.008285,-0.266715,0.088284,-0.238431,0.100000,0.335000,0.100000,0.363284,0.088284,0.363284,0.088284,$1*%
%AMFreePoly6*
4,1,14,0.088284,0.363284,0.100000,0.335000,0.100000,-0.238431,0.088284,-0.266715,-0.008285,-0.363284,-0.036569,-0.375000,-0.060000,-0.375000,-0.088284,-0.363284,-0.100000,-0.335000,-0.100000,0.335000,-0.088284,0.363284,-0.060000,0.375000,0.060000,0.375000,0.088284,0.363284,0.088284,0.363284,$1*%
%AMFreePoly7*
4,1,14,0.088284,0.363284,0.100000,0.335000,0.100000,-0.335000,0.088284,-0.363284,0.060000,-0.375000,0.036569,-0.375000,0.008285,-0.363284,-0.088284,-0.266715,-0.100000,-0.238431,-0.100000,0.335000,-0.088284,0.363284,-0.060000,0.375000,0.060000,0.375000,0.088284,0.363284,0.088284,0.363284,$1*%
G04 Aperture macros list end*
%ADD10RoundRect,0.135000X-0.135000X-0.185000X0.135000X-0.185000X0.135000X0.185000X-0.135000X0.185000X0*%
%ADD11RoundRect,0.140000X0.140000X0.170000X-0.140000X0.170000X-0.140000X-0.170000X0.140000X-0.170000X0*%
%ADD12RoundRect,0.275000X-0.825000X1.825000X-0.825000X-1.825000X0.825000X-1.825000X0.825000X1.825000X0*%
%ADD13RoundRect,0.135000X0.135000X0.185000X-0.135000X0.185000X-0.135000X-0.185000X0.135000X-0.185000X0*%
%ADD14C,1.500000*%
%ADD15RoundRect,0.147500X0.147500X0.172500X-0.147500X0.172500X-0.147500X-0.172500X0.147500X-0.172500X0*%
%ADD16R,1.500000X2.000000*%
%ADD17C,2.400000*%
%ADD18RoundRect,0.140000X0.170000X-0.140000X0.170000X0.140000X-0.170000X0.140000X-0.170000X-0.140000X0*%
%ADD19RoundRect,0.135000X-0.185000X0.135000X-0.185000X-0.135000X0.185000X-0.135000X0.185000X0.135000X0*%
%ADD20RoundRect,0.140000X-0.140000X-0.170000X0.140000X-0.170000X0.140000X0.170000X-0.140000X0.170000X0*%
%ADD21R,0.900000X1.700000*%
%ADD22RoundRect,0.275000X1.825000X0.825000X-1.825000X0.825000X-1.825000X-0.825000X1.825000X-0.825000X0*%
%ADD23RoundRect,0.275000X-1.825000X-0.825000X1.825000X-0.825000X1.825000X0.825000X-1.825000X0.825000X0*%
%ADD24R,0.900000X1.500000*%
%ADD25R,1.500000X0.900000*%
%ADD26R,0.900000X0.900000*%
%ADD27RoundRect,0.112500X-0.187500X-0.112500X0.187500X-0.112500X0.187500X0.112500X-0.187500X0.112500X0*%
%ADD28RoundRect,0.160000X-0.195000X-0.160000X0.195000X-0.160000X0.195000X0.160000X-0.195000X0.160000X0*%
%ADD29FreePoly0,0.000000*%
%ADD30RoundRect,0.050000X-0.325000X-0.050000X0.325000X-0.050000X0.325000X0.050000X-0.325000X0.050000X0*%
%ADD31FreePoly1,0.000000*%
%ADD32FreePoly2,0.000000*%
%ADD33RoundRect,0.050000X-0.050000X-0.325000X0.050000X-0.325000X0.050000X0.325000X-0.050000X0.325000X0*%
%ADD34FreePoly3,0.000000*%
%ADD35FreePoly4,0.000000*%
%ADD36FreePoly5,0.000000*%
%ADD37FreePoly6,0.000000*%
%ADD38FreePoly7,0.000000*%
%ADD39RoundRect,0.147500X-0.147500X-0.172500X0.147500X-0.172500X0.147500X0.172500X-0.147500X0.172500X0*%
%ADD40C,3.000000*%
%ADD41R,1.700000X0.900000*%
%ADD42R,2.500000X2.500000*%
%ADD43RoundRect,0.150000X-0.587500X-0.150000X0.587500X-0.150000X0.587500X0.150000X-0.587500X0.150000X0*%
G04 APERTURE END LIST*
D10*
%TO.C,R7*%
X94320000Y-154960000D03*
X95340000Y-154960000D03*
%TD*%
D11*
%TO.C,C37*%
X95370000Y-157900000D03*
X94410000Y-157900000D03*
%TD*%
D12*
%TO.C,C54*%
X83420000Y-128610000D03*
X83420000Y-135910000D03*
%TD*%
D13*
%TO.C,R51*%
X194020000Y-84432500D03*
X193000000Y-84432500D03*
%TD*%
D10*
%TO.C,R33*%
X148380000Y-79440000D03*
X149400000Y-79440000D03*
%TD*%
D11*
%TO.C,C94*%
X130560000Y-84420000D03*
X129600000Y-84420000D03*
%TD*%
D14*
%TO.C,J24*%
X58960000Y-140250000D03*
X58960000Y-142500000D03*
%TD*%
D11*
%TO.C,C30*%
X178660000Y-106757500D03*
X177700000Y-106757500D03*
%TD*%
D10*
%TO.C,R48*%
X129550000Y-82895000D03*
X130570000Y-82895000D03*
%TD*%
D13*
%TO.C,R91*%
X166590000Y-94810000D03*
X165570000Y-94810000D03*
%TD*%
D15*
%TO.C,D14*%
X198125000Y-70150000D03*
X199095000Y-70150000D03*
%TD*%
D16*
%TO.C,U11*%
X155690000Y-129420000D03*
X157690000Y-129420000D03*
X159690000Y-129420000D03*
X161690000Y-129420000D03*
X163690000Y-129420000D03*
X165690000Y-129420000D03*
X167690000Y-129420000D03*
X169690000Y-129420000D03*
X169690000Y-113420000D03*
X167690000Y-113420000D03*
X165690000Y-113420000D03*
X163690000Y-113420000D03*
X161690000Y-113420000D03*
X159690000Y-113420000D03*
X157690000Y-113420000D03*
X155690000Y-113420000D03*
%TD*%
D17*
%TO.C,J28*%
X152760000Y-42590000D03*
X155860000Y-42540000D03*
X159110000Y-42640000D03*
%TD*%
%TO.C,J12*%
X141660000Y-50470000D03*
X144810000Y-50470000D03*
X148010000Y-50570000D03*
%TD*%
D13*
%TO.C,R96*%
X180895000Y-108432500D03*
X179875000Y-108432500D03*
%TD*%
D10*
%TO.C,R94*%
X199100000Y-68830000D03*
X198080000Y-68830000D03*
%TD*%
D12*
%TO.C,C24*%
X65080000Y-128680000D03*
X65080000Y-135980000D03*
%TD*%
%TO.C,C59*%
X110840000Y-128590000D03*
X110840000Y-135890000D03*
%TD*%
D18*
%TO.C,C91*%
X205985000Y-61675000D03*
X205985000Y-60715000D03*
%TD*%
D19*
%TO.C,R55*%
X144920000Y-78690000D03*
X144920000Y-79710000D03*
%TD*%
D20*
%TO.C,C95*%
X193080000Y-82457500D03*
X194040000Y-82457500D03*
%TD*%
%TO.C,C53*%
X167990000Y-94830000D03*
X168950000Y-94830000D03*
%TD*%
%TO.C,C51*%
X168100000Y-87550000D03*
X169060000Y-87550000D03*
%TD*%
D21*
%TO.C,SW6*%
X185810000Y-107707500D03*
X182410000Y-107707500D03*
%TD*%
D10*
%TO.C,R8*%
X203700000Y-54095000D03*
X204720000Y-54095000D03*
%TD*%
D22*
%TO.C,C71*%
X70260000Y-143200000D03*
X62960000Y-143200000D03*
%TD*%
D13*
%TO.C,R53*%
X194135000Y-131732500D03*
X193115000Y-131732500D03*
%TD*%
D21*
%TO.C,SW2*%
X202535000Y-58070000D03*
X205935000Y-58070000D03*
%TD*%
D17*
%TO.C,J10*%
X129710000Y-50720000D03*
X132960000Y-50720000D03*
X136060000Y-50720000D03*
%TD*%
D23*
%TO.C,C61*%
X114890000Y-143460000D03*
X122190000Y-143460000D03*
%TD*%
D10*
%TO.C,R1*%
X168340000Y-136182500D03*
X169360000Y-136182500D03*
%TD*%
%TO.C,R38*%
X148970000Y-96790000D03*
X149990000Y-96790000D03*
%TD*%
D24*
%TO.C,U24*%
X198840000Y-87207500D03*
X197570000Y-87207500D03*
X196300000Y-87207500D03*
X195030000Y-87207500D03*
X193760000Y-87207500D03*
X192490000Y-87207500D03*
X191220000Y-87207500D03*
X189950000Y-87207500D03*
X188680000Y-87207500D03*
X187410000Y-87207500D03*
X186140000Y-87207500D03*
X184870000Y-87207500D03*
X183600000Y-87207500D03*
X182330000Y-87207500D03*
D25*
X181080000Y-90247500D03*
X181080000Y-91517500D03*
X181080000Y-92787500D03*
X181080000Y-94057500D03*
X181080000Y-95327500D03*
X181080000Y-96597500D03*
X181080000Y-97867500D03*
X181080000Y-99137500D03*
X181080000Y-100407500D03*
X181080000Y-101677500D03*
D24*
X182330000Y-104707500D03*
X183600000Y-104707500D03*
X184870000Y-104707500D03*
X186140000Y-104707500D03*
X187410000Y-104707500D03*
X188680000Y-104707500D03*
X189950000Y-104707500D03*
X191220000Y-104707500D03*
X192490000Y-104707500D03*
X193760000Y-104707500D03*
X195030000Y-104707500D03*
X196300000Y-104707500D03*
X197570000Y-104707500D03*
X198840000Y-104707500D03*
D26*
X192520000Y-93057500D03*
X191120000Y-93057500D03*
X189720000Y-93057500D03*
X192520000Y-94457500D03*
X191120000Y-94457500D03*
X189720000Y-94457500D03*
X192520000Y-95857500D03*
X191120000Y-95857500D03*
X189720000Y-95857500D03*
%TD*%
D19*
%TO.C,R26*%
X179885000Y-46775000D03*
X179885000Y-47795000D03*
%TD*%
D27*
%TO.C,D7*%
X179152500Y-66020000D03*
X181252500Y-66020000D03*
%TD*%
D17*
%TO.C,J30*%
X152770000Y-50610000D03*
X155770000Y-50660000D03*
X158820000Y-50710000D03*
%TD*%
D10*
%TO.C,R52*%
X177735000Y-108482500D03*
X178755000Y-108482500D03*
%TD*%
D14*
%TO.C,J32*%
X159250000Y-96110000D03*
X159250000Y-94260000D03*
X159250000Y-92410000D03*
X159250000Y-90560000D03*
X159250000Y-88710000D03*
X159250000Y-86860000D03*
X159250000Y-85010000D03*
%TD*%
D17*
%TO.C,J8*%
X141760000Y-46370000D03*
X144860000Y-46370000D03*
X148010000Y-46420000D03*
%TD*%
D12*
%TO.C,C48*%
X92540000Y-128570000D03*
X92540000Y-135870000D03*
%TD*%
D28*
%TO.C,U13*%
X166700000Y-90720000D03*
X166700000Y-91520000D03*
X167580000Y-90720000D03*
X167580000Y-91520000D03*
D29*
X165640000Y-90120000D03*
D30*
X165640000Y-90520000D03*
X165640000Y-90920000D03*
X165640000Y-91320000D03*
X165640000Y-91720000D03*
D31*
X165640000Y-92120000D03*
D32*
X166140000Y-92620000D03*
D33*
X166540000Y-92620000D03*
X166940000Y-92620000D03*
X167340000Y-92620000D03*
X167740000Y-92620000D03*
D34*
X168140000Y-92620000D03*
D35*
X168640000Y-92120000D03*
D30*
X168640000Y-91720000D03*
X168640000Y-91320000D03*
X168640000Y-90920000D03*
X168640000Y-90520000D03*
D36*
X168640000Y-90120000D03*
D37*
X168140000Y-89620000D03*
D33*
X167740000Y-89620000D03*
X167340000Y-89620000D03*
X166940000Y-89620000D03*
X166540000Y-89620000D03*
D38*
X166140000Y-89620000D03*
%TD*%
D20*
%TO.C,C97*%
X179905000Y-106707500D03*
X180865000Y-106707500D03*
%TD*%
D39*
%TO.C,D2*%
X94355000Y-156420000D03*
X95325000Y-156420000D03*
%TD*%
D21*
%TO.C,SW5*%
X199110000Y-83532500D03*
X195710000Y-83532500D03*
%TD*%
D40*
%TO.C,J33*%
X196035000Y-136132500D03*
X192235000Y-136132500D03*
X188335000Y-136132500D03*
X184485000Y-136132500D03*
X180535000Y-136182500D03*
X176385000Y-136082500D03*
X172135000Y-135982500D03*
%TD*%
D41*
%TO.C,SW1*%
X178810000Y-41870000D03*
X178810000Y-45270000D03*
%TD*%
D13*
%TO.C,R10*%
X162780000Y-84910000D03*
X161760000Y-84910000D03*
%TD*%
D41*
%TO.C,SW4*%
X129160000Y-90495000D03*
X129160000Y-87095000D03*
%TD*%
D19*
%TO.C,R28*%
X202760000Y-60645000D03*
X202760000Y-61665000D03*
%TD*%
D10*
%TO.C,R30*%
X139440000Y-79210000D03*
X140460000Y-79210000D03*
%TD*%
D17*
%TO.C,J29*%
X152950000Y-46780000D03*
X156150000Y-46780000D03*
X159300000Y-46780000D03*
%TD*%
D15*
%TO.C,D13*%
X170150000Y-49210000D03*
X169180000Y-49210000D03*
%TD*%
D19*
%TO.C,R56*%
X142550000Y-78680000D03*
X142550000Y-79700000D03*
%TD*%
D12*
%TO.C,C35*%
X74300000Y-128680000D03*
X74300000Y-135980000D03*
%TD*%
D25*
%TO.C,U22*%
X182610000Y-41285000D03*
X182610000Y-42555000D03*
X182610000Y-43825000D03*
X182610000Y-45095000D03*
X182610000Y-46365000D03*
X182610000Y-47635000D03*
X182610000Y-48905000D03*
X182610000Y-50175000D03*
X182610000Y-51445000D03*
X182610000Y-52715000D03*
X182610000Y-53985000D03*
X182610000Y-55255000D03*
X182610000Y-56525000D03*
X182610000Y-57795000D03*
D24*
X185650000Y-59045000D03*
X186920000Y-59045000D03*
X188190000Y-59045000D03*
X189460000Y-59045000D03*
X190730000Y-59045000D03*
X192000000Y-59045000D03*
X193270000Y-59045000D03*
X194540000Y-59045000D03*
X195810000Y-59045000D03*
X197080000Y-59045000D03*
D25*
X200110000Y-57795000D03*
X200110000Y-56525000D03*
X200110000Y-55255000D03*
X200110000Y-53985000D03*
X200110000Y-52715000D03*
X200110000Y-51445000D03*
X200110000Y-50175000D03*
X200110000Y-48905000D03*
X200110000Y-47635000D03*
X200110000Y-46365000D03*
X200110000Y-45095000D03*
X200110000Y-43825000D03*
X200110000Y-42555000D03*
X200110000Y-41285000D03*
D26*
X188460000Y-47605000D03*
X188460000Y-49005000D03*
X188460000Y-50405000D03*
X189860000Y-47605000D03*
X189860000Y-49005000D03*
X189860000Y-50405000D03*
X191260000Y-47605000D03*
X191260000Y-49005000D03*
X191260000Y-50405000D03*
%TD*%
D12*
%TO.C,C56*%
X120070000Y-128630000D03*
X120070000Y-135930000D03*
%TD*%
D17*
%TO.C,J13*%
X141910000Y-54470000D03*
X144910000Y-54470000D03*
X147960000Y-54520000D03*
%TD*%
D14*
%TO.C,J6*%
X206185000Y-43045000D03*
X206185000Y-44895000D03*
X206185000Y-46745000D03*
X206185000Y-48595000D03*
X206185000Y-50445000D03*
X206185000Y-52295000D03*
X206185000Y-54145000D03*
%TD*%
D16*
%TO.C,U12*%
X190260000Y-128957500D03*
X192260000Y-128957500D03*
X194260000Y-128957500D03*
X196260000Y-128957500D03*
X198260000Y-128957500D03*
X200260000Y-128957500D03*
X202260000Y-128957500D03*
X204260000Y-128957500D03*
X204260000Y-112957500D03*
X202260000Y-112957500D03*
X200260000Y-112957500D03*
X198260000Y-112957500D03*
X196260000Y-112957500D03*
X194260000Y-112957500D03*
X192260000Y-112957500D03*
X190260000Y-112957500D03*
%TD*%
D13*
%TO.C,R73*%
X180710000Y-82460000D03*
X179690000Y-82460000D03*
%TD*%
D17*
%TO.C,J31*%
X152880000Y-54720000D03*
X155830000Y-54820000D03*
X158830000Y-54920000D03*
%TD*%
D20*
%TO.C,C52*%
X170300000Y-90270000D03*
X171260000Y-90270000D03*
%TD*%
D17*
%TO.C,J4*%
X129760000Y-42720000D03*
X132760000Y-42720000D03*
X136060000Y-42720000D03*
%TD*%
D42*
%TO.C,LS1*%
X187870000Y-76290000D03*
X187870000Y-69290000D03*
X180870000Y-76290000D03*
X180870000Y-69290000D03*
%TD*%
D13*
%TO.C,R92*%
X171280000Y-92050000D03*
X170260000Y-92050000D03*
%TD*%
D11*
%TO.C,C93*%
X149960000Y-94790000D03*
X149000000Y-94790000D03*
%TD*%
D23*
%TO.C,C60*%
X195110000Y-76430000D03*
X202410000Y-76430000D03*
%TD*%
D10*
%TO.C,R54*%
X140690000Y-68350000D03*
X141710000Y-68350000D03*
%TD*%
D17*
%TO.C,J7*%
X129485000Y-46420000D03*
X132885000Y-46420000D03*
X136385000Y-46420000D03*
%TD*%
D12*
%TO.C,C47*%
X101660000Y-128560000D03*
X101660000Y-135860000D03*
%TD*%
D21*
%TO.C,SW3*%
X145760000Y-103195000D03*
X142360000Y-103195000D03*
%TD*%
D43*
%TO.C,Q4*%
X166095000Y-79880000D03*
X166095000Y-81780000D03*
X167970000Y-80830000D03*
%TD*%
D17*
%TO.C,J9*%
X141635000Y-42620000D03*
X144835000Y-42670000D03*
X147885000Y-42720000D03*
%TD*%
D13*
%TO.C,R93*%
X170215000Y-50650000D03*
X169195000Y-50650000D03*
%TD*%
D18*
%TO.C,C89*%
X177890000Y-47760000D03*
X177890000Y-46800000D03*
%TD*%
D17*
%TO.C,J11*%
X130060000Y-54595000D03*
X133010000Y-54595000D03*
X136010000Y-54595000D03*
%TD*%
M02*
