M48
; DRILL file {KiCad 7.0.10} date 
; FORMAT={-:-/ absolute / inch / decimal}
; #@! TF.CreationDate,2024-12-13T01:24:46+05:30
; #@! TF.GenerationSoftware,Kicad,Pcbnew,7.0.10
; #@! TF.FileFunction,Plated,1,2,PTH
FMAT,2
INCH
; #@! TA.AperFunction,Plated,PTH,ViaDrill
T1C0.0059
; #@! TA.AperFunction,Plated,PTH,ViaDrill
T2C0.0063
; #@! TA.AperFunction,Plated,PTH,ViaDrill
T3C0.0157
; #@! TA.AperFunction,Plated,PTH,ComponentDrill
T4C0.0276
; #@! TA.AperFunction,Plated,PTH,ComponentDrill
T5C0.0315
; #@! TA.AperFunction,Plated,PTH,ComponentDrill
T6C0.0394
; #@! TA.AperFunction,Plated,PTH,ComponentDrill
T7C0.0400
; #@! TA.AperFunction,Plated,PTH,ComponentDrill
T8C0.1063
; #@! TA.AperFunction,Plated,PTH,ComponentDrill
T9C0.1083
%
G90
G05
T1
X4.9854Y-3.5169
X5.0697Y-3.6366
X5.5508Y-3.0386
X5.5567Y-3.0772
X7.6154Y-2.4709
T2
X3.8551Y-5.6539
X4.5244Y-4.9823
X4.7843Y-1.6504
X4.8618Y-1.7114
X4.8835Y-1.6602
X4.9394Y-1.6469
X4.9961Y-1.7913
X5.0394Y-1.7484
X5.0559Y-1.6205
X5.1031Y-5.2756
X5.1134Y-2.4402
X5.1299Y-2.6929
X5.1339Y-3.3705
X5.2075Y-4.5094
X5.2134Y-2.4177
X5.2398Y-3.048
X5.2508Y-3.1346
X5.2972Y-3.7992
X5.3488Y-2.3839
X5.3748Y-2.3346
X5.4193Y-3.1626
X5.4272Y-3.3992
X5.4508Y-3.5823
X5.4516Y-1.8827
X5.4976Y-3.3059
X5.5028Y-1.7472
X5.5118Y-4.5909
X5.5244Y-2.3831
X5.5409Y-2.639
X5.5587Y-3.4843
X5.5642Y-3.3996
X5.5661Y-3.1378
X5.5679Y-3.3008
X5.6126Y-4.5858
X5.6165Y-2.2654
X5.6217Y-3.1819
X5.6413Y-2.065
X5.6437Y-3.0311
X5.6602Y-2.8315
X5.6618Y-3.0953
X5.7429Y-3.511
X5.7461Y-3.1783
X5.7504Y-3.7358
X5.7591Y-5.4496
X5.7638Y-4.8657
X5.7646Y-1.7512
X5.7665Y-1.9134
X5.7823Y-2.7307
X5.8126Y-5.4622
X5.8335Y-3.4858
X5.8504Y-2.4327
X5.8598Y-3.085
X5.8846Y-2.3539
X5.8882Y-3.0346
X5.8969Y-3.473
X5.898Y-1.7583
X5.9Y-2.2028
X5.9327Y-3.1268
X5.9409Y-3.5354
X5.9543Y-4.824
X5.9894Y-3.2028
X5.9917Y-2.2465
X5.9933Y-2.3031
X6.0094Y-4.5232
X6.0291Y-3.3709
X6.1083Y-3.3646
X6.2043Y-1.7406
X6.261Y-2.252
X6.3524Y-3.4941
X6.3618Y-3.8496
X6.363Y-3.4602
X6.3729Y-3.4358
X6.3984Y-3.7417
X6.403Y-3.6258
X6.4386Y-3.2622
X6.4508Y-3.4189
X6.4697Y-3.1953
X6.5016Y-3.3165
X6.5315Y-2.0783
X6.5902Y-3.285
X6.6Y-2.1941
X6.6157Y-1.876
X6.7589Y-3.7557
X6.7913Y-3.5697
X6.7929Y-3.6551
X6.8673Y-4.4543
X6.9335Y-1.7382
X7.1063Y-2.4693
X7.1461Y-4.4535
X7.2106Y-4.4181
X7.5689Y-2.4197
X7.6037Y-1.927
X7.6154Y-2.5374
X7.7083Y-2.0004
X7.7213Y-2.5689
X7.9606Y-2.098
X7.9614Y-2.1413
X8.0063Y-2.0776
X8.0492Y-2.0594
X8.0614Y-2.3642
T3
X2.7461Y-5.2465
X2.9343Y-5.528
X2.9854Y-5.7075
X3.174Y-4.9898
X3.1929Y-5.2146
X3.3177Y-4.4701
X3.4122Y-5.2295
X3.4866Y-5.4953
X3.8004Y-5.9933
X3.8295Y-6.1303
X3.8957Y-5.1969
X3.9268Y-5.5024
X4.1429Y-4.4346
X4.1429Y-4.6358
X4.4669Y-5.2661
X4.5283Y-5.4921
X4.9657Y-4.5917
X5.022Y-4.7929
X5.078Y-5.1087
X5.1378Y-2.8083
X5.151Y-3.177
X5.1748Y-1.9189
X5.1811Y-2.0693
X5.2264Y-4.8091
X5.2461Y-5.1197
X5.273Y-1.9122
X5.3094Y-1.7518
X5.3291Y-3.3606
X5.3898Y-3.3819
X5.3945Y-3.7043
X5.4465Y-3.7433
X5.4709Y-2.6587
X5.4772Y-3.6311
X5.4787Y-3.4898
X5.4823Y-3.8583
X5.5047Y-3.5327
X5.5189Y-5.389
X5.522Y-5.1004
X5.528Y-2.2799
X5.5287Y-4.9445
X5.5315Y-5.2547
X5.6646Y-3.3327
X5.6969Y-2.2815
X5.7138Y-5.1516
X5.7417Y-4.1953
X5.765Y-3.3354
X5.7839Y-3.1626
X5.8165Y-3.9992
X5.8461Y-4.2976
X5.8567Y-3.6496
X5.8732Y-3.8606
X5.8874Y-3.5992
X5.898Y-2.2917
X5.9122Y-4.0878
X5.9843Y-3.8717
X6.0Y-3.7295
X6.0024Y-3.6831
X6.0039Y-4.0051
X6.0134Y-4.3701
X6.0402Y-3.7795
X6.0563Y-3.2886
X6.061Y-3.0858
X6.063Y-2.8134
X6.0646Y-3.4398
X6.078Y-2.3051
X6.0811Y-3.6736
X6.1Y-3.2654
X6.115Y-3.1957
X6.1343Y-4.3406
X6.1697Y-1.9157
X6.1717Y-2.0803
X6.1843Y-3.713
X6.2Y-3.361
X6.2087Y-3.1787
X6.2449Y-3.1339
X6.2677Y-4.6276
X6.2858Y-3.0441
X6.3134Y-2.2783
X6.3217Y-2.0559
X6.3638Y-1.9358
X6.3933Y-2.248
X6.4173Y-2.0547
X6.4335Y-2.313
X6.4606Y-3.6831
X6.523Y-4.2769
X6.5248Y-3.4102
X6.5268Y-4.6811
X6.5795Y-3.3803
X6.6197Y-4.3232
X6.6201Y-1.9205
X6.6394Y-4.7374
X6.6638Y-3.0177
X6.6909Y-3.1421
X6.7043Y-3.6882
X6.7213Y-4.687
X6.7417Y-4.1965
X6.8276Y-4.5756
X6.8866Y-3.5287
X6.9457Y-4.802
X6.9614Y-4.4283
X6.9719Y-4.3399
X6.9799Y-5.2339
X6.9915Y-4.0564
X7.0008Y-3.365
X7.0406Y-4.6862
X7.0594Y-3.5534
X7.0803Y-1.9933
X7.0831Y-4.1358
X7.088Y-1.9319
X7.0902Y-4.5697
X7.1201Y-4.687
X7.1831Y-4.8256
X7.1858Y-5.1863
X7.2041Y-3.8704
X7.2043Y-4.524
X7.2043Y-5.0181
X7.2455Y-3.5318
X7.2496Y-4.7327
X7.2594Y-4.6433
X7.2602Y-3.6686
X7.2638Y-4.4807
X7.2839Y-4.3605
X7.2848Y-1.6317
X7.3075Y-3.644
X7.3154Y-2.8776
X7.326Y-2.4787
X7.3262Y-1.7341
X7.3539Y-4.5472
X7.3551Y-5.1142
X7.3626Y-3.9964
X7.3695Y-3.893
X7.3833Y-3.5269
X7.3833Y-4.2208
X7.3874Y-4.6508
X7.399Y-4.5023
X7.4039Y-4.6932
X7.4413Y-4.0298
X7.4679Y-3.5269
X7.4736Y-1.776
X7.4797Y-4.331
X7.4925Y-4.2001
X7.4974Y-3.9029
X7.5122Y-3.3576
X7.5339Y-1.7124
X7.5378Y-4.0288
X7.5388Y-5.1863
X7.5427Y-4.8221
X7.5787Y-3.9331
X7.5811Y-4.6164
X7.5998Y-3.6027
X7.6018Y-4.2227
X7.6087Y-3.5239
X7.6234Y-4.3133
X7.6362Y-4.0347
X7.6382Y-4.8733
X7.6776Y-3.5977
X7.6925Y-4.6634
X7.6972Y-4.1991
X7.7258Y-4.9334
X7.7356Y-3.9875
X7.7415Y-4.3507
X7.7602Y-2.2094
X7.774Y-4.6627
X7.777Y-1.736
X7.7819Y-1.8089
X7.7829Y-3.5032
X7.7848Y-1.8807
X7.7927Y-2.1278
X7.7927Y-5.1784
X7.7957Y-4.3221
X7.8262Y-4.2552
X7.8498Y-5.2129
X7.8518Y-3.9964
X7.8783Y-4.5338
X7.8852Y-4.9964
X7.8921Y-3.4954
X7.9423Y-4.3428
X7.9512Y-4.5456
X7.9709Y-1.9368
X7.9817Y-1.7026
X7.9915Y-2.5047
X8.0043Y-1.8256
X8.0427Y-4.5584
X8.0663Y-2.4663
T5
X3.4591Y-6.0622
X3.4591Y-6.1409
X3.4591Y-6.2197
X4.0177Y-6.0669
X4.0177Y-6.1457
X4.0177Y-6.2244
T6
X2.3986Y-4.2035
X2.4045Y-4.8
X2.4951Y-4.2
X2.4951Y-4.7996
X2.5837Y-4.802
X2.5856Y-4.2016
X2.8002Y-4.8033
X2.8022Y-4.2016
X2.8951Y-4.1996
X2.8951Y-4.7992
X2.9892Y-4.802
X2.9931Y-4.2016
X3.3167Y-4.2035
X3.3226Y-4.8
X3.4132Y-4.2
X3.4132Y-4.7996
X3.5018Y-4.802
X3.5037Y-4.2016
X3.7183Y-4.8033
X3.7203Y-4.2016
X3.8132Y-4.1996
X3.8132Y-4.7992
X3.9073Y-4.802
X3.9112Y-4.2016
X4.2348Y-4.2035
X4.2407Y-4.8
X4.3313Y-4.2
X4.3313Y-4.7996
X4.4199Y-4.802
X4.4219Y-4.2016
X4.6364Y-4.8033
X4.6384Y-4.2016
X4.7313Y-4.1996
X4.7313Y-4.7992
X4.8254Y-4.802
X4.8293Y-4.2016
X5.1094Y-4.4315
X5.1872Y-2.5333
X5.1886Y-4.4315
X5.2031Y-2.9531
X5.2669Y-4.4315
X5.2872Y-2.5333
X5.3031Y-2.9531
X5.3872Y-2.5333
X5.4031Y-2.9531
X5.4872Y-2.5333
X5.5031Y-2.9531
X5.5872Y-2.5333
X5.6031Y-2.9531
X5.6872Y-2.5333
X5.7031Y-2.9531
X5.7079Y-4.4295
X5.7872Y-2.5333
X5.7886Y-4.4315
X5.8031Y-2.9531
X5.8693Y-4.4295
X5.8872Y-2.5333
X5.9031Y-2.9531
X5.9872Y-2.5333
X6.0031Y-2.9531
X6.0872Y-2.5333
X6.1031Y-2.9531
X6.8311Y-3.1079
X6.8311Y-3.2693
X6.8331Y-2.5094
X6.8331Y-2.5886
X6.8331Y-2.6669
X6.8331Y-3.1886
T7
X2.6222Y-1.8482
X2.6222Y-1.9482
X2.7222Y-1.8482
X2.7222Y-1.9482
X2.8222Y-1.8482
X2.8222Y-1.9482
X2.9222Y-1.8482
X2.9222Y-1.9482
X3.0222Y-1.8482
X3.0222Y-1.9482
X3.1222Y-1.8482
X3.1222Y-1.9482
X3.2222Y-1.8482
X3.2222Y-1.9482
X3.3222Y-1.8482
X3.3222Y-1.9482
X3.4222Y-1.8482
X3.4222Y-1.9482
X3.5222Y-1.8482
X3.5222Y-1.9482
X3.6222Y-1.8482
X3.6222Y-1.9482
X3.7222Y-1.8482
X3.7222Y-1.9482
X3.8222Y-1.8482
X3.8222Y-1.9482
X3.9222Y-1.8482
X3.9222Y-1.9482
X4.0222Y-1.8482
X4.0222Y-1.9482
X4.1222Y-1.8482
X4.1222Y-1.9482
X4.2222Y-1.8482
X4.2222Y-1.9482
X4.3222Y-1.8482
X4.3222Y-1.9482
X4.4222Y-1.8482
X4.4222Y-1.9482
X4.5222Y-1.8482
X4.5222Y-1.9482
T8
X2.7398Y-5.9803
X3.0232Y-5.9803
X4.452Y-6.0083
X4.7354Y-6.0083
T9
X2.4305Y-1.8982
X2.4305Y-3.8274
X4.714Y-1.8982
X4.714Y-3.8274
T4
G00X2.6157Y-6.2362
M15
G01X2.6157Y-6.1969
M16
G05
G00X3.1472Y-6.2362
M15
G01X3.1472Y-6.1969
M16
G05
G00X4.328Y-6.2642
M15
G01X4.328Y-6.2248
M16
G05
G00X4.8594Y-6.2642
M15
G01X4.8594Y-6.2248
M16
G05
M30
