%TF.GenerationSoftware,KiCad,Pcbnew,7.0.10*%
%TF.CreationDate,2024-12-05T21:17:43+05:30*%
%TF.ProjectId,remote_v2,72656d6f-7465-45f7-9632-2e6b69636164,rev?*%
%TF.SameCoordinates,Original*%
%TF.FileFunction,Soldermask,Bot*%
%TF.FilePolarity,Negative*%
%FSLAX46Y46*%
G04 Gerber Fmt 4.6, Leading zero omitted, Abs format (unit mm)*
G04 Created by KiCad (PCBNEW 7.0.10) date 2024-12-05 21:17:43*
%MOMM*%
%LPD*%
G01*
G04 APERTURE LIST*
G04 Aperture macros list*
%AMRoundRect*
0 Rectangle with rounded corners*
0 $1 Rounding radius*
0 $2 $3 $4 $5 $6 $7 $8 $9 X,Y pos of 4 corners*
0 Add a 4 corners polygon primitive as box body*
4,1,4,$2,$3,$4,$5,$6,$7,$8,$9,$2,$3,0*
0 Add four circle primitives for the rounded corners*
1,1,$1+$1,$2,$3*
1,1,$1+$1,$4,$5*
1,1,$1+$1,$6,$7*
1,1,$1+$1,$8,$9*
0 Add four rect primitives between the rounded corners*
20,1,$1+$1,$2,$3,$4,$5,0*
20,1,$1+$1,$4,$5,$6,$7,0*
20,1,$1+$1,$6,$7,$8,$9,0*
20,1,$1+$1,$8,$9,$2,$3,0*%
G04 Aperture macros list end*
%ADD10RoundRect,0.102000X1.858000X1.858000X-1.858000X1.858000X-1.858000X-1.858000X1.858000X-1.858000X0*%
%ADD11C,3.920000*%
%ADD12O,1.404000X2.604000*%
%ADD13R,2.500000X1.500000*%
%ADD14O,2.500000X1.500000*%
%ADD15C,0.800000*%
%ADD16O,1.700000X1.700000*%
%ADD17R,1.700000X1.700000*%
%ADD18RoundRect,0.102000X-0.762000X-0.762000X0.762000X-0.762000X0.762000X0.762000X-0.762000X0.762000X0*%
%ADD19C,1.728000*%
%ADD20C,6.404000*%
%ADD21RoundRect,0.140000X-0.140000X-0.170000X0.140000X-0.170000X0.140000X0.170000X-0.140000X0.170000X0*%
%ADD22RoundRect,0.140000X0.140000X0.170000X-0.140000X0.170000X-0.140000X-0.170000X0.140000X-0.170000X0*%
%ADD23RoundRect,0.135000X0.135000X0.185000X-0.135000X0.185000X-0.135000X-0.185000X0.135000X-0.185000X0*%
%ADD24RoundRect,0.135000X0.185000X-0.135000X0.185000X0.135000X-0.185000X0.135000X-0.185000X-0.135000X0*%
%ADD25C,1.500000*%
%ADD26RoundRect,0.140000X-0.170000X0.140000X-0.170000X-0.140000X0.170000X-0.140000X0.170000X0.140000X0*%
%ADD27RoundRect,0.140000X0.170000X-0.140000X0.170000X0.140000X-0.170000X0.140000X-0.170000X-0.140000X0*%
%ADD28RoundRect,0.135000X-0.135000X-0.185000X0.135000X-0.185000X0.135000X0.185000X-0.135000X0.185000X0*%
%ADD29R,2.000000X1.500000*%
%ADD30R,2.000000X3.800000*%
%ADD31RoundRect,0.135000X-0.185000X0.135000X-0.185000X-0.135000X0.185000X-0.135000X0.185000X0.135000X0*%
%ADD32R,0.900000X1.500000*%
%ADD33R,1.500000X0.900000*%
%ADD34R,3.800000X3.800000*%
%ADD35RoundRect,0.150000X-0.587500X-0.150000X0.587500X-0.150000X0.587500X0.150000X-0.587500X0.150000X0*%
%ADD36RoundRect,0.222222X0.577778X0.627778X-0.577778X0.627778X-0.577778X-0.627778X0.577778X-0.627778X0*%
G04 APERTURE END LIST*
D10*
%TO.C,J17*%
X113080000Y-152610000D03*
D11*
X120280000Y-152610000D03*
D12*
X109930000Y-158610000D03*
X123430000Y-158610000D03*
%TD*%
D13*
%TO.C,SW7*%
X87860000Y-157980000D03*
D14*
X87860000Y-155980000D03*
X87860000Y-153980000D03*
%TD*%
D15*
%TO.C,SW6*%
X184110000Y-107707500D03*
%TD*%
D10*
%TO.C,J25*%
X69590000Y-151900000D03*
D11*
X76790000Y-151900000D03*
D12*
X66440000Y-157900000D03*
X79940000Y-157900000D03*
%TD*%
D15*
%TO.C,SW2*%
X204235000Y-58070000D03*
%TD*%
D16*
%TO.C,U6*%
X71125000Y-122005000D03*
D17*
X73535000Y-121900000D03*
D16*
X75925000Y-121970000D03*
X61075000Y-121920000D03*
X63375000Y-121910000D03*
X65625000Y-121970000D03*
X60925000Y-106770000D03*
D17*
X63375000Y-106680000D03*
D16*
X65675000Y-106720000D03*
X71175000Y-106720000D03*
X73535000Y-106670000D03*
X76025000Y-106720000D03*
%TD*%
D17*
%TO.C,J2*%
X154615000Y-64345000D03*
D16*
X152075000Y-64345000D03*
X149535000Y-64345000D03*
X146995000Y-64345000D03*
X144455000Y-64345000D03*
X141915000Y-64345000D03*
X139375000Y-64345000D03*
X136835000Y-64345000D03*
X134295000Y-64345000D03*
X131755000Y-64345000D03*
%TD*%
D15*
%TO.C,SW5*%
X197410000Y-83532500D03*
%TD*%
%TO.C,SW1*%
X178810000Y-43570000D03*
%TD*%
D16*
%TO.C,U15*%
X94445000Y-122005000D03*
D17*
X96855000Y-121900000D03*
D16*
X99245000Y-121970000D03*
X84395000Y-121920000D03*
X86695000Y-121910000D03*
X88945000Y-121970000D03*
X84245000Y-106770000D03*
D17*
X86695000Y-106680000D03*
D16*
X88995000Y-106720000D03*
X94495000Y-106720000D03*
X96855000Y-106670000D03*
X99345000Y-106720000D03*
%TD*%
D15*
%TO.C,SW4*%
X129160000Y-88795000D03*
%TD*%
D17*
%TO.C,J3*%
X155020000Y-75010000D03*
D16*
X152480000Y-75010000D03*
X149940000Y-75010000D03*
X147400000Y-75010000D03*
X144860000Y-75010000D03*
X142320000Y-75010000D03*
X139780000Y-75010000D03*
X137240000Y-75010000D03*
X134700000Y-75010000D03*
X132160000Y-75010000D03*
%TD*%
%TO.C,U16*%
X117765000Y-122005000D03*
D17*
X120175000Y-121900000D03*
D16*
X122565000Y-121970000D03*
X107715000Y-121920000D03*
X110015000Y-121910000D03*
X112265000Y-121970000D03*
X107565000Y-106770000D03*
D17*
X110015000Y-106680000D03*
D16*
X112315000Y-106720000D03*
X117815000Y-106720000D03*
X120175000Y-106670000D03*
X122665000Y-106720000D03*
%TD*%
D13*
%TO.C,SW8*%
X102050000Y-158100000D03*
D14*
X102050000Y-156100000D03*
X102050000Y-154100000D03*
%TD*%
D18*
%TO.C,U2*%
X114865000Y-49485000D03*
D19*
X114865000Y-46945000D03*
X112325000Y-49485000D03*
X112325000Y-46945000D03*
X109785000Y-49485000D03*
X109785000Y-46945000D03*
X107245000Y-49485000D03*
X107245000Y-46945000D03*
X104705000Y-49485000D03*
X104705000Y-46945000D03*
X102165000Y-49485000D03*
X102165000Y-46945000D03*
X99625000Y-49485000D03*
X99625000Y-46945000D03*
X97085000Y-49485000D03*
X97085000Y-46945000D03*
X94545000Y-49485000D03*
X94545000Y-46945000D03*
X92005000Y-49485000D03*
X92005000Y-46945000D03*
X89465000Y-49485000D03*
X89465000Y-46945000D03*
X86925000Y-49485000D03*
X86925000Y-46945000D03*
X84385000Y-49485000D03*
X84385000Y-46945000D03*
X81845000Y-49485000D03*
X81845000Y-46945000D03*
X79305000Y-49485000D03*
X79305000Y-46945000D03*
X76765000Y-49485000D03*
X76765000Y-46945000D03*
X74225000Y-49485000D03*
X74225000Y-46945000D03*
X71685000Y-49485000D03*
X71685000Y-46945000D03*
X69145000Y-49485000D03*
X69145000Y-46945000D03*
X66605000Y-49485000D03*
X66605000Y-46945000D03*
D20*
X119735000Y-48215000D03*
X61735000Y-48215000D03*
X61735000Y-97215000D03*
X119735000Y-97215000D03*
%TD*%
D15*
%TO.C,SW3*%
X144060000Y-103195000D03*
%TD*%
D16*
%TO.C,U17*%
X133780000Y-112560000D03*
X131790000Y-112560000D03*
X129780000Y-112560000D03*
X149080000Y-112510000D03*
D17*
X147030000Y-112560000D03*
D16*
X144980000Y-112510000D03*
%TD*%
D21*
%TO.C,C32*%
X149110000Y-135130000D03*
X150070000Y-135130000D03*
%TD*%
%TO.C,C96*%
X195235000Y-90232500D03*
X196195000Y-90232500D03*
%TD*%
D16*
%TO.C,U21*%
X173560000Y-67740000D03*
X173560000Y-65750000D03*
X173560000Y-63740000D03*
X173510000Y-83040000D03*
D17*
X173560000Y-80990000D03*
D16*
X173510000Y-78940000D03*
%TD*%
D22*
%TO.C,C92*%
X148800000Y-104470000D03*
X147840000Y-104470000D03*
%TD*%
D23*
%TO.C,R24*%
X195870000Y-47695000D03*
X194850000Y-47695000D03*
%TD*%
D24*
%TO.C,R5*%
X128742500Y-128220000D03*
X128742500Y-127200000D03*
%TD*%
D21*
%TO.C,C39*%
X149130000Y-133530000D03*
X150090000Y-133530000D03*
%TD*%
D25*
%TO.C,J26*%
X108500000Y-42320000D03*
X106650000Y-42320000D03*
X104800000Y-42320000D03*
X102950000Y-42320000D03*
%TD*%
D22*
%TO.C,C5*%
X147990000Y-128860000D03*
X147030000Y-128860000D03*
%TD*%
D26*
%TO.C,C10*%
X130460000Y-127230000D03*
X130460000Y-128190000D03*
%TD*%
D27*
%TO.C,C3*%
X127050000Y-128220000D03*
X127050000Y-127260000D03*
%TD*%
D28*
%TO.C,R4*%
X131910000Y-115970000D03*
X132930000Y-115970000D03*
%TD*%
D29*
%TO.C,U4*%
X132800000Y-132920000D03*
X132800000Y-135220000D03*
D30*
X126500000Y-135220000D03*
D29*
X132800000Y-137520000D03*
%TD*%
D21*
%TO.C,C38*%
X149190000Y-123840000D03*
X150150000Y-123840000D03*
%TD*%
D26*
%TO.C,C90*%
X187060000Y-41515000D03*
X187060000Y-42475000D03*
%TD*%
D31*
%TO.C,R95*%
X197635000Y-90247500D03*
X197635000Y-91267500D03*
%TD*%
D32*
%TO.C,U23*%
X150315000Y-99820000D03*
X149045000Y-99820000D03*
X147775000Y-99820000D03*
X146505000Y-99820000D03*
X145235000Y-99820000D03*
X143965000Y-99820000D03*
X142695000Y-99820000D03*
X141425000Y-99820000D03*
X140155000Y-99820000D03*
X138885000Y-99820000D03*
X137615000Y-99820000D03*
X136345000Y-99820000D03*
X135075000Y-99820000D03*
X133805000Y-99820000D03*
D33*
X132555000Y-96780000D03*
X132555000Y-95510000D03*
X132555000Y-94240000D03*
X132555000Y-92970000D03*
X132555000Y-91700000D03*
X132555000Y-90430000D03*
X132555000Y-89160000D03*
X132555000Y-87890000D03*
X132555000Y-86620000D03*
X132555000Y-85350000D03*
D32*
X133805000Y-82320000D03*
X135075000Y-82320000D03*
X136345000Y-82320000D03*
X137615000Y-82320000D03*
X138885000Y-82320000D03*
X140155000Y-82320000D03*
X141425000Y-82320000D03*
X142695000Y-82320000D03*
X143965000Y-82320000D03*
X145235000Y-82320000D03*
X146505000Y-82320000D03*
X147775000Y-82320000D03*
X149045000Y-82320000D03*
X150315000Y-82320000D03*
D34*
X142595000Y-92570000D03*
%TD*%
D29*
%TO.C,U9*%
X137172500Y-121830000D03*
X137172500Y-119530000D03*
D30*
X143472500Y-119530000D03*
D29*
X137172500Y-117230000D03*
%TD*%
D28*
%TO.C,R2*%
X132270000Y-119450000D03*
X133290000Y-119450000D03*
%TD*%
D23*
%TO.C,R6*%
X148050000Y-135120000D03*
X147030000Y-135120000D03*
%TD*%
D35*
%TO.C,Q1*%
X128245000Y-119440000D03*
X128245000Y-117540000D03*
X130120000Y-118490000D03*
%TD*%
D36*
%TO.C,D1*%
X132822500Y-124490000D03*
X128822500Y-124490000D03*
%TD*%
D29*
%TO.C,U3*%
X137250000Y-137400000D03*
X137250000Y-135100000D03*
D30*
X143550000Y-135100000D03*
D29*
X137250000Y-132800000D03*
%TD*%
D28*
%TO.C,R34*%
X147860000Y-102820000D03*
X148880000Y-102820000D03*
%TD*%
D22*
%TO.C,C6*%
X148010000Y-130390000D03*
X147050000Y-130390000D03*
%TD*%
D21*
%TO.C,C40*%
X149170000Y-131970000D03*
X150130000Y-131970000D03*
%TD*%
D26*
%TO.C,C9*%
X132110000Y-127200000D03*
X132110000Y-128160000D03*
%TD*%
D28*
%TO.C,R27*%
X188475000Y-42345000D03*
X189495000Y-42345000D03*
%TD*%
%TO.C,R25*%
X194750000Y-43845000D03*
X195770000Y-43845000D03*
%TD*%
D22*
%TO.C,C4*%
X148010000Y-133535000D03*
X147050000Y-133535000D03*
%TD*%
D21*
%TO.C,C2*%
X147140000Y-125520000D03*
X148100000Y-125520000D03*
%TD*%
%TO.C,C44*%
X149220000Y-127190000D03*
X150180000Y-127190000D03*
%TD*%
D22*
%TO.C,C8*%
X148080000Y-127220000D03*
X147120000Y-127220000D03*
%TD*%
D21*
%TO.C,C42*%
X149180000Y-128870000D03*
X150140000Y-128870000D03*
%TD*%
D22*
%TO.C,C31*%
X201635000Y-124857500D03*
X200675000Y-124857500D03*
%TD*%
D29*
%TO.C,U1*%
X137190000Y-129590000D03*
X137190000Y-127290000D03*
D30*
X143490000Y-127290000D03*
D29*
X137190000Y-124990000D03*
%TD*%
D21*
%TO.C,C41*%
X149180000Y-130410000D03*
X150140000Y-130410000D03*
%TD*%
D22*
%TO.C,C7*%
X148000000Y-131970000D03*
X147040000Y-131970000D03*
%TD*%
D21*
%TO.C,C43*%
X149220000Y-125455000D03*
X150180000Y-125455000D03*
%TD*%
%TO.C,C36*%
X149070000Y-136630000D03*
X150030000Y-136630000D03*
%TD*%
M02*
