%TF.GenerationSoftware,KiCad,Pcbnew,7.0.10*%
%TF.CreationDate,2024-12-13T01:24:43+05:30*%
%TF.ProjectId,remote_v2,72656d6f-7465-45f7-9632-2e6b69636164,rev?*%
%TF.SameCoordinates,Original*%
%TF.FileFunction,Paste,Bot*%
%TF.FilePolarity,Positive*%
%FSLAX46Y46*%
G04 Gerber Fmt 4.6, Leading zero omitted, Abs format (unit mm)*
G04 Created by KiCad (PCBNEW 7.0.10) date 2024-12-13 01:24:43*
%MOMM*%
%LPD*%
G01*
G04 APERTURE LIST*
G04 Aperture macros list*
%AMRoundRect*
0 Rectangle with rounded corners*
0 $1 Rounding radius*
0 $2 $3 $4 $5 $6 $7 $8 $9 X,Y pos of 4 corners*
0 Add a 4 corners polygon primitive as box body*
4,1,4,$2,$3,$4,$5,$6,$7,$8,$9,$2,$3,0*
0 Add four circle primitives for the rounded corners*
1,1,$1+$1,$2,$3*
1,1,$1+$1,$4,$5*
1,1,$1+$1,$6,$7*
1,1,$1+$1,$8,$9*
0 Add four rect primitives between the rounded corners*
20,1,$1+$1,$2,$3,$4,$5,0*
20,1,$1+$1,$4,$5,$6,$7,0*
20,1,$1+$1,$6,$7,$8,$9,0*
20,1,$1+$1,$8,$9,$2,$3,0*%
G04 Aperture macros list end*
%ADD10RoundRect,0.140000X-0.140000X-0.170000X0.140000X-0.170000X0.140000X0.170000X-0.140000X0.170000X0*%
%ADD11RoundRect,0.140000X0.140000X0.170000X-0.140000X0.170000X-0.140000X-0.170000X0.140000X-0.170000X0*%
%ADD12RoundRect,0.135000X0.135000X0.185000X-0.135000X0.185000X-0.135000X-0.185000X0.135000X-0.185000X0*%
%ADD13RoundRect,0.135000X0.185000X-0.135000X0.185000X0.135000X-0.185000X0.135000X-0.185000X-0.135000X0*%
%ADD14C,1.500000*%
%ADD15RoundRect,0.140000X-0.170000X0.140000X-0.170000X-0.140000X0.170000X-0.140000X0.170000X0.140000X0*%
%ADD16RoundRect,0.140000X0.170000X-0.140000X0.170000X0.140000X-0.170000X0.140000X-0.170000X-0.140000X0*%
%ADD17RoundRect,0.135000X-0.135000X-0.185000X0.135000X-0.185000X0.135000X0.185000X-0.135000X0.185000X0*%
%ADD18R,2.000000X1.500000*%
%ADD19R,2.000000X3.800000*%
%ADD20RoundRect,0.135000X-0.185000X0.135000X-0.185000X-0.135000X0.185000X-0.135000X0.185000X0.135000X0*%
%ADD21R,0.900000X1.500000*%
%ADD22R,1.500000X0.900000*%
%ADD23R,0.900000X0.900000*%
%ADD24RoundRect,0.150000X-0.587500X-0.150000X0.587500X-0.150000X0.587500X0.150000X-0.587500X0.150000X0*%
%ADD25RoundRect,0.222222X0.577778X0.627778X-0.577778X0.627778X-0.577778X-0.627778X0.577778X-0.627778X0*%
G04 APERTURE END LIST*
D10*
%TO.C,C32*%
X149110000Y-135130000D03*
X150070000Y-135130000D03*
%TD*%
%TO.C,C96*%
X195235000Y-90232500D03*
X196195000Y-90232500D03*
%TD*%
D11*
%TO.C,C92*%
X148800000Y-104470000D03*
X147840000Y-104470000D03*
%TD*%
D12*
%TO.C,R24*%
X195870000Y-47695000D03*
X194850000Y-47695000D03*
%TD*%
D13*
%TO.C,R5*%
X128742500Y-128220000D03*
X128742500Y-127200000D03*
%TD*%
D10*
%TO.C,C39*%
X149130000Y-133530000D03*
X150090000Y-133530000D03*
%TD*%
D14*
%TO.C,J26*%
X108500000Y-42320000D03*
X106650000Y-42320000D03*
X104800000Y-42320000D03*
X102950000Y-42320000D03*
%TD*%
D11*
%TO.C,C5*%
X147990000Y-128860000D03*
X147030000Y-128860000D03*
%TD*%
D15*
%TO.C,C10*%
X130460000Y-127230000D03*
X130460000Y-128190000D03*
%TD*%
D16*
%TO.C,C3*%
X127050000Y-128220000D03*
X127050000Y-127260000D03*
%TD*%
D17*
%TO.C,R4*%
X131910000Y-115970000D03*
X132930000Y-115970000D03*
%TD*%
D18*
%TO.C,U4*%
X132800000Y-132920000D03*
X132800000Y-135220000D03*
D19*
X126500000Y-135220000D03*
D18*
X132800000Y-137520000D03*
%TD*%
D10*
%TO.C,C38*%
X149190000Y-123840000D03*
X150150000Y-123840000D03*
%TD*%
D15*
%TO.C,C90*%
X187060000Y-41515000D03*
X187060000Y-42475000D03*
%TD*%
D20*
%TO.C,R95*%
X197635000Y-90247500D03*
X197635000Y-91267500D03*
%TD*%
D21*
%TO.C,U23*%
X150315000Y-99820000D03*
X149045000Y-99820000D03*
X147775000Y-99820000D03*
X146505000Y-99820000D03*
X145235000Y-99820000D03*
X143965000Y-99820000D03*
X142695000Y-99820000D03*
X141425000Y-99820000D03*
X140155000Y-99820000D03*
X138885000Y-99820000D03*
X137615000Y-99820000D03*
X136345000Y-99820000D03*
X135075000Y-99820000D03*
X133805000Y-99820000D03*
D22*
X132555000Y-96780000D03*
X132555000Y-95510000D03*
X132555000Y-94240000D03*
X132555000Y-92970000D03*
X132555000Y-91700000D03*
X132555000Y-90430000D03*
X132555000Y-89160000D03*
X132555000Y-87890000D03*
X132555000Y-86620000D03*
X132555000Y-85350000D03*
D21*
X133805000Y-82320000D03*
X135075000Y-82320000D03*
X136345000Y-82320000D03*
X137615000Y-82320000D03*
X138885000Y-82320000D03*
X140155000Y-82320000D03*
X141425000Y-82320000D03*
X142695000Y-82320000D03*
X143965000Y-82320000D03*
X145235000Y-82320000D03*
X146505000Y-82320000D03*
X147775000Y-82320000D03*
X149045000Y-82320000D03*
X150315000Y-82320000D03*
D23*
X141195000Y-93970000D03*
X142595000Y-93970000D03*
X143995000Y-93970000D03*
X141195000Y-92570000D03*
X142595000Y-92570000D03*
X143995000Y-92570000D03*
X141195000Y-91170000D03*
X142595000Y-91170000D03*
X143995000Y-91170000D03*
%TD*%
D18*
%TO.C,U9*%
X137172500Y-121830000D03*
X137172500Y-119530000D03*
D19*
X143472500Y-119530000D03*
D18*
X137172500Y-117230000D03*
%TD*%
D17*
%TO.C,R2*%
X132270000Y-119450000D03*
X133290000Y-119450000D03*
%TD*%
D12*
%TO.C,R6*%
X148050000Y-135120000D03*
X147030000Y-135120000D03*
%TD*%
D24*
%TO.C,Q1*%
X128245000Y-119440000D03*
X128245000Y-117540000D03*
X130120000Y-118490000D03*
%TD*%
D25*
%TO.C,D1*%
X131790000Y-124590000D03*
X127790000Y-124590000D03*
%TD*%
D18*
%TO.C,U3*%
X137250000Y-137400000D03*
X137250000Y-135100000D03*
D19*
X143550000Y-135100000D03*
D18*
X137250000Y-132800000D03*
%TD*%
D17*
%TO.C,R34*%
X147860000Y-102820000D03*
X148880000Y-102820000D03*
%TD*%
D11*
%TO.C,C6*%
X148010000Y-130390000D03*
X147050000Y-130390000D03*
%TD*%
D10*
%TO.C,C40*%
X149170000Y-131970000D03*
X150130000Y-131970000D03*
%TD*%
D15*
%TO.C,C9*%
X132110000Y-127200000D03*
X132110000Y-128160000D03*
%TD*%
D17*
%TO.C,R27*%
X188475000Y-42345000D03*
X189495000Y-42345000D03*
%TD*%
%TO.C,R25*%
X194750000Y-43845000D03*
X195770000Y-43845000D03*
%TD*%
D11*
%TO.C,C4*%
X148010000Y-133535000D03*
X147050000Y-133535000D03*
%TD*%
D10*
%TO.C,C2*%
X147140000Y-125520000D03*
X148100000Y-125520000D03*
%TD*%
%TO.C,C44*%
X149220000Y-127190000D03*
X150180000Y-127190000D03*
%TD*%
D11*
%TO.C,C8*%
X148080000Y-127220000D03*
X147120000Y-127220000D03*
%TD*%
D10*
%TO.C,C42*%
X149180000Y-128870000D03*
X150140000Y-128870000D03*
%TD*%
D11*
%TO.C,C31*%
X201635000Y-124857500D03*
X200675000Y-124857500D03*
%TD*%
D18*
%TO.C,U1*%
X137190000Y-129590000D03*
X137190000Y-127290000D03*
D19*
X143490000Y-127290000D03*
D18*
X137190000Y-124990000D03*
%TD*%
D10*
%TO.C,C41*%
X149180000Y-130410000D03*
X150140000Y-130410000D03*
%TD*%
D11*
%TO.C,C7*%
X148000000Y-131970000D03*
X147040000Y-131970000D03*
%TD*%
D10*
%TO.C,C43*%
X149220000Y-125455000D03*
X150180000Y-125455000D03*
%TD*%
%TO.C,C36*%
X149070000Y-136630000D03*
X150030000Y-136630000D03*
%TD*%
M02*
